<svg width="41" height="40" viewBox="0 0 41 40" fill="none" xmlns="http://www.w3.org/2000/svg">
<g clip-path="url(#clip0_55709_2283)">
<path fill-rule="evenodd" clip-rule="evenodd" d="M40 31.6863C40 33.1905 38.7762 34.4142 37.2721 34.4142L36.4062 34.4142L36.4062 32.8517L37.2721 32.8517C37.9147 32.8517 38.4375 32.3289 38.4375 31.6863L38.4375 7.1875L1.64094 7.1875C1.61445 7.1875 1.58828 7.18609 1.5625 7.18352L1.5625 31.6863C1.5625 32.3289 2.08523 32.8517 2.72789 32.8517L3.59375 32.8517L3.59375 34.4142L2.72789 34.4142C1.22375 34.4142 -4.96066e-10 33.1905 -4.73584e-10 31.6863L0 3.90625C0 1.75234 1.75234 0 3.90625 0L36.0938 -5.34013e-10C38.2477 -5.6588e-10 40 1.75234 40 3.90625L40 31.6863ZM3.90625 1.5625C2.61391 1.5625 1.5625 2.61391 1.5625 3.90625L1.5625 5.62898C1.58828 5.62641 1.61445 5.625 1.64094 5.625L38.4375 5.625L38.4375 3.90625C38.4375 2.61391 37.3861 1.5625 36.0937 1.5625L3.90625 1.5625Z" fill="url(#paint0_linear_55709_2283)"/>
<path fill-rule="evenodd" clip-rule="evenodd" d="M3.59375 34.4142L3.59375 38.4375L0.78125 38.4375C0.349766 38.4375 -5.79717e-10 38.7873 -5.86165e-10 39.2188C-5.92613e-10 39.6502 0.349766 40 0.78125 40L39.2187 40C39.6502 40 40 39.6502 40 39.2187C40 38.7873 39.6502 38.4375 39.2187 38.4375L36.4062 38.4375L36.4062 34.4142L36.4062 32.8517L36.4062 20.8203C36.4062 20.3889 36.0565 20.0391 35.625 20.0391L30.625 20.0391C30.1935 20.0391 29.8437 20.3889 29.8437 20.8203L29.8437 24.7655C29.8437 25.197 30.1935 25.5468 30.625 25.5468C31.0565 25.5468 31.4062 25.197 31.4062 24.7655L31.4062 21.6016L34.8437 21.6016L34.8437 38.4375L31.4062 38.4375L31.4062 30.0195C31.4062 29.5881 31.0565 29.2383 30.625 29.2383C30.1935 29.2383 29.8437 29.5881 29.8437 30.0195L29.8437 38.4375L27.6562 38.4375L27.6562 28.5937C27.6562 28.1623 27.3065 27.8125 26.875 27.8125L21.875 27.8125C21.4435 27.8125 21.0937 28.1623 21.0937 28.5937L21.0937 38.4375L18.9062 38.4375L18.9062 21.9869C18.9062 21.5555 18.5565 21.2056 18.125 21.2056L13.125 21.2056C12.6935 21.2056 12.3437 21.5555 12.3437 21.9869L12.3437 38.4375L10.1562 38.4375L10.1562 30.625C10.1562 30.1936 9.80648 29.8437 9.375 29.8437L4.375 29.8437C3.94352 29.8437 3.59375 30.1936 3.59375 30.625L3.59375 32.8517L3.59375 34.4142ZM5.15625 38.4375L8.59375 38.4375L8.59375 31.4062L5.15625 31.4062L5.15625 38.4375ZM13.9062 38.4375L17.3437 38.4375L17.3437 22.7681L13.9062 22.7681L13.9062 38.4375ZM22.6562 38.4375L26.0937 38.4375L26.0937 29.375L22.6562 29.375L22.6562 38.4375Z" fill="url(#paint1_linear_55709_2283)"/>
<path d="M34.9993 2.8125L17.3481 2.8125C16.9167 2.8125 16.5669 3.16234 16.5669 3.59375C16.5669 4.02516 16.9167 4.375 17.3481 4.375L34.9993 4.375C35.4308 4.375 35.7806 4.02516 35.7806 3.59375C35.7806 3.16234 35.4308 2.8125 34.9993 2.8125Z" fill="url(#paint2_linear_55709_2283)"/>
<path d="M8.67588 3.04141C8.53057 2.89609 8.329 2.8125 8.12354 2.8125C7.91807 2.8125 7.7165 2.89602 7.57119 3.04141C7.42588 3.18672 7.34229 3.38828 7.34229 3.59375C7.34229 3.79922 7.42588 4.00078 7.57119 4.14602C7.7165 4.29141 7.91807 4.375 8.12354 4.375C8.329 4.375 8.53057 4.29141 8.67588 4.14602C8.82119 4.00078 8.90479 3.79922 8.90479 3.59375C8.90479 3.38828 8.82119 3.18672 8.67588 3.04141Z" fill="url(#paint3_linear_55709_2283)"/>
<path d="M5.55112 3.04141C5.40581 2.89609 5.20425 2.8125 4.99878 2.8125C4.79331 2.8125 4.59175 2.89602 4.44644 3.04141C4.30112 3.18672 4.21753 3.38828 4.21753 3.59375C4.21753 3.79922 4.30112 4.00078 4.44644 4.14602C4.59175 4.29141 4.79331 4.375 4.99878 4.375C5.20425 4.375 5.40581 4.29141 5.55112 4.14602C5.69644 4.00078 5.78003 3.79922 5.78003 3.59375C5.78003 3.38828 5.69644 3.18672 5.55112 3.04141Z" fill="url(#paint4_linear_55709_2283)"/>
<path d="M11.8006 3.04141C11.6553 2.89609 11.4545 2.8125 11.2483 2.8125C11.0428 2.8125 10.8413 2.89602 10.6959 3.04141C10.5506 3.18672 10.467 3.38828 10.467 3.59375C10.467 3.79922 10.5506 4.00078 10.6959 4.14602C10.8413 4.29141 11.0428 4.375 11.2483 4.375C11.4538 4.375 11.6553 4.29141 11.8006 4.14602C11.9459 4.00078 12.0295 3.79922 12.0295 3.59375C12.0295 3.38828 11.9459 3.18672 11.8006 3.04141Z" fill="url(#paint5_linear_55709_2283)"/>
<path d="M31.1766 26.9984C31.0313 26.8523 30.8297 26.7695 30.6243 26.7695C30.4188 26.7695 30.2172 26.8524 30.0719 26.9984C29.9266 27.1437 29.843 27.3453 29.843 27.5508C29.843 27.7563 29.9266 27.9578 30.0719 28.1031C30.2172 28.2484 30.4188 28.332 30.6243 28.332C30.8297 28.332 31.0313 28.2484 31.1766 28.1031C31.3219 27.9578 31.4055 27.7563 31.4055 27.5508C31.4055 27.3445 31.3219 27.1437 31.1766 26.9984Z" fill="url(#paint6_linear_55709_2283)"/>
<path d="M33.1237 10.6201C31.5728 10.6201 30.3112 11.8818 30.3112 13.4326C30.3112 14.0486 30.5108 14.6186 30.8479 15.0825L25.6585 20.2719C25.2558 20.049 24.7931 19.9217 24.3011 19.9217C23.8577 19.9217 23.4382 20.0252 23.0648 20.2087L17.6462 14.79C17.869 14.3873 17.9964 13.9246 17.9964 13.4326C17.9964 11.8818 16.7347 10.6201 15.1839 10.6201C13.633 10.6201 12.3714 11.8818 12.3714 13.4326C12.3714 13.9746 12.5259 14.4811 12.7926 14.9109L8.17912 19.5243C7.77639 19.3014 7.31373 19.1741 6.82178 19.1741C5.27092 19.1741 4.00928 20.4357 4.00928 21.9866C4.00928 23.5375 5.27092 24.7991 6.82178 24.7991C8.37264 24.7991 9.63428 23.5375 9.63428 21.9866C9.63428 21.4946 9.50693 21.0319 9.28404 20.6292L13.9526 15.9606C14.3247 16.1425 14.7426 16.245 15.1839 16.245C15.6758 16.245 16.1385 16.1177 16.5412 15.8948L21.9069 21.2604C21.6419 21.6893 21.4886 22.1939 21.4886 22.734C21.4886 24.2849 22.7502 25.5465 24.3011 25.5465C25.8519 25.5465 27.1136 24.2849 27.1136 22.734C27.1136 22.242 26.9862 21.7793 26.7633 21.3766L32.0919 16.0481C32.4116 16.1748 32.7595 16.2451 33.1237 16.2451C34.6745 16.2451 35.9362 14.9835 35.9362 13.4326C35.9362 11.8818 34.6745 10.6201 33.1237 10.6201ZM6.82186 23.2368C6.13264 23.2368 5.57186 22.676 5.57186 21.9868C5.57186 21.2975 6.13264 20.7368 6.82186 20.7368C7.51107 20.7368 8.07186 21.2975 8.07186 21.9868C8.07186 22.676 7.51107 23.2368 6.82186 23.2368ZM15.184 14.6826C14.4947 14.6826 13.934 14.1218 13.934 13.4326C13.934 12.7434 14.4947 12.1826 15.184 12.1826C15.8732 12.1826 16.434 12.7434 16.434 13.4326C16.434 14.1218 15.8732 14.6826 15.184 14.6826ZM24.3012 23.9842C23.6119 23.9842 23.0512 23.4234 23.0512 22.7342C23.0512 22.045 23.6119 21.4842 24.3012 21.4842C24.9904 21.4842 25.5512 22.045 25.5512 22.7342C25.5512 23.4234 24.9904 23.9842 24.3012 23.9842ZM33.1237 14.6826C32.4344 14.6826 31.8737 14.1218 31.8737 13.4326C31.8737 12.7434 32.4344 12.1826 33.1237 12.1826C33.8129 12.1826 34.3737 12.7434 34.3737 13.4326C34.3737 14.1218 33.8129 14.6826 33.1237 14.6826Z" fill="url(#paint7_linear_55709_2283)"/>
<path d="M11.5863 10.0747C11.4402 9.92938 11.2394 9.8457 11.0339 9.8457C10.8277 9.8457 10.6261 9.9293 10.4808 10.0747C10.3355 10.2199 10.2527 10.4215 10.2527 10.627C10.2527 10.8324 10.3355 11.034 10.4808 11.1793C10.6269 11.3246 10.8277 11.4082 11.0339 11.4082C11.2394 11.4082 11.4402 11.3247 11.5863 11.1793C11.7316 11.034 11.8152 10.8324 11.8152 10.627C11.8152 10.4215 11.7316 10.2199 11.5863 10.0747Z" fill="url(#paint8_linear_55709_2283)"/>
<path d="M8.12402 9.8457L4.37402 9.8457C3.94254 9.8457 3.59277 10.1955 3.59277 10.627C3.59277 11.0584 3.94254 11.4082 4.37402 11.4082L8.12402 11.4082C8.55551 11.4082 8.90527 11.0584 8.90527 10.627C8.90527 10.1955 8.55551 9.8457 8.12402 9.8457Z" fill="url(#paint9_linear_55709_2283)"/>
<path d="M8.12402 13.5957L4.37402 13.5957C3.94254 13.5957 3.59277 13.9455 3.59277 14.377C3.59277 14.8084 3.94254 15.1582 4.37402 15.1582L8.12402 15.1582C8.55551 15.1582 8.90527 14.8084 8.90527 14.377C8.90527 13.9455 8.55551 13.5957 8.12402 13.5957Z" fill="url(#paint10_linear_55709_2283)"/>
</g>
<defs>
<linearGradient id="paint0_linear_55709_2283" x1="0.00492887" y1="20.0399" x2="39.9963" y2="20.0399" gradientUnits="userSpaceOnUse">
<stop offset="0.15" stop-color="#005EB8"/>
<stop offset="0.51" stop-color="#2093B3"/>
<stop offset="0.8" stop-color="#40C1AC"/>
</linearGradient>
<linearGradient id="paint1_linear_55709_2283" x1="0.00492887" y1="20.0399" x2="39.9963" y2="20.0399" gradientUnits="userSpaceOnUse">
<stop offset="0.15" stop-color="#005EB8"/>
<stop offset="0.51" stop-color="#2093B3"/>
<stop offset="0.8" stop-color="#40C1AC"/>
</linearGradient>
<linearGradient id="paint2_linear_55709_2283" x1="16.5693" y1="3.59531" x2="35.7788" y2="3.59531" gradientUnits="userSpaceOnUse">
<stop offset="0.15" stop-color="#005EB8"/>
<stop offset="0.51" stop-color="#2093B3"/>
<stop offset="0.8" stop-color="#40C1AC"/>
</linearGradient>
<linearGradient id="paint3_linear_55709_2283" x1="7.34248" y1="3.59531" x2="8.90464" y2="3.59531" gradientUnits="userSpaceOnUse">
<stop offset="0.15" stop-color="#005EB8"/>
<stop offset="0.51" stop-color="#2093B3"/>
<stop offset="0.8" stop-color="#40C1AC"/>
</linearGradient>
<linearGradient id="paint4_linear_55709_2283" x1="4.21772" y1="3.59531" x2="5.77988" y2="3.59531" gradientUnits="userSpaceOnUse">
<stop offset="0.15" stop-color="#005EB8"/>
<stop offset="0.51" stop-color="#2093B3"/>
<stop offset="0.8" stop-color="#40C1AC"/>
</linearGradient>
<linearGradient id="paint5_linear_55709_2283" x1="10.4672" y1="3.59531" x2="12.0294" y2="3.59531" gradientUnits="userSpaceOnUse">
<stop offset="0.15" stop-color="#005EB8"/>
<stop offset="0.51" stop-color="#2093B3"/>
<stop offset="0.8" stop-color="#40C1AC"/>
</linearGradient>
<linearGradient id="paint6_linear_55709_2283" x1="29.8432" y1="27.5523" x2="31.4054" y2="27.5523" gradientUnits="userSpaceOnUse">
<stop offset="0.15" stop-color="#005EB8"/>
<stop offset="0.51" stop-color="#2093B3"/>
<stop offset="0.8" stop-color="#40C1AC"/>
</linearGradient>
<linearGradient id="paint7_linear_55709_2283" x1="4.01321" y1="18.0982" x2="35.9332" y2="18.0982" gradientUnits="userSpaceOnUse">
<stop offset="0.15" stop-color="#005EB8"/>
<stop offset="0.51" stop-color="#2093B3"/>
<stop offset="0.8" stop-color="#40C1AC"/>
</linearGradient>
<linearGradient id="paint8_linear_55709_2283" x1="10.2529" y1="10.6285" x2="11.815" y2="10.6285" gradientUnits="userSpaceOnUse">
<stop offset="0.15" stop-color="#005EB8"/>
<stop offset="0.51" stop-color="#2093B3"/>
<stop offset="0.8" stop-color="#40C1AC"/>
</linearGradient>
<linearGradient id="paint9_linear_55709_2283" x1="3.59343" y1="10.6285" x2="8.90478" y2="10.6285" gradientUnits="userSpaceOnUse">
<stop offset="0.15" stop-color="#005EB8"/>
<stop offset="0.51" stop-color="#2093B3"/>
<stop offset="0.8" stop-color="#40C1AC"/>
</linearGradient>
<linearGradient id="paint10_linear_55709_2283" x1="3.59343" y1="14.3785" x2="8.90478" y2="14.3785" gradientUnits="userSpaceOnUse">
<stop offset="0.15" stop-color="#005EB8"/>
<stop offset="0.51" stop-color="#2093B3"/>
<stop offset="0.8" stop-color="#40C1AC"/>
</linearGradient>
<clipPath id="clip0_55709_2283">
<rect width="40" height="40" fill="white" transform="translate(0.388916)"/>
</clipPath>
</defs>
</svg>
