<svg width="20" height="21" viewBox="0 0 20 21" fill="none" xmlns="http://www.w3.org/2000/svg">
<path d="M5.06667 9.92795C5.10633 9.82566 5.1658 9.73221 5.24167 9.65295L9.40833 5.48629C9.48603 5.40859 9.57827 5.34695 9.67979 5.3049C9.78131 5.26285 9.89012 5.24121 10 5.24121C10.2219 5.24121 10.4347 5.32937 10.5917 5.48629C10.6694 5.56399 10.731 5.65623 10.7731 5.75775C10.8151 5.85926 10.8367 5.96807 10.8367 6.07795C10.8367 6.29987 10.7486 6.5127 10.5917 6.66962L7.84167 9.41129H14.1667C14.3877 9.41129 14.5996 9.49909 14.7559 9.65537C14.9122 9.81165 15 10.0236 15 10.2446C15 10.4656 14.9122 10.6776 14.7559 10.8339C14.5996 10.9902 14.3877 11.078 14.1667 11.078H7.84167L10.5917 13.8196C10.6698 13.8971 10.7318 13.9893 10.7741 14.0908C10.8164 14.1924 10.8382 14.3013 10.8382 14.4113C10.8382 14.5213 10.8164 14.6302 10.7741 14.7318C10.7318 14.8333 10.6698 14.9255 10.5917 15.003C10.5142 15.0811 10.422 15.1431 10.3205 15.1854C10.2189 15.2277 10.11 15.2495 10 15.2495C9.88999 15.2495 9.78107 15.2277 9.67952 15.1854C9.57797 15.1431 9.4858 15.0811 9.40833 15.003L5.24167 10.8363C5.1658 10.757 5.10633 10.6636 5.06667 10.5613C4.98332 10.3584 4.98332 10.1308 5.06667 9.92795Z" fill="white"/>
</svg>
