<svg width="32" height="32" viewBox="0 0 32 32" fill="none" xmlns="http://www.w3.org/2000/svg">
<rect width="32" height="32" rx="5" fill="#40C1AC"/>
<path d="M26 19H24V16C24 15.7348 23.8946 15.4804 23.7071 15.2929C23.5196 15.1054 23.2652 15 23 15H17V13H19C19.2652 13 19.5196 12.8946 19.7071 12.7071C19.8946 12.5196 20 12.2652 20 12V6C20 5.73478 19.8946 5.48043 19.7071 5.29289C19.5196 5.10536 19.2652 5 19 5H13C12.7348 5 12.4804 5.10536 12.2929 5.29289C12.1054 5.48043 12 5.73478 12 6V12C12 12.2652 12.1054 12.5196 12.2929 12.7071C12.4804 12.8946 12.7348 13 13 13H15V15H9C8.73478 15 8.48043 15.1054 8.29289 15.2929C8.10536 15.4804 8 15.7348 8 16V19H6C5.73478 19 5.48043 19.1054 5.29289 19.2929C5.10536 19.4804 5 19.7348 5 20V26C5 26.2652 5.10536 26.5196 5.29289 26.7071C5.48043 26.8946 5.73478 27 6 27H12C12.2652 27 12.5196 26.8946 12.7071 26.7071C12.8946 26.5196 13 26.2652 13 26V20C13 19.7348 12.8946 19.4804 12.7071 19.2929C12.5196 19.1054 12.2652 19 12 19H10V17H22V19H20C19.7348 19 19.4804 19.1054 19.2929 19.2929C19.1054 19.4804 19 19.7348 19 20V26C19 26.2652 19.1054 26.5196 19.2929 26.7071C19.4804 26.8946 19.7348 27 20 27H26C26.2652 27 26.5196 26.8946 26.7071 26.7071C26.8946 26.5196 27 26.2652 27 26V20C27 19.7348 26.8946 19.4804 26.7071 19.2929C26.5196 19.1054 26.2652 19 26 19ZM11 21V25H7V21H11ZM14 11V7H18V11H14ZM25 25H21V21H25V25Z" fill="white"/>
</svg>
