<svg width="356" height="224" viewBox="0 0 356 224" fill="none" xmlns="http://www.w3.org/2000/svg">
<path opacity="0.24" d="M400 -26.2925V-27L372.927 -27C369.075 -20.3316 365.227 -13.6671 361.375 -6.99874C360.851 -6.08799 360.323 -5.17724 359.799 -4.2704L333.539 -4.2704C329.687 -10.9388 325.835 -17.6072 321.983 -24.2756C321.526 -25.0651 321.068 -25.8586 320.611 -26.6482L346.667 -26.6482C346.702 -26.6482 346.734 -26.656 346.765 -26.6638C346.781 -26.6638 346.796 -26.6717 346.808 -26.6756C346.828 -26.6834 346.843 -26.699 346.863 -26.7107C346.863 -26.7107 346.871 -26.7146 346.874 -26.7186C346.91 -26.7459 346.945 -26.7772 346.972 -26.8241C347.007 -26.8827 347.043 -26.9414 347.074 -27.0039L292.924 -27.0039C289.072 -20.3355 285.22 -13.671 281.372 -7.00264C280.848 -6.0919 280.32 -5.18115 279.796 -4.27431L253.536 -4.27431C249.684 -10.9427 245.832 -17.6111 241.98 -24.2795C241.523 -25.069 241.065 -25.8625 240.608 -26.6521L266.664 -26.6521C266.699 -26.6521 266.731 -26.6599 266.762 -26.6677C266.777 -26.6677 266.793 -26.6756 266.805 -26.6795C266.824 -26.6873 266.84 -26.7029 266.856 -26.7146C266.856 -26.7146 266.863 -26.7186 266.867 -26.7225C266.903 -26.7498 266.938 -26.7811 266.965 -26.828C267 -26.8866 267.036 -26.9453 267.067 -27.0078L212.917 -27.0078C209.065 -20.3394 205.217 -13.6749 201.365 -7.00655C200.841 -6.09581 200.313 -5.18506 199.789 -4.27822L173.529 -4.27822C169.677 -10.9466 165.825 -17.615 161.973 -24.2834L160.601 -26.656L186.657 -26.656C186.692 -26.656 186.727 -26.6638 186.755 -26.6717C186.77 -26.6717 186.786 -26.6795 186.802 -26.6834C186.821 -26.6912 186.837 -26.7068 186.856 -26.7186C186.856 -26.7186 186.864 -26.7225 186.868 -26.7264C186.903 -26.7537 186.939 -26.785 186.966 -26.8319C187.001 -26.8905 187.036 -26.9492 187.068 -27.0117L132.918 -27.0117C129.066 -20.3433 125.218 -13.6788 121.366 -7.01046C120.842 -6.09971 120.314 -5.18897 119.79 -4.28213L93.5299 -4.28213C89.678 -10.9505 85.826 -17.6189 81.9741 -24.2873C81.5165 -25.0769 81.059 -25.8704 80.6015 -26.6599L106.658 -26.6599C106.693 -26.6599 106.724 -26.6677 106.756 -26.6756C106.771 -26.6756 106.787 -26.6834 106.799 -26.6873C106.818 -26.6951 106.834 -26.7107 106.853 -26.7225C106.853 -26.7225 106.861 -26.7264 106.865 -26.7303C106.9 -26.7576 106.935 -26.7889 106.963 -26.8358C106.998 -26.8945 107.033 -26.9531 107.065 -27.0156L52.9261 -27.0156C49.0742 -20.3472 45.2222 -13.6828 41.3742 -7.01437C40.8502 -6.10362 40.3222 -5.19288 39.7982 -4.28604L13.5385 -4.28604C9.68657 -10.9388 5.83462 -17.6072 1.98268 -24.2756C1.52514 -25.0651 1.06759 -25.8547 0.610054 -26.6482L26.6664 -26.6482C26.7016 -26.6482 26.7329 -26.656 26.7642 -26.6638C26.7798 -26.6638 26.7955 -26.6717 26.8072 -26.6756C26.8267 -26.6834 26.8424 -26.699 26.8619 -26.7107C26.8619 -26.7107 26.8698 -26.7146 26.8737 -26.7186C26.9089 -26.7459 26.9441 -26.7772 26.9714 -26.8241C27.0066 -26.8827 27.0418 -26.9414 27.0731 -27.0039L0 -27.0039L0 -26.2925C3.78546 -19.7453 7.56702 -13.1942 11.3525 -6.64304C11.9117 -5.67366 12.4709 -4.70819 13.0301 -3.73881C13.0458 -3.71145 13.0653 -3.6919 13.0849 -3.67236C13.0849 -3.67236 13.0849 -3.67236 13.0849 -3.66845C13.1123 -3.64109 13.1435 -3.61764 13.1748 -3.602C13.1748 -3.602 13.1787 -3.602 13.1826 -3.59809C13.1944 -3.59418 13.21 -3.59027 13.2218 -3.58636C13.2569 -3.57464 13.2921 -3.57073 13.3312 -3.57073L39.7982 -3.57073C43.6502 3.09766 47.5021 9.76604 51.3541 16.4344C51.8781 17.3413 52.4021 18.252 52.93 19.1589C49.0781 25.8272 45.2261 32.4917 41.3781 39.1601L40.0055 41.5366C36.22 34.9855 32.4385 28.4344 28.653 21.8872C28.0938 20.9178 27.5346 19.9523 26.9753 18.983C26.9519 18.9439 26.9284 18.9165 26.8971 18.8891C26.8893 18.8852 26.8815 18.8813 26.8776 18.8735C26.8619 18.8618 26.8424 18.8462 26.8228 18.8383C26.8228 18.8383 26.8228 18.8383 26.8189 18.8383C26.815 18.8383 26.8072 18.8383 26.8033 18.8344C26.8033 18.8344 26.7994 18.8344 26.7955 18.8344C26.7915 18.8344 26.7837 18.8305 26.7798 18.8305C26.7485 18.8227 26.7133 18.8149 26.6703 18.8149L0.203351 18.8149C0.136871 18.6976 0.0664803 18.5804 0 18.4631L0 19.8742C0.0664803 19.7569 0.136871 19.6396 0.203351 19.5185L26.4631 19.5185C30.315 26.1869 34.1669 32.8552 38.0189 39.5236C38.5781 40.493 39.1373 41.4585 39.6965 42.4278C39.7122 42.4552 39.7317 42.4787 39.7513 42.4982C39.7513 42.4982 39.7513 42.5021 39.7552 42.506C39.7826 42.5334 39.8139 42.5568 39.8491 42.5725C39.8608 42.5803 39.8764 42.5803 39.8921 42.5881C39.9234 42.5959 39.9585 42.6038 39.9977 42.6038L66.054 42.6038C62.2725 49.1549 58.487 55.7021 54.7054 62.2532C54.1814 63.164 53.6535 64.0747 53.1295 64.9815L26.8698 64.9815C23.0178 58.3132 19.1659 51.6448 15.3139 44.9764C14.7547 44.007 14.1955 43.0415 13.6363 42.0722C13.5933 42.0018 13.5424 41.9549 13.4838 41.9275C13.4681 41.9197 13.4564 41.9158 13.4407 41.9119C13.4095 41.9041 13.3743 41.8963 13.3352 41.8963H0L0 42.6038H13.1279C16.9798 49.2721 20.8318 55.9405 24.6837 62.6089C25.2078 63.5157 25.7318 64.4265 26.2597 65.3333C22.4078 72.0017 18.5558 78.6662 14.7078 85.3346C14.1486 86.304 13.5893 87.2694 13.0301 88.2388C12.9949 88.2975 12.9832 88.36 12.9832 88.4147C12.9832 88.4733 12.9949 88.532 13.0301 88.5945C16.9173 95.3215 20.8005 102.049 24.6876 108.776C25.1452 109.565 25.6027 110.359 26.0564 111.148H0.203351C0.136871 111.031 0.0664803 110.914 0 110.796L0 112.208C3.78546 118.759 7.56702 125.31 11.3525 131.857C11.9117 132.826 12.4709 133.792 13.0301 134.761C13.0458 134.789 13.0653 134.808 13.0849 134.828C13.0849 134.828 13.0849 134.828 13.0849 134.832C13.1123 134.859 13.1435 134.882 13.1748 134.898C13.1748 134.898 13.1787 134.898 13.1826 134.902C13.1944 134.906 13.21 134.91 13.2218 134.914C13.253 134.925 13.2921 134.929 13.3312 134.929H39.7982C43.6502 141.598 47.5021 148.266 51.3541 154.934C51.8781 155.841 52.4021 156.752 52.93 157.659C49.0781 164.327 45.2261 170.992 41.3781 177.66C40.9206 178.454 40.463 179.243 40.0055 180.037C36.22 173.486 32.4385 166.934 28.653 160.387C28.0938 159.418 27.5346 158.452 26.9753 157.483C26.9519 157.444 26.9284 157.417 26.8971 157.389C26.8893 157.381 26.8815 157.381 26.8737 157.374C26.858 157.362 26.8385 157.346 26.8228 157.338C26.8228 157.338 26.8228 157.338 26.8189 157.338C26.815 157.338 26.8072 157.338 26.8033 157.334C26.8033 157.334 26.7994 157.334 26.7955 157.334C26.7915 157.334 26.7837 157.331 26.7798 157.331C26.7485 157.319 26.7133 157.315 26.6742 157.315H0.203351C0.136871 157.198 0.0664803 157.08 0 156.963L0 158.374C0.0664803 158.257 0.136871 158.14 0.203351 158.018H26.4631C30.315 164.687 34.1669 171.355 38.0189 178.024C38.5781 178.993 39.1373 179.958 39.6965 180.928C39.7122 180.955 39.7317 180.979 39.7513 180.998C39.7513 180.998 39.7513 181.002 39.7552 181.006C39.7826 181.033 39.8139 181.057 39.8491 181.072C39.8608 181.08 39.8764 181.08 39.8921 181.088C39.9234 181.096 39.9585 181.104 39.9977 181.104H66.054C62.2725 187.655 58.487 194.202 54.7054 200.753C54.1814 201.664 53.6535 202.575 53.1295 203.482H26.8698C23.0178 196.813 19.1659 190.145 15.3139 183.476C14.7547 182.507 14.1955 181.542 13.6363 180.572C13.5933 180.502 13.5424 180.455 13.4838 180.428C13.4681 180.42 13.4525 180.416 13.4407 180.412C13.4095 180.404 13.3743 180.396 13.3352 180.396H0L0 181.104H13.1279C16.9798 187.772 20.8318 194.441 24.6837 201.109C25.2078 202.016 25.7318 202.926 26.2597 203.833C22.4078 210.502 18.5558 217.166 14.7078 223.835C14.1486 224.804 13.5893 225.769 13.0301 226.739C12.9949 226.797 12.9832 226.86 12.9832 226.915C12.9832 226.973 12.9949 227.032 13.0301 227.094C16.9173 233.822 20.8005 240.549 24.6876 247.276C25.1452 248.065 25.6027 248.859 26.0564 249.648H0.203351C0.136871 249.531 0.0664803 249.414 0 249.296L0 250H27.077C30.929 243.335 34.777 236.667 38.6289 230.003C39.153 229.092 39.6809 228.185 40.2049 227.274H66.4646C70.3166 233.943 74.1685 240.611 78.0205 247.279C78.478 248.069 78.9355 248.863 79.3931 249.652H53.3367C53.3015 249.652 53.2702 249.656 53.239 249.668C53.1607 249.687 53.0864 249.738 53.0317 249.828C52.9965 249.887 52.9652 249.945 52.93 250.004H107.08C110.932 243.339 114.78 236.671 118.632 230.007C119.156 229.096 119.684 228.189 120.208 227.278H146.468C150.32 233.947 154.172 240.615 158.024 247.283C158.481 248.073 158.939 248.866 159.392 249.656H133.336C133.301 249.656 133.266 249.66 133.238 249.672C133.16 249.691 133.086 249.742 133.031 249.832C132.996 249.891 132.964 249.949 132.929 250.008L187.079 250.008C190.931 243.343 194.779 236.675 198.631 230.01C199.155 229.1 199.683 228.193 200.207 227.282H226.467C230.319 233.951 234.171 240.619 238.023 247.287C238.48 248.077 238.938 248.87 239.395 249.66H213.339C213.304 249.66 213.273 249.664 213.241 249.676C213.163 249.695 213.089 249.746 213.034 249.836C212.999 249.894 212.968 249.953 212.932 250.012H267.082C270.934 243.347 274.783 236.679 278.634 230.014C279.158 229.104 279.686 228.197 280.21 227.286H306.47C310.322 233.954 314.174 240.623 318.026 247.291C318.483 248.081 318.941 248.874 319.395 249.664H293.338C293.303 249.664 293.268 249.668 293.241 249.679C293.162 249.699 293.088 249.75 293.033 249.84C292.998 249.898 292.967 249.957 292.932 250.016H347.082C350.934 243.351 354.782 236.683 358.634 230.018C359.158 229.108 359.686 228.201 360.21 227.29H386.469C390.321 233.958 394.173 240.627 398.025 247.295C398.483 248.085 398.94 248.878 399.398 249.668H373.341C373.306 249.668 373.271 249.672 373.244 249.683C373.165 249.703 373.091 249.754 373.036 249.844C373.001 249.902 372.97 249.961 372.935 250.02H400.008V249.676V249.312C396.226 242.761 392.441 236.214 388.659 229.663C388.135 228.756 387.611 227.845 387.083 226.938C390.935 220.27 394.787 213.605 398.635 206.937C399.093 206.147 399.55 205.354 400.004 204.564V203.145C396.222 196.594 392.437 190.047 388.655 183.496C388.198 182.706 387.74 181.913 387.283 181.123H400.004V180.416H387.283C391.064 173.865 394.85 167.317 398.631 160.766C399.089 159.977 399.546 159.183 400.004 158.394V156.975C396.222 150.424 392.437 143.876 388.655 137.325C388.131 136.419 387.607 135.508 387.079 134.601C390.931 127.933 394.783 121.268 398.631 114.6C399.089 113.81 399.546 113.017 400 112.227V111.168V110.804C396.218 104.253 392.433 97.7059 388.651 91.1548C388.127 90.2479 387.603 89.3372 387.075 88.4304C390.927 81.762 394.779 75.0975 398.627 68.4291C399.085 67.6395 399.542 66.846 399.996 66.0565V64.6376C396.215 58.0864 392.429 51.5392 388.648 44.9881C388.19 44.1985 387.732 43.4051 387.275 42.6155L399.996 42.6155V41.908L387.275 41.908C391.056 35.3569 394.842 28.8096 398.624 22.2585C399.081 21.4689 399.539 20.6755 399.996 19.8859V18.467C396.215 11.9159 392.429 5.36866 388.648 -1.18246C388.124 -2.0893 387.599 -3.00005 387.072 -3.90689C390.923 -10.5753 394.775 -17.2398 398.624 -23.9081C399.081 -24.6977 399.539 -25.4912 399.992 -26.2808L400 -26.2925ZM371.961 -23.9199C372.485 -24.8306 373.013 -25.7414 373.537 -26.6482L399.39 -26.6482C395.608 -20.0971 391.823 -13.5499 388.041 -6.99874C387.482 -6.02936 386.923 -5.06389 386.364 -4.09451C386.364 -4.0906 386.364 -4.08669 386.356 -4.07887C386.344 -4.05542 386.336 -4.03588 386.329 -4.01242C386.329 -4.0046 386.329 -3.99679 386.325 -3.98897C386.325 -3.97725 386.317 -3.96943 386.317 -3.9577C386.317 -3.9577 386.317 -3.9577 386.317 -3.94988C386.317 -3.94988 386.317 -3.94206 386.317 -3.93816C386.317 -3.93034 386.317 -3.92252 386.317 -3.9147C386.317 -3.85607 386.329 -3.79744 386.364 -3.7349C390.251 2.99212 394.134 9.71914 398.021 16.4462C398.545 17.353 399.069 18.2637 399.597 19.1706C395.745 25.839 391.893 32.5034 388.045 39.1718C387.521 40.0826 386.993 40.9894 386.469 41.9002H360.62C364.402 35.349 368.187 28.8018 371.969 22.2507C372.528 21.2813 373.087 20.3159 373.646 19.3465C373.682 19.2878 373.693 19.2253 373.693 19.1706C373.693 19.1119 373.682 19.0533 373.646 18.9908C369.759 12.2638 365.876 5.53674 361.989 -1.18637C361.465 -2.09321 360.941 -3.00396 360.413 -3.9108C364.265 -10.5792 368.113 -17.2437 371.965 -23.912L371.961 -23.9199ZM386.364 134.405C386.364 134.405 386.364 134.413 386.356 134.421C386.344 134.445 386.336 134.464 386.329 134.488C386.329 134.495 386.329 134.503 386.325 134.511C386.325 134.523 386.317 134.534 386.317 134.542C386.317 134.542 386.317 134.542 386.317 134.55C386.317 134.55 386.317 134.558 386.317 134.562C386.317 134.57 386.317 134.577 386.317 134.585C386.317 134.644 386.329 134.703 386.364 134.765C390.251 141.492 394.134 148.219 398.021 154.942C398.545 155.849 399.069 156.76 399.597 157.667C395.745 164.335 391.893 171 388.045 177.668C387.521 178.579 386.993 179.489 386.469 180.396H360.62C364.402 173.845 368.187 167.298 371.969 160.747C372.528 159.777 373.087 158.812 373.646 157.843C373.682 157.784 373.693 157.721 373.693 157.667C373.693 157.608 373.682 157.549 373.646 157.487C369.759 150.76 365.876 144.033 361.989 137.306C361.465 136.399 360.941 135.488 360.413 134.581C364.265 127.913 368.113 121.249 371.965 114.58C372.489 113.669 373.017 112.759 373.541 111.852H399.394C395.612 118.403 391.827 124.95 388.045 131.501C387.486 132.471 386.927 133.436 386.368 134.405H386.364ZM373.13 203.482H346.871C343.019 196.813 339.167 190.145 335.315 183.476C334.756 182.507 334.196 181.542 333.637 180.572C333.594 180.502 333.543 180.455 333.485 180.428C333.469 180.42 333.453 180.416 333.442 180.412C333.41 180.404 333.375 180.396 333.336 180.396H307.28C311.061 173.845 314.847 167.298 318.628 160.747C319.152 159.836 319.68 158.925 320.204 158.015H346.46C350.312 164.683 354.164 171.351 358.016 178.02C358.575 178.989 359.134 179.955 359.693 180.924C359.709 180.951 359.729 180.975 359.748 180.994C359.748 180.994 359.748 180.998 359.752 181.002C359.779 181.029 359.811 181.053 359.846 181.069C359.862 181.076 359.873 181.08 359.889 181.084C359.92 181.092 359.955 181.1 359.995 181.1H386.051C382.269 187.651 378.484 194.198 374.702 200.749C374.178 201.66 373.65 202.571 373.126 203.478L373.13 203.482ZM293.131 203.482H266.871C263.019 196.813 259.167 190.145 255.316 183.476C254.756 182.507 254.197 181.542 253.638 180.572C253.599 180.502 253.544 180.455 253.485 180.428C253.47 180.42 253.454 180.416 253.442 180.412C253.411 180.404 253.376 180.396 253.337 180.396H227.28C231.062 173.845 234.847 167.298 238.629 160.747C239.153 159.836 239.681 158.925 240.205 158.015L266.461 158.015C270.313 164.683 274.165 171.351 278.017 178.02C278.576 178.989 279.135 179.955 279.694 180.924C279.71 180.951 279.729 180.975 279.749 180.994C279.749 180.994 279.749 180.998 279.753 181.002C279.78 181.029 279.812 181.053 279.847 181.069C279.862 181.076 279.874 181.08 279.89 181.084C279.921 181.092 279.956 181.1 279.995 181.1H306.052C302.27 187.651 298.485 194.198 294.703 200.749C294.179 201.66 293.651 202.571 293.127 203.478L293.131 203.482ZM213.132 203.482H186.872C183.02 196.813 179.168 190.145 175.316 183.476C174.757 182.507 174.198 181.542 173.639 180.572C173.596 180.502 173.545 180.455 173.486 180.428C173.47 180.42 173.455 180.416 173.443 180.412C173.412 180.404 173.377 180.396 173.338 180.396H147.281C151.063 173.845 154.848 167.298 158.63 160.747C159.154 159.836 159.682 158.925 160.206 158.015H186.462C190.313 164.683 194.165 171.351 198.017 178.02C198.577 178.989 199.136 179.955 199.695 180.924C199.711 180.951 199.73 180.975 199.75 180.994C199.75 180.994 199.75 180.998 199.754 181.002C199.781 181.029 199.812 181.053 199.848 181.069C199.863 181.076 199.875 181.08 199.891 181.084C199.922 181.092 199.957 181.1 199.996 181.1H226.052C222.271 187.651 218.485 194.198 214.704 200.749C214.18 201.66 213.652 202.571 213.128 203.478L213.132 203.482ZM133.133 203.482H106.873C103.021 196.813 99.169 190.145 95.3171 183.476C94.7578 182.507 94.1986 181.542 93.6394 180.572C93.5964 180.502 93.5456 180.455 93.4869 180.428C93.4713 180.42 93.4556 180.416 93.4439 180.412C93.4126 180.404 93.3774 180.396 93.3383 180.396L67.2819 180.396C71.0635 173.845 74.849 167.298 78.6305 160.747C79.1545 159.836 79.6825 158.925 80.2065 158.015L106.462 158.015C110.314 164.683 114.166 171.351 118.018 178.02C118.577 178.989 119.137 179.955 119.696 180.924C119.711 180.951 119.731 180.975 119.751 180.994C119.751 180.994 119.751 180.998 119.754 181.002C119.782 181.029 119.813 181.053 119.848 181.069C119.864 181.076 119.876 181.08 119.891 181.084C119.923 181.092 119.958 181.1 119.997 181.1H146.053C142.272 187.651 138.486 194.198 134.705 200.749C134.181 201.66 133.653 202.571 133.129 203.478L133.133 203.482ZM106.462 19.5185C110.314 26.1869 114.166 32.8552 118.018 39.5236C118.577 40.493 119.137 41.4585 119.696 42.4278C119.711 42.4552 119.731 42.4787 119.751 42.4982C119.751 42.4982 119.751 42.5021 119.754 42.506C119.782 42.5334 119.813 42.5568 119.848 42.5725C119.86 42.5803 119.876 42.5803 119.891 42.5881C119.923 42.5959 119.958 42.6038 119.997 42.6038L146.053 42.6038C142.272 49.1549 138.486 55.7021 134.705 62.2532C134.181 63.164 133.653 64.0747 133.129 64.9815L106.869 64.9815C103.017 58.3132 99.1651 51.6448 95.3131 44.9764C94.7539 44.007 94.1947 43.0415 93.6355 42.0722C93.5925 42.0018 93.5416 41.9549 93.483 41.9275C93.4673 41.9197 93.4556 41.9158 93.44 41.9119C93.4087 41.9041 93.3735 41.8963 93.3344 41.8963H67.278C71.0596 35.3451 74.845 28.7979 78.6266 22.2468C79.1506 21.336 79.6786 20.4253 80.2026 19.5146H106.458L106.462 19.5185ZM186.462 19.5185C190.313 26.1869 194.165 32.8552 198.017 39.5236C198.577 40.493 199.136 41.4585 199.695 42.4278C199.711 42.4552 199.73 42.4787 199.75 42.4982C199.75 42.4982 199.75 42.5021 199.754 42.506C199.781 42.5334 199.812 42.5568 199.848 42.5725C199.859 42.5803 199.875 42.5803 199.891 42.5881C199.922 42.5959 199.957 42.6038 199.996 42.6038L226.052 42.6038C222.271 49.1549 218.485 55.7021 214.704 62.2532C214.18 63.164 213.652 64.0747 213.128 64.9815H186.868C183.016 58.3132 179.164 51.6448 175.312 44.9764C174.753 44.007 174.194 43.0415 173.635 42.0722C173.592 42.0018 173.541 41.9549 173.482 41.9275C173.467 41.9197 173.455 41.9158 173.439 41.9119C173.408 41.9041 173.373 41.8963 173.334 41.8963H147.277C151.059 35.3451 154.844 28.7979 158.626 22.2468C159.15 21.336 159.678 20.4253 160.202 19.5146H186.458L186.462 19.5185ZM266.461 19.5185C270.313 26.1869 274.165 32.8552 278.017 39.5236C278.576 40.493 279.135 41.4585 279.694 42.4278C279.71 42.4552 279.729 42.4787 279.749 42.4982C279.749 42.4982 279.749 42.5021 279.753 42.506C279.78 42.5334 279.812 42.5568 279.847 42.5725C279.858 42.5803 279.874 42.5803 279.89 42.5881C279.921 42.5959 279.956 42.6038 279.995 42.6038H306.052C302.27 49.1549 298.485 55.7021 294.703 62.2532C294.179 63.164 293.651 64.0747 293.127 64.9815H266.867C263.015 58.3132 259.164 51.6448 255.312 44.9764C254.752 44.007 254.193 43.0415 253.634 42.0722C253.595 42.0018 253.54 41.9549 253.481 41.9275C253.466 41.9197 253.454 41.9158 253.438 41.9119C253.407 41.9041 253.372 41.8963 253.333 41.8963H227.276C231.058 35.3451 234.843 28.7979 238.625 22.2468C239.149 21.336 239.677 20.4253 240.201 19.5146L266.457 19.5146L266.461 19.5185ZM346.46 19.5185C350.312 26.1869 354.164 32.8552 358.016 39.5236C358.575 40.493 359.134 41.4585 359.693 42.4278C359.709 42.4552 359.729 42.4787 359.748 42.4982C359.748 42.4982 359.748 42.5021 359.752 42.506C359.779 42.5334 359.811 42.5568 359.846 42.5725C359.862 42.5803 359.873 42.5842 359.889 42.5881C359.92 42.5959 359.955 42.6038 359.995 42.6038H386.051C382.269 49.1549 378.484 55.7021 374.702 62.2532C374.178 63.164 373.65 64.0747 373.126 64.9815H346.867C343.015 58.3132 339.163 51.6448 335.311 44.9764C334.752 44.007 334.192 43.0415 333.633 42.0722C333.59 42.0018 333.539 41.9549 333.481 41.9275C333.465 41.9197 333.453 41.9158 333.438 41.9119C333.406 41.9041 333.371 41.8963 333.332 41.8963L307.276 41.8963C311.057 35.3451 314.843 28.7979 318.624 22.2468C319.148 21.336 319.676 20.4253 320.2 19.5146L346.456 19.5146L346.46 19.5185ZM333.027 88.2388C332.992 88.2975 332.98 88.36 332.98 88.4147C332.98 88.4733 332.992 88.532 333.027 88.5945C336.914 95.3215 340.797 102.049 344.685 108.776C345.142 109.565 345.6 110.359 346.053 111.148H320.204C316.352 104.48 312.5 97.8114 308.648 91.1431C308.124 90.2362 307.6 89.3255 307.072 88.4186C310.924 81.7502 314.772 75.0858 318.624 68.4174C319.184 67.448 319.743 66.4825 320.302 65.5131C320.337 65.4545 320.349 65.392 320.349 65.3372C320.349 65.2786 320.337 65.22 320.302 65.1574C316.415 58.4304 312.532 51.7034 308.644 44.9764C308.187 44.1868 307.729 43.3933 307.272 42.6038L333.125 42.6038C336.977 49.2721 340.829 55.9405 344.681 62.6089C345.205 63.5157 345.729 64.4265 346.257 65.3333C342.405 72.0017 338.557 78.6662 334.705 85.3346C334.145 86.304 333.586 87.2694 333.027 88.2388ZM333.027 134.761C333.043 134.789 333.062 134.808 333.082 134.828C333.082 134.828 333.082 134.828 333.082 134.832C333.109 134.859 333.14 134.882 333.172 134.898C333.172 134.898 333.176 134.898 333.18 134.902C333.191 134.906 333.207 134.91 333.219 134.914C333.25 134.925 333.289 134.929 333.328 134.929H359.791C363.643 141.598 367.495 148.266 371.347 154.934C371.871 155.841 372.395 156.752 372.923 157.659C369.071 164.327 365.223 170.992 361.371 177.66C360.914 178.454 360.456 179.243 359.998 180.037C356.213 173.486 352.431 166.934 348.646 160.387C348.087 159.418 347.528 158.452 346.968 157.483C346.945 157.444 346.921 157.417 346.89 157.389C346.882 157.381 346.874 157.381 346.867 157.374C346.851 157.362 346.831 157.346 346.816 157.338C346.816 157.338 346.816 157.338 346.812 157.338C346.808 157.338 346.8 157.338 346.796 157.334C346.796 157.334 346.792 157.334 346.788 157.334C346.785 157.334 346.777 157.331 346.773 157.331C346.742 157.319 346.706 157.315 346.667 157.315H320.204C316.352 150.646 312.5 143.978 308.648 137.31C308.124 136.403 307.6 135.492 307.072 134.585C310.924 127.917 314.776 121.252 318.624 114.584C319.082 113.791 319.539 113.001 319.997 112.208C323.782 118.759 327.564 125.31 331.349 131.857C331.909 132.826 332.468 133.792 333.027 134.761ZM266.871 157.381C266.871 157.381 266.836 157.354 266.82 157.346C266.82 157.346 266.82 157.346 266.817 157.346C266.813 157.346 266.805 157.346 266.801 157.342C266.801 157.342 266.797 157.342 266.793 157.342C266.789 157.342 266.781 157.338 266.777 157.338C266.746 157.327 266.711 157.323 266.672 157.323L240.209 157.323C236.357 150.654 232.505 143.986 228.653 137.318C228.129 136.411 227.605 135.5 227.077 134.593C230.929 127.925 234.777 121.26 238.629 114.592C239.087 113.798 239.544 113.009 240.002 112.215C243.787 118.766 247.569 125.318 251.354 131.865C251.913 132.834 252.472 133.8 253.032 134.769C253.047 134.796 253.067 134.816 253.086 134.835C253.086 134.835 253.086 134.835 253.086 134.839C253.114 134.867 253.145 134.89 253.176 134.906C253.176 134.906 253.18 134.906 253.184 134.91C253.196 134.914 253.212 134.918 253.223 134.921C253.255 134.933 253.294 134.937 253.333 134.937L279.796 134.937C283.648 141.605 287.5 148.274 291.352 154.942C291.876 155.849 292.4 156.76 292.928 157.667C289.076 164.335 285.228 171 281.376 177.668C280.918 178.461 280.461 179.251 280.003 180.044C276.218 173.493 272.436 166.942 268.651 160.395C268.091 159.426 267.532 158.46 266.973 157.491C266.95 157.452 266.926 157.424 266.895 157.397C266.887 157.389 266.879 157.389 266.871 157.381ZM186.872 157.381C186.872 157.381 186.837 157.354 186.821 157.346C186.821 157.346 186.821 157.346 186.817 157.346C186.813 157.346 186.806 157.346 186.802 157.342C186.802 157.342 186.798 157.342 186.794 157.342C186.79 157.342 186.782 157.338 186.778 157.338C186.747 157.327 186.712 157.323 186.673 157.323H160.21C156.358 150.654 152.506 143.986 148.654 137.318C148.13 136.411 147.606 135.5 147.078 134.593C150.93 127.925 154.782 121.26 158.63 114.592C159.087 113.798 159.545 113.009 160.002 112.215C163.788 118.766 167.569 125.318 171.355 131.865C171.914 132.834 172.473 133.8 173.032 134.769C173.048 134.796 173.068 134.816 173.087 134.835C173.087 134.835 173.087 134.835 173.087 134.839C173.115 134.867 173.146 134.89 173.177 134.906C173.177 134.906 173.181 134.906 173.185 134.91C173.197 134.914 173.212 134.918 173.224 134.921C173.259 134.933 173.294 134.937 173.334 134.937H199.797C203.649 141.605 207.501 148.274 211.353 154.942C211.877 155.849 212.401 156.76 212.928 157.667C209.077 164.335 205.225 171 201.377 177.668C200.919 178.461 200.461 179.251 200.004 180.044C196.218 173.493 192.437 166.942 188.651 160.395C188.092 159.426 187.533 158.46 186.974 157.491C186.95 157.452 186.927 157.424 186.896 157.397C186.888 157.389 186.88 157.389 186.872 157.381ZM106.873 157.381C106.873 157.381 106.838 157.354 106.822 157.346C106.822 157.346 106.822 157.346 106.818 157.346C106.814 157.346 106.806 157.346 106.802 157.342C106.802 157.342 106.799 157.342 106.795 157.342C106.791 157.342 106.783 157.338 106.779 157.338C106.748 157.327 106.713 157.323 106.673 157.323L80.2104 157.323C76.3585 150.654 72.5065 143.986 68.6546 137.318C68.1305 136.411 67.6065 135.5 67.0786 134.593C70.9305 127.925 74.7825 121.26 78.6305 114.592C79.0881 113.798 79.5456 113.009 80.0031 112.215C83.7886 118.766 87.5702 125.318 91.3556 131.865C91.9148 132.834 92.474 133.8 93.0333 134.769C93.0489 134.796 93.0685 134.816 93.088 134.835C93.088 134.835 93.088 134.835 93.088 134.839C93.1154 134.867 93.1467 134.89 93.178 134.906C93.178 134.906 93.1819 134.906 93.1858 134.91C93.1975 134.914 93.2132 134.918 93.2249 134.921C93.2562 134.933 93.2953 134.937 93.3344 134.937H119.797C123.649 141.605 127.501 148.274 131.353 154.942C131.877 155.849 132.401 156.76 132.929 157.667C129.077 164.335 125.225 171 121.377 177.668C120.92 178.461 120.462 179.251 120.005 180.044C116.219 173.493 112.438 166.942 108.652 160.395C108.093 159.426 107.534 158.46 106.975 157.491C106.951 157.452 106.928 157.424 106.896 157.397C106.889 157.389 106.881 157.389 106.873 157.381ZM80.3043 65.5131C80.3394 65.4545 80.3512 65.392 80.3512 65.3372C80.3512 65.2786 80.3394 65.22 80.3043 65.1574C76.4171 58.4304 72.5339 51.7034 68.6467 44.9764C68.1892 44.1868 67.7317 43.3933 67.2741 42.6038H93.1271C96.9791 49.2721 100.831 55.9405 104.683 62.6089C105.207 63.5157 105.731 64.4265 106.259 65.3333C102.407 72.0017 98.5589 78.6662 94.707 85.3346C94.1478 86.304 93.5886 87.2694 93.0294 88.2388C92.9942 88.2975 92.9824 88.36 92.9824 88.4147C92.9824 88.4733 92.9942 88.532 93.0294 88.5945C96.9165 95.3215 100.8 102.049 104.687 108.776C105.144 109.565 105.602 110.359 106.056 111.148L80.2065 111.148C76.3545 104.48 72.5026 97.8114 68.6507 91.1431C68.1266 90.2362 67.6026 89.3255 67.0747 88.4186C70.9266 81.7502 74.7786 75.0858 78.6266 68.4174C79.1858 67.448 79.745 66.4825 80.3043 65.5131ZM133.438 65.6734C133.438 65.6734 133.469 65.6656 133.485 65.6578C133.52 65.6421 133.547 65.6187 133.578 65.5913C133.578 65.5913 133.578 65.5874 133.586 65.5835C133.606 65.5639 133.625 65.5405 133.641 65.5131C137.528 58.7861 141.411 52.0591 145.298 45.3321C145.756 44.5386 146.214 43.749 146.671 42.9555C150.457 49.5067 154.238 56.0578 158.024 62.6089C158.548 63.5157 159.072 64.4265 159.6 65.3333C155.748 72.0017 151.9 78.6662 148.048 85.3346C147.524 86.2453 146.996 87.1561 146.472 88.0629L120.009 88.0629C119.973 88.0629 119.938 88.0707 119.907 88.0786C119.891 88.0786 119.876 88.0864 119.864 88.0903C119.801 88.1177 119.747 88.1646 119.704 88.2388C115.816 94.9658 111.933 101.693 108.046 108.42C107.589 109.213 107.131 110.003 106.673 110.796C102.888 104.245 99.1064 97.6942 95.321 91.147C94.7969 90.2401 94.2729 89.3294 93.745 88.4225C97.5969 81.7542 101.445 75.0897 105.297 68.4213C105.821 67.5105 106.349 66.5998 106.873 65.6929L133.336 65.6929C133.375 65.6929 133.406 65.6851 133.438 65.6773V65.6734ZM173.13 42.6038C176.982 49.2721 180.834 55.9405 184.686 62.6089C185.21 63.5157 185.734 64.4265 186.262 65.3333C182.41 72.0017 178.562 78.6662 174.71 85.3346C174.151 86.304 173.592 87.2694 173.032 88.2388C172.997 88.2975 172.986 88.36 172.986 88.4147C172.986 88.4733 172.997 88.532 173.032 88.5945C176.92 95.3215 180.803 102.049 184.69 108.776C185.148 109.565 185.605 110.359 186.063 111.148H160.214C156.362 104.48 152.51 97.8114 148.658 91.1431C148.134 90.2362 147.61 89.3255 147.082 88.4186C150.934 81.7502 154.782 75.0858 158.634 68.4174C159.193 67.448 159.752 66.4825 160.311 65.5131C160.346 65.4545 160.358 65.392 160.358 65.3372C160.358 65.2786 160.346 65.22 160.311 65.1574C156.424 58.4304 152.541 51.7034 148.654 44.9764C148.196 44.1868 147.739 43.3933 147.281 42.6038H173.13ZM213.437 65.6734C213.437 65.6734 213.468 65.6656 213.484 65.6578C213.519 65.6421 213.546 65.6187 213.578 65.5913C213.578 65.5913 213.578 65.5874 213.582 65.5835C213.601 65.5639 213.621 65.5405 213.636 65.5131C217.523 58.7861 221.407 52.0591 225.294 45.3321C225.751 44.5386 226.209 43.749 226.666 42.9555C230.452 49.5067 234.233 56.0578 238.019 62.605C238.543 63.5118 239.067 64.4226 239.595 65.3294C235.743 71.9978 231.895 78.6623 228.043 85.3307C227.519 86.2414 226.991 87.1522 226.467 88.059L200.004 88.059C199.969 88.059 199.934 88.0668 199.902 88.0747C199.887 88.0747 199.871 88.0825 199.859 88.0864C199.797 88.1137 199.742 88.1606 199.699 88.2349C195.812 94.9619 191.929 101.689 188.041 108.416C187.584 109.209 187.126 109.999 186.669 110.793C182.883 104.241 179.102 97.6903 175.316 91.1431C174.792 90.2362 174.268 89.3255 173.74 88.4186C177.592 81.7502 181.44 75.0858 185.292 68.4174C185.816 67.5066 186.344 66.5959 186.868 65.689H213.331C213.37 65.689 213.402 65.6812 213.433 65.6734H213.437ZM253.129 42.6038C256.981 49.2721 260.833 55.9405 264.685 62.6089C265.209 63.5157 265.733 64.4265 266.261 65.3333C262.409 72.0017 258.557 78.6662 254.709 85.3346C254.15 86.304 253.591 87.2694 253.032 88.2388C252.997 88.2975 252.985 88.36 252.985 88.4147C252.985 88.4733 252.997 88.532 253.032 88.5945C256.919 95.3215 260.802 102.049 264.689 108.776C265.147 109.565 265.604 110.359 266.058 111.148L240.209 111.148C236.357 104.48 232.505 97.8114 228.653 91.1431C228.129 90.2362 227.605 89.3255 227.077 88.4186C230.929 81.7502 234.781 75.0858 238.629 68.4174C239.188 67.448 239.747 66.4825 240.307 65.5131C240.342 65.4545 240.354 65.392 240.354 65.3372C240.354 65.2786 240.342 65.22 240.307 65.1574C236.419 58.4304 232.536 51.7034 228.649 44.9764C228.192 44.1868 227.734 43.3933 227.276 42.6038H253.126H253.129ZM293.436 65.6734C293.436 65.6734 293.467 65.6656 293.483 65.6578C293.518 65.6421 293.546 65.6187 293.577 65.5913C293.577 65.5913 293.581 65.5874 293.585 65.5835C293.604 65.5639 293.624 65.5405 293.639 65.5131C297.527 58.7861 301.41 52.0591 305.297 45.3321C305.754 44.5386 306.212 43.749 306.67 42.9555C310.455 49.5067 314.237 56.0578 318.022 62.605C318.546 63.5118 319.07 64.4226 319.598 65.3294C315.746 71.9978 311.894 78.6623 308.046 85.3307C307.522 86.2414 306.994 87.1522 306.47 88.059H280.007C279.972 88.059 279.937 88.0668 279.905 88.0747C279.89 88.0747 279.874 88.0825 279.862 88.0864C279.8 88.1137 279.745 88.1606 279.702 88.2349C275.815 94.9619 271.932 101.689 268.045 108.416C267.587 109.209 267.129 109.999 266.672 110.793C262.886 104.241 259.105 97.6903 255.319 91.1431C254.795 90.2362 254.271 89.3255 253.743 88.4186C257.595 81.7502 261.447 75.0858 265.295 68.4174C265.819 67.5066 266.347 66.5959 266.871 65.689H293.334C293.373 65.689 293.405 65.6812 293.436 65.6734ZM306.361 134.409C306.325 134.468 306.314 134.531 306.314 134.585C306.314 134.644 306.325 134.703 306.361 134.765C310.248 141.492 314.131 148.219 318.018 154.942C318.542 155.849 319.066 156.76 319.594 157.667C315.742 164.335 311.89 171 308.042 177.668C307.518 178.579 306.99 179.489 306.466 180.396H280.613C284.395 173.845 288.18 167.298 291.962 160.747C292.521 159.777 293.08 158.812 293.639 157.843C293.675 157.784 293.686 157.721 293.686 157.667C293.686 157.608 293.675 157.549 293.639 157.487C289.752 150.76 285.869 144.033 281.982 137.306C281.458 136.399 280.934 135.488 280.406 134.581C284.258 127.913 288.106 121.249 291.958 114.58C292.482 113.669 293.01 112.759 293.534 111.852H319.387C315.605 118.403 311.82 124.95 308.038 131.501C307.479 132.471 306.92 133.436 306.361 134.405V134.409ZM241.98 114.228C241.523 113.439 241.065 112.645 240.608 111.856L266.664 111.856C266.699 111.856 266.731 111.848 266.762 111.84C266.777 111.84 266.793 111.832 266.809 111.828C266.871 111.801 266.926 111.754 266.969 111.68C270.856 104.953 274.739 98.2258 278.627 91.5027C279.151 90.5919 279.679 89.6812 280.203 88.7743H306.462C310.314 95.4427 314.166 102.111 318.018 108.779C318.476 109.569 318.933 110.363 319.387 111.152H293.331C293.295 111.152 293.26 111.156 293.233 111.168C293.155 111.187 293.08 111.238 293.025 111.328C289.138 118.055 285.255 124.782 281.368 131.509C280.844 132.42 280.316 133.327 279.792 134.237L253.532 134.237C249.68 127.569 245.828 120.901 241.976 114.232L241.98 114.228ZM213.636 157.846C213.671 157.788 213.683 157.725 213.683 157.671C213.683 157.612 213.671 157.553 213.636 157.491C209.749 150.764 205.866 144.037 201.979 137.31C201.455 136.403 200.931 135.492 200.403 134.585C204.255 127.917 208.107 121.252 211.955 114.584C212.479 113.673 213.007 112.763 213.531 111.856H239.38C235.598 118.407 231.813 124.954 228.031 131.505C227.472 132.475 226.913 133.44 226.354 134.409C226.354 134.413 226.354 134.417 226.346 134.425C226.334 134.448 226.326 134.468 226.318 134.491C226.318 134.499 226.318 134.507 226.314 134.515C226.314 134.527 226.307 134.538 226.307 134.546C226.307 134.546 226.307 134.546 226.307 134.554C226.307 134.554 226.307 134.562 226.307 134.566C226.307 134.574 226.307 134.581 226.307 134.589C226.307 134.648 226.318 134.706 226.354 134.769C230.241 141.496 234.124 148.223 238.011 154.946C238.535 155.853 239.059 156.764 239.587 157.671C235.735 164.339 231.883 171.003 228.035 177.672C227.511 178.583 226.983 179.493 226.459 180.4H200.61C204.392 173.849 208.177 167.302 211.959 160.751C212.518 159.781 213.077 158.816 213.636 157.846ZM161.981 114.228L160.609 111.856H186.665C186.7 111.856 186.731 111.852 186.763 111.84C186.778 111.84 186.794 111.832 186.81 111.828C186.872 111.801 186.927 111.754 186.97 111.68C190.857 104.953 194.74 98.2258 198.627 91.5027C199.151 90.5919 199.679 89.6812 200.203 88.7743L226.463 88.7743C230.315 95.4427 234.167 102.111 238.019 108.779C238.476 109.569 238.934 110.363 239.392 111.152H213.335C213.3 111.152 213.269 111.156 213.237 111.168C213.159 111.187 213.085 111.238 213.03 111.328C209.143 118.055 205.26 124.782 201.373 131.509C200.849 132.42 200.321 133.327 199.797 134.237H173.537C169.685 127.569 165.833 120.901 161.981 114.232V114.228ZM146.358 134.409C146.323 134.468 146.311 134.531 146.311 134.585C146.311 134.644 146.323 134.703 146.358 134.765C150.245 141.492 154.129 148.219 158.016 154.942C158.54 155.849 159.064 156.76 159.592 157.667C155.74 164.335 151.888 171 148.04 177.668C147.516 178.579 146.988 179.489 146.464 180.396H120.615C124.396 173.845 128.182 167.298 131.963 160.747C132.523 159.777 133.082 158.812 133.641 157.843C133.676 157.784 133.688 157.721 133.688 157.667C133.688 157.608 133.676 157.549 133.641 157.487C129.754 150.76 125.871 144.033 121.983 137.306C121.459 136.399 120.935 135.488 120.407 134.581C124.259 127.913 128.107 121.249 131.959 114.58C132.483 113.669 133.011 112.759 133.535 111.852H159.388C155.607 118.403 151.821 124.95 148.04 131.501C147.481 132.471 146.921 133.436 146.362 134.405L146.358 134.409ZM81.978 114.228C81.5204 113.439 81.0629 112.645 80.6054 111.856L106.662 111.856C106.697 111.856 106.728 111.848 106.759 111.84C106.775 111.84 106.791 111.832 106.806 111.824C106.869 111.797 106.924 111.75 106.967 111.676C110.854 104.949 114.737 98.2219 118.624 91.4987C119.148 90.588 119.676 89.6773 120.2 88.7704L146.46 88.7704C150.312 95.4388 154.164 102.107 158.016 108.776C158.473 109.565 158.931 110.359 159.384 111.148H133.328C133.293 111.148 133.258 111.152 133.23 111.164C133.152 111.183 133.078 111.234 133.023 111.324C129.136 118.051 125.253 124.778 121.366 131.505C120.842 132.416 120.314 133.323 119.79 134.233H93.5299C89.678 127.565 85.826 120.897 81.9741 114.228H81.978ZM376.685 111.148H373.33C373.294 111.148 373.259 111.152 373.232 111.164C373.154 111.183 373.079 111.234 373.025 111.324C369.138 118.051 365.254 124.778 361.367 131.505C360.843 132.416 360.315 133.323 359.791 134.233H333.531C329.68 127.565 325.828 120.897 321.976 114.228C321.518 113.439 321.061 112.645 320.603 111.856H346.659C346.695 111.856 346.726 111.848 346.757 111.84C346.773 111.84 346.788 111.832 346.804 111.824C346.867 111.797 346.921 111.75 346.964 111.676C350.852 104.949 354.735 98.2219 358.622 91.4987L360.198 88.7704H386.458C390.31 95.4388 394.161 102.107 398.013 108.776C398.471 109.565 398.928 110.359 399.386 111.148H376.685ZM386.458 88.0629H359.995C359.959 88.0629 359.924 88.0707 359.893 88.0786C359.877 88.0786 359.862 88.0864 359.85 88.0903C359.787 88.1177 359.733 88.1646 359.69 88.2388C355.802 94.9658 351.919 101.693 348.032 108.42C347.574 109.213 347.117 110.003 346.659 110.796C342.874 104.245 339.092 97.6942 335.307 91.147C334.783 90.2401 334.259 89.3294 333.731 88.4225C337.583 81.7542 341.435 75.0897 345.283 68.4213C345.807 67.5105 346.335 66.5998 346.859 65.6929H373.322C373.361 65.6929 373.392 65.6851 373.424 65.6773C373.439 65.6734 373.455 65.6695 373.47 65.6617C373.506 65.646 373.533 65.6226 373.564 65.5952C373.564 65.5952 373.568 65.5913 373.572 65.5874C373.592 65.5679 373.611 65.5444 373.627 65.517C377.514 58.79 381.397 52.063 385.284 45.336C385.742 44.5425 386.199 43.7529 386.657 42.9594C390.443 49.5106 394.224 56.0617 398.01 62.6128C398.534 63.5197 399.058 64.4304 399.585 65.3372C395.734 72.0056 391.886 78.6701 388.034 85.3385C387.51 86.2492 386.982 87.16 386.458 88.0668V88.0629ZM320.005 -26.2925C323.79 -19.7414 327.572 -13.1903 331.357 -6.64304C331.916 -5.67366 332.476 -4.70819 333.035 -3.73881C333.05 -3.71145 333.07 -3.6919 333.09 -3.67236C333.09 -3.67236 333.09 -3.67236 333.09 -3.66845C333.117 -3.64109 333.148 -3.61373 333.18 -3.602C333.18 -3.602 333.183 -3.602 333.187 -3.59809C333.199 -3.59418 333.215 -3.59027 333.226 -3.58636C333.262 -3.57464 333.297 -3.57073 333.336 -3.57073L359.799 -3.57073C363.651 3.09766 367.503 9.76604 371.355 16.4344C371.879 17.3413 372.403 18.252 372.931 19.1589C369.079 25.8272 365.231 32.4917 361.379 39.1601C360.921 39.9536 360.464 40.7432 360.006 41.5366C356.221 34.9855 352.439 28.4344 348.654 21.8872C348.095 20.9178 347.535 19.9523 346.976 18.983C346.953 18.9439 346.929 18.9165 346.898 18.8891C346.89 18.8813 346.882 18.8813 346.878 18.8735C346.863 18.8618 346.843 18.8462 346.824 18.8383C346.824 18.8383 346.824 18.8383 346.82 18.8383C346.816 18.8383 346.808 18.8383 346.804 18.8344C346.804 18.8344 346.8 18.8344 346.796 18.8344C346.792 18.8344 346.785 18.8305 346.781 18.8305C346.749 18.8227 346.714 18.8149 346.675 18.8149L320.212 18.8149C316.36 12.1465 312.508 5.47811 308.656 -1.19028C308.132 -2.09712 307.608 -3.00786 307.08 -3.9147C310.932 -10.5831 314.784 -17.2476 318.632 -23.916C319.09 -24.7094 319.547 -25.499 320.005 -26.2925ZM291.966 -23.916C292.49 -24.8267 293.018 -25.7375 293.542 -26.6443L319.395 -26.6443C315.613 -20.0932 311.828 -13.546 308.046 -6.99483C307.487 -6.02545 306.928 -5.05998 306.368 -4.0906C306.333 -4.03197 306.322 -3.96943 306.322 -3.9147C306.322 -3.85607 306.333 -3.79744 306.368 -3.7349C310.256 2.99212 314.139 9.71914 318.026 16.4462C318.55 17.353 319.074 18.2637 319.602 19.1706C315.75 25.839 311.898 32.5034 308.05 39.1718C307.526 40.0826 306.998 40.9894 306.474 41.9002H280.621C284.403 35.349 288.188 28.8018 291.97 22.2507C292.529 21.2813 293.088 20.3159 293.647 19.3465C293.682 19.2878 293.694 19.2253 293.694 19.1706C293.694 19.1119 293.682 19.0533 293.647 18.9908C289.76 12.2638 285.877 5.53674 281.99 -1.18637C281.466 -2.09321 280.942 -3.00396 280.414 -3.9108C284.266 -10.5792 288.114 -17.2437 291.966 -23.912V-23.916ZM240.002 -26.2925C243.787 -19.7414 247.569 -13.1903 251.354 -6.64304C251.913 -5.67366 252.472 -4.70819 253.032 -3.73881C253.047 -3.71145 253.067 -3.6919 253.086 -3.67236C253.086 -3.67236 253.086 -3.67236 253.086 -3.66845C253.114 -3.64109 253.145 -3.61373 253.176 -3.602C253.176 -3.602 253.18 -3.602 253.184 -3.59809C253.196 -3.59418 253.212 -3.59027 253.223 -3.58636C253.259 -3.57464 253.294 -3.57073 253.333 -3.57073L279.796 -3.57073C283.648 3.09766 287.5 9.76604 291.352 16.4344C291.876 17.3413 292.4 18.252 292.928 19.1589C289.076 25.8272 285.228 32.4917 281.376 39.1601C280.918 39.9536 280.461 40.7432 280.003 41.5366C276.218 34.9855 272.436 28.4344 268.651 21.8872C268.091 20.9178 267.532 19.9523 266.973 18.983C266.95 18.9439 266.926 18.9165 266.895 18.8891C266.887 18.8813 266.879 18.8813 266.871 18.8735C266.856 18.8618 266.836 18.8462 266.817 18.8383C266.817 18.8383 266.817 18.8383 266.813 18.8383C266.809 18.8383 266.801 18.8383 266.797 18.8344C266.797 18.8344 266.793 18.8344 266.789 18.8344C266.785 18.8344 266.777 18.8305 266.774 18.8305C266.742 18.8227 266.707 18.8149 266.668 18.8149L240.205 18.8149C236.353 12.1465 232.501 5.47811 228.649 -1.19028C228.125 -2.09712 227.601 -3.00786 227.073 -3.9147C230.925 -10.5831 234.773 -17.2476 238.625 -23.916C239.083 -24.7094 239.54 -25.499 239.998 -26.2925H240.002ZM211.963 -23.916C212.487 -24.8267 213.014 -25.7375 213.539 -26.6443L239.388 -26.6443C235.606 -20.0932 231.821 -13.546 228.039 -6.99483C227.48 -6.02545 226.921 -5.05998 226.361 -4.0906C226.361 -4.08669 226.361 -4.08278 226.354 -4.07496C226.342 -4.05151 226.334 -4.03197 226.326 -4.00851C226.326 -4.0007 226.326 -3.99288 226.322 -3.98506C226.322 -3.97334 226.314 -3.96161 226.314 -3.95379C226.314 -3.95379 226.314 -3.95379 226.314 -3.94597C226.314 -3.94597 226.314 -3.93816 226.314 -3.93425C226.314 -3.92643 226.314 -3.91861 226.314 -3.9108C226.314 -3.85216 226.326 -3.79353 226.361 -3.73099C230.249 2.99603 234.132 9.72305 238.019 16.4501C238.543 17.3569 239.067 18.2677 239.595 19.1745C235.743 25.8429 231.891 32.5074 228.043 39.1757C227.519 40.0865 226.991 40.9933 226.467 41.9041L200.618 41.9041C204.399 35.353 208.185 28.8057 211.966 22.2546C212.526 21.2852 213.085 20.3198 213.644 19.3504C213.679 19.2918 213.691 19.2292 213.691 19.1745C213.691 19.1159 213.679 19.0572 213.644 18.9947C209.757 12.2677 205.874 5.54065 201.987 -1.18246C201.463 -2.0893 200.939 -3.00005 200.411 -3.90689C204.263 -10.5753 208.115 -17.2398 211.963 -23.9081V-23.916ZM160.002 -26.2925C163.788 -19.7414 167.569 -13.1903 171.355 -6.64304C171.914 -5.67366 172.473 -4.70819 173.032 -3.73881C173.048 -3.71145 173.068 -3.6919 173.087 -3.67236C173.087 -3.67236 173.087 -3.67236 173.087 -3.66845C173.115 -3.64109 173.146 -3.61373 173.177 -3.602C173.177 -3.602 173.181 -3.602 173.185 -3.59809C173.197 -3.59418 173.212 -3.59027 173.224 -3.58636C173.255 -3.57464 173.294 -3.57073 173.334 -3.57073L199.797 -3.57073C203.649 3.09766 207.501 9.76604 211.353 16.4344C211.877 17.3413 212.401 18.252 212.928 19.1589C209.077 25.8272 205.225 32.4917 201.377 39.1601C200.919 39.9536 200.461 40.7432 200.004 41.5366C196.218 34.9855 192.437 28.4344 188.651 21.8872C188.092 20.9178 187.533 19.9523 186.974 18.983C186.95 18.9439 186.927 18.9165 186.896 18.8891C186.888 18.8813 186.88 18.8813 186.872 18.8735C186.856 18.8618 186.837 18.8462 186.817 18.8383C186.817 18.8383 186.817 18.8383 186.813 18.8383C186.81 18.8383 186.802 18.8383 186.798 18.8344C186.798 18.8344 186.794 18.8344 186.79 18.8344C186.786 18.8344 186.778 18.8305 186.774 18.8305C186.743 18.8227 186.708 18.8149 186.665 18.8149H160.202C156.35 12.1465 152.498 5.47811 148.646 -1.19028C148.122 -2.09712 147.598 -3.00786 147.07 -3.9147C150.922 -10.5831 154.774 -17.2476 158.622 -23.916C159.079 -24.7094 159.537 -25.499 159.995 -26.2925H160.002ZM131.963 -23.916C132.487 -24.8267 133.015 -25.7375 133.539 -26.6443L159.392 -26.6443C155.611 -20.0932 151.825 -13.546 148.044 -6.99483C147.485 -6.02545 146.925 -5.05998 146.366 -4.0906C146.331 -4.03197 146.319 -3.96943 146.319 -3.9147C146.319 -3.85607 146.331 -3.79744 146.366 -3.7349C150.253 2.99212 154.136 9.71914 158.024 16.4462C158.548 17.353 159.072 18.2637 159.6 19.1706C155.748 25.839 151.896 32.5034 148.048 39.1718C147.524 40.0826 146.996 40.9894 146.472 41.9002L120.623 41.9002C124.404 35.349 128.19 28.8018 131.971 22.2507C132.53 21.2813 133.09 20.3159 133.649 19.3465C133.684 19.2878 133.696 19.2253 133.696 19.1706C133.696 19.1119 133.684 19.0533 133.649 18.9908C129.762 12.2638 125.878 5.53674 121.991 -1.18637C121.467 -2.09321 120.943 -3.00396 120.415 -3.9108C124.267 -10.5792 128.115 -17.2437 131.967 -23.912L131.963 -23.916ZM79.9992 -26.2925C83.7847 -19.7414 87.5662 -13.1903 91.3517 -6.64304C91.9109 -5.67366 92.4701 -4.70819 93.0294 -3.73881C93.045 -3.71145 93.0646 -3.6919 93.0841 -3.67236C93.0841 -3.67236 93.0841 -3.67236 93.0841 -3.66845C93.1115 -3.64109 93.1428 -3.61764 93.174 -3.602C93.174 -3.602 93.178 -3.602 93.1819 -3.59809C93.1936 -3.59418 93.2092 -3.59027 93.221 -3.58636C93.2562 -3.57464 93.2914 -3.57073 93.3305 -3.57073L119.794 -3.57073C123.645 3.09766 127.497 9.76604 131.349 16.4344C131.873 17.3413 132.397 18.252 132.925 19.1589C129.073 25.8272 125.221 32.4917 121.373 39.1601C120.916 39.9536 120.458 40.7432 120.001 41.5366C116.215 34.9855 112.434 28.4344 108.648 21.8872C108.089 20.9178 107.53 19.9523 106.971 18.983C106.947 18.9439 106.924 18.9165 106.892 18.8891C106.885 18.8813 106.877 18.8813 106.873 18.8735C106.857 18.8618 106.838 18.8462 106.818 18.8383C106.818 18.8383 106.818 18.8383 106.814 18.8383C106.81 18.8383 106.803 18.8383 106.799 18.8344C106.799 18.8344 106.795 18.8344 106.791 18.8344C106.787 18.8344 106.779 18.8305 106.775 18.8305C106.744 18.8227 106.709 18.8149 106.67 18.8149H80.2065C76.3545 12.1465 72.5026 5.47811 68.6507 -1.19028C68.1266 -2.09712 67.6026 -3.00786 67.0747 -3.9147C70.9266 -10.5831 74.7786 -17.2476 78.6266 -23.916C79.0841 -24.7094 79.5417 -25.499 79.9992 -26.2925ZM51.9602 22.2507C52.5194 21.2813 53.0786 20.3159 53.6378 19.3465C53.673 19.2878 53.6848 19.2253 53.6848 19.1706C53.6848 19.1119 53.673 19.0533 53.6378 18.9908C49.7507 12.2638 45.8675 5.53674 41.9803 -1.18637C41.4563 -2.09321 40.9323 -3.00396 40.4044 -3.9108C44.2563 -10.5792 48.1082 -17.2437 51.9563 -23.912C52.4803 -24.8228 53.0082 -25.7335 53.5323 -26.6404L79.3813 -26.6404C75.5998 -20.0893 71.8143 -13.542 68.0328 -6.99092C67.4736 -6.02154 66.9143 -5.05607 66.3551 -4.08669C66.3551 -4.08669 66.3551 -4.07887 66.3512 -4.07496C66.3395 -4.05151 66.3278 -4.02806 66.3199 -4.0046C66.3199 -3.99679 66.3199 -3.98897 66.316 -3.98115C66.316 -3.96943 66.3082 -3.9577 66.3082 -3.94597C66.3082 -3.94597 66.3082 -3.94597 66.3082 -3.94206C66.3082 -3.94206 66.3082 -3.93425 66.3082 -3.93034C66.3082 -3.92252 66.3082 -3.9147 66.3082 -3.9108C66.3082 -3.85216 66.3199 -3.79353 66.3551 -3.73099C70.2423 2.99603 74.1255 9.72305 78.0126 16.4501C78.5367 17.3569 79.0607 18.2677 79.5886 19.1745C75.7367 25.8429 71.8847 32.5074 68.0367 39.1757C67.5127 40.0865 66.9847 40.9933 66.4607 41.9041L40.6116 41.9041C44.3932 35.353 48.1786 28.8057 51.9602 22.2546V22.2507ZM15.3139 91.1431C14.7899 90.2362 14.2659 89.3255 13.738 88.4186C17.5899 81.7502 21.4418 75.0858 25.2899 68.4174C25.8139 67.5066 26.3418 66.5959 26.8658 65.689L53.3289 65.689C53.368 65.689 53.3993 65.6812 53.4306 65.6734C53.4462 65.6695 53.4619 65.6656 53.4775 65.6578C53.5127 65.6421 53.544 65.6187 53.5714 65.5913C53.5714 65.5913 53.5714 65.5874 53.5753 65.5835C53.5948 65.5639 53.6144 65.5405 53.63 65.5131C57.5172 58.7861 61.4004 52.0591 65.2875 45.3321C65.7451 44.5386 66.2026 43.749 66.6602 42.9555C70.4456 49.5067 74.2272 56.0578 78.0126 62.6089C78.5367 63.5157 79.0607 64.4265 79.5886 65.3333C75.7367 72.0017 71.8847 78.6662 68.0367 85.3346C67.5127 86.2453 66.9847 87.1561 66.4607 88.0629L40.0016 88.0629C39.9664 88.0629 39.9312 88.0707 39.8999 88.0786C39.8842 88.0786 39.8686 88.0864 39.8569 88.0903C39.7943 88.1177 39.7396 88.1646 39.6965 88.2388C35.8094 94.9658 31.9262 101.693 28.039 108.42C27.5815 109.213 27.1239 110.003 26.6664 110.796C22.8809 104.245 19.0994 97.6942 15.3139 91.147V91.1431ZM16.6865 134.23H13.5346C9.68266 127.561 5.83071 120.893 1.97877 114.224C1.52122 113.435 1.06368 112.641 0.610054 111.852H26.6664C26.7016 111.852 26.7329 111.844 26.7642 111.836C26.7798 111.836 26.7955 111.828 26.8111 111.821C26.8737 111.793 26.9284 111.746 26.9714 111.672C30.8586 104.945 34.7418 98.2179 38.6289 91.4948C39.153 90.5841 39.6809 89.6733 40.2049 88.7665L66.4646 88.7665C70.3166 95.4349 74.1685 102.103 78.0205 108.772C78.478 109.561 78.9355 110.355 79.3931 111.144H53.3367C53.3015 111.144 53.2702 111.148 53.239 111.16C53.1607 111.179 53.0864 111.23 53.0317 111.32C49.1446 118.047 45.2613 124.774 41.3742 131.501C40.8502 132.412 40.3222 133.319 39.7982 134.23H16.6865ZM51.9602 160.747C52.5194 159.777 53.0786 158.812 53.6378 157.843C53.673 157.784 53.6848 157.721 53.6848 157.667C53.6848 157.608 53.673 157.549 53.6378 157.487C49.7507 150.76 45.8675 144.033 41.9803 137.306C41.4563 136.399 40.9323 135.488 40.4044 134.581C44.2563 127.913 48.1082 121.249 51.9563 114.58C52.4803 113.669 53.0082 112.759 53.5323 111.852H79.3813C75.5998 118.403 71.8143 124.95 68.0328 131.501C67.4736 132.471 66.9143 133.436 66.3551 134.405C66.3551 134.405 66.3551 134.413 66.3512 134.417C66.3395 134.441 66.3278 134.464 66.3199 134.488C66.3199 134.495 66.3199 134.503 66.316 134.511C66.316 134.523 66.3082 134.534 66.3082 134.546C66.3082 134.546 66.3082 134.546 66.3082 134.55C66.3082 134.55 66.3082 134.558 66.3082 134.562C66.3082 134.57 66.3082 134.577 66.3082 134.581C66.3082 134.64 66.3199 134.699 66.3551 134.761C70.2423 141.488 74.1255 148.215 78.0126 154.938C78.5367 155.845 79.0607 156.756 79.5886 157.663C75.7367 164.331 71.8847 170.996 68.0367 177.664C67.5127 178.575 66.9847 179.486 66.4607 180.392H40.6116C44.3932 173.841 48.1786 167.294 51.9602 160.743V160.747ZM43.353 226.563H39.9977C39.9625 226.563 39.9273 226.571 39.896 226.579C39.8803 226.579 39.8647 226.586 39.853 226.59C39.7904 226.618 39.7356 226.665 39.6926 226.739C35.8055 233.466 31.9223 240.193 28.0351 246.92C27.5776 247.713 27.12 248.503 26.6625 249.296C22.877 242.745 19.0955 236.194 15.31 229.647C14.786 228.74 14.262 227.829 13.734 226.923C17.586 220.254 21.4379 213.59 25.286 206.921C25.81 206.011 26.3379 205.1 26.8619 204.193H53.325C53.3641 204.193 53.3954 204.185 53.4267 204.177C53.4423 204.173 53.458 204.169 53.4736 204.162C53.5088 204.146 53.5362 204.123 53.5674 204.095C53.5674 204.095 53.5714 204.091 53.5753 204.087C53.5948 204.068 53.6144 204.044 53.63 204.017C57.5172 197.29 61.4004 190.563 65.2875 183.84C65.7451 183.046 66.2026 182.257 66.6602 181.463C70.4456 188.014 74.2272 194.566 78.0126 201.117C78.5367 202.024 79.0607 202.934 79.5886 203.841C75.7367 210.51 71.8847 217.174 68.0367 223.842C67.5127 224.753 66.9847 225.664 66.4607 226.571H43.353V226.563ZM83.3545 249.648H80.2026C76.3506 242.98 72.4987 236.311 68.6467 229.643C68.1227 228.736 67.5987 227.825 67.0708 226.919L78.6227 206.917C79.1819 205.948 79.7411 204.982 80.3003 204.013C80.3355 203.954 80.3473 203.892 80.3473 203.837C80.3473 203.779 80.3355 203.72 80.3003 203.657C76.4132 196.93 72.53 190.203 68.6428 183.476C68.1853 182.687 67.7278 181.893 67.2702 181.104L93.1232 181.104C96.9752 187.772 100.827 194.441 104.679 201.109C105.203 202.016 105.727 202.926 106.255 203.833C102.403 210.502 98.555 217.166 94.7031 223.835C94.1439 224.804 93.5847 225.769 93.0254 226.739C92.9902 226.797 92.9785 226.86 92.9785 226.915C92.9785 226.973 92.9902 227.032 93.0254 227.094C96.9126 233.822 100.796 240.549 104.683 247.276C105.14 248.065 105.598 248.859 106.052 249.648H83.3506H83.3545ZM123.356 226.563H120.001C119.966 226.563 119.93 226.571 119.899 226.579C119.883 226.579 119.868 226.586 119.856 226.59C119.794 226.618 119.739 226.665 119.696 226.739C115.809 233.466 111.925 240.193 108.038 246.92C107.581 247.713 107.123 248.503 106.666 249.296C102.88 242.745 99.0986 236.194 95.3131 229.647C94.7891 228.74 94.2651 227.829 93.7372 226.923C97.5891 220.254 101.437 213.59 105.289 206.921C105.813 206.011 106.341 205.1 106.865 204.193H133.328C133.367 204.193 133.399 204.185 133.43 204.177C133.445 204.173 133.461 204.169 133.477 204.162C133.512 204.146 133.543 204.123 133.571 204.095C133.571 204.095 133.571 204.091 133.574 204.087C133.594 204.068 133.614 204.044 133.629 204.017C137.516 197.29 141.4 190.563 145.287 183.84C145.744 183.046 146.202 182.257 146.659 181.463C150.445 188.014 154.226 194.566 158.012 201.117C158.536 202.024 159.06 202.934 159.588 203.841C155.736 210.51 151.888 217.174 148.036 223.842C147.512 224.753 146.984 225.664 146.46 226.571H123.352L123.356 226.563ZM163.358 249.648H160.206C156.354 242.98 152.502 236.311 148.65 229.643C148.126 228.736 147.602 227.825 147.074 226.919C150.926 220.25 154.774 213.586 158.626 206.917C159.185 205.948 159.744 204.982 160.303 204.013C160.339 203.954 160.35 203.892 160.35 203.837C160.35 203.779 160.339 203.72 160.303 203.657C156.416 196.93 152.533 190.203 148.646 183.476C148.188 182.687 147.731 181.893 147.273 181.104H173.122C176.974 187.772 180.826 194.441 184.678 201.109C185.202 202.016 185.726 202.926 186.254 203.833C182.402 210.502 178.554 217.166 174.702 223.835C174.143 224.804 173.584 225.769 173.025 226.739C172.989 226.797 172.978 226.86 172.978 226.915C172.978 226.973 172.989 227.032 173.025 227.094C176.912 233.822 180.795 240.549 184.682 247.276C185.14 248.065 185.597 248.859 186.055 249.648L163.354 249.648H163.358ZM203.359 226.563H200.004C199.969 226.563 199.934 226.571 199.902 226.579C199.887 226.579 199.871 226.586 199.859 226.59C199.797 226.618 199.742 226.665 199.699 226.739C195.812 233.466 191.929 240.193 188.041 246.92C187.584 247.713 187.126 248.503 186.669 249.296C182.883 242.745 179.102 236.194 175.316 229.647C174.792 228.74 174.268 227.829 173.74 226.923C177.592 220.254 181.44 213.59 185.292 206.921C185.816 206.011 186.344 205.1 186.868 204.193H213.331C213.37 204.193 213.402 204.185 213.433 204.177C213.449 204.173 213.464 204.169 213.48 204.162C213.515 204.146 213.542 204.123 213.574 204.095C213.574 204.095 213.574 204.091 213.582 204.087C213.601 204.068 213.621 204.044 213.636 204.017C217.523 197.29 221.407 190.563 225.294 183.84C225.751 183.046 226.209 182.257 226.666 181.463C230.452 188.014 234.233 194.566 238.019 201.113C238.543 202.02 239.067 202.93 239.595 203.837C235.743 210.506 231.895 217.17 228.043 223.838C227.519 224.749 226.991 225.66 226.467 226.567H203.359V226.563ZM243.361 249.648H240.209C236.357 242.98 232.505 236.311 228.653 229.643C228.129 228.736 227.605 227.825 227.077 226.919C230.929 220.25 234.781 213.586 238.629 206.917C239.188 205.948 239.747 204.982 240.307 204.013C240.342 203.954 240.354 203.892 240.354 203.837C240.354 203.779 240.342 203.72 240.307 203.657C236.419 196.93 232.536 190.203 228.649 183.476C228.192 182.687 227.734 181.893 227.276 181.104H253.129C256.981 187.772 260.833 194.441 264.685 201.109C265.209 202.016 265.733 202.926 266.261 203.833C262.409 210.502 258.557 217.166 254.709 223.835C254.15 224.804 253.591 225.769 253.032 226.739C252.997 226.797 252.985 226.86 252.985 226.915C252.985 226.973 252.997 227.032 253.032 227.094C256.919 233.822 260.802 240.549 264.689 247.276C265.147 248.065 265.604 248.859 266.058 249.648H243.357H243.361ZM283.362 226.563H280.007C279.972 226.563 279.937 226.571 279.905 226.579C279.89 226.579 279.874 226.586 279.862 226.59C279.8 226.618 279.745 226.665 279.702 226.739C275.815 233.466 271.932 240.193 268.045 246.92C267.587 247.713 267.129 248.503 266.672 249.296C262.886 242.745 259.105 236.194 255.319 229.647C254.795 228.74 254.271 227.829 253.743 226.923C257.595 220.254 261.447 213.59 265.295 206.921C265.819 206.011 266.347 205.1 266.871 204.193H293.334C293.373 204.193 293.405 204.185 293.436 204.177C293.452 204.173 293.467 204.169 293.483 204.162C293.518 204.146 293.546 204.123 293.577 204.095C293.577 204.095 293.581 204.091 293.585 204.087C293.604 204.068 293.624 204.044 293.639 204.017C297.527 197.29 301.41 190.563 305.297 183.84C305.754 183.046 306.212 182.257 306.67 181.463C310.455 188.014 314.237 194.566 318.022 201.113C318.546 202.02 319.07 202.93 319.598 203.837C315.746 210.506 311.894 217.17 308.046 223.838C307.522 224.749 306.994 225.66 306.47 226.567H283.362V226.563ZM323.364 249.648H320.212C316.36 242.98 312.508 236.311 308.656 229.643C308.132 228.736 307.608 227.825 307.08 226.919C310.932 220.25 314.78 213.586 318.632 206.917C319.191 205.948 319.751 204.982 320.31 204.013C320.345 203.954 320.357 203.892 320.357 203.837C320.357 203.779 320.345 203.72 320.31 203.657C316.423 196.93 312.539 190.203 308.652 183.476C308.195 182.687 307.737 181.893 307.28 181.104H333.133C336.985 187.772 340.836 194.441 344.688 201.109C345.212 202.016 345.736 202.926 346.264 203.833C342.412 210.502 338.564 217.166 334.712 223.835C334.153 224.804 333.594 225.769 333.035 226.739C333 226.797 332.988 226.86 332.988 226.915C332.988 226.973 333 227.032 333.035 227.094C336.922 233.822 340.805 240.549 344.692 247.276C345.15 248.065 345.607 248.859 346.061 249.648H323.36H323.364ZM363.365 226.563H360.01C359.975 226.563 359.94 226.571 359.909 226.579C359.893 226.579 359.877 226.586 359.865 226.59C359.803 226.618 359.748 226.665 359.705 226.739C355.818 233.466 351.935 240.193 348.048 246.92C347.59 247.713 347.133 248.503 346.675 249.296C342.89 242.745 339.108 236.194 335.323 229.647C334.799 228.74 334.275 227.829 333.747 226.923C337.599 220.254 341.45 213.59 345.298 206.921C345.823 206.011 346.35 205.1 346.874 204.193H373.338C373.377 204.193 373.408 204.185 373.439 204.177C373.455 204.173 373.47 204.169 373.486 204.162C373.521 204.146 373.549 204.123 373.58 204.095C373.58 204.095 373.58 204.091 373.588 204.087C373.607 204.068 373.627 204.044 373.643 204.017C377.53 197.29 381.413 190.563 385.3 183.84C385.758 183.046 386.215 182.257 386.673 181.463C390.458 188.014 394.24 194.566 398.025 201.117C398.549 202.024 399.073 202.934 399.601 203.841C395.749 210.51 391.901 217.174 388.049 223.842C387.525 224.753 386.997 225.664 386.473 226.571H363.365V226.563Z" fill="#AFB2C6"/>
</svg>
