<svg width="40" height="41" viewBox="0 0 40 41" fill="none" xmlns="http://www.w3.org/2000/svg">
<path fill-rule="evenodd" clip-rule="evenodd" d="M39.5944 25.8232C38.7897 23.8983 37.1103 22.7512 34.7384 22.5058C32.3373 22.2576 29.4765 23.0015 27.1735 24.2947C26.2221 22.2942 24.8182 20.1488 23.1212 18.1182C22.819 17.7562 22.5135 17.4064 22.2069 17.0677C22.921 16.1829 23.4413 15.2981 23.8126 14.5323C24.7765 12.5458 24.9782 10.9219 24.9865 10.8538C25.0407 10.397 24.7391 9.98046 24.3119 9.92095C23.8846 9.8617 23.493 10.184 23.4366 10.6405C23.4349 10.6549 23.2496 12.0883 22.3973 13.8213C22.0257 14.5769 21.5904 15.2683 21.0948 15.8965C20.0043 14.8056 18.9085 13.8722 17.8546 13.1281C18.0836 12.7854 18.3026 12.4279 18.5077 12.0567C19.5963 10.0872 20.1625 7.99947 20.1024 6.17821C20.0194 3.67627 18.8063 1.70781 16.5934 0.486327C15.5933 -0.0662102 14.4354 -0.151035 13.3336 0.247773C12.1392 0.679728 11.139 1.63995 10.5894 2.88257C9.95587 4.31467 10.4996 6.01561 11.8016 6.67359C12.4376 6.99488 13.1553 7.02255 13.8223 6.75085C14.4781 6.48358 15.0072 5.95767 15.3114 5.26967C15.4957 4.85286 15.3289 4.35487 14.939 4.15781C14.5489 3.9605 14.0833 4.1385 13.899 4.55584C13.7677 4.85181 13.543 5.07732 13.2659 5.19007C13.0003 5.29812 12.7174 5.28899 12.4693 5.16344C11.9464 4.89905 11.7364 4.19644 12.0018 3.59666C12.3712 2.76146 13.0389 2.11758 13.8341 1.82995C14.5311 1.57809 15.2562 1.62768 15.8765 1.97037C17.5819 2.9118 18.4781 4.3473 18.5406 6.23746C18.6097 8.31946 17.6734 10.5544 16.5008 12.2629C15.2288 11.541 14.0589 11.145 13.0885 11.145C12.3416 11.145 11.7242 11.3732 11.2535 11.8234C10.9185 12.1431 10.6068 12.6236 10.4654 13.3421L0.463641 34.1749C-0.0790865 35.3003 -0.148667 36.6239 0.272478 37.8062C0.906025 39.5833 2.49392 40.6782 4.17459 40.678C4.66654 40.678 5.16654 40.5843 5.65312 40.3859L13.2904 37.2965C13.6939 37.1333 13.8975 36.651 13.7445 36.2198C13.5919 35.7881 13.1412 35.5707 12.7374 35.7338L5.09818 38.8246C3.75467 39.3717 2.24465 38.6484 1.73244 37.2116C1.46902 36.4725 1.51272 35.6446 1.85305 34.9388L10.7408 16.4269C10.8402 16.7732 10.9617 17.142 11.1107 17.5361C11.8753 19.562 13.19 21.8207 14.8656 24.0042C14.867 24.0058 14.8682 24.0076 14.8695 24.0092C14.9347 24.0943 15.0003 24.1791 15.067 24.2639C15.0821 24.2838 15.0977 24.3039 15.1136 24.3235C15.1666 24.3913 15.2203 24.4586 15.2745 24.5265C15.2952 24.5526 15.316 24.5787 15.337 24.6048C15.3885 24.6693 15.4405 24.7332 15.4925 24.7972C15.5138 24.8227 15.5345 24.8486 15.5555 24.8744C15.6273 24.9621 15.6995 25.0496 15.7725 25.137C15.8685 25.2518 15.9649 25.3651 16.0614 25.4776C16.098 25.5201 16.1344 25.5624 16.171 25.6044C16.2271 25.6692 16.283 25.7334 16.3394 25.7973C18.6988 28.4843 21.1901 30.4901 23.3026 31.4605L18.5809 33.3702C18.1776 33.5336 17.9742 34.0157 18.1268 34.4471C18.2799 34.8786 18.7306 35.0957 19.1339 34.9326L26.1574 32.0913C26.7477 32.0297 27.2455 31.8089 27.6405 31.4318C28.4037 30.7028 29.048 29.1371 27.82 25.8192C28.216 25.5932 28.6373 25.381 29.0792 25.1887C30.9518 24.372 32.9599 24.0001 34.5881 24.1687C36.3935 24.3553 37.5981 25.1412 38.1682 26.5049C38.5153 27.3354 38.5258 28.2687 38.1977 29.1337C37.8652 30.0106 37.226 30.7114 36.3981 31.1071C35.746 31.4187 34.9931 31.1413 34.7199 30.4883C34.4472 29.8352 34.7555 29.0507 35.4079 28.7388C35.8017 28.5506 35.9784 28.0565 35.8024 27.6358C35.6264 27.2145 35.1642 27.0261 34.7702 27.214C33.3315 27.9018 32.6691 29.676 33.2939 31.17C33.7502 32.261 34.7685 32.9051 35.8454 32.9051C36.2429 32.9051 36.6481 32.8172 37.0358 32.6319C38.2341 32.0595 39.1608 31.0398 39.6457 29.7616C40.1352 28.471 40.1169 27.0723 39.5944 25.8232ZM26.5995 30.1858C26.4454 30.3332 26.2218 30.4168 25.9332 30.4353C25.8864 30.4382 25.8375 30.4389 25.7877 30.4387C25.7606 30.4382 25.7325 30.4369 25.7045 30.4355C25.6764 30.4342 25.6483 30.4335 25.6193 30.4311C25.5878 30.4285 25.5555 30.4248 25.5231 30.4212C25.496 30.4181 25.4689 30.4152 25.441 30.4113C25.4064 30.4063 25.3702 30.4003 25.3339 30.3938C25.3068 30.3893 25.2797 30.3844 25.2518 30.3792C25.215 30.3716 25.1774 30.3635 25.1395 30.3546C25.11 30.3481 25.08 30.3411 25.0499 30.3335C25.0136 30.3244 24.9769 30.3147 24.9396 30.3045C24.9039 30.2946 24.8683 30.2842 24.8317 30.2735C24.7999 30.2638 24.7679 30.2539 24.7355 30.2435C24.6888 30.2286 24.6417 30.2129 24.5941 30.1962C24.5714 30.1884 24.5487 30.1803 24.5258 30.1719C24.4623 30.149 24.3976 30.1247 24.3324 30.0986C24.3253 30.096 24.3182 30.0931 24.3109 30.0905C22.3939 29.3219 19.6656 27.2879 16.9378 24.0238C16.8177 23.8803 16.6996 23.7362 16.5826 23.5916C16.5545 23.5566 16.5274 23.5222 16.4996 23.4875C16.4102 23.376 16.3214 23.2643 16.2342 23.1523C16.2059 23.1163 16.1786 23.0803 16.151 23.0445C16.0645 22.9328 15.9788 22.8209 15.8946 22.7094C15.8685 22.6752 15.8436 22.6408 15.818 22.6066C15.7323 22.4918 15.6473 22.3769 15.5638 22.2621C15.5411 22.231 15.5189 22.2002 15.4967 22.1692C15.4105 22.0496 15.3258 21.9301 15.2418 21.8105C15.2235 21.7842 15.2044 21.7573 15.1861 21.7309C15.097 21.6028 15.0096 21.4741 14.9234 21.346C14.9115 21.3287 14.8997 21.311 14.8878 21.2935C14.6925 21.0014 14.505 20.7094 14.326 20.4192C14.304 20.3837 14.2833 20.3487 14.2618 20.3134C14.2005 20.2127 14.1395 20.1122 14.0802 20.012C14.0443 19.9507 14.0091 19.8904 13.974 19.8296C13.932 19.7573 13.8905 19.685 13.8494 19.6129C13.8087 19.5409 13.7684 19.4694 13.7291 19.3979C13.6973 19.3404 13.6661 19.2835 13.6353 19.2264C13.5914 19.1457 13.5477 19.0651 13.5057 18.9855C13.4893 18.9549 13.474 18.9241 13.4581 18.8933C13.3538 18.6937 13.2547 18.4969 13.1617 18.3037C13.1558 18.291 13.1495 18.2787 13.1434 18.2659C13.0994 18.1743 13.0572 18.0835 13.0157 17.9934C12.9998 17.9584 12.984 17.924 12.9686 17.8893C12.9285 17.8016 12.8897 17.7144 12.8526 17.628C12.8385 17.5962 12.825 17.5641 12.8116 17.5322C12.4498 16.6832 12.2027 15.9135 12.0701 15.2532C12.0684 15.2451 12.067 15.2373 12.0655 15.2294C12.0499 15.1509 12.036 15.0736 12.0237 14.9979C12.0228 14.9932 12.022 14.989 12.0216 14.9841C11.9439 14.501 11.9329 14.0839 11.9883 13.747C11.9898 13.7368 11.9908 13.7263 11.992 13.7164C12.0428 13.4332 12.1434 13.2132 12.2947 13.0691C12.4708 12.9008 12.7379 12.8154 13.0887 12.8154C13.681 12.8154 14.4964 13.0639 15.464 13.575C15.0223 14.0552 14.5782 14.4454 14.1663 14.7142C13.7977 14.9541 13.6815 15.4682 13.9061 15.8621C14.0531 16.1202 14.3101 16.2627 14.5738 16.2627C14.7122 16.2625 14.8526 16.2233 14.9796 16.1403C15.6168 15.7251 16.2601 15.1396 16.8668 14.4347C17.8331 15.1026 18.8939 15.9832 20.0011 17.0891C19.2179 17.8212 18.3253 18.4335 17.3255 18.9208C16.933 19.1118 16.7596 19.6072 16.9388 20.0269C17.0697 20.3343 17.3534 20.516 17.6502 20.516C17.7586 20.516 17.8687 20.4914 17.9737 20.4406C19.2352 19.8256 20.2679 19.0659 21.1119 18.2594C21.392 18.5697 21.6735 18.8923 21.9562 19.2308C23.599 21.1961 24.9437 23.2591 25.8317 25.1592C24.9681 25.7976 24.2433 26.519 23.736 27.2889C23.4879 27.6663 23.5724 28.187 23.9257 28.4527C24.2784 28.7182 24.7657 28.6276 25.0138 28.2505C25.36 27.7251 25.8585 27.207 26.4713 26.7228C27.046 28.3992 27.0997 29.7081 26.5995 30.1858Z" fill="#40C1AC"/>
<path fill-rule="evenodd" clip-rule="evenodd" d="M25.8654 16.0083C25.5958 16.3674 25.6498 16.8918 25.9855 17.1805C26.1295 17.3044 26.3026 17.3647 26.4745 17.3647C26.7028 17.3647 26.9288 17.2585 27.0834 17.0541C27.0941 17.0398 28.202 15.591 30.236 14.2909C32.9355 12.5649 35.9108 11.8994 39.0781 12.3131C39.5063 12.3692 39.8959 12.0429 39.9484 11.5854C40.0007 11.1276 39.6957 10.711 39.2678 10.6552C34.852 10.0789 31.4508 11.5549 29.3754 12.8948C27.1224 14.3494 25.9157 15.941 25.8654 16.0083Z" fill="#40C1AC"/>
<path fill-rule="evenodd" clip-rule="evenodd" d="M34.4367 14.7025C32.7565 14.7025 31.3896 16.1641 31.3896 17.9603C31.3896 19.7565 32.7565 21.2179 34.4367 21.2179C36.1166 21.2179 37.4838 19.7565 37.4838 17.9603C37.4838 16.1641 36.1166 14.7025 34.4367 14.7025ZM34.4367 19.5475C33.6178 19.5475 32.9521 18.8355 32.9521 17.9603C32.9521 17.0852 33.6178 16.3729 34.4367 16.3729C35.2553 16.3729 35.9213 17.0852 35.9213 17.9603C35.9213 18.8355 35.2553 19.5475 34.4367 19.5475Z" fill="#40C1AC"/>
<path fill-rule="evenodd" clip-rule="evenodd" d="M8.26909 33.096C8.40459 33.2014 8.56597 33.2554 8.72832 33.2554C8.8294 33.2554 8.93047 33.2346 9.02642 33.1923L10.9756 32.3315L12.9251 33.1923C13.1761 33.3027 13.463 33.2667 13.6822 33.096C13.9019 32.9253 14.0233 32.645 14.002 32.3558L13.8389 30.1078L15.2069 28.3917C15.3831 28.1709 15.4393 27.8681 15.3553 27.5917C15.2713 27.3159 15.0592 27.1063 14.7955 27.0382L12.7454 26.5094L11.6412 24.5884C11.4993 24.341 11.2474 24.1904 10.9756 24.1904C10.7044 24.1904 10.4522 24.341 10.3101 24.5884L9.20586 26.5094L7.15605 27.0382C6.89214 27.1063 6.67998 27.3159 6.59599 27.5917C6.51249 27.8681 6.56865 28.1709 6.74443 28.3917L8.1126 30.1078L7.94927 32.3558C7.92852 32.645 8.04937 32.9253 8.26909 33.096ZM9.88629 28.0521C10.087 28.0002 10.2603 27.8658 10.3687 27.6776L10.9756 26.6208L11.5826 27.6776C11.691 27.8655 11.8643 28.0002 12.0653 28.0521L13.1927 28.3432L12.4405 29.2867C12.3065 29.455 12.2403 29.673 12.2562 29.8932L12.346 31.1293L11.2737 30.6559C11.1783 30.6139 11.077 30.5927 10.9756 30.5927C10.8743 30.5927 10.773 30.6139 10.6776 30.6559L9.60553 31.1293L9.69513 29.8932C9.71124 29.673 9.64483 29.455 9.51104 29.2869L8.7586 28.3432L9.88629 28.0521Z" fill="#40C1AC"/>
<path fill-rule="evenodd" clip-rule="evenodd" d="M22.9747 7.8283L25.6876 8.47976L27.1803 10.9872C27.3239 11.2284 27.5726 11.374 27.8395 11.374H27.8519C28.1232 11.3693 28.3732 11.2143 28.5114 10.9645L29.9293 8.40772L32.6215 7.6644C32.8842 7.5921 33.0929 7.3786 33.173 7.10142C33.2526 6.82398 33.1918 6.522 33.0129 6.30433L31.1759 4.07252L31.3468 1.10573C31.3637 0.816019 31.2384 0.537793 31.0163 0.371014C30.7938 0.203974 30.507 0.172393 30.2572 0.287494L27.7045 1.46539L25.1183 0.374668C24.8656 0.268441 24.5792 0.309418 24.3622 0.484027C24.1454 0.658114 24.0284 0.940777 24.0538 1.22944L24.3129 4.18918L22.5431 6.48181C22.3705 6.70548 22.3185 7.00929 22.4066 7.28412C22.4945 7.55869 22.7093 7.76488 22.9747 7.8283ZM25.723 4.98628C25.8546 4.81584 25.9179 4.59713 25.8986 4.3771L25.7277 2.42743L27.4313 3.14597C27.6237 3.22714 27.8378 3.22322 28.0277 3.13579L29.7089 2.35983L29.5966 4.3142C29.5839 4.53475 29.6535 4.75138 29.7897 4.91711L30.9994 6.38706L29.2265 6.87618C29.0263 6.93177 28.8546 7.06906 28.7494 7.25932L27.8158 8.9433L26.8327 7.29195C26.7216 7.1056 26.546 6.97379 26.3446 6.92524L24.5575 6.49642L25.723 4.98628Z" fill="#40C1AC"/>
<path fill-rule="evenodd" clip-rule="evenodd" d="M15.6798 34.6019C15.2493 34.6019 14.8985 34.9767 14.8985 35.4371C14.8985 35.897 15.2493 36.2723 15.6798 36.2723C16.1099 36.2723 16.461 35.897 16.461 35.4371C16.461 34.977 16.1099 34.6019 15.6798 34.6019Z" fill="#40C1AC"/>
</svg>
