<svg width="71" height="71" viewBox="0 0 71 71" fill="none" xmlns="http://www.w3.org/2000/svg">
<path d="M23.9842 33.7891C21.5756 33.7891 19.6194 31.8516 19.6194 29.466C19.6194 27.0805 21.5756 25.143 23.9842 25.143C24.5588 25.143 25.0234 25.6031 25.0234 26.1723C25.0234 26.7414 24.5588 27.2016 23.9842 27.2016C22.7249 27.2016 21.6979 28.2188 21.6979 29.466C21.6979 30.7133 22.7249 31.7305 23.9842 31.7305C24.5588 31.7305 25.0234 32.1906 25.0234 32.7598C25.0234 33.3289 24.5588 33.7891 23.9842 33.7891Z" fill="url(#paint0_linear_55740_10855)"/>
<path d="M46.0402 33.7891C45.4656 33.7891 45.001 33.3289 45.001 32.7598C45.001 32.1906 45.4656 31.7305 46.0402 31.7305C47.2995 31.7305 48.3265 30.7133 48.3265 29.466C48.3265 28.2188 47.2995 27.2016 46.0402 27.2016C45.4656 27.2016 45.001 26.7414 45.001 26.1723C45.001 25.6031 45.4656 25.143 46.0402 25.143C48.4488 25.143 50.4049 27.0805 50.4049 29.466C50.4172 31.8516 48.4488 33.7891 46.0402 33.7891Z" fill="url(#paint1_linear_55740_10855)"/>
<path d="M35.2812 43.1496H34.7432C28.2389 43.1496 22.9327 37.9062 22.9327 31.452V23.9441C22.9327 23.375 23.3973 22.9148 23.972 22.9148C24.5466 22.9148 25.0112 23.375 25.0112 23.9441V31.452C25.0112 36.7559 29.3759 41.0789 34.731 41.0789H35.2689C40.624 41.0789 44.9887 36.7559 44.9887 31.452V23.9441C44.9887 23.375 45.4533 22.9148 46.028 22.9148C46.6026 22.9148 47.0672 23.375 47.0672 23.9441V31.452C47.0916 37.9062 41.7977 43.1496 35.2812 43.1496Z" fill="url(#paint2_linear_55740_10855)"/>
<path d="M35.0122 46.9883C30.3418 46.9883 26.6862 44.6027 26.6862 41.5512V40.3523C26.6862 39.7832 27.1508 39.323 27.7254 39.323C28.3 39.323 28.7646 39.7832 28.7646 40.3523V41.5512C28.7646 43.3434 31.6744 44.9176 35 44.9176C38.3255 44.9176 41.2353 43.3434 41.2353 41.5512V40.3523C41.2353 39.7832 41.6999 39.323 42.2745 39.323C42.8492 39.323 43.3138 39.7832 43.3138 40.3523V41.5512C43.3382 44.6027 39.6826 46.9883 35.0122 46.9883Z" fill="url(#paint3_linear_55740_10855)"/>
<path d="M35.0122 52.3527C30.3418 52.3527 26.6862 49.9672 26.6862 46.9156V40.3523C26.6862 39.7832 27.1508 39.323 27.7254 39.323C28.3 39.323 28.7646 39.7832 28.7646 40.3523V46.9156C28.7646 48.7078 31.6744 50.282 35 50.282C38.3255 50.282 41.2353 48.7078 41.2353 46.9156V40.3523C41.2353 39.7832 41.6999 39.323 42.2745 39.323C42.8492 39.323 43.3138 39.7832 43.3138 40.3523V46.9156C43.3382 49.9672 39.6826 52.3527 35.0122 52.3527Z" fill="url(#paint4_linear_55740_10855)"/>
<path d="M35.0122 52.3527C34.4376 52.3527 33.973 51.8926 33.973 51.3234V45.959C33.973 45.3898 34.4376 44.9297 35.0122 44.9297C35.5868 44.9297 36.0514 45.3898 36.0514 45.959V51.3234C36.0514 51.8926 35.5868 52.3527 35.0122 52.3527Z" fill="url(#paint5_linear_55740_10855)"/>
<path d="M19.5339 66C18.9592 66 18.4946 65.5398 18.4946 64.9707V56.8574C18.4946 56.2883 18.9592 55.8281 19.5339 55.8281C20.1085 55.8281 20.5731 56.2883 20.5731 56.8574V64.9707C20.5853 65.5398 20.1085 66 19.5339 66Z" fill="url(#paint6_linear_55740_10855)"/>
<path d="M50.4905 66C49.9159 66 49.4513 65.5398 49.4513 64.9707V56.8574C49.4513 56.2883 49.9159 55.8281 50.4905 55.8281C51.0652 55.8281 51.5297 56.2883 51.5297 56.8574V64.9707C51.5297 65.5398 51.0652 66 50.4905 66Z" fill="url(#paint7_linear_55740_10855)"/>
<path d="M35.0122 62.0766C34.9388 62.0766 34.8777 62.0645 34.8043 62.0523C34.7432 62.0402 34.6699 62.016 34.6087 61.9918C34.5476 61.9676 34.4865 61.9313 34.4253 61.8949C34.3642 61.8586 34.3153 61.8102 34.2664 61.7617C34.2175 61.7133 34.1686 61.6648 34.1319 61.6043C34.0952 61.5438 34.0586 61.4832 34.0341 61.4227C34.0096 61.3621 33.9852 61.2895 33.973 61.2289C33.9607 61.1563 33.9485 61.0957 33.9485 61.023C33.9485 60.9504 33.9607 60.8898 33.973 60.8172C33.9852 60.7566 34.0096 60.684 34.0341 60.6234C34.0586 60.5629 34.0952 60.5023 34.1319 60.4418C34.1686 60.3813 34.2175 60.3328 34.2664 60.2844C34.3153 60.2359 34.3642 60.1875 34.4253 60.1512C34.4865 60.1148 34.5476 60.0785 34.6087 60.0543C34.6699 60.0301 34.7432 60.0059 34.8043 59.9937C34.9388 59.9695 35.0733 59.9695 35.2078 59.9937C35.2689 60.0059 35.3423 60.0301 35.4034 60.0543C35.4646 60.0785 35.5257 60.1148 35.5868 60.1512C35.648 60.1875 35.6969 60.2359 35.7458 60.2844C35.7947 60.3328 35.8436 60.3813 35.8803 60.4418C35.9169 60.5023 35.9536 60.5629 35.9781 60.6234C36.0025 60.684 36.027 60.7566 36.0392 60.8172C36.0514 60.8898 36.0636 60.9504 36.0636 61.023C36.0636 61.0957 36.0514 61.1563 36.0392 61.2289C36.027 61.2895 36.0025 61.3621 35.9781 61.4227C35.9536 61.4832 35.9169 61.5438 35.8803 61.6043C35.8436 61.6648 35.7947 61.7133 35.7458 61.7617C35.6969 61.8102 35.648 61.8586 35.5868 61.8949C35.5257 61.9313 35.4646 61.9676 35.4034 61.9918C35.3423 62.016 35.2689 62.0402 35.2078 62.0523C35.1467 62.0766 35.0856 62.0766 35.0122 62.0766Z" fill="url(#paint8_linear_55740_10855)"/>
<path d="M35.0122 56.9301C34.9388 56.9301 34.8777 56.918 34.8043 56.9059C34.7432 56.8937 34.6699 56.8695 34.6087 56.8453C34.5476 56.8211 34.4865 56.7848 34.4253 56.7484C34.3642 56.7121 34.3153 56.6637 34.2664 56.6152C34.2175 56.5668 34.1686 56.5184 34.1319 56.4578C34.0952 56.3973 34.0586 56.3367 34.0341 56.2762C34.0096 56.2156 33.9852 56.143 33.973 56.0824C33.9607 56.0098 33.9485 55.9492 33.9485 55.8766C33.9485 55.8039 33.9607 55.7434 33.973 55.6707C33.9852 55.6102 34.0096 55.5375 34.0341 55.477C34.0586 55.4164 34.0952 55.3559 34.1319 55.2953C34.1686 55.2348 34.2175 55.1863 34.2664 55.1379C34.3153 55.0895 34.3642 55.041 34.4253 55.0047C34.4865 54.9684 34.5476 54.932 34.6087 54.9078C34.6699 54.8836 34.7432 54.8594 34.8043 54.8473C35.1467 54.7746 35.5012 54.8836 35.7458 55.1258C35.7947 55.1742 35.8436 55.2227 35.8803 55.2832C35.9169 55.3438 35.9536 55.4043 35.9781 55.4648C36.0025 55.5254 36.027 55.598 36.0392 55.6586C36.0514 55.7313 36.0636 55.7918 36.0636 55.8645C36.0636 55.9371 36.0514 55.9977 36.0392 56.0703C36.027 56.1309 36.0025 56.2035 35.9781 56.2641C35.9536 56.3246 35.9169 56.3852 35.8803 56.4457C35.8436 56.5063 35.7947 56.5547 35.7458 56.6031C35.5501 56.8211 35.2812 56.9301 35.0122 56.9301Z" fill="url(#paint9_linear_55740_10855)"/>
<path d="M55.2587 66H14.7657C12.6872 66 11 64.3289 11 62.2703V57.6566C11 51.8078 12.7483 47.7875 16.2083 45.7168C19.0937 43.9973 22.5415 43.9852 24.84 43.9852H24.8645C26.5517 43.9852 26.6617 42.8953 26.6739 42.7742C26.7106 42.2051 27.1997 41.7691 27.7743 41.8055C28.3489 41.8418 28.7891 42.3262 28.7524 42.8953C28.7402 43.0285 28.679 43.7672 28.1655 44.5059C27.6887 45.2082 26.7229 46.0559 24.8522 46.0559C22.6638 46.0559 19.6806 46.0559 17.2965 47.4848C14.4722 49.1801 13.0907 52.5102 13.0907 57.6566V62.2703C13.0907 63.1785 13.8365 63.9293 14.7657 63.9293H55.2587C56.1757 63.9293 56.9337 63.1906 56.9337 62.2703V57.6566C56.9337 52.5102 55.5522 49.1801 52.7279 47.4848C50.3438 46.0559 47.3606 46.0559 45.1721 46.0559H45.1477C43.2771 46.0559 42.3112 45.2203 41.8344 44.5059C41.3331 43.7672 41.2598 43.0285 41.2475 42.8953L43.326 42.7742V42.7621C43.3504 43.0527 43.5705 43.9852 45.1355 43.9852H45.1599C47.4584 43.9852 50.9062 43.9852 53.7916 45.7168C57.2516 47.7875 58.9999 51.8078 58.9999 57.6566V62.2703C59.0122 64.3289 57.3372 66 55.2587 66Z" fill="url(#paint10_linear_55740_10855)"/>
<path d="M51.921 46.9883C51.8965 46.9883 51.8599 46.9883 51.8232 46.9883C51.2485 46.9398 50.8206 46.4312 50.8695 45.8742C51.9454 33.7648 52.4345 25.7121 52.4345 23.3387C52.4345 20.6504 51.8232 18.0711 50.6372 15.6855C50.3805 15.177 50.5883 14.5594 51.1141 14.3051C51.6276 14.0508 52.2511 14.2566 52.5078 14.7773C53.8527 17.4535 54.5252 20.3355 54.5252 23.3508C54.5252 26.3055 53.8772 35.6418 52.9602 46.068C52.9113 46.5887 52.4589 46.9883 51.921 46.9883Z" fill="url(#paint11_linear_55740_10855)"/>
<path d="M21.5267 11.859C21.27 11.859 21.0132 11.7621 20.8176 11.5805C20.4019 11.193 20.3775 10.5391 20.7687 10.1152C24.4366 6.22813 29.6327 4 35.0122 4C40.3917 4 45.5878 6.22812 49.2679 10.1273C49.6591 10.5391 49.6347 11.193 49.219 11.5926C48.8033 11.9801 48.1431 11.9559 47.7396 11.5441C44.4019 8.0082 39.8904 6.0707 35.0122 6.0707C30.134 6.0707 25.6225 8.0082 22.2848 11.5441C22.0769 11.75 21.7957 11.859 21.5267 11.859Z" fill="url(#paint12_linear_55740_10855)"/>
<path d="M18.1034 46.9883C17.5655 46.9883 17.1131 46.5887 17.0642 46.0438C16.135 35.6176 15.4992 26.2813 15.4992 23.3266C15.4992 20.3234 16.1717 17.4535 17.5043 14.7773C17.7611 14.2688 18.3846 14.0508 18.8981 14.3051C19.4116 14.5594 19.6317 15.177 19.3749 15.6855C18.189 18.0711 17.5899 20.6383 17.5899 23.3145C17.5899 25.6879 18.079 33.7527 19.1549 45.85C19.2038 46.4191 18.7758 46.9156 18.2012 46.9641C18.1645 46.9883 18.1401 46.9883 18.1034 46.9883Z" fill="url(#paint13_linear_55740_10855)"/>
<path d="M51.2608 16.2668H18.7636C16.9664 16.2668 15.4992 14.8137 15.4992 13.0336C15.4992 11.2535 16.9664 9.80039 18.7636 9.80039H51.2485C53.0458 9.80039 54.5129 11.2535 54.5129 13.0336C54.5252 14.8258 53.058 16.2668 51.2608 16.2668ZM18.7636 11.859C18.1156 11.859 17.5777 12.3797 17.5777 13.0336C17.5777 13.6875 18.1034 14.2082 18.7636 14.2082H51.2485C51.8965 14.2082 52.4345 13.6875 52.4345 13.0336C52.4345 12.3797 51.9088 11.859 51.2485 11.859H18.7636Z" fill="url(#paint14_linear_55740_10855)"/>
<path d="M49.3657 36.1988C48.7911 36.1988 48.3265 35.7387 48.3265 35.1695V21.9945C48.3265 21.2559 48.0331 20.5656 47.5073 20.0449C46.9816 19.5242 46.2847 19.2336 45.5389 19.2336C44.6586 19.2336 43.9617 19.7059 43.5338 20.0934C41.4065 22.043 38.3133 23.157 35.0366 23.157C31.6867 23.157 28.6424 22.0551 26.4783 20.0691C26.0626 19.6937 25.378 19.2336 24.4732 19.2336C23.7274 19.2336 23.0305 19.5242 22.5048 20.0449C21.9791 20.5656 21.6857 21.2559 21.6857 21.9945V35.1574C21.6857 35.7266 21.2211 36.1867 20.6464 36.1867C20.0718 36.1867 19.6072 35.7266 19.6072 35.1574V21.9945C19.6072 20.6988 20.1085 19.4879 21.0377 18.5797C21.9546 17.6715 23.1773 17.1629 24.4855 17.1629C25.7203 17.1629 26.9307 17.6594 27.9088 18.5555C29.6571 20.166 32.2613 21.0984 35.0489 21.0984C37.7998 21.0984 40.3795 20.1781 42.1278 18.5797C43.1426 17.6594 44.3163 17.1629 45.5511 17.1629C46.8593 17.1629 48.082 17.6594 48.9989 18.5797C49.9159 19.5 50.4294 20.6988 50.4294 21.9945V35.1574C50.4172 35.7266 49.9526 36.1988 49.3657 36.1988Z" fill="url(#paint15_linear_55740_10855)"/>
<path d="M49.3657 24.9855H46.5781C43.8884 24.9855 41.6999 22.818 41.6999 20.1539C41.6999 19.8027 41.7366 19.4637 41.8099 19.1246C41.9322 18.5676 42.4824 18.2164 43.057 18.3375C43.6194 18.4586 43.974 19.0035 43.8517 19.5727C43.815 19.7664 43.7906 19.9602 43.7906 20.166C43.7906 21.6918 45.0376 22.927 46.5781 22.927H49.3657C49.9403 22.927 50.4049 23.3871 50.4049 23.9563C50.4049 24.5254 49.9526 24.9855 49.3657 24.9855Z" fill="url(#paint16_linear_55740_10855)"/>
<path d="M23.4462 24.9855H20.6587C20.084 24.9855 19.6194 24.5254 19.6194 23.9563C19.6194 23.3871 20.084 22.927 20.6587 22.927H23.4462C24.9867 22.927 26.2338 21.6918 26.2338 20.166C26.2338 19.9602 26.2094 19.7543 26.1604 19.5605C26.0382 19.0035 26.3927 18.4465 26.9429 18.3254C27.5053 18.2043 28.0677 18.5555 28.19 19.1004C28.2633 19.4516 28.3123 19.8027 28.3123 20.166C28.3245 22.818 26.136 24.9855 23.4462 24.9855Z" fill="url(#paint17_linear_55740_10855)"/>
<defs>
<linearGradient id="paint0_linear_55740_10855" x1="36.4118" y1="76.513" x2="108.624" y2="44.356" gradientUnits="userSpaceOnUse">
<stop stop-color="#005EB8"/>
<stop offset="1" stop-color="#002554"/>
</linearGradient>
<linearGradient id="paint1_linear_55740_10855" x1="36.4118" y1="76.513" x2="108.624" y2="44.356" gradientUnits="userSpaceOnUse">
<stop stop-color="#005EB8"/>
<stop offset="1" stop-color="#002554"/>
</linearGradient>
<linearGradient id="paint2_linear_55740_10855" x1="36.4118" y1="76.513" x2="108.624" y2="44.356" gradientUnits="userSpaceOnUse">
<stop stop-color="#005EB8"/>
<stop offset="1" stop-color="#002554"/>
</linearGradient>
<linearGradient id="paint3_linear_55740_10855" x1="36.4118" y1="76.513" x2="108.624" y2="44.356" gradientUnits="userSpaceOnUse">
<stop stop-color="#005EB8"/>
<stop offset="1" stop-color="#002554"/>
</linearGradient>
<linearGradient id="paint4_linear_55740_10855" x1="36.4118" y1="76.513" x2="108.624" y2="44.356" gradientUnits="userSpaceOnUse">
<stop stop-color="#005EB8"/>
<stop offset="1" stop-color="#002554"/>
</linearGradient>
<linearGradient id="paint5_linear_55740_10855" x1="36.4118" y1="76.513" x2="108.624" y2="44.356" gradientUnits="userSpaceOnUse">
<stop stop-color="#005EB8"/>
<stop offset="1" stop-color="#002554"/>
</linearGradient>
<linearGradient id="paint6_linear_55740_10855" x1="36.4118" y1="76.513" x2="108.624" y2="44.356" gradientUnits="userSpaceOnUse">
<stop stop-color="#005EB8"/>
<stop offset="1" stop-color="#002554"/>
</linearGradient>
<linearGradient id="paint7_linear_55740_10855" x1="36.4118" y1="76.513" x2="108.624" y2="44.356" gradientUnits="userSpaceOnUse">
<stop stop-color="#005EB8"/>
<stop offset="1" stop-color="#002554"/>
</linearGradient>
<linearGradient id="paint8_linear_55740_10855" x1="36.4118" y1="76.513" x2="108.624" y2="44.356" gradientUnits="userSpaceOnUse">
<stop stop-color="#005EB8"/>
<stop offset="1" stop-color="#002554"/>
</linearGradient>
<linearGradient id="paint9_linear_55740_10855" x1="36.4118" y1="76.513" x2="108.624" y2="44.356" gradientUnits="userSpaceOnUse">
<stop stop-color="#005EB8"/>
<stop offset="1" stop-color="#002554"/>
</linearGradient>
<linearGradient id="paint10_linear_55740_10855" x1="36.4118" y1="76.513" x2="108.624" y2="44.356" gradientUnits="userSpaceOnUse">
<stop stop-color="#005EB8"/>
<stop offset="1" stop-color="#002554"/>
</linearGradient>
<linearGradient id="paint11_linear_55740_10855" x1="36.4118" y1="76.513" x2="108.624" y2="44.356" gradientUnits="userSpaceOnUse">
<stop stop-color="#005EB8"/>
<stop offset="1" stop-color="#002554"/>
</linearGradient>
<linearGradient id="paint12_linear_55740_10855" x1="36.4118" y1="76.513" x2="108.624" y2="44.356" gradientUnits="userSpaceOnUse">
<stop stop-color="#005EB8"/>
<stop offset="1" stop-color="#002554"/>
</linearGradient>
<linearGradient id="paint13_linear_55740_10855" x1="36.4118" y1="76.513" x2="108.624" y2="44.356" gradientUnits="userSpaceOnUse">
<stop stop-color="#005EB8"/>
<stop offset="1" stop-color="#002554"/>
</linearGradient>
<linearGradient id="paint14_linear_55740_10855" x1="36.4118" y1="76.513" x2="108.624" y2="44.356" gradientUnits="userSpaceOnUse">
<stop stop-color="#005EB8"/>
<stop offset="1" stop-color="#002554"/>
</linearGradient>
<linearGradient id="paint15_linear_55740_10855" x1="36.4118" y1="76.513" x2="108.624" y2="44.356" gradientUnits="userSpaceOnUse">
<stop stop-color="#005EB8"/>
<stop offset="1" stop-color="#002554"/>
</linearGradient>
<linearGradient id="paint16_linear_55740_10855" x1="36.4118" y1="76.513" x2="108.624" y2="44.356" gradientUnits="userSpaceOnUse">
<stop stop-color="#005EB8"/>
<stop offset="1" stop-color="#002554"/>
</linearGradient>
<linearGradient id="paint17_linear_55740_10855" x1="36.4118" y1="76.513" x2="108.624" y2="44.356" gradientUnits="userSpaceOnUse">
<stop stop-color="#005EB8"/>
<stop offset="1" stop-color="#002554"/>
</linearGradient>
</defs>
</svg>
