<svg width="43" height="33" viewBox="0 0 43 33" fill="none" xmlns="http://www.w3.org/2000/svg">
<path d="M2.1275 14.6382H0.828883C0.371091 14.6382 0 14.2671 0 13.8094C0 13.3516 0.371091 12.9805 0.828883 12.9805H2.1275C2.58529 12.9805 2.95638 13.3516 2.95638 13.8094C2.95638 14.2671 2.5852 14.6382 2.1275 14.6382Z" fill="url(#paint0_linear_55447_351665)"/>
<path d="M13.5672 2.95638C13.1094 2.95638 12.7383 2.58529 12.7383 2.1275V0.828883C12.7383 0.371091 13.1094 0 13.5672 0C14.025 0 14.396 0.371091 14.396 0.828883V2.1275C14.396 2.58529 14.0249 2.95638 13.5672 2.95638Z" fill="url(#paint1_linear_55447_351665)"/>
<path d="M5.47786 6.30683C5.26575 6.30683 5.05356 6.22593 4.89176 6.06405L2.94198 4.11427C2.6183 3.79059 2.6183 3.26574 2.94198 2.94198C3.26566 2.6183 3.79051 2.6183 4.11427 2.94198L6.06405 4.89176C6.38773 5.21544 6.38773 5.74029 6.06405 6.06405C5.90217 6.22593 5.68998 6.30683 5.47786 6.30683Z" fill="url(#paint2_linear_55447_351665)"/>
<path d="M21.6531 6.30638C21.441 6.30638 21.2288 6.22548 21.067 6.0636C20.7433 5.73992 20.7433 5.21507 21.067 4.89131L22.9157 3.04256C23.2394 2.71888 23.7643 2.71888 24.088 3.04256C24.4118 3.36624 24.4117 3.89109 24.088 4.21485L22.2393 6.0636C22.0773 6.22548 21.8652 6.30638 21.6531 6.30638Z" fill="url(#paint3_linear_55447_351665)"/>
<path d="M40.8652 21.5046C40.0439 20.4926 38.9528 19.7262 37.7352 19.2943C37.8701 18.614 37.9383 17.9196 37.9383 17.221C37.9383 11.375 33.1823 6.61894 27.3362 6.61894C24.9957 6.61894 22.7419 7.38715 20.8995 8.79692C20.2165 7.74813 19.3151 6.85319 18.25 6.17673C16.8507 5.28809 15.231 4.81836 13.5661 4.81836C8.7424 4.81836 4.81797 8.74279 4.81797 13.5665C4.81797 15.5136 5.47469 17.3891 6.63861 18.9035C2.94162 19.12 0 22.1951 0 25.9454C0 29.8356 3.16493 33.0005 7.05512 33.0005H13.0688C13.5266 33.0005 13.8977 32.6294 13.8977 32.1716C13.8977 31.7138 13.5266 31.3427 13.0688 31.3427H7.05512C4.07902 31.3427 1.65777 28.9215 1.65777 25.9454C1.65777 22.9692 4.07902 20.548 7.05512 20.548C7.82665 20.548 8.57347 20.7088 9.27504 21.026C9.5465 21.1488 9.86338 21.1163 10.1044 20.9408C10.3455 20.7653 10.4737 20.4739 10.4401 20.1777C10.2467 18.4666 11.17 16.8373 12.7376 16.1234C14.1862 15.4638 15.882 15.7312 17.0579 16.8048C17.2889 17.0156 17.6191 17.0786 17.9113 16.9674C18.2037 16.8562 18.4087 16.5899 18.4412 16.2788C18.6697 14.0935 19.6667 12.1658 21.1481 10.7502C21.2136 10.7045 21.271 10.6507 21.3194 10.5905C22.9122 9.14621 25.0268 8.27663 27.3362 8.27663C32.268 8.27663 36.2805 12.289 36.2805 17.2209C36.2805 18.0444 36.1685 18.8602 35.9477 19.6461C35.8861 19.8652 35.9173 20.1001 36.034 20.2954C36.1508 20.4908 36.3428 20.6296 36.565 20.6792C39.0079 21.2246 40.781 23.4392 40.781 25.9452C40.781 28.9213 38.3597 31.3425 35.3836 31.3425H19.6998C19.242 31.3425 18.8709 31.7136 18.8709 32.1714C18.8709 32.6292 19.242 33.0003 19.6998 33.0003H35.3837C39.2739 33.0003 42.4388 29.8354 42.4388 25.9452C42.4388 24.3321 41.8799 22.7551 40.8652 21.5046ZM17.0207 14.7652C15.5004 13.9566 13.6669 13.8786 12.0506 14.6148C10.3015 15.4113 9.11896 17.0116 8.82753 18.8395C7.34349 17.5022 6.47565 15.5816 6.47565 13.5666C6.47565 9.65697 9.65641 6.47621 13.566 6.47621C16.0904 6.47621 18.3703 7.7822 19.6483 9.92063C18.3553 11.2813 17.4511 12.9517 17.0207 14.7652Z" fill="url(#paint4_linear_55447_351665)"/>
<path d="M27.364 11.5923H27.3367C26.8789 11.5923 26.5078 11.2212 26.5078 10.7635C26.5078 10.3057 26.8789 9.93457 27.3367 9.93457H27.364C27.8218 9.93457 28.1928 10.3057 28.1928 10.7635C28.1928 11.2212 27.8217 11.5923 27.364 11.5923Z" fill="url(#paint5_linear_55447_351665)"/>
<path d="M33.7928 18.0495C33.335 18.0495 32.9639 17.6784 32.9639 17.2206C32.9639 15.2187 31.8863 13.3508 30.1518 12.346C29.7557 12.1166 29.6206 11.6094 29.8501 11.2133C30.0795 10.8172 30.5867 10.6821 30.9829 10.9116C33.2274 12.2118 34.6217 14.6293 34.6217 17.2206C34.6216 17.6784 34.2506 18.0495 33.7928 18.0495Z" fill="url(#paint6_linear_55447_351665)"/>
<path d="M16.3836 33.0005C16.1647 33.0005 15.9517 32.9127 15.7976 32.7577C15.6425 32.6035 15.5547 32.3905 15.5547 32.1717C15.5547 31.9537 15.6425 31.7398 15.7976 31.5856C15.9517 31.4315 16.1647 31.3428 16.3836 31.3428C16.6016 31.3428 16.8154 31.4315 16.9696 31.5856C17.1238 31.7398 17.2125 31.9537 17.2125 32.1717C17.2125 32.3905 17.1238 32.6035 16.9696 32.7577C16.8154 32.9127 16.6016 33.0005 16.3836 33.0005Z" fill="url(#paint7_linear_55447_351665)"/>
<defs>
<linearGradient id="paint0_linear_55447_351665" x1="0.00036429" y1="13.811" x2="2.95611" y2="13.811" gradientUnits="userSpaceOnUse">
<stop offset="0.15" stop-color="#005EB8"/>
<stop offset="0.51" stop-color="#2093B3"/>
<stop offset="0.8" stop-color="#40C1AC"/>
</linearGradient>
<linearGradient id="paint1_linear_55447_351665" x1="12.7385" y1="1.48114" x2="14.3959" y2="1.48114" gradientUnits="userSpaceOnUse">
<stop offset="0.15" stop-color="#005EB8"/>
<stop offset="0.51" stop-color="#2093B3"/>
<stop offset="0.8" stop-color="#40C1AC"/>
</linearGradient>
<linearGradient id="paint2_linear_55447_351665" x1="2.69966" y1="4.50662" x2="6.30648" y2="4.50662" gradientUnits="userSpaceOnUse">
<stop offset="0.15" stop-color="#005EB8"/>
<stop offset="0.51" stop-color="#2093B3"/>
<stop offset="0.8" stop-color="#40C1AC"/>
</linearGradient>
<linearGradient id="paint3_linear_55447_351665" x1="20.8247" y1="4.55659" x2="24.3305" y2="4.55659" gradientUnits="userSpaceOnUse">
<stop offset="0.15" stop-color="#005EB8"/>
<stop offset="0.51" stop-color="#2093B3"/>
<stop offset="0.8" stop-color="#40C1AC"/>
</linearGradient>
<linearGradient id="paint4_linear_55447_351665" x1="0.00522938" y1="18.9375" x2="42.4349" y2="18.9375" gradientUnits="userSpaceOnUse">
<stop offset="0.15" stop-color="#005EB8"/>
<stop offset="0.51" stop-color="#2093B3"/>
<stop offset="0.8" stop-color="#40C1AC"/>
</linearGradient>
<linearGradient id="paint5_linear_55447_351665" x1="26.508" y1="10.7651" x2="28.1927" y2="10.7651" gradientUnits="userSpaceOnUse">
<stop offset="0.15" stop-color="#005EB8"/>
<stop offset="0.51" stop-color="#2093B3"/>
<stop offset="0.8" stop-color="#40C1AC"/>
</linearGradient>
<linearGradient id="paint6_linear_55447_351665" x1="29.7389" y1="14.4319" x2="34.6213" y2="14.4319" gradientUnits="userSpaceOnUse">
<stop offset="0.15" stop-color="#005EB8"/>
<stop offset="0.51" stop-color="#2093B3"/>
<stop offset="0.8" stop-color="#40C1AC"/>
</linearGradient>
<linearGradient id="paint7_linear_55447_351665" x1="15.5549" y1="32.1733" x2="17.2123" y2="32.1733" gradientUnits="userSpaceOnUse">
<stop offset="0.15" stop-color="#005EB8"/>
<stop offset="0.51" stop-color="#2093B3"/>
<stop offset="0.8" stop-color="#40C1AC"/>
</linearGradient>
</defs>
</svg>
