<svg width="40" height="40" viewBox="0 0 40 40" fill="none" xmlns="http://www.w3.org/2000/svg">
<g clip-path="url(#clip0_55447_351178)">
<path d="M39.6929 4.02656C39.496 3.56094 39.214 3.14375 38.8554 2.78516C38.4968 2.42656 38.0796 2.14453 37.614 1.94766C37.1328 1.74375 36.6211 1.64062 36.0938 1.64062L23.5046 1.64062C23.0734 1.64062 22.7234 1.99141 22.7234 2.42187C22.7234 2.85234 23.0734 3.20312 23.5046 3.20312L36.0937 3.20312C37.3836 3.20547 38.4352 4.25703 38.4375 5.54687L38.4375 23.5156L8.59375 23.5156L8.59375 3.20312L16.4727 3.20312C16.904 3.20312 17.2539 2.85234 17.2539 2.42187C17.2539 1.99141 16.904 1.64062 16.4727 1.64062L3.90625 1.64062C3.37891 1.64062 2.86719 1.74375 2.38594 1.94766C1.92031 2.14453 1.50313 2.42656 1.14445 2.78516C0.785078 3.14375 0.503906 3.56094 0.306953 4.02656C0.103047 4.50781 0 5.01953 0 5.54688L-3.38621e-10 24.2969L-3.73651e-10 26.6406C-4.05843e-10 28.7945 1.75234 30.5469 3.90625 30.5469L15.7031 30.5469L15.7031 33.2812L14.5312 33.2812C12.3773 33.2812 10.625 35.0336 10.625 37.1875L10.625 37.5781C10.625 38.0096 10.9748 38.3594 11.4062 38.3594L28.5937 38.3594C29.0252 38.3594 29.375 38.0096 29.375 37.5781L29.375 37.1875C29.375 35.0336 27.6227 33.2812 25.4687 33.2812L24.2969 33.2812L24.2969 30.5469L36.0937 30.5469C38.2477 30.5469 40 28.7945 40 26.6406L40 24.2969L40 5.54687C40 5.01953 39.8969 4.50781 39.6929 4.02656ZM1.5625 23.5156L1.5625 9.92187L7.03125 9.92187L7.03125 23.5156L1.5625 23.5156ZM3.90625 3.20312L7.03125 3.20312L7.03125 8.35937L1.5625 8.35937L1.5625 5.54687C1.56484 4.25703 2.61641 3.20547 3.90625 3.20312ZM23.5156 34.8437L25.4687 34.8437C26.628 34.8437 27.5934 35.6898 27.7799 36.7969L12.2201 36.7969C12.4066 35.6898 13.372 34.8437 14.5312 34.8437L16.4844 34.8437C16.9158 34.8437 17.2656 34.494 17.2656 34.0625L17.2656 30.5469L22.7344 30.5469L22.7344 34.0625C22.7344 34.494 23.0842 34.8437 23.5156 34.8437ZM38.4375 26.6406C38.4375 27.933 37.3861 28.9844 36.0937 28.9844L3.90625 28.9844C2.61391 28.9844 1.5625 27.933 1.5625 26.6406L1.5625 25.0781L38.4375 25.0781L38.4375 26.6406Z" fill="url(#paint0_linear_55447_351178)"/>
<path d="M19.9891 3.20312C20.4196 3.20312 20.7695 2.85234 20.7695 2.42187C20.7695 1.99141 20.4196 1.64062 19.9891 1.64062C19.5578 1.64062 19.207 1.99141 19.207 2.42187C19.2071 2.85234 19.5579 3.20312 19.9891 3.20312Z" fill="url(#paint1_linear_55447_351178)"/>
<path d="M28.0348 16.959L28.8056 12.6937L30.0743 16.9881C30.077 16.9974 30.0799 17.0067 30.083 17.0158C30.212 17.3994 30.5698 17.6562 30.9741 17.6562L30.9791 17.6562C31.3855 17.6541 31.743 17.393 31.8685 17.0066C31.8714 16.9977 31.8741 16.9887 31.8767 16.9797L33.1016 12.6886L33.9203 16.9669C34.0014 17.3908 34.4104 17.6686 34.8345 17.5874C35.2583 17.5063 35.536 17.097 35.455 16.6733C35.455 16.6733 34.143 9.81779 34.1423 9.81459C34.057 9.39662 33.7 9.08802 33.2741 9.06396C32.848 9.04029 32.4586 9.30646 32.3268 9.71216C32.3239 9.72107 30.9639 14.4849 30.9639 14.4849C30.9639 14.4849 29.5538 9.71263 29.5507 9.70349C29.4148 9.29896 29.0222 9.03654 28.5965 9.06498C28.1707 9.09357 27.8169 9.40615 27.7361 9.82513C27.7355 9.8281 26.497 16.6811 26.497 16.6811C26.4202 17.1058 26.7023 17.5122 27.1269 17.5889C27.5513 17.6659 27.9579 17.3836 28.0348 16.959Z" fill="url(#paint2_linear_55447_351178)"/>
<path d="M11.25 13.3594C11.25 15.7287 13.1055 17.6562 15.3863 17.6562C16.303 17.6562 17.1241 17.3422 17.7608 16.748C17.8844 16.6327 18.0018 16.5058 18.1099 16.3707C18.3795 16.0338 18.3251 15.5422 17.9882 15.2726C17.6512 15.003 17.1597 15.0576 16.8901 15.3943C16.829 15.4706 16.7632 15.5418 16.6947 15.6058C16.3477 15.9296 15.9075 16.0937 15.3863 16.0937C13.9671 16.0937 12.8125 14.8671 12.8125 13.3594C12.8125 11.8516 13.9671 10.625 15.3863 10.625C15.896 10.625 16.3886 10.783 16.8108 11.0818C17.1629 11.331 17.6505 11.2477 17.8998 10.8955C18.149 10.5434 18.0656 10.0558 17.7134 9.80648C17.0259 9.31977 16.2211 9.0625 15.3862 9.0625C13.1055 9.0625 11.25 10.9901 11.25 13.3594Z" fill="url(#paint3_linear_55447_351178)"/>
<path d="M24.9219 11.6406C24.9219 10.2431 23.7234 9.0625 22.3047 9.0625L20.625 9.0625C20.1936 9.0625 19.8437 9.41227 19.8437 9.84375L19.8437 16.875C19.8437 17.3065 20.1936 17.6562 20.625 17.6562C21.0564 17.6562 21.4062 17.3065 21.4062 16.875L21.4062 15.2455L23.5882 17.4275C23.7408 17.58 23.9406 17.6562 24.1406 17.6562C24.3406 17.6562 24.5405 17.58 24.693 17.4274C24.9981 17.1223 24.9981 16.6277 24.693 16.3225L22.5032 14.1327C23.8538 14.0354 24.9219 12.9553 24.9219 11.6406ZM22.3047 12.5781L21.4062 12.5781L21.4062 10.625L22.3047 10.625C22.8468 10.625 23.3594 11.1186 23.3594 11.6406C23.3594 12.1488 22.8763 12.5781 22.3047 12.5781Z" fill="url(#paint4_linear_55447_351178)"/>
<path d="M4.29687 20.8594C4.72835 20.8594 5.07812 20.5096 5.07812 20.0781C5.07812 19.6467 4.72835 19.2969 4.29688 19.2969C3.8654 19.2969 3.51562 19.6467 3.51562 20.0781C3.51562 20.5096 3.8654 20.8594 4.29687 20.8594Z" fill="url(#paint5_linear_55447_351178)"/>
<path d="M4.29687 17.3437C4.72835 17.3437 5.07812 16.994 5.07812 16.5625C5.07812 16.131 4.72835 15.7812 4.29688 15.7812C3.8654 15.7812 3.51562 16.131 3.51562 16.5625C3.51562 16.994 3.8654 17.3437 4.29687 17.3437Z" fill="url(#paint6_linear_55447_351178)"/>
<path d="M4.29687 13.8281C4.72835 13.8281 5.07812 13.4783 5.07812 13.0469C5.07812 12.6154 4.72835 12.2656 4.29688 12.2656C3.8654 12.2656 3.51562 12.6154 3.51562 13.0469C3.51562 13.4783 3.8654 13.8281 4.29687 13.8281Z" fill="url(#paint7_linear_55447_351178)"/>
</g>
<defs>
<linearGradient id="paint0_linear_55447_351178" x1="0.00492887" y1="20.0366" x2="39.9963" y2="20.0366" gradientUnits="userSpaceOnUse">
<stop offset="0.15" stop-color="#005EB8"/>
<stop offset="0.51" stop-color="#2093B3"/>
<stop offset="0.8" stop-color="#40C1AC"/>
</linearGradient>
<linearGradient id="paint1_linear_55447_351178" x1="19.2072" y1="2.42343" x2="20.7694" y2="2.42343" gradientUnits="userSpaceOnUse">
<stop offset="0.15" stop-color="#005EB8"/>
<stop offset="0.51" stop-color="#2093B3"/>
<stop offset="0.8" stop-color="#40C1AC"/>
</linearGradient>
<linearGradient id="paint2_linear_55447_351178" x1="26.4855" y1="13.3679" x2="35.4682" y2="13.3679" gradientUnits="userSpaceOnUse">
<stop offset="0.15" stop-color="#005EB8"/>
<stop offset="0.51" stop-color="#2093B3"/>
<stop offset="0.8" stop-color="#40C1AC"/>
</linearGradient>
<linearGradient id="paint3_linear_55447_351178" x1="11.2509" y1="13.3679" x2="18.2806" y2="13.3679" gradientUnits="userSpaceOnUse">
<stop offset="0.15" stop-color="#005EB8"/>
<stop offset="0.51" stop-color="#2093B3"/>
<stop offset="0.8" stop-color="#40C1AC"/>
</linearGradient>
<linearGradient id="paint4_linear_55447_351178" x1="19.8444" y1="13.3679" x2="24.9214" y2="13.3679" gradientUnits="userSpaceOnUse">
<stop offset="0.15" stop-color="#005EB8"/>
<stop offset="0.51" stop-color="#2093B3"/>
<stop offset="0.8" stop-color="#40C1AC"/>
</linearGradient>
<linearGradient id="paint5_linear_55447_351178" x1="3.51582" y1="20.0797" x2="5.07798" y2="20.0797" gradientUnits="userSpaceOnUse">
<stop offset="0.15" stop-color="#005EB8"/>
<stop offset="0.51" stop-color="#2093B3"/>
<stop offset="0.8" stop-color="#40C1AC"/>
</linearGradient>
<linearGradient id="paint6_linear_55447_351178" x1="3.51582" y1="16.5641" x2="5.07798" y2="16.5641" gradientUnits="userSpaceOnUse">
<stop offset="0.15" stop-color="#005EB8"/>
<stop offset="0.51" stop-color="#2093B3"/>
<stop offset="0.8" stop-color="#40C1AC"/>
</linearGradient>
<linearGradient id="paint7_linear_55447_351178" x1="3.51582" y1="13.0484" x2="5.07798" y2="13.0484" gradientUnits="userSpaceOnUse">
<stop offset="0.15" stop-color="#005EB8"/>
<stop offset="0.51" stop-color="#2093B3"/>
<stop offset="0.8" stop-color="#40C1AC"/>
</linearGradient>
<clipPath id="clip0_55447_351178">
<rect width="40" height="40" fill="white"/>
</clipPath>
</defs>
</svg>
