<svg width="41" height="40" viewBox="0 0 41 40" fill="none" xmlns="http://www.w3.org/2000/svg">
<g clip-path="url(#clip0_55523_7121)">
<path d="M40.0816 4.02656C39.8847 3.56094 39.6027 3.14375 39.2441 2.78516C38.8855 2.42656 38.4683 2.14453 38.0027 1.94766C37.5215 1.74375 37.0098 1.64063 36.4824 1.64063L23.8933 1.64063C23.462 1.64063 23.112 1.99141 23.112 2.42188C23.112 2.85234 23.462 3.20313 23.8933 3.20313L36.4824 3.20313C37.7723 3.20547 38.8238 4.25703 38.8262 5.54688L38.8262 23.5156L8.98242 23.5156L8.98242 3.20313L16.8613 3.20313C17.2927 3.20313 17.6426 2.85234 17.6426 2.42188C17.6426 1.99141 17.2927 1.64063 16.8613 1.64063L4.29492 1.64063C3.76758 1.64063 3.25586 1.74375 2.77461 1.94766C2.30898 2.14453 1.8918 2.42656 1.53313 2.78516C1.17375 3.14375 0.892578 3.56094 0.695625 4.02656C0.491719 4.50781 0.388672 5.01953 0.388672 5.54688L0.388672 24.2969L0.388672 26.6406C0.388672 28.7945 2.14102 30.5469 4.29492 30.5469L16.0918 30.5469L16.0918 33.2813L14.9199 33.2813C12.766 33.2813 11.0137 35.0336 11.0137 37.1875L11.0137 37.5781C11.0137 38.0096 11.3635 38.3594 11.7949 38.3594L28.9824 38.3594C29.4138 38.3594 29.7637 38.0096 29.7637 37.5781L29.7637 37.1875C29.7637 35.0336 28.0113 33.2813 25.8574 33.2813L24.6855 33.2813L24.6855 30.5469L36.4824 30.5469C38.6363 30.5469 40.3887 28.7945 40.3887 26.6406L40.3887 24.2969L40.3887 5.54688C40.3887 5.01953 40.2855 4.50781 40.0816 4.02656ZM1.95117 23.5156L1.95117 9.92188L7.41992 9.92188L7.41992 23.5156L1.95117 23.5156ZM4.29492 3.20313L7.41992 3.20313L7.41992 8.35938L1.95117 8.35938L1.95117 5.54688C1.95352 4.25703 3.00508 3.20547 4.29492 3.20313ZM23.9043 34.8438L25.8574 34.8438C27.0167 34.8438 27.9821 35.6898 28.1686 36.7969L12.6088 36.7969C12.7952 35.6898 13.7606 34.8438 14.9199 34.8438L16.873 34.8438C17.3045 34.8438 17.6543 34.494 17.6543 34.0625L17.6543 30.5469L23.123 30.5469L23.123 34.0625C23.123 34.494 23.4729 34.8438 23.9043 34.8438ZM38.8262 26.6406C38.8262 27.933 37.7748 28.9844 36.4824 28.9844L4.29492 28.9844C3.00258 28.9844 1.95117 27.933 1.95117 26.6406L1.95117 25.0781L38.8262 25.0781L38.8262 26.6406Z" fill="white"/>
<path d="M20.3777 3.20312C20.8083 3.20312 21.1582 2.85234 21.1582 2.42187C21.1582 1.99141 20.8083 1.64063 20.3777 1.64063C19.9465 1.64063 19.5957 1.99141 19.5957 2.42187C19.5958 2.85234 19.9466 3.20312 20.3777 3.20312Z" fill="white"/>
<path d="M28.4234 16.959L29.1943 12.6937L30.463 16.9881C30.4657 16.9974 30.4686 17.0067 30.4717 17.0158C30.6007 17.3994 30.9584 17.6562 31.3628 17.6562L31.3678 17.6562C31.7742 17.6541 32.1316 17.393 32.2572 17.0066C32.2601 16.9977 32.2628 16.9887 32.2654 16.9797L33.4903 12.6886L34.309 16.9669C34.3901 17.3908 34.7991 17.6686 35.2232 17.5874C35.647 17.5063 35.9247 17.097 35.8437 16.6733C35.8437 16.6733 34.5316 9.81779 34.531 9.81459C34.4457 9.39662 34.0887 9.08802 33.6627 9.06396C33.2366 9.04029 32.8473 9.30646 32.7155 9.71216C32.7126 9.72107 31.3526 14.4849 31.3526 14.4849C31.3526 14.4849 29.9425 9.71263 29.9394 9.70349C29.8035 9.29896 29.4109 9.03654 28.9852 9.06498C28.5594 9.09357 28.2056 9.40615 28.1248 9.82513C28.1241 9.8281 26.8856 16.6811 26.8856 16.6811C26.8089 17.1058 27.0909 17.5122 27.5156 17.5889C27.9399 17.6659 28.3466 17.3836 28.4234 16.959Z" fill="white"/>
<path d="M11.6387 13.3594C11.6387 15.7287 13.4942 17.6563 15.775 17.6563C16.6916 17.6563 17.5127 17.3422 18.1495 16.748C18.273 16.6327 18.3905 16.5058 18.4986 16.3707C18.7682 16.0338 18.7137 15.5422 18.3769 15.2726C18.0399 15.003 17.5484 15.0576 17.2787 15.3943C17.2177 15.4706 17.1519 15.5418 17.0834 15.6058C16.7364 15.9296 16.2962 16.0938 15.775 16.0938C14.3558 16.0938 13.2012 14.8671 13.2012 13.3594C13.2012 11.8516 14.3558 10.625 15.775 10.625C16.2847 10.625 16.7773 10.783 17.1995 11.0818C17.5516 11.331 18.0391 11.2477 18.2884 10.8955C18.5377 10.5434 18.4543 10.0558 18.1021 9.80648C17.4145 9.31977 16.6098 9.0625 15.7749 9.0625C13.4942 9.0625 11.6387 10.9901 11.6387 13.3594Z" fill="white"/>
<path d="M25.3105 11.6406C25.3105 10.2431 24.112 9.0625 22.6934 9.0625L21.0137 9.0625C20.5823 9.0625 20.2324 9.41227 20.2324 9.84375L20.2324 16.875C20.2324 17.3065 20.5823 17.6563 21.0137 17.6563C21.4451 17.6563 21.7949 17.3065 21.7949 16.875L21.7949 15.2455L23.9769 17.4275C24.1295 17.58 24.3293 17.6563 24.5293 17.6563C24.7293 17.6563 24.9291 17.58 25.0817 17.4274C25.3868 17.1223 25.3868 16.6277 25.0817 16.3225L22.8919 14.1327C24.2425 14.0354 25.3105 12.9553 25.3105 11.6406ZM22.6934 12.5781L21.7949 12.5781L21.7949 10.625L22.6934 10.625C23.2355 10.625 23.748 11.1186 23.748 11.6406C23.748 12.1488 23.265 12.5781 22.6934 12.5781Z" fill="white"/>
<path d="M4.68555 20.8594C5.11702 20.8594 5.4668 20.5096 5.4668 20.0781C5.4668 19.6467 5.11702 19.2969 4.68555 19.2969C4.25407 19.2969 3.9043 19.6467 3.9043 20.0781C3.9043 20.5096 4.25407 20.8594 4.68555 20.8594Z" fill="white"/>
<path d="M4.68555 17.3437C5.11702 17.3437 5.4668 16.994 5.4668 16.5625C5.4668 16.131 5.11702 15.7813 4.68555 15.7813C4.25407 15.7813 3.9043 16.131 3.9043 16.5625C3.9043 16.994 4.25407 17.3437 4.68555 17.3437Z" fill="white"/>
<path d="M4.68555 13.8281C5.11702 13.8281 5.4668 13.4783 5.4668 13.0469C5.4668 12.6154 5.11702 12.2656 4.68555 12.2656C4.25407 12.2656 3.9043 12.6154 3.9043 13.0469C3.9043 13.4783 4.25407 13.8281 4.68555 13.8281Z" fill="white"/>
</g>
<defs>
<clipPath id="clip0_55523_7121">
<rect width="40" height="40" fill="white" transform="translate(0.388672)"/>
</clipPath>
</defs>
</svg>
