<svg width="40" height="40" viewBox="0 0 40 40" fill="none" xmlns="http://www.w3.org/2000/svg">
<path d="M38.5941 13.24C37.7251 12.7903 36.4157 12.9313 35.5939 14.3037C35.5915 14.3076 35.5892 14.3115 35.5869 14.3155L32.5511 19.5921C31.6741 19.141 30.5682 19.3634 29.9391 20.1707C29.7218 20.4497 29.0038 21.4054 28.2439 22.4172C27.8273 22.9718 27.4108 23.5263 27.0891 23.9527C26.8293 24.2971 26.8979 24.7869 27.2423 25.0466C27.5868 25.3066 28.0765 25.2379 28.3363 24.8935C28.6584 24.4665 29.0757 23.911 29.493 23.3555C30.2156 22.3937 30.9626 21.399 31.1716 21.1308C31.3498 20.902 31.692 20.8576 31.919 21.0342C32.0876 21.1652 32.0786 21.4861 31.8923 21.9878C31.2293 23.7735 30.4055 25.5579 29.6319 26.8835C29.4145 27.2562 29.5404 27.7345 29.913 27.9519C30.2858 28.1692 30.7641 28.0434 30.9814 27.6708C31.7981 26.2709 32.6639 24.3977 33.3569 22.5315C33.5972 21.8841 33.6409 21.3658 33.5707 20.9526L36.9374 15.101C37.2095 14.6498 37.5688 14.4684 37.8762 14.6274C38.0872 14.7366 38.266 15.0174 38.0768 15.4492C37.8489 15.9527 37.3582 17.1988 36.7376 18.7753C35.916 20.8619 34.8938 23.4588 34.0297 25.4794C32.9772 27.9412 32.5719 28.5357 30.693 30.3734L27.6988 33.302C27.5011 33.4954 27.4204 33.7788 27.4865 34.0473L28.5295 38.2824C28.5309 38.2875 28.5321 38.2926 28.5335 38.2978C28.5506 38.3617 28.5141 38.4154 28.495 38.4305L22.3896 38.4305C21.8096 38.4305 21.685 38.2651 21.5554 37.9141C20.0231 33.764 21.6036 31.382 23.1519 29.7704C23.4507 29.4593 23.4407 28.9649 23.1297 28.666C22.8186 28.3672 22.3241 28.377 22.0252 28.6882C20.8844 29.8757 20.1296 31.0883 19.7239 32.386C19.5574 31.8569 19.3333 31.3413 19.0503 30.8377C17.9886 28.9474 16.2627 27.5624 14.876 26.4495C14.0695 25.8023 13.3078 25.1911 12.8787 24.6403C12.67 24.3724 11.9235 23.3785 11.2016 22.4174C10.4415 21.4055 9.72362 20.4498 9.50624 20.1708C8.87722 19.3634 7.77133 19.141 6.8943 19.5922L3.85837 14.3155C3.85611 14.3115 3.85376 14.3076 3.85142 14.3037C3.02962 12.9313 1.72009 12.7903 0.851112 13.24C-0.0247427 13.6934 -0.618696 14.8155 -0.0593456 16.0831C-0.0582521 16.0855 -0.0571585 16.0879 -0.056065 16.0904C0.0944542 16.4222 0.397055 17.179 0.643885 17.8011C0.802996 18.2022 1.25721 18.3983 1.658 18.2392C2.05902 18.0801 2.25515 17.626 2.09604 17.2251C1.71658 16.2685 1.49873 15.7367 1.3686 15.4493C1.17949 15.0174 1.35821 14.7367 1.56926 14.6275C1.87678 14.4685 2.23601 14.65 2.50815 15.1012L5.87472 20.9527C5.80458 21.3659 5.84824 21.8841 6.08867 22.5316C6.78151 24.3977 7.64736 26.2709 8.46409 27.6708C8.68155 28.0434 9.15982 28.1692 9.53241 27.9519C9.905 27.7345 10.0308 27.2561 9.81345 26.8835C9.04 25.5578 8.21609 23.7734 7.55308 21.9878C7.36679 21.4861 7.35781 21.1653 7.52653 21.0341C7.75328 20.8579 8.09564 20.9021 8.27381 21.1308C8.48268 21.399 9.22989 22.3937 9.95241 23.3556C10.7119 24.3666 11.4292 25.3215 11.6463 25.6003C12.1876 26.2951 13.0185 26.962 13.8982 27.6678C16.7095 29.9238 19.8959 32.4809 17.8899 37.914C17.7602 38.265 17.6357 38.4304 17.0557 38.4304L10.9503 38.4304C10.9312 38.4154 10.8947 38.3616 10.9118 38.2977C10.9132 38.2926 10.9145 38.2875 10.9157 38.2823L11.9588 34.0472C12.025 33.7788 11.9442 33.4954 11.7465 33.302L8.75232 30.3733C6.87352 28.5357 6.46813 27.9411 5.41559 25.4793C5.1993 24.9736 4.9563 24.3916 4.69306 23.7497C4.52942 23.3506 4.07318 23.1595 3.67403 23.3233C3.27489 23.487 3.08398 23.9432 3.24763 24.3424C3.5175 25.0006 3.75683 25.5734 3.97913 26.0934C5.11424 28.7483 5.63023 29.5048 7.66002 31.49L10.3352 34.1067L9.4004 37.9021C9.26855 38.4055 9.379 38.952 9.69668 39.3662C10.0021 39.7642 10.4551 39.9925 10.9396 39.9925L17.0556 39.9925C18.221 39.9925 18.9733 39.4897 19.3553 38.455C19.4998 38.0637 19.622 37.6797 19.7233 37.3022C19.824 37.6812 19.9461 38.0656 20.0899 38.455C20.4719 39.4897 21.2242 39.9925 22.3895 39.9925L28.5056 39.9925C28.99 39.9925 29.443 39.7642 29.7485 39.3662C30.0661 38.9522 30.1767 38.4057 30.0449 37.9024L29.11 34.1068L31.7852 31.4901C33.8149 29.5048 34.331 28.7483 35.4661 26.0934C36.3389 24.052 37.3658 21.4435 38.1911 19.3475C38.7811 17.8489 39.2905 16.5547 39.5013 16.0901C39.5024 16.0877 39.5034 16.0853 39.5045 16.0829C40.0641 14.8155 39.47 13.6934 38.5941 13.24V13.24Z" fill="url(#paint0_linear_55447_351184)"/>
<path d="M3.44135 20.784C3.44135 20.3526 3.09165 20.0029 2.66025 20.0029L2.6597 20.0029C2.2283 20.0029 1.87891 20.3526 1.87891 20.784C1.87891 21.2154 2.22884 21.5651 2.66025 21.5651C3.09165 21.5651 3.44135 21.2154 3.44135 20.784Z" fill="url(#paint1_linear_55447_351184)"/>
<path d="M25.2339 26.1357C24.8026 26.1357 24.4531 26.4854 24.4531 26.9168C24.4531 27.3483 24.8031 27.698 25.2345 27.698C25.6659 27.698 26.0156 27.3483 26.0156 26.9168C26.0156 26.4854 25.6658 26.1357 25.2345 26.1357L25.2339 26.1357Z" fill="url(#paint2_linear_55447_351184)"/>
<path d="M7.22658 12.9439L14.3489 12.9439C14.2883 13.271 14.2565 13.6068 14.2565 13.9484L14.2565 15.2873C14.2565 15.7188 14.6062 16.0685 15.0376 16.0685L24.4108 16.0685C24.8422 16.0685 25.192 15.7188 25.192 15.2873L25.192 13.9484C25.192 13.6069 25.16 13.2711 25.0994 12.9439L32.2219 12.9439C32.6532 12.9439 33.003 12.5942 33.003 12.1628L33.003 10.8238C33.003 9.00358 32.1133 7.34076 30.6378 6.32571C30.8657 5.8647 30.9944 5.34628 30.9944 4.79818L30.9944 3.45921C30.9944 1.55182 29.4427 -3.40249e-10 27.5353 -3.12029e-10C25.6278 -2.83808e-10 24.0761 1.55175 24.0761 3.45921L24.0761 4.79826C24.0761 5.34722 24.2052 5.86642 24.4337 6.32798C23.9532 6.66136 23.532 7.06737 23.1834 7.52682L23.1834 6.58371C23.1834 4.67633 21.6317 3.1245 19.7242 3.1245C17.8167 3.1245 16.265 4.67625 16.265 6.58371L16.265 7.52698C15.9164 7.06745 15.4951 6.66136 15.0146 6.32798C15.2432 5.86642 15.3723 5.3473 15.3723 4.79826L15.3723 3.45921C15.3723 1.55182 13.8205 -1.09117e-10 11.9131 0C10.0056 0 8.45385 1.55175 8.45385 3.45921L8.45385 4.79826C8.45385 5.34636 8.58258 5.86478 8.81043 6.32579C7.33484 7.34068 6.44531 9.00296 6.44531 10.8239L6.44531 12.1628C6.44547 12.5942 6.79517 12.9439 7.22658 12.9439V12.9439ZM23.6297 14.5062L15.8187 14.5062L15.8187 13.9484C15.8187 12.6269 16.5134 11.3806 17.619 10.6648C18.2026 11.114 18.9325 11.3819 19.7242 11.3819C20.5163 11.3819 21.2467 11.1137 21.8304 10.6641C21.9991 10.7722 22.1575 10.8922 22.3054 11.022C22.3299 11.0469 22.3556 11.0704 22.3832 11.0918C22.7862 11.465 23.1033 11.9159 23.3168 12.4156C23.3274 12.4466 23.34 12.4766 23.3543 12.5058C23.5335 12.9561 23.6297 13.4438 23.6297 13.9483L23.6297 14.5062L23.6297 14.5062ZM31.4408 10.8239L31.4408 11.3817L24.554 11.3817C24.3215 10.9452 24.0297 10.5411 23.6854 10.1809C23.8678 9.10208 24.5061 8.13843 25.4311 7.54119C26.0145 7.98978 26.7441 8.25739 27.5353 8.25739C28.3274 8.25739 29.0576 7.98916 29.6414 7.53955C30.761 8.25747 31.4408 9.48099 31.4408 10.8239V10.8239ZM25.6382 3.45921C25.6382 2.41323 26.4892 1.56221 27.5352 1.56221C28.5812 1.56221 29.4321 2.41323 29.4321 3.45921L29.4321 4.79826C29.4321 5.84424 28.5811 6.69526 27.5352 6.69526C26.4891 6.69526 25.6382 5.84424 25.6382 4.79826L25.6382 3.45921ZM17.8272 6.58371C17.8272 5.53773 18.6782 4.68672 19.7242 4.68672C20.7702 4.68672 21.6212 5.53773 21.6212 6.58371L21.6212 7.92276C21.6212 8.96874 20.7702 9.81976 19.7242 9.81976C18.6782 9.81976 17.8272 8.96874 17.8272 7.92276L17.8272 6.58371ZM10.0162 3.45921C10.0162 2.41323 10.8672 1.56221 11.9132 1.56221C12.9592 1.56221 13.8102 2.41323 13.8102 3.45921L13.8102 4.79826C13.8102 5.84424 12.9592 6.69526 11.9132 6.69526C10.8672 6.69526 10.0162 5.84424 10.0162 4.79826L10.0162 3.45921ZM8.00768 10.8239C8.00768 9.48052 8.6874 8.25739 9.80704 7.53963C10.3908 7.98924 11.1211 8.25747 11.9132 8.25747C12.7044 8.25747 13.4339 7.98986 14.0174 7.54127C14.9422 8.13843 15.5805 9.10216 15.7631 10.1807C15.4186 10.541 15.1267 10.9451 14.8942 11.3818L8.00776 11.3818L8.00776 10.8239L8.00768 10.8239Z" fill="url(#paint3_linear_55447_351184)"/>
<defs>
<linearGradient id="paint0_linear_55447_351184" x1="-0.272415" y1="26.5285" x2="39.7189" y2="26.5285" gradientUnits="userSpaceOnUse">
<stop offset="0.15" stop-color="#005EB8"/>
<stop offset="0.51" stop-color="#2093B3"/>
<stop offset="0.8" stop-color="#40C1AC"/>
</linearGradient>
<linearGradient id="paint1_linear_55447_351184" x1="1.8791" y1="20.7856" x2="3.44121" y2="20.7856" gradientUnits="userSpaceOnUse">
<stop offset="0.15" stop-color="#005EB8"/>
<stop offset="0.51" stop-color="#2093B3"/>
<stop offset="0.8" stop-color="#40C1AC"/>
</linearGradient>
<linearGradient id="paint2_linear_55447_351184" x1="24.4533" y1="26.9184" x2="26.0154" y2="26.9184" gradientUnits="userSpaceOnUse">
<stop offset="0.15" stop-color="#005EB8"/>
<stop offset="0.51" stop-color="#2093B3"/>
<stop offset="0.8" stop-color="#40C1AC"/>
</linearGradient>
<linearGradient id="paint3_linear_55447_351184" x1="6.44858" y1="8.05024" x2="33.0006" y2="8.05024" gradientUnits="userSpaceOnUse">
<stop offset="0.15" stop-color="#005EB8"/>
<stop offset="0.51" stop-color="#2093B3"/>
<stop offset="0.8" stop-color="#40C1AC"/>
</linearGradient>
</defs>
</svg>
