<svg width="40" height="40" viewBox="0 0 40 40" fill="none" xmlns="http://www.w3.org/2000/svg">
<g clip-path="url(#clip0_55447_351870)">
<path d="M33.8663 7.04407C33.8632 7.04102 33.8605 7.03796 33.8577 7.03461C33.8538 7.03033 33.8498 7.02576 33.8455 7.02148L33.587 6.7395L28.4671 1.15021C27.8976 0.528565 27.142 0.137634 26.315 0.0302124C26.3141 0.0302124 26.3132 0.0302124 26.3123 0.0299072C26.3013 0.0286866 26.2903 0.0271606 26.279 0.0259399C26.1386 0.00885008 25.9967 -3.07182e-10 25.8539 -3.05069e-10L11.6751 0C10.0833 0 8.78815 1.29486 8.78815 2.88666L8.78815 4.29077L7.80151 4.29077C6.38611 4.29077 5.23437 5.4425 5.23437 6.85852L5.23437 36.0757C5.23437 38.2397 6.99463 40 9.15863 40L27.0938 40C28.5092 40 29.6609 38.8483 29.6609 37.4329L29.6609 36.2094L31.8896 36.2094C33.4814 36.2094 34.7766 34.9142 34.7766 33.3228L34.7766 9.41559C34.7766 8.53668 34.4534 7.69562 33.8663 7.04407ZM32.6468 8.02582L27.3224 8.02582C27.0135 8.02582 26.7624 7.77466 26.7624 7.46582L26.7624 1.78375C26.9681 1.88995 27.1558 2.03217 27.3148 2.20581L32.2754 7.62054L32.6468 8.02582ZM31.89 34.6469L11.6751 34.6469C10.9448 34.6469 10.3506 34.0527 10.3506 33.3228L10.3506 29.6875C10.3506 29.256 10.0009 28.9062 9.5694 28.9062C9.13818 28.9062 8.78815 29.256 8.78815 29.6875L8.78815 33.3228C8.78815 34.9146 10.0833 36.2094 11.6751 36.2094L28.0984 36.2094L28.0984 37.4329C28.0984 37.9868 27.6477 38.4375 27.0938 38.4375L9.15863 38.4375C7.85645 38.4375 6.79687 37.3779 6.79687 36.0757L6.79687 6.85852C6.79687 6.30402 7.24762 5.85327 7.80151 5.85327L8.78815 5.85327L8.78815 23.4375C8.78815 23.869 9.13818 24.2187 9.5694 24.2187C10.0009 24.2187 10.3506 23.869 10.3506 23.4375L10.3506 2.88666C10.3506 2.15668 10.9448 1.5625 11.6751 1.5625L25.1999 1.5625L25.1999 7.46582C25.1999 8.63617 26.152 9.58832 27.3224 9.58832L33.2141 9.58832L33.2141 33.3228C33.2141 34.0527 32.6199 34.6469 31.89 34.6469Z" fill="url(#paint0_linear_55447_351870)"/>
<path d="M14.5352 11.1318L22.8878 11.1318C23.319 11.1318 23.6691 10.7821 23.6691 10.3506C23.6691 9.91907 23.319 9.56934 22.8878 9.56934L14.5352 9.56934C14.1036 9.56934 13.7539 9.91907 13.7539 10.3506C13.7539 10.7821 14.1036 11.1318 14.5352 11.1318Z" fill="url(#paint1_linear_55447_351870)"/>
<path d="M26.7834 16.0312L14.5352 16.0312C14.1036 16.0312 13.7539 16.381 13.7539 16.8125C13.7539 17.244 14.1036 17.5937 14.5352 17.5937L26.7834 17.5937C27.2149 17.5937 27.5646 17.244 27.5646 16.8125C27.5646 16.381 27.2149 16.0312 26.7834 16.0312Z" fill="url(#paint2_linear_55447_351870)"/>
<path d="M26.7834 22.4932L14.5352 22.4932C14.1036 22.4932 13.7539 22.8429 13.7539 23.2744C13.7539 23.7059 14.1036 24.0557 14.5352 24.0557L26.7834 24.0557C27.2149 24.0557 27.5646 23.7059 27.5646 23.2744C27.5646 22.8429 27.2149 22.4932 26.7834 22.4932Z" fill="url(#paint3_linear_55447_351870)"/>
<path d="M26.7834 28.9551L14.5352 28.9551C14.1036 28.9551 13.7539 29.3048 13.7539 29.7363C13.7539 30.1678 14.1036 30.5176 14.5352 30.5176L26.7834 30.5176C27.2149 30.5176 27.5646 30.1678 27.5646 29.7363C27.5646 29.3048 27.2149 28.9551 26.7834 28.9551Z" fill="url(#paint4_linear_55447_351870)"/>
<path d="M9.57031 25.7822C9.13879 25.7822 8.78906 26.1332 8.78906 26.5644C8.78906 26.9959 9.13879 27.3456 9.57031 27.3456C10.0015 27.3456 10.3516 26.9959 10.3516 26.5644L10.3516 26.5626C10.3516 26.131 10.0015 25.7822 9.57031 25.7822Z" fill="url(#paint5_linear_55447_351870)"/>
</g>
<defs>
<linearGradient id="paint0_linear_55447_351870" x1="5.23802" y1="20.0399" x2="34.7739" y2="20.0399" gradientUnits="userSpaceOnUse">
<stop offset="0.15" stop-color="#005EB8"/>
<stop offset="0.51" stop-color="#2093B3"/>
<stop offset="0.8" stop-color="#40C1AC"/>
</linearGradient>
<linearGradient id="paint1_linear_55447_351870" x1="13.7551" y1="10.3521" x2="23.6682" y2="10.3521" gradientUnits="userSpaceOnUse">
<stop offset="0.15" stop-color="#005EB8"/>
<stop offset="0.51" stop-color="#2093B3"/>
<stop offset="0.8" stop-color="#40C1AC"/>
</linearGradient>
<linearGradient id="paint2_linear_55447_351870" x1="13.7556" y1="16.8141" x2="27.5634" y2="16.8141" gradientUnits="userSpaceOnUse">
<stop offset="0.15" stop-color="#005EB8"/>
<stop offset="0.51" stop-color="#2093B3"/>
<stop offset="0.8" stop-color="#40C1AC"/>
</linearGradient>
<linearGradient id="paint3_linear_55447_351870" x1="13.7556" y1="23.276" x2="27.5634" y2="23.276" gradientUnits="userSpaceOnUse">
<stop offset="0.15" stop-color="#005EB8"/>
<stop offset="0.51" stop-color="#2093B3"/>
<stop offset="0.8" stop-color="#40C1AC"/>
</linearGradient>
<linearGradient id="paint4_linear_55447_351870" x1="13.7556" y1="29.7379" x2="27.5634" y2="29.7379" gradientUnits="userSpaceOnUse">
<stop offset="0.15" stop-color="#005EB8"/>
<stop offset="0.51" stop-color="#2093B3"/>
<stop offset="0.8" stop-color="#40C1AC"/>
</linearGradient>
<linearGradient id="paint5_linear_55447_351870" x1="8.78926" y1="26.5655" x2="10.3514" y2="26.5655" gradientUnits="userSpaceOnUse">
<stop offset="0.15" stop-color="#005EB8"/>
<stop offset="0.51" stop-color="#2093B3"/>
<stop offset="0.8" stop-color="#40C1AC"/>
</linearGradient>
<clipPath id="clip0_55447_351870">
<rect width="40" height="40" fill="white"/>
</clipPath>
</defs>
</svg>
