<svg width="41" height="40" viewBox="0 0 41 40" fill="none" xmlns="http://www.w3.org/2000/svg">
<g clip-path="url(#clip0_55523_6631)">
<path d="M34.2549 7.04407C34.2519 7.04102 34.2491 7.03796 34.2464 7.03461C34.2424 7.03033 34.2385 7.02576 34.2342 7.02148L33.9757 6.7395L28.8558 1.15021C28.2863 0.528564 27.5307 0.137634 26.7037 0.0302124C26.7028 0.0302124 26.7018 0.0302124 26.7009 0.0299072C26.6899 0.0286866 26.679 0.0271606 26.6677 0.0259399C26.5273 0.00885008 26.3854 -4.35319e-10 26.2426 -4.32325e-10L12.0638 -1.35041e-10C10.472 -1.01667e-10 9.17682 1.29486 9.17682 2.88666L9.17682 4.29077L8.19019 4.29077C6.77478 4.29077 5.62305 5.4425 5.62305 6.85852L5.62305 36.0757C5.62305 38.2397 7.3833 40 9.5473 40L27.4825 40C28.8979 40 30.0496 38.8483 30.0496 37.4329L30.0496 36.2094L32.2783 36.2094C33.8701 36.2094 35.1653 34.9142 35.1653 33.3228L35.1653 9.41559C35.1653 8.53668 34.8421 7.69562 34.2549 7.04407V7.04407ZM33.0355 8.02582L27.7111 8.02582C27.4022 8.02582 27.1511 7.77466 27.1511 7.46582L27.1511 1.78375C27.3567 1.88995 27.5444 2.03217 27.7034 2.20581L32.6641 7.62054L33.0355 8.02582ZM32.2786 34.6469L12.0638 34.6469C11.3335 34.6469 10.7393 34.0527 10.7393 33.3228L10.7393 29.6875C10.7393 29.256 10.3896 28.9062 9.95807 28.9062C9.52686 28.9062 9.17682 29.256 9.17682 29.6875L9.17682 33.3228C9.17682 34.9146 10.472 36.2094 12.0638 36.2094L28.4871 36.2094L28.4871 37.4329C28.4871 37.9868 28.0364 38.4375 27.4825 38.4375L9.5473 38.4375C8.24512 38.4375 7.18555 37.3779 7.18555 36.0757L7.18555 6.85852C7.18555 6.30402 7.63629 5.85327 8.19019 5.85327L9.17682 5.85327L9.17682 23.4375C9.17682 23.869 9.52686 24.2187 9.95807 24.2187C10.3896 24.2187 10.7393 23.869 10.7393 23.4375L10.7393 2.88666C10.7393 2.15668 11.3335 1.5625 12.0638 1.5625L25.5886 1.5625L25.5886 7.46582C25.5886 8.63617 26.5407 9.58832 27.7111 9.58832L33.6028 9.58832L33.6028 33.3228C33.6028 34.0527 33.0086 34.6469 32.2786 34.6469V34.6469Z" fill="white"/>
<path d="M14.9238 11.1318L23.2765 11.1318C23.7077 11.1318 24.0577 10.7821 24.0577 10.3506C24.0577 9.91907 23.7077 9.56934 23.2765 9.56934L14.9238 9.56934C14.4923 9.56934 14.1426 9.91907 14.1426 10.3506C14.1426 10.7821 14.4923 11.1318 14.9238 11.1318Z" fill="white"/>
<path d="M27.1721 16.0312L14.9238 16.0312C14.4923 16.0312 14.1426 16.381 14.1426 16.8125C14.1426 17.244 14.4923 17.5937 14.9238 17.5937L27.1721 17.5937C27.6036 17.5937 27.9533 17.244 27.9533 16.8125C27.9533 16.381 27.6036 16.0312 27.1721 16.0312Z" fill="white"/>
<path d="M27.1721 22.4937L14.9238 22.4937C14.4923 22.4937 14.1426 22.8434 14.1426 23.2749C14.1426 23.7064 14.4923 24.0562 14.9238 24.0562L27.1721 24.0562C27.6036 24.0562 27.9533 23.7064 27.9533 23.2749C27.9533 22.8434 27.6036 22.4937 27.1721 22.4937Z" fill="white"/>
<path d="M27.1721 28.9556L14.9238 28.9556C14.4923 28.9556 14.1426 29.3053 14.1426 29.7368C14.1426 30.1683 14.4923 30.5181 14.9238 30.5181L27.1721 30.5181C27.6036 30.5181 27.9533 30.1683 27.9533 29.7368C27.9533 29.3053 27.6036 28.9556 27.1721 28.9556Z" fill="white"/>
<path d="M9.95898 25.7822C9.52747 25.7822 9.17773 26.1332 9.17773 26.5644C9.17773 26.9959 9.52747 27.3456 9.95898 27.3456C10.3902 27.3456 10.7402 26.9959 10.7402 26.5644L10.7402 26.5626C10.7402 26.131 10.3902 25.7822 9.95898 25.7822V25.7822Z" fill="white"/>
</g>
<defs>
<clipPath id="clip0_55523_6631">
<rect width="40" height="40" fill="white" transform="translate(0.388672)"/>
</clipPath>
</defs>
</svg>
