<svg width="60" height="60" viewBox="0 0 60 60" fill="none" xmlns="http://www.w3.org/2000/svg">
<g filter="url(#filter0_d_55447_351686)">
<rect x="10" y="3" width="40" height="40" rx="20" fill="white"/>
<path d="M35.932 16.333H24.0654C23.8709 16.333 23.6843 16.4103 23.5468 16.5478C23.4093 16.6853 23.332 16.8718 23.332 17.0663V28.933C23.332 29.0293 23.351 29.1247 23.3879 29.2136C23.4247 29.3026 23.4787 29.3835 23.5468 29.4516C23.6149 29.5196 23.6958 29.5737 23.7847 29.6105C23.8737 29.6474 23.9691 29.6663 24.0654 29.6663H30.452V24.4997H28.7187V22.4997H30.452V20.9997C30.4161 20.6475 30.4577 20.2918 30.5738 19.9574C30.69 19.623 30.8779 19.318 31.1243 19.0639C31.3708 18.8099 31.6699 18.6128 32.0006 18.4865C32.3313 18.3602 32.6856 18.3078 33.0387 18.333C33.5576 18.3298 34.0762 18.3565 34.592 18.413V20.213H33.532C32.692 20.213 32.532 20.613 32.532 21.193V22.4797H34.532L34.272 24.4797H32.532V29.6663H35.932C36.0283 29.6663 36.1237 29.6474 36.2127 29.6105C36.3016 29.5737 36.3825 29.5196 36.4506 29.4516C36.5187 29.3835 36.5727 29.3026 36.6095 29.2136C36.6464 29.1247 36.6654 29.0293 36.6654 28.933V17.0663C36.6654 16.97 36.6464 16.8747 36.6095 16.7857C36.5727 16.6967 36.5187 16.6159 36.4506 16.5478C36.3825 16.4797 36.3016 16.4257 36.2127 16.3888C36.1237 16.352 36.0283 16.333 35.932 16.333Z" fill="#005EB8"/>
</g>
<defs>
<filter id="filter0_d_55447_351686" x="0" y="0" width="60" height="60" filterUnits="userSpaceOnUse" color-interpolation-filters="sRGB">
<feFlood flood-opacity="0" result="BackgroundImageFix"/>
<feColorMatrix in="SourceAlpha" type="matrix" values="0 0 0 0 0 0 0 0 0 0 0 0 0 0 0 0 0 0 127 0" result="hardAlpha"/>
<feOffset dy="7"/>
<feGaussianBlur stdDeviation="5"/>
<feColorMatrix type="matrix" values="0 0 0 0 0.160784 0 0 0 0 0.14902 0 0 0 0 0.196078 0 0 0 0.03 0"/>
<feBlend mode="normal" in2="BackgroundImageFix" result="effect1_dropShadow_55447_351686"/>
<feBlend mode="normal" in="SourceGraphic" in2="effect1_dropShadow_55447_351686" result="shape"/>
</filter>
</defs>
</svg>
