<svg width="36" height="30" viewBox="0 0 36 30" fill="none" xmlns="http://www.w3.org/2000/svg">
<path d="M35.0964 8.4077C34.4794 7.58615 33.3491 7.48074 32.4332 7.48074H30.1345V6.26538C30.1345 5.05077 29.2035 4.06271 28.0592 4.06271H15.2318V2.51006C15.2318 1.48145 14.4633 0.644531 13.5186 0.644531H6.68951C5.7456 0.644531 4.97758 1.48139 4.97758 2.51006V4.06271H2.60797C1.46446 4.06271 0.534085 5.05077 0.534085 6.26538V28.4581L0.527454 28.4809C0.467093 28.6875 0.507493 28.9105 0.636555 29.0827C0.765686 29.255 0.968372 29.3563 1.18357 29.3563H29.4621C29.7659 29.3563 30.0332 29.1558 30.1184 28.8642L35.2386 11.32C35.4834 10.4769 35.7349 9.25774 35.0964 8.4077ZM1.90134 6.26531C1.90134 5.81243 2.22495 5.42989 2.60797 5.42989H5.66118C6.03872 5.42989 6.34477 5.12385 6.34477 4.7463V2.51006C6.34477 2.22493 6.52674 2.01179 6.68944 2.01179H13.5187C13.6819 2.01179 13.8646 2.22486 13.8646 2.51006V4.7463C13.8646 5.12385 14.1706 5.42989 14.5482 5.42989H28.0591C28.4429 5.42989 28.7671 5.81243 28.7671 6.26531V7.48067H10.36C9.07258 7.48067 8.05061 7.6001 7.24718 8.18293C6.53508 8.69952 6.07106 9.50801 5.646 10.972L1.90134 23.7812V6.26531ZM33.9259 10.9379L28.9496 27.9891H2.09569L6.95864 11.3544C7.57743 9.22268 8.08602 8.84793 10.3599 8.84793H29.4502C29.4504 8.84793 29.4507 8.848 29.4509 8.848C29.4511 8.848 29.4513 8.84793 29.4516 8.84793H32.4332C33.2852 8.84793 33.8134 8.97604 34.0033 9.22869C34.141 9.41217 34.2394 9.85794 33.9259 10.9379Z" fill="url(#paint0_linear_55593_10105)"/>
<defs>
<linearGradient id="paint0_linear_55593_10105" x1="0.504313" y1="15.029" x2="35.4968" y2="15.029" gradientUnits="userSpaceOnUse">
<stop offset="0.15" stop-color="#005EB8"/>
<stop offset="0.51" stop-color="#2093B3"/>
<stop offset="0.8" stop-color="#40C1AC"/>
</linearGradient>
</defs>
</svg>
