<svg width="40" height="40" viewBox="0 0 40 40" fill="none" xmlns="http://www.w3.org/2000/svg">
<circle cx="20" cy="20" r="20" fill="white"/>
<g clip-path="url(#clip0_916_106285)">
<path d="M25.936 13.332H14.0693C13.8748 13.332 13.6883 13.4093 13.5507 13.5468C13.4132 13.6843 13.3359 13.8709 13.3359 14.0654V25.932C13.3359 26.0283 13.3549 26.1237 13.3918 26.2126C13.4286 26.3016 13.4826 26.3825 13.5507 26.4506C13.6188 26.5186 13.6997 26.5727 13.7886 26.6095C13.8776 26.6464 13.973 26.6653 14.0693 26.6653H20.4559V21.4987H18.7226V19.4987H20.4559V17.9987C20.42 17.6465 20.4616 17.2908 20.5777 16.9564C20.6939 16.622 20.8818 16.3171 21.1282 16.063C21.3747 15.8089 21.6738 15.6118 22.0045 15.4855C22.3352 15.3593 22.6895 15.3069 23.0426 15.332C23.5615 15.3288 24.0801 15.3556 24.596 15.412V17.212H23.536C22.6959 17.212 22.5359 17.612 22.5359 18.192V19.4787H24.536L24.276 21.4787H22.5359V26.6653H25.936C26.0323 26.6653 26.1276 26.6464 26.2166 26.6095C26.3056 26.5727 26.3864 26.5186 26.4545 26.4506C26.5226 26.3825 26.5766 26.3016 26.6135 26.2126C26.6503 26.1237 26.6693 26.0283 26.6693 25.932V14.0654C26.6693 13.9691 26.6503 13.8737 26.6135 13.7847C26.5766 13.6958 26.5226 13.6149 26.4545 13.5468C26.3864 13.4787 26.3056 13.4247 26.2166 13.3879C26.1276 13.351 26.0323 13.332 25.936 13.332Z" fill="#005EB8"/>
</g>
<defs>
<clipPath id="clip0_916_106285">
<rect width="14" height="14" fill="white" transform="translate(13 13)"/>
</clipPath>
</defs>
</svg>
