<svg width="40" height="40" viewBox="0 0 40 40" fill="none" xmlns="http://www.w3.org/2000/svg">
<circle cx="20" cy="20" r="20" fill="white"/>
<g clip-path="url(#clip0_916_106282)">
<path fill-rule="evenodd" clip-rule="evenodd" d="M28 14.9105C27.4121 15.1782 26.7791 15.3592 26.1152 15.4401C26.7932 15.0241 27.3135 14.3644 27.5586 13.5786C26.9238 13.9638 26.2222 14.244 25.4728 14.3943C24.8755 13.7404 24.0218 13.332 23.0771 13.332C21.2655 13.332 19.7957 14.8392 19.7957 16.6979C19.7957 16.9617 19.8239 17.2179 19.8803 17.4645C17.1521 17.3238 14.7338 15.9852 13.1138 13.9465C12.8311 14.4453 12.6696 15.0241 12.6696 15.6404C12.6696 16.8077 13.2491 17.8381 14.13 18.4419C13.5928 18.4256 13.0856 18.2724 12.6424 18.0221V18.0635C12.6424 19.6949 13.774 21.0556 15.2766 21.3638C15.0015 21.4428 14.7113 21.4823 14.4117 21.4823C14.2004 21.4823 13.9938 21.462 13.7937 21.4226C14.2117 22.7593 15.4231 23.7329 16.86 23.7589C15.7368 24.6622 14.3206 25.2006 12.7832 25.2006C12.5184 25.2006 12.2564 25.1851 12 25.1543C13.4528 26.1077 15.179 26.6653 17.0319 26.6653C23.0705 26.6653 26.3715 21.5372 26.3715 17.0889C26.3715 16.9425 26.3687 16.7961 26.3631 16.6526C27.0045 16.1778 27.5614 15.5856 28 14.9105Z" fill="#005EB8"/>
</g>
<defs>
<clipPath id="clip0_916_106282">
<rect width="16" height="14" fill="white" transform="translate(12 13)"/>
</clipPath>
</defs>
</svg>
