<svg width="40" height="40" viewBox="0 0 40 40" fill="none" xmlns="http://www.w3.org/2000/svg">
<circle cx="20" cy="20" r="20" fill="white"/>
<g clip-path="url(#clip0_916_106288)">
<path fill-rule="evenodd" clip-rule="evenodd" d="M27.3307 26.6653H24.0892V21.9782C24.0892 20.7513 23.5821 19.9137 22.4671 19.9137C21.6143 19.9137 21.14 20.4789 20.9192 21.0237C20.8364 21.2192 20.8494 21.4915 20.8494 21.7639V26.6653H17.638C17.638 26.6653 17.6794 18.3625 17.638 17.6077H20.8494V19.0292C21.0391 18.4077 22.0653 17.5206 23.7028 17.5206C25.7345 17.5206 27.3307 18.8235 27.3307 21.629V26.6653ZM14.3905 16.4748H14.3698C13.335 16.4748 12.6641 15.7824 12.6641 14.9047C12.6641 14.0099 13.3548 13.332 14.4103 13.332C15.4649 13.332 16.1134 14.0082 16.1341 14.9021C16.1341 15.7798 15.4649 16.4748 14.3905 16.4748ZM13.034 17.6077H15.8927V26.6653H13.034V17.6077Z" fill="#005EB8"/>
</g>
<defs>
<clipPath id="clip0_916_106288">
<rect width="16" height="14" fill="white" transform="translate(12 13)"/>
</clipPath>
</defs>
</svg>
