<svg width="40" height="40" viewBox="0 0 40 40" fill="none" xmlns="http://www.w3.org/2000/svg">
<circle cx="20" cy="20" r="20" fill="white"/>
<g clip-path="url(#clip0_916_106287)">
<path fill-rule="evenodd" clip-rule="evenodd" d="M18.1323 22.4575L18.1317 17.1311L23.2176 19.8035L18.1323 22.4575ZM29.2993 16.2082C29.2993 16.2082 29.1152 14.9019 28.5511 14.3267C27.8352 13.5714 27.0329 13.5678 26.6652 13.524C24.0311 13.332 20.0799 13.332 20.0799 13.332H20.0717C20.0717 13.332 16.1205 13.332 13.4864 13.524C13.1182 13.5678 12.3164 13.5714 11.5999 14.3267C11.0358 14.9019 10.8523 16.2082 10.8523 16.2082C10.8523 16.2082 10.6641 17.7425 10.6641 19.2763V20.7146C10.6641 22.249 10.8523 23.7827 10.8523 23.7827C10.8523 23.7827 11.0358 25.0889 11.5999 25.6642C12.3164 26.4195 13.257 26.3958 13.6758 26.4746C15.1817 26.6203 20.0758 26.6653 20.0758 26.6653C20.0758 26.6653 24.0311 26.6594 26.6652 26.4675C27.0329 26.423 27.8352 26.4195 28.5511 25.6642C29.1152 25.0889 29.2993 23.7827 29.2993 23.7827C29.2993 23.7827 29.4876 22.249 29.4876 20.7146V19.2763C29.4876 17.7425 29.2993 16.2082 29.2993 16.2082Z" fill="#005EB8"/>
</g>
<defs>
<clipPath id="clip0_916_106287">
<rect width="20" height="14" fill="white" transform="translate(10 13)"/>
</clipPath>
</defs>
</svg>
