<svg width="38" height="37" viewBox="0 0 38 37" fill="none" xmlns="http://www.w3.org/2000/svg">
<path d="M5.61328 26.1602L7.15008 26.1602C7.47181 27.4055 8.60479 28.3281 9.94922 28.3281C11.2936 28.3281 12.4266 27.4055 12.7484 26.1602L13.3869 26.1602C13.7851 26.1602 14.1096 25.8357 14.1096 25.4375C14.1096 25.0393 13.7858 24.7156 13.3883 24.7148C13.3876 24.7148 13.3876 24.7148 13.3869 24.7148L12.7484 24.7148C12.4266 23.4695 11.2936 22.5469 9.94922 22.5469C8.60479 22.5469 7.47181 23.4695 7.15008 24.7148C6.44072 24.7148 5.61408 24.7148 5.61328 24.7148C3.68271 24.7148 2 23.0302 2 21.1016C2 19.1362 3.65257 17.4883 5.61328 17.4883L11.876 17.4883C12.2121 19.9538 14.3303 21.8604 16.8867 21.8604C19.443 21.8604 21.5613 19.9538 21.8975 17.4883L27.4476 17.4883L26.6375 18.2984C26.3558 18.5802 26.3558 19.0391 26.6375 19.3202C26.7741 19.4568 26.9555 19.532 27.1484 19.532C27.3414 19.532 27.5228 19.4568 27.6593 19.3202L29.703 17.2765C29.8381 17.1421 29.9148 16.9557 29.9148 16.7656C29.9148 16.5756 29.8381 16.3891 29.703 16.2547L27.6593 14.211C27.5227 14.0745 27.3414 13.9993 27.1484 13.9993C26.9555 13.9993 26.774 14.0745 26.6375 14.211C26.3558 14.4921 26.3558 14.951 26.6375 15.2329L27.4476 16.043L21.8878 16.043C21.633 14.3574 20.5433 12.9429 19.0548 12.2337L19.0548 5.78125L20.5001 5.78125L20.5001 7.94922C20.5001 8.34834 20.8237 8.67187 21.2227 8.67187L27.004 8.67187C27.403 8.67187 27.7266 8.34834 27.7266 7.94922L27.7266 3.61328C27.7266 3.21416 27.403 2.89062 27.004 2.89062L24.836 2.89062L24.836 0.722656C24.836 0.323533 24.5124 -3.54458e-10 24.1134 -3.48554e-10L15.4414 -2.20251e-10C15.0423 -2.14346e-10 14.7187 0.323533 14.7187 0.722656L14.7187 5.63672C14.7187 6.0349 15.0432 6.35937 15.4414 6.35937C15.7839 6.35937 16.0817 6.11656 16.1496 5.78125L17.6094 5.78125L17.6094 16.043L16.1641 16.043L16.1641 12.1406C16.1641 11.7424 15.8396 11.418 15.4414 11.418C15.0432 11.418 14.7187 11.7424 14.7187 12.1406L14.7187 12.2325C13.2299 12.9418 12.1398 14.3571 11.8851 16.043C9.85549 16.043 5.6148 16.043 5.61328 16.043C2.8841 16.043 0.554687 18.3763 0.554687 21.1016C0.554687 23.8407 2.87832 26.1602 5.61328 26.1602ZM9.94922 23.9922C10.7462 23.9922 11.3945 24.6406 11.3945 25.4375C11.3945 26.2344 10.7462 26.8828 9.94922 26.8828C9.15227 26.8828 8.50391 26.2344 8.50391 25.4375C8.50391 24.6406 9.15227 23.9922 9.94922 23.9922ZM24.8359 5.05859L24.8359 4.33594L26.2812 4.33594L26.2812 7.22656L21.9453 7.22656L21.9453 5.78125L24.1133 5.78125C24.5123 5.78125 24.8359 5.45772 24.8359 5.05859ZM19.0547 1.44531L23.3906 1.44531L23.3906 4.33594L19.0547 4.33594L19.0547 1.44531ZM16.1641 4.33594L16.1641 1.44531L17.6094 1.44531L17.6094 4.33594L16.1641 4.33594ZM14.7187 13.9158L14.7187 16.7656C14.7187 17.158 15.0493 17.4883 15.4414 17.4883L18.332 17.4883C18.7238 17.4883 19.0547 17.1566 19.0547 16.7656L19.0547 13.914C19.9316 14.5737 20.5 15.6224 20.5 16.8018C20.5 18.7941 18.8791 20.415 16.8867 20.415C14.8944 20.415 13.2734 18.7941 13.2734 16.8018C13.2734 15.6228 13.8425 14.5757 14.7187 13.9158Z" fill="url(#paint0_linear_55447_351182)"/>
<path d="M37.1441 27.8099C36.3505 25.9713 34.5064 24.7148 32.4961 24.7148L25.7562 24.7148C25.4344 23.4695 24.3015 22.5469 22.957 22.5469C21.6126 22.5469 20.4796 23.4695 20.1579 24.7148L19.8907 24.7148C19.4925 24.7148 19.1681 25.0393 19.1681 25.4375C19.1681 25.8357 19.4925 26.1602 19.8907 26.1602L20.1579 26.1602C20.4796 27.4055 21.6126 28.3281 22.957 28.3281C24.3015 28.3281 25.4344 27.4055 25.7562 26.1602L32.4961 26.1602C34.4661 26.1602 36.1079 27.8064 36.1094 29.7734C36.1101 30.7239 35.7217 31.6563 35.0507 32.3288C34.3677 33.0109 33.4601 33.3867 32.4961 33.3867L32.2601 33.3867C31.9383 32.1414 30.8054 31.2187 29.4609 31.2187C28.1165 31.2187 26.9835 32.1414 26.6618 33.3867L19.2523 33.3867C18.9305 32.1414 17.7976 31.2187 16.4531 31.2187C15.1087 31.2187 13.9757 32.1414 13.654 33.3867L6.24445 33.3867C5.92272 32.1414 4.78974 31.2187 3.44531 31.2187C1.85142 31.2187 0.554687 32.5155 0.554687 34.1094C0.554687 35.7033 1.85142 37 3.44531 37C4.78974 37 5.92272 36.0774 6.24445 34.832L13.654 34.832C13.9757 36.0774 15.1087 37 16.4531 37C17.7976 37 18.9305 36.0774 19.2523 34.832L26.6618 34.832C26.9835 36.0774 28.1165 37 29.4609 37C30.8054 37 31.9383 36.0774 32.2601 34.832L32.4961 34.832C34.9747 34.832 37.1329 32.9544 37.4995 30.5113C37.5361 30.2672 37.5547 30.0203 37.5547 29.7734C37.5547 29.0893 37.4086 28.4226 37.1441 27.8099ZM22.957 26.8828C22.1601 26.8828 21.5117 26.2344 21.5117 25.4375C21.5117 24.6406 22.1601 23.9922 22.957 23.9922C23.754 23.9922 24.4023 24.6406 24.4023 25.4375C24.4023 26.2344 23.754 26.8828 22.957 26.8828ZM3.44531 35.5547C2.64837 35.5547 2 34.9063 2 34.1094C2 33.3124 2.64837 32.6641 3.44531 32.6641C4.24226 32.6641 4.89062 33.3124 4.89062 34.1094C4.89062 34.9063 4.24226 35.5547 3.44531 35.5547ZM16.4531 35.5547C15.6562 35.5547 15.0078 34.9063 15.0078 34.1094C15.0078 33.3124 15.6562 32.6641 16.4531 32.6641C17.2501 32.6641 17.8984 33.3124 17.8984 34.1094C17.8984 34.9063 17.2501 35.5547 16.4531 35.5547ZM29.4609 35.5547C28.664 35.5547 28.0156 34.9063 28.0156 34.1094C28.0156 33.3124 28.664 32.6641 29.4609 32.6641C30.2579 32.6641 30.9062 33.3124 30.9062 34.1094C30.9062 34.9063 30.2579 35.5547 29.4609 35.5547Z" fill="url(#paint1_linear_55447_351182)"/>
<path d="M16.6388 26.1602C17.038 26.1602 17.3615 25.8366 17.3615 25.4375C17.3615 25.0384 17.038 24.7148 16.6388 24.7148C16.2397 24.7148 15.9162 25.0384 15.9162 25.4375C15.9162 25.8366 16.2397 26.1602 16.6388 26.1602Z" fill="url(#paint2_linear_55447_351182)"/>
<path d="M15.4414 9.61133C15.8405 9.61133 16.1641 9.28778 16.1641 8.88867C16.1641 8.48956 15.8405 8.16602 15.4414 8.16602C15.0423 8.16602 14.7187 8.48956 14.7187 8.88867C14.7187 9.28778 15.0423 9.61133 15.4414 9.61133Z" fill="url(#paint3_linear_55447_351182)"/>
<defs>
<linearGradient id="paint0_linear_55447_351182" x1="0.559247" y1="18.5369" x2="37.5513" y2="18.5369" gradientUnits="userSpaceOnUse">
<stop offset="0.15" stop-color="#005EB8"/>
<stop offset="0.51" stop-color="#2093B3"/>
<stop offset="0.8" stop-color="#40C1AC"/>
</linearGradient>
<linearGradient id="paint1_linear_55447_351182" x1="0.559247" y1="18.5369" x2="37.5513" y2="18.5369" gradientUnits="userSpaceOnUse">
<stop offset="0.15" stop-color="#005EB8"/>
<stop offset="0.51" stop-color="#2093B3"/>
<stop offset="0.8" stop-color="#40C1AC"/>
</linearGradient>
<linearGradient id="paint2_linear_55447_351182" x1="0.559247" y1="18.5369" x2="37.5513" y2="18.5369" gradientUnits="userSpaceOnUse">
<stop offset="0.15" stop-color="#005EB8"/>
<stop offset="0.51" stop-color="#2093B3"/>
<stop offset="0.8" stop-color="#40C1AC"/>
</linearGradient>
<linearGradient id="paint3_linear_55447_351182" x1="0.559247" y1="18.5369" x2="37.5513" y2="18.5369" gradientUnits="userSpaceOnUse">
<stop offset="0.15" stop-color="#005EB8"/>
<stop offset="0.51" stop-color="#2093B3"/>
<stop offset="0.8" stop-color="#40C1AC"/>
</linearGradient>
</defs>
</svg>
