<svg width="40" height="40" viewBox="0 0 40 40" fill="none" xmlns="http://www.w3.org/2000/svg">
<path d="M7.61328 28.1602L9.15008 28.1602C9.47181 29.4055 10.6048 30.3281 11.9492 30.3281C13.2936 30.3281 14.4266 29.4055 14.7484 28.1602L15.3869 28.1602C15.7851 28.1602 16.1096 27.8357 16.1096 27.4375C16.1096 27.0393 15.7858 26.7156 15.3883 26.7148C15.3876 26.7148 15.3876 26.7148 15.3869 26.7148L14.7484 26.7148C14.4266 25.4695 13.2936 24.5469 11.9492 24.5469C10.6048 24.5469 9.47181 25.4695 9.15008 26.7148C8.44072 26.7148 7.61408 26.7148 7.61328 26.7148C5.68271 26.7148 4 25.0302 4 23.1016C4 21.1362 5.65257 19.4883 7.61328 19.4883L13.876 19.4883C14.2121 21.9538 16.3303 23.8604 18.8867 23.8604C21.443 23.8604 23.5613 21.9538 23.8975 19.4883L29.4476 19.4883L28.6375 20.2984C28.3558 20.5802 28.3558 21.0391 28.6375 21.3202C28.7741 21.4568 28.9555 21.532 29.1484 21.532C29.3414 21.532 29.5228 21.4568 29.6593 21.3202L31.703 19.2765C31.8381 19.1421 31.9148 18.9557 31.9148 18.7656C31.9148 18.5756 31.8381 18.3891 31.703 18.2547L29.6593 16.211C29.5227 16.0745 29.3414 15.9993 29.1484 15.9993C28.9555 15.9993 28.774 16.0745 28.6375 16.211C28.3558 16.4921 28.3558 16.951 28.6375 17.2329L29.4476 18.043L23.8878 18.043C23.633 16.3574 22.5433 14.9429 21.0548 14.2337L21.0548 7.78125L22.5001 7.78125L22.5001 9.94922C22.5001 10.3483 22.8237 10.6719 23.2227 10.6719L29.004 10.6719C29.403 10.6719 29.7266 10.3483 29.7266 9.94922L29.7266 5.61328C29.7266 5.21416 29.403 4.89063 29.004 4.89063L26.836 4.89063L26.836 2.72266C26.836 2.32353 26.5124 2 26.1134 2L17.4414 2C17.0423 2 16.7188 2.32353 16.7188 2.72266L16.7188 7.63672C16.7188 8.0349 17.0432 8.35938 17.4414 8.35938C17.7839 8.35938 18.0817 8.11656 18.1496 7.78125L19.6094 7.78125L19.6094 18.043L18.1641 18.043L18.1641 14.1406C18.1641 13.7424 17.8396 13.418 17.4414 13.418C17.0432 13.418 16.7188 13.7424 16.7188 14.1406L16.7188 14.2325C15.2299 14.9418 14.1398 16.3571 13.8851 18.043C11.8555 18.043 7.6148 18.043 7.61328 18.043C4.8841 18.043 2.55469 20.3763 2.55469 23.1016C2.55469 25.8407 4.87832 28.1602 7.61328 28.1602ZM11.9492 25.9922C12.7462 25.9922 13.3945 26.6406 13.3945 27.4375C13.3945 28.2344 12.7462 28.8828 11.9492 28.8828C11.1523 28.8828 10.5039 28.2344 10.5039 27.4375C10.5039 26.6406 11.1523 25.9922 11.9492 25.9922ZM26.8359 7.05859L26.8359 6.33594L28.2813 6.33594L28.2813 9.22656L23.9453 9.22656L23.9453 7.78125L26.1133 7.78125C26.5123 7.78125 26.8359 7.45772 26.8359 7.05859ZM21.0547 3.44531L25.3906 3.44531L25.3906 6.33594L21.0547 6.33594L21.0547 3.44531ZM18.1641 6.33594L18.1641 3.44531L19.6094 3.44531L19.6094 6.33594L18.1641 6.33594ZM16.7188 15.9158L16.7188 18.7656C16.7188 19.158 17.0493 19.4883 17.4414 19.4883L20.332 19.4883C20.7238 19.4883 21.0547 19.1566 21.0547 18.7656L21.0547 15.914C21.9316 16.5737 22.5 17.6224 22.5 18.8018C22.5 20.7941 20.8791 22.415 18.8867 22.415C16.8944 22.415 15.2734 20.7941 15.2734 18.8018C15.2734 17.6228 15.8425 16.5757 16.7188 15.9158Z" fill="white"/>
<path d="M39.1441 29.8099C38.3505 27.9713 36.5064 26.7148 34.4961 26.7148L27.7562 26.7148C27.4344 25.4695 26.3015 24.5469 24.957 24.5469C23.6126 24.5469 22.4796 25.4695 22.1579 26.7148L21.8907 26.7148C21.4925 26.7148 21.1681 27.0393 21.1681 27.4375C21.1681 27.8357 21.4925 28.1602 21.8907 28.1602L22.1579 28.1602C22.4796 29.4055 23.6126 30.3281 24.957 30.3281C26.3015 30.3281 27.4344 29.4055 27.7562 28.1602L34.4961 28.1602C36.4661 28.1602 38.1079 29.8064 38.1094 31.7734C38.1101 32.7239 37.7217 33.6563 37.0507 34.3288C36.3677 35.0109 35.4601 35.3867 34.4961 35.3867L34.2601 35.3867C33.9383 34.1414 32.8054 33.2188 31.4609 33.2188C30.1165 33.2188 28.9835 34.1414 28.6618 35.3867L21.2523 35.3867C20.9305 34.1414 19.7976 33.2188 18.4531 33.2188C17.1087 33.2188 15.9757 34.1414 15.654 35.3867L8.24445 35.3867C7.92272 34.1414 6.78974 33.2188 5.44531 33.2188C3.85142 33.2188 2.55469 34.5155 2.55469 36.1094C2.55469 37.7033 3.85142 39 5.44531 39C6.78974 39 7.92272 38.0774 8.24445 36.832L15.654 36.832C15.9757 38.0774 17.1087 39 18.4531 39C19.7976 39 20.9305 38.0774 21.2523 36.832L28.6618 36.832C28.9835 38.0774 30.1165 39 31.4609 39C32.8054 39 33.9383 38.0774 34.2601 36.832L34.4961 36.832C36.9747 36.832 39.1329 34.9544 39.4995 32.5113C39.5361 32.2672 39.5547 32.0203 39.5547 31.7734C39.5547 31.0893 39.4086 30.4226 39.1441 29.8099ZM24.957 28.8828C24.1601 28.8828 23.5117 28.2344 23.5117 27.4375C23.5117 26.6406 24.1601 25.9922 24.957 25.9922C25.754 25.9922 26.4023 26.6406 26.4023 27.4375C26.4023 28.2344 25.754 28.8828 24.957 28.8828ZM5.44531 37.5547C4.64837 37.5547 4 36.9063 4 36.1094C4 35.3124 4.64837 34.6641 5.44531 34.6641C6.24226 34.6641 6.89063 35.3124 6.89063 36.1094C6.89063 36.9063 6.24226 37.5547 5.44531 37.5547ZM18.4531 37.5547C17.6562 37.5547 17.0078 36.9063 17.0078 36.1094C17.0078 35.3124 17.6562 34.6641 18.4531 34.6641C19.2501 34.6641 19.8984 35.3124 19.8984 36.1094C19.8984 36.9063 19.2501 37.5547 18.4531 37.5547ZM31.4609 37.5547C30.664 37.5547 30.0156 36.9063 30.0156 36.1094C30.0156 35.3124 30.664 34.6641 31.4609 34.6641C32.2579 34.6641 32.9063 35.3124 32.9063 36.1094C32.9063 36.9063 32.2579 37.5547 31.4609 37.5547Z" fill="white"/>
<path d="M18.6388 28.1602C19.038 28.1602 19.3615 27.8366 19.3615 27.4375C19.3615 27.0384 19.038 26.7148 18.6388 26.7148C18.2397 26.7148 17.9162 27.0384 17.9162 27.4375C17.9162 27.8366 18.2397 28.1602 18.6388 28.1602Z" fill="white"/>
<path d="M17.4414 11.6113C17.8405 11.6113 18.1641 11.2878 18.1641 10.8887C18.1641 10.4896 17.8405 10.166 17.4414 10.166C17.0423 10.166 16.7188 10.4896 16.7188 10.8887C16.7188 11.2878 17.0423 11.6113 17.4414 11.6113Z" fill="white"/>
</svg>
