<svg width="40" height="40" viewBox="0 0 40 40" fill="none" xmlns="http://www.w3.org/2000/svg">
<g clip-path="url(#clip0_55447_351219)">
<path fill-rule="evenodd" clip-rule="evenodd" d="M39.6094 31.6863C39.6094 33.1905 38.3856 34.4142 36.8815 34.4142L36.0156 34.4142L36.0156 32.8517L36.8815 32.8517C37.5241 32.8517 38.0469 32.3289 38.0469 31.6863L38.0469 7.1875L1.25031 7.1875C1.22383 7.1875 1.19766 7.18609 1.17187 7.18352L1.17187 31.6863C1.17187 32.3289 1.69461 32.8517 2.33727 32.8517L3.20312 32.8517L3.20312 34.4142L2.33727 34.4142C0.833125 34.4142 -0.390625 33.1905 -0.390625 31.6863L-0.390625 3.90625C-0.390625 1.75234 1.36172 0 3.51562 0L35.7031 -5.34013e-10C37.857 -5.6588e-10 39.6094 1.75234 39.6094 3.90625L39.6094 31.6863ZM3.51562 1.5625C2.22328 1.5625 1.17187 2.61391 1.17187 3.90625L1.17187 5.62898C1.19766 5.62641 1.22383 5.625 1.25031 5.625L38.0469 5.625L38.0469 3.90625C38.0469 2.61391 36.9955 1.5625 35.7031 1.5625L3.51562 1.5625Z" fill="url(#paint0_linear_55447_351219)"/>
<path fill-rule="evenodd" clip-rule="evenodd" d="M3.20312 34.4142L3.20312 38.4375L0.390625 38.4375C-0.0408593 38.4375 -0.390625 38.7873 -0.390625 39.2188C-0.390625 39.6502 -0.0408593 40 0.390625 40L38.8281 40C39.2596 40 39.6094 39.6502 39.6094 39.2187C39.6094 38.7873 39.2596 38.4375 38.8281 38.4375L36.0156 38.4375L36.0156 34.4142L36.0156 32.8517L36.0156 20.8203C36.0156 20.3889 35.6659 20.0391 35.2344 20.0391L30.2344 20.0391C29.8029 20.0391 29.4531 20.3889 29.4531 20.8203L29.4531 24.7655C29.4531 25.197 29.8029 25.5468 30.2344 25.5468C30.6659 25.5468 31.0156 25.197 31.0156 24.7655L31.0156 21.6016L34.4531 21.6016L34.4531 38.4375L31.0156 38.4375L31.0156 30.0195C31.0156 29.5881 30.6659 29.2383 30.2344 29.2383C29.8029 29.2383 29.4531 29.5881 29.4531 30.0195L29.4531 38.4375L27.2656 38.4375L27.2656 28.5937C27.2656 28.1623 26.9159 27.8125 26.4844 27.8125L21.4844 27.8125C21.0529 27.8125 20.7031 28.1623 20.7031 28.5937L20.7031 38.4375L18.5156 38.4375L18.5156 21.9869C18.5156 21.5555 18.1659 21.2056 17.7344 21.2056L12.7344 21.2056C12.3029 21.2056 11.9531 21.5555 11.9531 21.9869L11.9531 38.4375L9.76562 38.4375L9.76562 30.625C9.76562 30.1936 9.41586 29.8437 8.98437 29.8437L3.98437 29.8437C3.55289 29.8437 3.20312 30.1936 3.20312 30.625L3.20312 32.8517L3.20312 34.4142ZM4.76562 38.4375L8.20312 38.4375L8.20312 31.4062L4.76562 31.4062L4.76562 38.4375ZM13.5156 38.4375L16.9531 38.4375L16.9531 22.7681L13.5156 22.7681L13.5156 38.4375ZM22.2656 38.4375L25.7031 38.4375L25.7031 29.375L22.2656 29.375L22.2656 38.4375Z" fill="url(#paint1_linear_55447_351219)"/>
<path d="M34.6121 2.8125L16.9609 2.8125C16.5295 2.8125 16.1797 3.16234 16.1797 3.59375C16.1797 4.02516 16.5295 4.375 16.9609 4.375L34.6121 4.375C35.0436 4.375 35.3934 4.02516 35.3934 3.59375C35.3934 3.16234 35.0436 2.8125 34.6121 2.8125Z" fill="url(#paint2_linear_55447_351219)"/>
<path d="M8.28672 3.04141C8.14141 2.89609 7.93984 2.8125 7.73438 2.8125C7.52891 2.8125 7.32734 2.89602 7.18203 3.04141C7.03672 3.18672 6.95312 3.38828 6.95312 3.59375C6.95312 3.79922 7.03672 4.00078 7.18203 4.14602C7.32734 4.29141 7.52891 4.375 7.73437 4.375C7.93984 4.375 8.14141 4.29141 8.28672 4.14602C8.43203 4.00078 8.51562 3.79922 8.51562 3.59375C8.51562 3.38828 8.43203 3.18672 8.28672 3.04141Z" fill="url(#paint3_linear_55447_351219)"/>
<path d="M5.16172 3.04141C5.01641 2.89609 4.81484 2.8125 4.60937 2.8125C4.40391 2.8125 4.20234 2.89602 4.05703 3.04141C3.91172 3.18672 3.82812 3.38828 3.82812 3.59375C3.82812 3.79922 3.91172 4.00078 4.05703 4.14602C4.20234 4.29141 4.40391 4.375 4.60937 4.375C4.81484 4.375 5.01641 4.29141 5.16172 4.14602C5.30703 4.00078 5.39062 3.79922 5.39062 3.59375C5.39062 3.38828 5.30703 3.18672 5.16172 3.04141Z" fill="url(#paint4_linear_55447_351219)"/>
<path d="M11.4117 3.04141C11.2664 2.89609 11.0656 2.8125 10.8594 2.8125C10.6539 2.8125 10.4523 2.89602 10.307 3.04141C10.1617 3.18672 10.0781 3.38828 10.0781 3.59375C10.0781 3.79922 10.1617 4.00078 10.307 4.14602C10.4523 4.29141 10.6539 4.375 10.8594 4.375C11.0648 4.375 11.2664 4.29141 11.4117 4.14602C11.557 4.00078 11.6406 3.79922 11.6406 3.59375C11.6406 3.38828 11.557 3.18672 11.4117 3.04141Z" fill="url(#paint5_linear_55447_351219)"/>
<path d="M30.7867 26.9984C30.6414 26.8523 30.4398 26.7695 30.2344 26.7695C30.0289 26.7695 29.8273 26.8524 29.682 26.9984C29.5367 27.1437 29.4531 27.3453 29.4531 27.5508C29.4531 27.7563 29.5367 27.9578 29.682 28.1031C29.8273 28.2484 30.0289 28.332 30.2344 28.332C30.4398 28.332 30.6414 28.2484 30.7867 28.1031C30.932 27.9578 31.0156 27.7563 31.0156 27.5508C31.0156 27.3445 30.932 27.1437 30.7867 26.9984Z" fill="url(#paint6_linear_55447_351219)"/>
<path d="M32.7355 10.6201C31.1846 10.6201 29.923 11.8818 29.923 13.4326C29.923 14.0486 30.1226 14.6186 30.4598 15.0825L25.2703 20.2719C24.8676 20.049 24.4049 19.9217 23.9129 19.9217C23.4695 19.9217 23.05 20.0252 22.6766 20.2087L17.258 14.79C17.4809 14.3873 17.6082 13.9246 17.6082 13.4326C17.6082 11.8818 16.3466 10.6201 14.7957 10.6201C13.2448 10.6201 11.9832 11.8818 11.9832 13.4326C11.9832 13.9746 12.1377 14.4811 12.4045 14.9109L7.79094 19.5243C7.3882 19.3014 6.92555 19.1741 6.43359 19.1741C4.88273 19.1741 3.62109 20.4357 3.62109 21.9866C3.62109 23.5375 4.88273 24.7991 6.43359 24.7991C7.98445 24.7991 9.24609 23.5375 9.24609 21.9866C9.24609 21.4946 9.11875 21.0319 8.89586 20.6292L13.5645 15.9606C13.9366 16.1425 14.3544 16.245 14.7957 16.245C15.2877 16.245 15.7503 16.1177 16.153 15.8948L21.5187 21.2604C21.2537 21.6893 21.1004 22.1939 21.1004 22.734C21.1004 24.2849 22.362 25.5465 23.9129 25.5465C25.4638 25.5465 26.7254 24.2849 26.7254 22.734C26.7254 22.242 26.598 21.7793 26.3752 21.3766L31.7037 16.0481C32.0234 16.1748 32.3713 16.2451 32.7355 16.2451C34.2863 16.2451 35.548 14.9835 35.548 13.4326C35.548 11.8818 34.2863 10.6201 32.7355 10.6201ZM6.43367 23.2368C5.74445 23.2368 5.18367 22.676 5.18367 21.9868C5.18367 21.2975 5.74445 20.7368 6.43367 20.7368C7.12289 20.7368 7.68367 21.2975 7.68367 21.9868C7.68367 22.676 7.12289 23.2368 6.43367 23.2368ZM14.7958 14.6826C14.1066 14.6826 13.5458 14.1218 13.5458 13.4326C13.5458 12.7434 14.1066 12.1826 14.7958 12.1826C15.485 12.1826 16.0458 12.7434 16.0458 13.4326C16.0458 14.1218 15.485 14.6826 14.7958 14.6826ZM23.913 23.9842C23.2237 23.9842 22.663 23.4234 22.663 22.7342C22.663 22.045 23.2237 21.4842 23.913 21.4842C24.6022 21.4842 25.163 22.045 25.163 22.7342C25.163 23.4234 24.6022 23.9842 23.913 23.9842ZM32.7355 14.6826C32.0462 14.6826 31.4855 14.1218 31.4855 13.4326C31.4855 12.7434 32.0462 12.1826 32.7355 12.1826C33.4247 12.1826 33.9855 12.7434 33.9855 13.4326C33.9855 14.1218 33.4247 14.6826 32.7355 14.6826Z" fill="url(#paint7_linear_55447_351219)"/>
<path d="M11.1969 10.0747C11.0508 9.92938 10.85 9.8457 10.6445 9.8457C10.4383 9.8457 10.2367 9.9293 10.0914 10.0747C9.94609 10.2199 9.86328 10.4215 9.86328 10.627C9.86328 10.8324 9.94609 11.034 10.0914 11.1793C10.2375 11.3246 10.4383 11.4082 10.6445 11.4082C10.85 11.4082 11.0508 11.3247 11.1969 11.1793C11.3422 11.034 11.4258 10.8324 11.4258 10.627C11.4258 10.4215 11.3422 10.2199 11.1969 10.0747Z" fill="url(#paint8_linear_55447_351219)"/>
<path d="M7.73437 9.8457L3.98437 9.8457C3.55289 9.8457 3.20312 10.1955 3.20312 10.627C3.20312 11.0584 3.55289 11.4082 3.98437 11.4082L7.73437 11.4082C8.16586 11.4082 8.51562 11.0584 8.51562 10.627C8.51562 10.1955 8.16586 9.8457 7.73437 9.8457Z" fill="url(#paint9_linear_55447_351219)"/>
<path d="M7.73437 13.5957L3.98437 13.5957C3.55289 13.5957 3.20312 13.9455 3.20312 14.377C3.20312 14.8084 3.55289 15.1582 3.98437 15.1582L7.73437 15.1582C8.16586 15.1582 8.51562 14.8084 8.51562 14.377C8.51562 13.9455 8.16586 13.5957 7.73437 13.5957Z" fill="url(#paint10_linear_55447_351219)"/>
</g>
<defs>
<linearGradient id="paint0_linear_55447_351219" x1="-0.385696" y1="20.0399" x2="39.6057" y2="20.0399" gradientUnits="userSpaceOnUse">
<stop offset="0.15" stop-color="#005EB8"/>
<stop offset="0.51" stop-color="#2093B3"/>
<stop offset="0.8" stop-color="#40C1AC"/>
</linearGradient>
<linearGradient id="paint1_linear_55447_351219" x1="-0.385696" y1="20.0399" x2="39.6057" y2="20.0399" gradientUnits="userSpaceOnUse">
<stop offset="0.15" stop-color="#005EB8"/>
<stop offset="0.51" stop-color="#2093B3"/>
<stop offset="0.8" stop-color="#40C1AC"/>
</linearGradient>
<linearGradient id="paint2_linear_55447_351219" x1="16.1821" y1="3.59531" x2="35.3916" y2="3.59531" gradientUnits="userSpaceOnUse">
<stop offset="0.15" stop-color="#005EB8"/>
<stop offset="0.51" stop-color="#2093B3"/>
<stop offset="0.8" stop-color="#40C1AC"/>
</linearGradient>
<linearGradient id="paint3_linear_55447_351219" x1="6.95332" y1="3.59531" x2="8.51548" y2="3.59531" gradientUnits="userSpaceOnUse">
<stop offset="0.15" stop-color="#005EB8"/>
<stop offset="0.51" stop-color="#2093B3"/>
<stop offset="0.8" stop-color="#40C1AC"/>
</linearGradient>
<linearGradient id="paint4_linear_55447_351219" x1="3.82832" y1="3.59531" x2="5.39048" y2="3.59531" gradientUnits="userSpaceOnUse">
<stop offset="0.15" stop-color="#005EB8"/>
<stop offset="0.51" stop-color="#2093B3"/>
<stop offset="0.8" stop-color="#40C1AC"/>
</linearGradient>
<linearGradient id="paint5_linear_55447_351219" x1="10.0783" y1="3.59531" x2="11.6405" y2="3.59531" gradientUnits="userSpaceOnUse">
<stop offset="0.15" stop-color="#005EB8"/>
<stop offset="0.51" stop-color="#2093B3"/>
<stop offset="0.8" stop-color="#40C1AC"/>
</linearGradient>
<linearGradient id="paint6_linear_55447_351219" x1="29.4533" y1="27.5523" x2="31.0155" y2="27.5523" gradientUnits="userSpaceOnUse">
<stop offset="0.15" stop-color="#005EB8"/>
<stop offset="0.51" stop-color="#2093B3"/>
<stop offset="0.8" stop-color="#40C1AC"/>
</linearGradient>
<linearGradient id="paint7_linear_55447_351219" x1="3.62503" y1="18.0982" x2="35.545" y2="18.0982" gradientUnits="userSpaceOnUse">
<stop offset="0.15" stop-color="#005EB8"/>
<stop offset="0.51" stop-color="#2093B3"/>
<stop offset="0.8" stop-color="#40C1AC"/>
</linearGradient>
<linearGradient id="paint8_linear_55447_351219" x1="9.86347" y1="10.6285" x2="11.4256" y2="10.6285" gradientUnits="userSpaceOnUse">
<stop offset="0.15" stop-color="#005EB8"/>
<stop offset="0.51" stop-color="#2093B3"/>
<stop offset="0.8" stop-color="#40C1AC"/>
</linearGradient>
<linearGradient id="paint9_linear_55447_351219" x1="3.20378" y1="10.6285" x2="8.51514" y2="10.6285" gradientUnits="userSpaceOnUse">
<stop offset="0.15" stop-color="#005EB8"/>
<stop offset="0.51" stop-color="#2093B3"/>
<stop offset="0.8" stop-color="#40C1AC"/>
</linearGradient>
<linearGradient id="paint10_linear_55447_351219" x1="3.20378" y1="14.3785" x2="8.51514" y2="14.3785" gradientUnits="userSpaceOnUse">
<stop offset="0.15" stop-color="#005EB8"/>
<stop offset="0.51" stop-color="#2093B3"/>
<stop offset="0.8" stop-color="#40C1AC"/>
</linearGradient>
<clipPath id="clip0_55447_351219">
<rect width="40" height="40" fill="white"/>
</clipPath>
</defs>
</svg>
