<svg width="45" height="45" viewBox="0 0 45 45" fill="none" xmlns="http://www.w3.org/2000/svg">
<g clip-path="url(#clip0_55276_305699)">
<path d="M42.4495 4.74609H39.4612V2.63672C39.4612 1.18275 38.2784 0 36.8245 0H9.57836C8.12439 0 6.94164 1.18275 6.94164 2.63672V16.0428L5.78773 14.8885C5.15671 14.2579 4.31831 13.9104 3.42602 13.9104C2.53407 13.9104 1.69533 14.2579 1.0643 14.8885C-0.237579 16.1908 -0.237579 18.3097 1.0643 19.612L6.94164 25.4893V37.6172C6.94164 39.0712 8.12439 40.2539 9.57836 40.2539H12.5666V42.3633C12.5666 43.8173 13.7494 45 15.2034 45H42.4495C43.9034 45 45.0862 43.8173 45.0862 42.3633V7.38281C45.0862 5.92884 43.9034 4.74609 42.4495 4.74609ZM9.57836 1.75781H36.8245C37.3092 1.75781 37.7034 2.15195 37.7034 2.63672V37.6172C37.7034 38.102 37.3092 38.4961 36.8245 38.4961H26.1354L23.8506 33.0441C23.8063 32.9387 23.7421 32.8429 23.6615 32.7623L17.8088 26.9096L8.69946 17.8006V2.63672C8.69946 2.15195 9.09393 1.75781 9.57836 1.75781ZM4.12537 20.1867L6.36246 17.9496L21.7969 33.3837L19.5594 35.6211L4.12537 20.1867ZM22.7355 34.931L23.9104 37.7346L21.1068 36.5598L22.7355 34.931ZM2.30747 16.1317C2.60616 15.8327 3.00339 15.6682 3.42602 15.6682C3.84865 15.6682 4.24587 15.8327 4.54491 16.1317L5.11963 16.7064L2.88254 18.9439L2.30747 18.3688C1.69052 17.7522 1.69052 16.7487 2.30747 16.1317ZM8.69946 37.6172V27.2471L18.938 37.4854C19.0187 37.566 19.1145 37.6302 19.2199 37.6745L21.1799 38.4961H9.57836C9.09393 38.4961 8.69946 38.102 8.69946 37.6172ZM43.3284 42.3633C43.3284 42.8481 42.9342 43.2422 42.4495 43.2422H15.2034C14.7189 43.2422 14.3245 42.8481 14.3245 42.3633V40.2539H36.8245C38.2784 40.2539 39.4612 39.0712 39.4612 37.6172V6.50391H42.4495C42.9342 6.50391 43.3284 6.89804 43.3284 7.38281V42.3633Z" fill="url(#paint0_linear_55276_305699)"/>
<path d="M14.2366 6.50391H32.1663C32.6517 6.50391 33.0452 6.11046 33.0452 5.625C33.0452 5.13954 32.6517 4.74609 32.1663 4.74609H14.2366C13.7515 4.74609 13.3577 5.13954 13.3577 5.625C13.3577 6.11046 13.7511 6.50391 14.2366 6.50391Z" fill="url(#paint1_linear_55276_305699)"/>
<path d="M32.1663 9.05371H26.0139C25.5288 9.05371 25.135 9.44716 25.135 9.93262C25.135 10.4177 25.5288 10.8115 26.0139 10.8115H32.1663C32.6517 10.8115 33.0452 10.4177 33.0452 9.93262C33.0452 9.44716 32.6517 9.05371 32.1663 9.05371Z" fill="url(#paint2_linear_55276_305699)"/>
<path d="M32.1663 21.9746H26.0139C25.5288 21.9746 25.135 22.3684 25.135 22.8535C25.135 23.339 25.5288 23.7324 26.0139 23.7324H32.1663C32.6517 23.7324 33.0452 23.339 33.0452 22.8535C33.0452 22.3684 32.6517 21.9746 32.1663 21.9746Z" fill="url(#paint3_linear_55276_305699)"/>
<path d="M20.3888 21.9746H17.8108C17.3253 21.9746 16.9319 22.3684 16.9319 22.8535C16.9319 23.339 17.3253 23.7324 17.8108 23.7324H20.3888C20.8743 23.7324 21.2677 23.339 21.2677 22.8535C21.2677 22.3684 20.8743 21.9746 20.3888 21.9746Z" fill="url(#paint4_linear_55276_305699)"/>
<path d="M32.1663 26.3193H26.0139C25.5288 26.3193 25.135 26.7128 25.135 27.1982C25.135 27.6837 25.5288 28.0771 26.0139 28.0771H32.1663C32.6517 28.0771 33.0452 27.6837 33.0452 27.1982C33.0452 26.7128 32.6517 26.3193 32.1663 26.3193Z" fill="url(#paint5_linear_55276_305699)"/>
<path d="M14.2366 10.8115H20.3889C20.8744 10.8115 21.2678 10.4177 21.2678 9.93262C21.2678 9.44716 20.8744 9.05371 20.3889 9.05371H14.2366C13.7515 9.05371 13.3577 9.44716 13.3577 9.93262C13.3577 10.4177 13.7511 10.8115 14.2366 10.8115Z" fill="url(#paint6_linear_55276_305699)"/>
<path d="M14.2366 15.1182H28.6506C29.1361 15.1182 29.5295 14.7247 29.5295 14.2393C29.5295 13.7538 29.1361 13.3604 28.6506 13.3604H14.2366C13.7515 13.3604 13.3577 13.7538 13.3577 14.2393C13.3577 14.7247 13.7511 15.1182 14.2366 15.1182Z" fill="url(#paint7_linear_55276_305699)"/>
<path d="M32.1663 13.3604C31.9352 13.3604 31.7083 13.4541 31.5448 13.6178C31.3814 13.7813 31.2874 14.0079 31.2874 14.2393C31.2874 14.4703 31.3814 14.6969 31.5448 14.8603C31.7083 15.0241 31.9352 15.1182 32.1663 15.1182C32.3973 15.1182 32.6243 15.0241 32.7877 14.8603C32.9511 14.6969 33.0452 14.4703 33.0452 14.2393C33.0452 14.0079 32.9511 13.7813 32.7877 13.6178C32.6243 13.4541 32.3973 13.3604 32.1663 13.3604Z" fill="url(#paint8_linear_55276_305699)"/>
<path d="M14.2366 19.4258H32.1663C32.6517 19.4258 33.0452 19.0323 33.0452 18.5469C33.0452 18.0614 32.6517 17.668 32.1663 17.668H14.2366C13.7515 17.668 13.3577 18.0614 13.3577 18.5469C13.3577 19.0323 13.7511 19.4258 14.2366 19.4258Z" fill="url(#paint9_linear_55276_305699)"/>
</g>
<defs>
<linearGradient id="paint0_linear_55276_305699" x1="22.587" y1="0" x2="22.587" y2="45" gradientUnits="userSpaceOnUse">
<stop stop-color="white"/>
<stop offset="1" stop-color="white" stop-opacity="0"/>
</linearGradient>
<linearGradient id="paint1_linear_55276_305699" x1="23.2014" y1="4.74609" x2="23.2014" y2="6.50391" gradientUnits="userSpaceOnUse">
<stop stop-color="white"/>
<stop offset="1" stop-color="white" stop-opacity="0"/>
</linearGradient>
<linearGradient id="paint2_linear_55276_305699" x1="29.0901" y1="9.05371" x2="29.0901" y2="10.8115" gradientUnits="userSpaceOnUse">
<stop stop-color="white"/>
<stop offset="1" stop-color="white" stop-opacity="0"/>
</linearGradient>
<linearGradient id="paint3_linear_55276_305699" x1="29.0901" y1="21.9746" x2="29.0901" y2="23.7324" gradientUnits="userSpaceOnUse">
<stop stop-color="white"/>
<stop offset="1" stop-color="white" stop-opacity="0"/>
</linearGradient>
<linearGradient id="paint4_linear_55276_305699" x1="19.0998" y1="21.9746" x2="19.0998" y2="23.7324" gradientUnits="userSpaceOnUse">
<stop stop-color="white"/>
<stop offset="1" stop-color="white" stop-opacity="0"/>
</linearGradient>
<linearGradient id="paint5_linear_55276_305699" x1="29.0901" y1="26.3193" x2="29.0901" y2="28.0771" gradientUnits="userSpaceOnUse">
<stop stop-color="white"/>
<stop offset="1" stop-color="white" stop-opacity="0"/>
</linearGradient>
<linearGradient id="paint6_linear_55276_305699" x1="17.3127" y1="9.05371" x2="17.3127" y2="10.8115" gradientUnits="userSpaceOnUse">
<stop stop-color="white"/>
<stop offset="1" stop-color="white" stop-opacity="0"/>
</linearGradient>
<linearGradient id="paint7_linear_55276_305699" x1="21.4436" y1="13.3604" x2="21.4436" y2="15.1182" gradientUnits="userSpaceOnUse">
<stop stop-color="white"/>
<stop offset="1" stop-color="white" stop-opacity="0"/>
</linearGradient>
<linearGradient id="paint8_linear_55276_305699" x1="32.1663" y1="13.3604" x2="32.1663" y2="15.1182" gradientUnits="userSpaceOnUse">
<stop stop-color="white"/>
<stop offset="1" stop-color="white" stop-opacity="0"/>
</linearGradient>
<linearGradient id="paint9_linear_55276_305699" x1="23.2014" y1="17.668" x2="23.2014" y2="19.4258" gradientUnits="userSpaceOnUse">
<stop stop-color="white"/>
<stop offset="1" stop-color="white" stop-opacity="0"/>
</linearGradient>
<clipPath id="clip0_55276_305699">
<rect width="45" height="45" fill="white"/>
</clipPath>
</defs>
</svg>
