<svg width="41" height="40" viewBox="0 0 41 40" fill="none" xmlns="http://www.w3.org/2000/svg">
<g clip-path="url(#clip0_55523_6984)">
<path d="M20.388 19.5952C24.4176 19.5952 27.6959 16.3179 27.6959 12.2895C27.6959 8.2598 24.4176 4.98145 20.388 4.98145C16.3584 4.98145 13.0801 8.2598 13.0801 12.2895C13.0801 16.3179 16.3584 19.5952 20.388 19.5952ZM20.388 6.54402C23.5559 6.54402 26.1334 9.12145 26.1334 12.2896C26.1334 15.4564 23.556 18.0328 20.388 18.0328C17.2199 18.0328 14.6426 15.4564 14.6426 12.2896C14.6426 9.12145 17.22 6.54402 20.388 6.54402Z" fill="white"/>
<path d="M20.3887 12.755C20.8202 12.755 21.1699 12.4052 21.1699 11.9738L21.1699 9.18018C21.1699 8.74877 20.8202 8.39893 20.3887 8.39893C19.9572 8.39893 19.6074 8.74877 19.6074 9.18018L19.6074 11.9738C19.6074 12.4052 19.9572 12.755 20.3887 12.755Z" fill="white"/>
<path d="M20.3887 16.1765C20.8202 16.1765 21.1699 15.8255 21.1699 15.394C21.1699 14.9626 20.8202 14.6128 20.3887 14.6128C19.9572 14.6128 19.6074 14.9626 19.6074 15.394L19.6074 15.3963C19.6074 15.8278 19.9572 16.1765 20.3887 16.1765Z" fill="white"/>
<path d="M36.5738 10.237L32.4855 10.237C32.203 9.6982 31.6385 9.32953 30.9891 9.32953L30.6465 9.32953C30.4266 8.56547 30.1209 7.82906 29.7334 7.12922L29.9738 6.88805C30.294 6.56984 30.4703 6.14523 30.4703 5.69242C30.4703 5.23961 30.294 4.81508 29.9759 4.49898L28.1792 2.70008C27.8612 2.38203 27.4373 2.20687 26.9854 2.20687C26.5335 2.20687 26.1095 2.38195 25.7916 2.7L25.5483 2.94336C24.851 2.55664 24.1148 2.25141 23.3484 2.03109L23.3484 1.68859C23.3484 0.7575 22.5909 4.12668e-08 21.6598 3.94164e-08L19.1173 3.43636e-08C18.1862 3.25132e-08 17.4288 0.7575 17.4288 1.68859L17.4288 2.03109C16.6624 2.25133 15.9262 2.55664 15.2289 2.94336L14.9855 2.70008C14.6676 2.38203 14.2436 2.20687 13.7917 2.20687C13.3398 2.20687 12.9159 2.38195 12.5976 2.70031L10.8034 4.49688C10.4832 4.81508 10.3069 5.23969 10.3069 5.6925C10.3069 6.14531 10.4832 6.56984 10.8008 6.88539L11.0438 7.1293C10.6562 7.82914 10.3507 8.56555 10.1308 9.32961L9.78813 9.32961C9.13883 9.32961 8.57422 9.69828 8.2918 10.237L4.18492 10.237C2.8843 10.237 1.82617 11.3034 1.82617 12.6143L1.82617 30.4513C1.82617 31.762 2.89258 32.8285 4.20336 32.8285L15.0848 32.8285L13.9207 35.3078L13.0283 35.3078C11.734 35.3078 10.681 36.3609 10.681 37.6552L10.681 39.2188C10.681 39.6502 11.0308 40 11.4623 40L29.3148 40C29.7463 40 30.0961 39.6502 30.0961 39.2188L30.0961 37.655C30.0961 36.3607 29.0431 35.3077 27.7488 35.3077L26.8564 35.3077L25.6923 32.8284L36.5737 32.8284C37.8845 32.8284 38.9509 31.762 38.9509 30.4511L38.9509 12.6142C38.951 11.3034 37.8846 10.237 36.5738 10.237ZM9.66195 11.0182C9.66195 10.951 9.72086 10.892 9.78805 10.892L10.7369 10.892C11.1025 10.892 11.4191 10.6385 11.4992 10.2817C11.7259 9.2707 12.1248 8.30914 12.6845 7.42383C12.8795 7.11547 12.8351 6.7132 12.5776 6.45484L11.9047 5.77961C11.8754 5.75055 11.8693 5.71609 11.8693 5.69242C11.8693 5.66875 11.8755 5.6343 11.9068 5.60305L13.7028 3.80469C13.7321 3.77539 13.7673 3.7693 13.7917 3.7693C13.8161 3.7693 13.8513 3.77539 13.8806 3.80477L14.553 4.47719C14.8118 4.73602 15.2153 4.78055 15.5242 4.5843C16.4035 4.02609 17.3646 3.62758 18.3809 3.39969C18.7376 3.31969 18.9912 3.00297 18.9912 2.63734L18.9912 1.68859C18.9912 1.62023 19.0489 1.5625 19.1173 1.5625L21.6598 1.5625C21.7281 1.5625 21.7859 1.62023 21.7859 1.68859L21.7859 2.6375C21.7859 3.00312 22.0395 3.31977 22.3962 3.39984C23.4124 3.62773 24.3736 4.02633 25.2528 4.58445C25.5616 4.78047 25.9652 4.73594 26.224 4.47734L26.8964 3.80484C26.9257 3.77555 26.9609 3.76945 26.9853 3.76945C27.0098 3.76945 27.0449 3.77555 27.0739 3.80453L28.8724 5.60531C28.9017 5.63438 28.9078 5.66883 28.9078 5.6925C28.9078 5.71617 28.9016 5.75063 28.8697 5.78242L28.1995 6.45484C27.942 6.71328 27.8976 7.11547 28.0926 7.42383C28.6524 8.30914 29.0512 9.2707 29.2779 10.2817C29.3579 10.6384 29.6746 10.892 30.0402 10.892L30.9891 10.892C31.0562 10.892 31.1152 10.951 31.1152 11.0182L31.1152 13.5584C31.1152 13.6256 31.0562 13.6845 30.9891 13.6845L30.0402 13.6845C29.6746 13.6845 29.3579 13.938 29.2779 14.2948C29.0506 15.3084 28.6518 16.2706 28.0926 17.1551C27.8973 17.4639 27.9422 17.8667 28.2005 18.1251L28.8706 18.7952C28.9203 18.8449 28.9203 18.9258 28.8706 18.9755L27.0742 20.7719C27.0449 20.8012 27.0098 20.8073 26.9853 20.8073C26.9609 20.8073 26.9257 20.8012 26.8964 20.7718L26.224 20.0994C25.9653 19.8406 25.5618 19.7961 25.2528 19.9923C24.3735 20.5505 23.4124 20.949 22.3962 21.1769C22.0395 21.2569 21.7859 21.5736 21.7859 21.9392L21.7859 22.8881C21.7859 22.9565 21.7281 23.0142 21.6598 23.0142L19.1173 23.0142C19.0489 23.0142 18.9912 22.9565 18.9912 22.8881L18.9912 21.9392C18.9912 21.5736 18.7376 21.257 18.3809 21.1769C17.3646 20.949 16.4034 20.5504 15.5242 19.9923C15.3954 19.9105 15.2502 19.8705 15.1058 19.8705C14.904 19.8705 14.7039 19.9486 14.553 20.0994L13.8806 20.7719C13.8513 20.8012 13.8161 20.8073 13.7917 20.8073C13.7673 20.8073 13.7321 20.8012 13.7028 20.7718L11.9065 18.9755C11.8568 18.9258 11.8568 18.8449 11.9065 18.7952L12.5766 18.1251C12.8349 17.8667 12.8798 17.4639 12.6845 17.1551C12.1252 16.2706 11.7264 15.3083 11.4992 14.2948C11.4192 13.9381 11.1025 13.6845 10.7369 13.6845L9.78805 13.6845C9.72086 13.6845 9.66195 13.6256 9.66195 13.5584L9.66195 11.0182ZM28.5336 37.655L28.5336 38.4375L12.2436 38.4375L12.2436 37.655C12.2436 37.2223 12.5956 36.8702 13.0284 36.8702L27.7489 36.8702C28.1816 36.8702 28.5336 37.2223 28.5336 37.655ZM25.1303 35.3077L15.6469 35.3077L16.8109 32.8284L23.9663 32.8284L25.1303 35.3077ZM36.5738 31.2659L4.20336 31.2659C3.75414 31.2659 3.38867 30.9003 3.38867 30.4511L3.38867 29.1205L24.8655 29.1205C25.297 29.1205 25.6468 28.7706 25.6468 28.3392C25.6468 27.9078 25.297 27.558 24.8655 27.558L3.38867 27.558L3.38867 12.6142C3.38867 12.165 3.74586 11.7995 4.18492 11.7995L8.09937 11.7995L8.09937 13.5584C8.09937 14.4895 8.85687 15.247 9.78797 15.247L10.1305 15.247C10.3505 16.0123 10.6559 16.7491 11.0431 17.4487L10.8015 17.6905C10.1427 18.3494 10.1427 19.4214 10.8015 20.0804L12.5978 21.8766C12.9158 22.1947 13.3398 22.3698 13.7916 22.3698C14.2435 22.3698 14.6675 22.1948 14.9854 21.8767L15.2287 21.6334C15.9261 22.0201 16.6623 22.3253 17.4286 22.5456L17.4286 22.8881C17.4286 23.8192 18.1861 24.5767 19.1172 24.5767L21.6597 24.5767C22.5908 24.5767 23.3483 23.8192 23.3483 22.8881L23.3483 22.5456C24.1146 22.3254 24.8508 22.0201 25.5481 21.6334L25.7915 21.8766C26.1095 22.1947 26.5334 22.3698 26.9853 22.3698C27.4372 22.3698 27.8612 22.1948 28.1791 21.8767L29.9755 20.0803C30.6343 19.4214 30.6343 18.3494 29.9755 17.6904L29.7338 17.4487C30.121 16.7491 30.4264 16.0123 30.6465 15.247L30.989 15.247C31.9201 15.247 32.6776 14.4895 32.6776 13.5584L32.6776 11.7995L36.5737 11.7995C37.0229 11.7995 37.3884 12.165 37.3884 12.6142L37.3884 27.558L32.1612 27.558C31.7297 27.558 31.3799 27.9078 31.3799 28.3392C31.3799 28.7706 31.7297 29.1205 32.1612 29.1205L37.3884 29.1205L37.3884 30.4511C37.3885 30.9003 37.023 31.2659 36.5738 31.2659Z" fill="white"/>
<path d="M28.5137 27.5581C28.0822 27.5581 27.7324 27.9079 27.7324 28.3394C27.7324 28.7708 28.0822 29.1206 28.5137 29.1206L28.516 29.1206C28.9475 29.1206 29.2961 28.7708 29.2961 28.3394C29.2961 27.9079 28.9452 27.5581 28.5137 27.5581Z" fill="white"/>
</g>
<defs>
<clipPath id="clip0_55523_6984">
<rect width="40" height="40" fill="white" transform="translate(0.388672)"/>
</clipPath>
</defs>
</svg>
