<svg width="38" height="40" viewBox="0 0 38 40" fill="none" xmlns="http://www.w3.org/2000/svg">
<path d="M18.9993 19.5952C23.0289 19.5952 26.3072 16.3179 26.3072 12.2895C26.3072 8.2598 23.0289 4.98145 18.9993 4.98145C14.9697 4.98145 11.6914 8.2598 11.6914 12.2895C11.6914 16.3179 14.9697 19.5952 18.9993 19.5952ZM18.9993 6.54402C22.1673 6.54402 24.7447 9.12145 24.7447 12.2896C24.7447 15.4564 22.1673 18.0328 18.9993 18.0328C15.8313 18.0328 13.2539 15.4564 13.2539 12.2896C13.2539 9.12145 15.8313 6.54402 18.9993 6.54402Z" fill="url(#paint0_linear_55447_351861)"/>
<path d="M19 12.7555C19.4315 12.7555 19.7812 12.4057 19.7812 11.9743L19.7812 9.18066C19.7812 8.74926 19.4315 8.39941 19 8.39941C18.5685 8.39941 18.2187 8.74926 18.2187 9.18066L18.2187 11.9743C18.2187 12.4057 18.5685 12.7555 19 12.7555Z" fill="url(#paint1_linear_55447_351861)"/>
<path d="M19 16.176C19.4315 16.176 19.7812 15.825 19.7812 15.3936C19.7812 14.9621 19.4315 14.6123 19 14.6123C18.5685 14.6123 18.2187 14.9621 18.2187 15.3936L18.2187 15.3958C18.2187 15.8273 18.5685 16.176 19 16.176Z" fill="url(#paint2_linear_55447_351861)"/>
<path d="M35.1852 10.237L31.0968 10.237C30.8144 9.6982 30.2498 9.32953 29.6005 9.32953L29.2578 9.32953C29.0379 8.56547 28.7323 7.82906 28.3448 7.12922L28.5851 6.88805C28.9053 6.56984 29.0816 6.14523 29.0816 5.69242C29.0816 5.23961 28.9053 4.81508 28.5872 4.49898L26.7905 2.70008C26.4726 2.38203 26.0486 2.20687 25.5967 2.20687C25.1448 2.20687 24.7209 2.38195 24.403 2.7L24.1596 2.94336C23.4623 2.55664 22.7261 2.25141 21.9598 2.03109L21.9598 1.68859C21.9598 0.7575 21.2023 -3.07218e-10 20.2712 -2.93442e-10L17.7287 -2.55826e-10C16.7976 -2.4205e-10 16.0401 0.7575 16.0401 1.68859L16.0401 2.03109C15.2737 2.25133 14.5376 2.55664 13.8402 2.94336L13.5969 2.70008C13.2789 2.38203 12.8549 2.20687 12.403 2.20687C11.9512 2.20687 11.5272 2.38195 11.2089 2.70031L9.41477 4.49688C9.09453 4.81508 8.9182 5.23969 8.9182 5.6925C8.9182 6.14531 9.09453 6.56984 9.41211 6.88539L9.65516 7.1293C9.26758 7.82914 8.96203 8.56555 8.74211 9.32961L8.39945 9.32961C7.75016 9.32961 7.18555 9.69828 6.90313 10.237L2.79625 10.237C1.49562 10.237 0.4375 11.3034 0.4375 12.6143L0.4375 30.4513C0.4375 31.762 1.50391 32.8285 2.81469 32.8285L13.6961 32.8285L12.532 35.3078L11.6396 35.3078C10.3453 35.3078 9.29234 36.3609 9.29234 37.6552L9.29234 39.2187C9.29234 39.6502 9.64211 40 10.0736 40L27.9262 40C28.3577 40 28.7074 39.6502 28.7074 39.2187L28.7074 37.655C28.7074 36.3607 27.6545 35.3077 26.3602 35.3077L25.4677 35.3077L24.3037 32.8284L35.1851 32.8284C36.4959 32.8284 37.5623 31.762 37.5623 30.4511L37.5623 12.6142C37.5623 11.3034 36.4959 10.237 35.1852 10.237ZM8.27328 11.0182C8.27328 10.951 8.33219 10.892 8.39937 10.892L9.3482 10.892C9.71383 10.892 10.0305 10.6385 10.1105 10.2817C10.3373 9.2707 10.7361 8.30914 11.2959 7.42383C11.4909 7.11547 11.4464 6.7132 11.1889 6.45484L10.516 5.77961C10.4867 5.75055 10.4806 5.71609 10.4806 5.69242C10.4806 5.66875 10.4868 5.6343 10.5181 5.60305L12.3141 3.80469C12.3434 3.77539 12.3786 3.7693 12.403 3.7693C12.4274 3.7693 12.4627 3.77539 12.492 3.80477L13.1644 4.47719C13.4231 4.73602 13.8266 4.78055 14.1355 4.5843C15.0148 4.02609 15.9759 3.62758 16.9922 3.39969C17.3489 3.31969 17.6025 3.00297 17.6025 2.63734L17.6025 1.68859C17.6025 1.62023 17.6602 1.5625 17.7286 1.5625L20.2711 1.5625C20.3395 1.5625 20.3972 1.62023 20.3972 1.68859L20.3972 2.6375C20.3972 3.00312 20.6508 3.31977 21.0075 3.39984C22.0237 3.62773 22.9849 4.02633 23.8641 4.58445C24.173 4.78047 24.5766 4.73594 24.8353 4.47734L25.5077 3.80484C25.537 3.77555 25.5723 3.76945 25.5966 3.76945C25.6211 3.76945 25.6562 3.77555 25.6852 3.80453L27.4837 5.60531C27.513 5.63438 27.5191 5.66883 27.5191 5.6925C27.5191 5.71617 27.513 5.75063 27.481 5.78242L26.8109 6.45484C26.5534 6.71328 26.5089 7.11547 26.7039 7.42383C27.2638 8.30914 27.6625 9.2707 27.8892 10.2817C27.9692 10.6384 28.2859 10.892 28.6516 10.892L29.6004 10.892C29.6676 10.892 29.7265 10.951 29.7265 11.0182L29.7265 13.5584C29.7265 13.6256 29.6676 13.6845 29.6004 13.6845L28.6516 13.6845C28.2859 13.6845 27.9692 13.938 27.8892 14.2948C27.662 15.3084 27.2631 16.2706 26.7039 17.1551C26.5087 17.4639 26.5535 17.8667 26.8118 18.1251L27.482 18.7952C27.5316 18.8449 27.5316 18.9258 27.482 18.9755L25.6855 20.7719C25.6562 20.8012 25.6211 20.8073 25.5966 20.8073C25.5723 20.8073 25.537 20.8012 25.5077 20.7718L24.8353 20.0994C24.5766 19.8406 24.1731 19.7961 23.8641 19.9923C22.9848 20.5505 22.0237 20.949 21.0075 21.1769C20.6508 21.2569 20.3972 21.5736 20.3972 21.9392L20.3972 22.8881C20.3972 22.9565 20.3395 23.0142 20.2711 23.0142L17.7286 23.0142C17.6602 23.0142 17.6025 22.9565 17.6025 22.8881L17.6025 21.9392C17.6025 21.5736 17.3489 21.257 16.9922 21.1769C15.9759 20.949 15.0148 20.5504 14.1355 19.9923C14.0067 19.9105 13.8615 19.8705 13.7171 19.8705C13.5153 19.8705 13.3152 19.9486 13.1644 20.0994L12.492 20.7719C12.4627 20.8012 12.4274 20.8073 12.403 20.8073C12.3786 20.8073 12.3434 20.8012 12.3141 20.7718L10.5178 18.9755C10.4681 18.9258 10.4681 18.8449 10.5178 18.7952L11.188 18.1251C11.4462 17.8667 11.4911 17.4639 11.2959 17.1551C10.7366 16.2706 10.3377 15.3083 10.1105 14.2948C10.0305 13.9381 9.71383 13.6845 9.3482 13.6845L8.39937 13.6845C8.33219 13.6845 8.27328 13.6256 8.27328 13.5584L8.27328 11.0182ZM27.1449 37.655L27.1449 38.4375L10.8549 38.4375L10.8549 37.655C10.8549 37.2223 11.207 36.8702 11.6397 36.8702L26.3602 36.8702C26.7929 36.8702 27.1449 37.2223 27.1449 37.655ZM23.7416 35.3077L14.2582 35.3077L15.4223 32.8284L22.5777 32.8284L23.7416 35.3077ZM35.1852 31.2659L2.81469 31.2659C2.36547 31.2659 2 30.9003 2 30.4511L2 29.1205L23.4769 29.1205C23.9084 29.1205 24.2581 28.7706 24.2581 28.3392C24.2581 27.9078 23.9084 27.558 23.4769 27.558L2 27.558L2 12.6142C2 12.165 2.35719 11.7995 2.79625 11.7995L6.7107 11.7995L6.7107 13.5584C6.7107 14.4895 7.4682 15.247 8.3993 15.247L8.7418 15.247C8.96187 16.0123 9.26727 16.7491 9.65445 17.4487L9.41281 17.6905C8.75398 18.3494 8.75398 19.4214 9.41281 20.0804L11.2091 21.8766C11.5271 22.1947 11.9511 22.3698 12.403 22.3698C12.8548 22.3698 13.2788 22.1948 13.5967 21.8767L13.8401 21.6334C14.5374 22.0201 15.2736 22.3253 16.0399 22.5456L16.0399 22.8881C16.0399 23.8192 16.7974 24.5767 17.7285 24.5767L20.271 24.5767C21.2021 24.5767 21.9596 23.8192 21.9596 22.8881L21.9596 22.5456C22.7259 22.3254 23.4621 22.0201 24.1595 21.6334L24.4028 21.8766C24.7208 22.1947 25.1448 22.3698 25.5966 22.3698C26.0485 22.3698 26.4725 22.1948 26.7905 21.8767L28.5868 20.0803C29.2456 19.4214 29.2456 18.3494 28.5868 17.6904L28.3452 17.4487C28.7323 16.7491 29.0377 16.0123 29.2578 15.247L29.6003 15.247C30.5314 15.247 31.2889 14.4895 31.2889 13.5584L31.2889 11.7995L35.185 11.7995C35.6342 11.7995 35.9997 12.165 35.9997 12.6142L35.9997 27.558L30.7725 27.558C30.341 27.558 29.9912 27.9078 29.9912 28.3392C29.9912 28.7706 30.341 29.1205 30.7725 29.1205L35.9997 29.1205L35.9997 30.4511C35.9998 30.9003 35.6344 31.2659 35.1852 31.2659Z" fill="url(#paint3_linear_55447_351861)"/>
<path d="M27.125 27.5576C26.6935 27.5576 26.3437 27.9075 26.3437 28.3389C26.3437 28.7703 26.6935 29.1201 27.125 29.1201L27.1273 29.1201C27.5588 29.1201 27.9074 28.7703 27.9074 28.3389C27.9074 27.9075 27.5565 27.5576 27.125 27.5576Z" fill="url(#paint4_linear_55447_351861)"/>
<defs>
<linearGradient id="paint0_linear_55447_351861" x1="11.6932" y1="12.3029" x2="26.3058" y2="12.3029" gradientUnits="userSpaceOnUse">
<stop offset="0.15" stop-color="#005EB8"/>
<stop offset="0.51" stop-color="#2093B3"/>
<stop offset="0.8" stop-color="#40C1AC"/>
</linearGradient>
<linearGradient id="paint1_linear_55447_351861" x1="18.2189" y1="10.5818" x2="19.7811" y2="10.5818" gradientUnits="userSpaceOnUse">
<stop offset="0.15" stop-color="#005EB8"/>
<stop offset="0.51" stop-color="#2093B3"/>
<stop offset="0.8" stop-color="#40C1AC"/>
</linearGradient>
<linearGradient id="paint2_linear_55447_351861" x1="18.2189" y1="15.3957" x2="19.7811" y2="15.3957" gradientUnits="userSpaceOnUse">
<stop offset="0.15" stop-color="#005EB8"/>
<stop offset="0.51" stop-color="#2093B3"/>
<stop offset="0.8" stop-color="#40C1AC"/>
</linearGradient>
<linearGradient id="paint3_linear_55447_351861" x1="0.442075" y1="20.0399" x2="37.5588" y2="20.0399" gradientUnits="userSpaceOnUse">
<stop offset="0.15" stop-color="#005EB8"/>
<stop offset="0.51" stop-color="#2093B3"/>
<stop offset="0.8" stop-color="#40C1AC"/>
</linearGradient>
<linearGradient id="paint4_linear_55447_351861" x1="26.3439" y1="28.3404" x2="27.9073" y2="28.3404" gradientUnits="userSpaceOnUse">
<stop offset="0.15" stop-color="#005EB8"/>
<stop offset="0.51" stop-color="#2093B3"/>
<stop offset="0.8" stop-color="#40C1AC"/>
</linearGradient>
</defs>
</svg>
