<svg width="41" height="40" viewBox="0 0 41 40" fill="none" xmlns="http://www.w3.org/2000/svg">
<path d="M39.2601 13.2438C38.3911 12.7941 37.0817 12.9351 36.2599 14.3075C36.2575 14.3114 36.2552 14.3153 36.2529 14.3193L33.2171 19.5959C32.3401 19.1448 31.2342 19.3671 30.6051 20.1745C30.3878 20.4535 29.6698 21.4092 28.9099 22.421C28.4933 22.9756 28.0768 23.5301 27.7551 23.9564C27.4953 24.3008 27.5639 24.7907 27.9083 25.0504C28.2528 25.3103 28.7425 25.2417 29.0023 24.8973C29.3244 24.4703 29.7417 23.9148 30.1591 23.3593C30.8816 22.3974 31.6286 21.4028 31.8376 21.1346C32.0158 20.9058 32.358 20.8614 32.585 21.038C32.7536 21.169 32.7446 21.4899 32.5583 21.9916C31.8953 23.7773 31.0715 25.5617 30.2979 26.8873C30.0806 27.26 30.2064 27.7383 30.5791 27.9556C30.9518 28.173 31.4301 28.0472 31.6474 27.6746C32.4641 26.2747 33.3299 24.4015 34.0229 22.5353C34.2632 21.8878 34.3069 21.3696 34.2367 20.9564L37.6034 15.1048C37.8755 14.6536 38.2348 14.4722 38.5422 14.6312C38.7533 14.7404 38.9321 15.0211 38.7428 15.453C38.5149 15.9565 38.0243 17.2026 37.4036 18.7791C36.582 20.8657 35.5598 23.4626 34.6957 25.4832C33.6432 27.9449 33.2379 28.5395 31.359 30.3771L28.3648 33.3058C28.1672 33.4991 28.0864 33.7826 28.1525 34.0511L29.1956 38.2862C29.1969 38.2912 29.1981 38.2964 29.1995 38.3015C29.2166 38.3654 29.1801 38.4192 29.161 38.4343L23.0556 38.4343C22.4756 38.4343 22.351 38.2689 22.2214 37.9179C20.6891 33.7678 22.2696 31.3858 23.8179 29.7742C24.1167 29.4631 24.1067 28.9687 23.7957 28.6698C23.4846 28.371 22.9901 28.3808 22.6912 28.692C21.5504 29.8795 20.7956 31.0921 20.3899 32.3897C20.2235 31.8607 19.9993 31.3451 19.7164 30.8415C18.6546 28.9512 16.9288 27.5662 15.542 26.4533C14.7356 25.8061 13.9738 25.1949 13.5448 24.6441C13.3361 24.3761 12.5895 23.3823 11.8676 22.4212C11.1076 21.4093 10.3896 20.4536 10.1723 20.1746C9.54323 19.3672 8.43734 19.1448 7.56032 19.596L4.52439 14.3193C4.52212 14.3153 4.51978 14.3114 4.51744 14.3075C3.69563 12.9351 2.38611 12.7941 1.51713 13.2438C0.641273 13.6972 0.0473196 14.8193 0.60667 16.0869C0.607764 16.0893 0.608857 16.0917 0.609951 16.0941C0.76047 16.426 1.06307 17.1828 1.3099 17.8049C1.46901 18.2059 1.92323 18.4021 2.32401 18.243C2.72503 18.0839 2.92117 17.6298 2.76206 17.2289C2.38259 16.2722 2.16474 15.7405 2.03461 15.4531C1.8455 15.0212 2.02422 14.7405 2.23528 14.6313C2.5428 14.4723 2.90203 14.6538 3.17417 15.1049L6.54074 20.9565C6.47059 21.3697 6.51426 21.8879 6.75468 22.5354C7.44752 24.4015 8.31338 26.2747 9.1301 27.6746C9.34756 28.0472 9.82584 28.173 10.1984 27.9556C10.571 27.7383 10.6968 27.2599 10.4795 26.8873C9.70602 25.5616 8.8821 23.7772 8.2191 21.9916C8.03281 21.4899 8.02382 21.1691 8.19254 21.0379C8.4193 20.8617 8.76166 20.9058 8.93983 21.1346C9.14869 21.4028 9.8959 22.3974 10.6184 23.3594C11.3779 24.3704 12.0952 25.3253 12.3123 25.604C12.8536 26.2989 13.6845 26.9657 14.5642 27.6716C17.3755 29.9276 20.5619 32.4847 18.5559 37.9178C18.4262 38.2688 18.3017 38.4342 17.7217 38.4342L11.6163 38.4342C11.5972 38.4192 11.5607 38.3654 11.5778 38.3015C11.5792 38.2964 11.5805 38.2912 11.5818 38.2861L12.6249 34.051C12.691 33.7825 12.6102 33.4991 12.4125 33.3057L9.41833 30.3771C7.53954 28.5394 7.13414 27.9449 6.0816 25.483C5.86531 24.9774 5.62231 24.3954 5.35908 23.7535C5.19544 23.3544 4.73919 23.1633 4.34005 23.3271C3.9409 23.4908 3.75 23.947 3.91364 24.3461C4.18351 25.0044 4.42284 25.5772 4.64515 26.0971C5.78025 28.7521 6.29625 29.5086 8.32603 31.4938L11.0012 34.1105L10.0664 37.9058C9.93457 38.4093 10.045 38.9558 10.3627 39.3699C10.6681 39.768 11.1211 39.9963 11.6056 39.9963L17.7217 39.9963C18.8871 39.9963 19.6393 39.4934 20.0213 38.4588C20.1658 38.0674 20.288 37.6835 20.3894 37.306C20.49 37.685 20.6121 38.0694 20.7559 38.4588C21.1379 39.4934 21.8902 39.9963 23.0555 39.9963L29.1716 39.9963C29.656 39.9963 30.1091 39.768 30.4146 39.3699C30.7322 38.956 30.8427 38.4095 30.7109 37.9062L29.776 34.1106L32.4512 31.4939C34.4809 29.5086 34.997 28.7521 36.1321 26.0972C37.0049 24.0558 38.0318 21.4473 38.8571 19.3513C39.4471 17.8527 39.9566 16.5585 40.1673 16.0939C40.1684 16.0915 40.1694 16.0891 40.1705 16.0866C40.7301 14.8193 40.1361 13.6972 39.2601 13.2438Z" fill="white"/>
<path d="M4.10835 20.7877C4.10835 20.3563 3.75864 20.0066 3.32724 20.0066L3.32669 20.0066C2.89529 20.0066 2.5459 20.3563 2.5459 20.7877C2.5459 21.2191 2.89583 21.5688 3.32724 21.5688C3.75864 21.5688 4.10835 21.219 4.10835 20.7877Z" fill="white"/>
<path d="M25.9009 26.1394C25.4696 26.1394 25.1201 26.4891 25.1201 26.9205C25.1201 27.3519 25.4701 27.7016 25.9015 27.7016C26.3329 27.7016 26.6826 27.3519 26.6826 26.9205C26.6826 26.4891 26.3328 26.1394 25.9015 26.1394L25.9009 26.1394Z" fill="white"/>
<path d="M7.89064 12.9475L15.013 12.9475C14.9524 13.2747 14.9205 13.6105 14.9205 13.952L14.9205 15.291C14.9205 15.7224 15.2702 16.0721 15.7016 16.0721L25.0749 16.0721C25.5062 16.0721 25.856 15.7224 25.856 15.291L25.856 13.952C25.856 13.6105 25.8241 13.2747 25.7635 12.9475L32.886 12.9475C33.3173 12.9475 33.6671 12.5978 33.6671 12.1664L33.6671 10.8275C33.6671 9.00724 32.7774 7.34442 31.3019 6.32938C31.5297 5.86837 31.6585 5.34995 31.6585 4.80184L31.6585 3.46287C31.6585 1.55549 30.1067 0.0036621 28.1993 0.0036621C26.2919 0.0036621 24.7401 1.55541 24.7401 3.46287L24.7401 4.80192C24.7401 5.35088 24.8692 5.87008 25.0978 6.33164C24.6173 6.66502 24.1961 7.07104 23.8475 7.53048L23.8475 6.58738C23.8475 4.67999 22.2957 3.12817 20.3883 3.12817C18.4808 3.12817 16.9291 4.67991 16.9291 6.58738L16.9291 7.53064C16.5805 7.07111 16.1592 6.66502 15.6787 6.33164C15.9072 5.87008 16.0363 5.35096 16.0363 4.80192L16.0363 3.46287C16.0363 1.55549 14.4846 0.00366211 12.5771 0.00366211C10.6697 0.00366211 9.11791 1.55541 9.11791 3.46287L9.11791 4.80192C9.11791 5.35002 9.24664 5.86844 9.47449 6.32945C7.9989 7.34435 7.10937 9.00662 7.10937 10.8275L7.10937 12.1665C7.10953 12.5978 7.45923 12.9475 7.89064 12.9475ZM24.2938 14.5099L16.4827 14.5099L16.4827 13.952C16.4827 12.6306 17.1775 11.3842 18.283 10.6685C18.8667 11.1176 19.5965 11.3856 20.3883 11.3856C21.1804 11.3856 21.9107 11.1173 22.4944 10.6677C22.6632 10.7759 22.8216 10.8959 22.9695 11.0257C22.994 11.0505 23.0197 11.0741 23.0472 11.0955C23.4503 11.4687 23.7673 11.9196 23.9809 12.4193C23.9915 12.4503 24.0041 12.4803 24.0184 12.5094C24.1976 12.9598 24.2937 13.4474 24.2937 13.952L24.2937 14.5099L24.2938 14.5099ZM32.1049 10.8275L32.1049 11.3854L25.2181 11.3854C24.9855 10.9488 24.6938 10.5448 24.3495 10.1846C24.5319 9.10574 25.1701 8.14209 26.0952 7.54486C26.6786 7.99345 27.4081 8.26105 28.1993 8.26105C28.9915 8.26105 29.7217 7.99282 30.3055 7.54322C31.4251 8.26113 32.1049 9.48466 32.1049 10.8275ZM26.3023 3.46287C26.3023 2.41689 27.1533 1.56588 28.1993 1.56588C29.2452 1.56588 30.0962 2.41689 30.0962 3.46287L30.0962 4.80192C30.0962 5.8479 29.2452 6.69892 28.1993 6.69892C27.1532 6.69892 26.3023 5.8479 26.3023 4.80192L26.3023 3.46287ZM18.4913 6.58738C18.4913 5.5414 19.3423 4.69038 20.3883 4.69038C21.4342 4.69038 22.2853 5.5414 22.2853 6.58738L22.2853 7.92643C22.2853 8.97241 21.4342 9.82342 20.3883 9.82342C19.3423 9.82342 18.4913 8.97241 18.4913 7.92643L18.4913 6.58738ZM10.6803 3.46287C10.6803 2.41689 11.5313 1.56588 12.5773 1.56588C13.6233 1.56588 14.4743 2.41689 14.4743 3.46287L14.4743 4.80192C14.4743 5.8479 13.6233 6.69892 12.5773 6.69892C11.5313 6.69892 10.6803 5.8479 10.6803 4.80192L10.6803 3.46287ZM8.67174 10.8275C8.67174 9.48419 9.35146 8.26105 10.4711 7.54329C11.0549 7.9929 11.7852 8.26113 12.5773 8.26113C13.3685 8.26113 14.0979 7.99352 14.6814 7.54493C15.6063 8.14209 16.2446 9.10582 16.4271 10.1844C16.0827 10.5446 15.7908 10.9488 15.5582 11.3855L8.67182 11.3855L8.67182 10.8275L8.67174 10.8275Z" fill="white"/>
</svg>
