<svg width="41" height="40" viewBox="0 0 41 40" fill="none" xmlns="http://www.w3.org/2000/svg">
<path d="M39.2604 13.2439C38.3914 12.7942 37.0819 12.9352 36.2601 14.3076C36.2578 14.3115 36.2554 14.3155 36.2532 14.3194L33.2173 19.596C32.3404 19.1449 31.2344 19.3673 30.6054 20.1746C30.3881 20.4536 29.6701 21.4093 28.9102 22.4211C28.4935 22.9757 28.077 23.5302 27.7554 23.9566C27.4956 24.301 27.5642 24.7908 27.9085 25.0505C28.2531 25.3105 28.7428 25.2418 29.0026 24.8974C29.3247 24.4704 29.742 23.9149 30.1593 23.3594C30.8818 22.3976 31.6289 21.4029 31.8378 21.1347C32.0161 20.9059 32.3583 20.8615 32.5853 21.0381C32.7538 21.1691 32.7448 21.49 32.5585 21.9917C31.8955 23.7774 31.0717 25.5618 30.2982 26.8874C30.0808 27.2601 30.2066 27.7384 30.5793 27.9558C30.952 28.1731 31.4303 28.0473 31.6476 27.6747C32.4643 26.2748 33.3301 24.4016 34.0231 22.5354C34.2635 21.888 34.3071 21.3697 34.237 20.9565L37.6036 15.1049C37.8758 14.6537 38.2351 14.4723 38.5424 14.6313C38.7535 14.7405 38.9323 15.0213 38.743 15.4531C38.5151 15.9566 38.0245 17.2027 37.4038 18.7792C36.5823 20.8658 35.56 23.4627 34.696 25.4833C33.6434 27.9451 33.2381 28.5396 31.3592 30.3773L28.365 33.3059C28.1674 33.4993 28.0866 33.7827 28.1527 34.0512L29.1958 38.2863C29.1971 38.2914 29.1984 38.2965 29.1998 38.3017C29.2169 38.3656 29.1803 38.4193 29.1613 38.4344L23.0558 38.4344C22.4759 38.4344 22.3513 38.269 22.2217 37.918C20.6893 33.7679 22.2699 31.3859 23.8181 29.7743C24.117 29.4632 24.107 28.9688 23.7959 28.6699C23.4848 28.3711 22.9904 28.3809 22.6915 28.6921C21.5506 29.8796 20.7959 31.0922 20.3902 32.3899C20.2237 31.8608 19.9995 31.3452 19.7166 30.8416C18.6549 28.9513 16.929 27.5663 15.5422 26.4534C14.7358 25.8062 13.9741 25.195 13.545 24.6442C13.3363 24.3763 12.5898 23.3824 11.8678 22.4213C11.1078 21.4094 10.3899 20.4537 10.1725 20.1747C9.54348 19.3673 8.43759 19.1449 7.56056 19.5961L4.52463 14.3194C4.52237 14.3155 4.52002 14.3115 4.51768 14.3076C3.69588 12.9352 2.38635 12.7942 1.51737 13.2439C0.641517 13.6973 0.0475637 14.8194 0.606914 16.087C0.608008 16.0894 0.609101 16.0918 0.610195 16.0943C0.760714 16.4261 1.06331 17.1829 1.31014 17.805C1.46926 18.2061 1.92347 18.4022 2.32425 18.2431C2.72528 18.084 2.92141 17.6299 2.7623 17.229C2.38284 16.2724 2.16499 15.7406 2.03486 15.4532C1.84575 15.0213 2.02447 14.7406 2.23552 14.6314C2.54304 14.4724 2.90227 14.6539 3.17441 15.1051L6.54098 20.9566C6.47084 21.3698 6.5145 21.888 6.75493 22.5355C7.44777 24.4016 8.31362 26.2748 9.13035 27.6747C9.34781 28.0473 9.82608 28.1731 10.1987 27.9558C10.5713 27.7384 10.6971 27.26 10.4797 26.8874C9.70626 25.5617 8.88235 23.7773 8.21934 21.9917C8.03305 21.49 8.02407 21.1692 8.19279 21.038C8.41954 20.8618 8.7619 20.906 8.94007 21.1347C9.14894 21.4029 9.89615 22.3976 10.6187 23.3595C11.3781 24.3705 12.0954 25.3254 12.3126 25.6042C12.8539 26.299 13.6847 26.9659 14.5644 27.6717C17.3757 29.9277 20.5622 32.4848 18.5561 37.9179C18.4265 38.2689 18.3019 38.4343 17.722 38.4343L11.6165 38.4343C11.5975 38.4193 11.5609 38.3655 11.578 38.3016C11.5794 38.2965 11.5808 38.2914 11.582 38.2862L12.6251 34.0511C12.6913 33.7827 12.6105 33.4993 12.4128 33.3059L9.41858 30.3772C7.53978 28.5396 7.13439 27.945 6.08185 25.4832C5.86556 24.9775 5.62256 24.3956 5.35932 23.7536C5.19568 23.3545 4.73944 23.1634 4.34029 23.3272C3.94115 23.4909 3.75024 23.9471 3.91389 24.3463C4.18376 25.0045 4.42309 25.5773 4.64539 26.0973C5.7805 28.7522 6.29649 29.5088 8.32628 31.4939L11.0015 34.1106L10.0667 37.906C9.93481 38.4094 10.0453 38.9559 10.3629 39.3701C10.6683 39.7681 11.1214 39.9964 11.6058 39.9964L17.7219 39.9964C18.8873 39.9964 19.6395 39.4936 20.0216 38.4589C20.1661 38.0676 20.2882 37.6836 20.3896 37.3061C20.4903 37.6851 20.6124 38.0695 20.7562 38.4589C21.1381 39.4936 21.8904 39.9964 23.0558 39.9964L29.1718 39.9964C29.6563 39.9964 30.1093 39.7681 30.4148 39.3701C30.7324 38.9561 30.8429 38.4096 30.7112 37.9063L29.7762 34.1107L32.4515 31.494C34.4812 29.5088 34.9972 28.7522 36.1323 26.0974C37.0052 24.0559 38.0321 21.4474 38.8573 19.3514C39.4474 17.8528 39.9568 16.5586 40.1675 16.094C40.1686 16.0916 40.1696 16.0892 40.1707 16.0868C40.7303 14.8194 40.1363 13.6973 39.2604 13.2439Z" fill="url(#paint0_linear_55709_2272)"/>
<path d="M4.10859 20.7877C4.10859 20.3563 3.75889 20.0066 3.32748 20.0066L3.32694 20.0066C2.89553 20.0066 2.54614 20.3563 2.54614 20.7877C2.54614 21.2191 2.89608 21.5688 3.32748 21.5688C3.75889 21.5688 4.10859 21.219 4.10859 20.7877Z" fill="url(#paint1_linear_55709_2272)"/>
<path d="M25.9012 26.1394C25.4698 26.1394 25.1204 26.4891 25.1204 26.9205C25.1204 27.3519 25.4703 27.7016 25.9017 27.7016C26.3331 27.7016 26.6828 27.3519 26.6828 26.9205C26.6828 26.4891 26.333 26.1394 25.9017 26.1394L25.9012 26.1394Z" fill="url(#paint2_linear_55709_2272)"/>
<path d="M7.89088 12.9475L15.0132 12.9475C14.9526 13.2747 14.9208 13.6105 14.9208 13.952L14.9208 15.291C14.9208 15.7224 15.2705 16.0721 15.7019 16.0721L25.0752 16.0721C25.5065 16.0721 25.8563 15.7224 25.8563 15.291L25.8563 13.952C25.8563 13.6105 25.8243 13.2747 25.7637 12.9475L32.8862 12.9475C33.3175 12.9475 33.6673 12.5978 33.6673 12.1664L33.6673 10.8275C33.6673 9.00724 32.7776 7.34442 31.3021 6.32938C31.53 5.86837 31.6587 5.34995 31.6587 4.80184L31.6587 3.46287C31.6587 1.55549 30.107 0.00366211 28.1996 0.00366211C26.2921 0.00366211 24.7404 1.55541 24.7404 3.46287L24.7404 4.80192C24.7404 5.35088 24.8695 5.87008 25.098 6.33164C24.6175 6.66502 24.1963 7.07104 23.8477 7.53048L23.8477 6.58738C23.8477 4.67999 22.296 3.12817 20.3885 3.12817C18.481 3.12817 16.9293 4.67991 16.9293 6.58738L16.9293 7.53064C16.5807 7.07111 16.1594 6.66502 15.6789 6.33164C15.9075 5.87008 16.0366 5.35096 16.0366 4.80192L16.0366 3.46287C16.0366 1.55549 14.4848 0.00366211 12.5774 0.00366211C10.6699 0.00366211 9.11816 1.55541 9.11816 3.46287L9.11816 4.80192C9.11816 5.35002 9.24688 5.86844 9.47473 6.32945C7.99914 7.34435 7.10962 9.00662 7.10962 10.8275L7.10962 12.1665C7.10978 12.5978 7.45948 12.9475 7.89088 12.9475ZM24.294 14.5099L16.483 14.5099L16.483 13.952C16.483 12.6306 17.1777 11.3842 18.2833 10.6685C18.8669 11.1176 19.5968 11.3856 20.3885 11.3856C21.1806 11.3856 21.911 11.1173 22.4947 10.6677C22.6634 10.7759 22.8218 10.8959 22.9698 11.0257C22.9942 11.0505 23.0199 11.0741 23.0475 11.0955C23.4505 11.4687 23.7676 11.9196 23.9811 12.4193C23.9918 12.4503 24.0043 12.4803 24.0186 12.5094C24.1978 12.9598 24.294 13.4474 24.294 13.952L24.294 14.5099L24.294 14.5099ZM32.1051 10.8275L32.1051 11.3854L25.2183 11.3854C24.9858 10.9488 24.694 10.5448 24.3497 10.1846C24.5321 9.10574 25.1704 8.14209 26.0954 7.54486C26.6788 7.99345 27.4084 8.26105 28.1996 8.26105C28.9917 8.26105 29.722 7.99282 30.3058 7.54322C31.4253 8.26113 32.1051 9.48466 32.1051 10.8275ZM26.3025 3.46287C26.3025 2.41689 27.1535 1.56588 28.1995 1.56588C29.2455 1.56588 30.0964 2.41689 30.0964 3.46287L30.0964 4.80192C30.0964 5.8479 29.2454 6.69892 28.1995 6.69892C27.1534 6.69892 26.3025 5.8479 26.3025 4.80192L26.3025 3.46287ZM18.4915 6.58738C18.4915 5.5414 19.3425 4.69038 20.3885 4.69038C21.4345 4.69038 22.2855 5.5414 22.2855 6.58738L22.2855 7.92643C22.2855 8.97241 21.4345 9.82342 20.3885 9.82342C19.3425 9.82342 18.4915 8.97241 18.4915 7.92643L18.4915 6.58738ZM10.6805 3.46287C10.6805 2.41689 11.5315 1.56588 12.5775 1.56588C13.6235 1.56588 14.4745 2.41689 14.4745 3.46287L14.4745 4.80192C14.4745 5.8479 13.6235 6.69892 12.5775 6.69892C11.5315 6.69892 10.6805 5.8479 10.6805 4.80192L10.6805 3.46287ZM8.67199 10.8275C8.67199 9.48419 9.35171 8.26105 10.4713 7.54329C11.0551 7.9929 11.7854 8.26113 12.5775 8.26113C13.3687 8.26113 14.0982 7.99352 14.6817 7.54493C15.6065 8.14209 16.2448 9.10582 16.4274 10.1844C16.0829 10.5446 15.791 10.9488 15.5585 11.3855L8.67207 11.3855L8.67207 10.8275L8.67199 10.8275Z" fill="url(#paint3_linear_55709_2272)"/>
<defs>
<linearGradient id="paint0_linear_55709_2272" x1="0.393845" y1="26.5324" x2="40.3852" y2="26.5324" gradientUnits="userSpaceOnUse">
<stop offset="0.15" stop-color="#005EB8"/>
<stop offset="0.51" stop-color="#2093B3"/>
<stop offset="0.8" stop-color="#40C1AC"/>
</linearGradient>
<linearGradient id="paint1_linear_55709_2272" x1="2.54634" y1="20.7893" x2="4.10845" y2="20.7893" gradientUnits="userSpaceOnUse">
<stop offset="0.15" stop-color="#005EB8"/>
<stop offset="0.51" stop-color="#2093B3"/>
<stop offset="0.8" stop-color="#40C1AC"/>
</linearGradient>
<linearGradient id="paint2_linear_55709_2272" x1="25.1206" y1="26.9221" x2="26.6827" y2="26.9221" gradientUnits="userSpaceOnUse">
<stop offset="0.15" stop-color="#005EB8"/>
<stop offset="0.51" stop-color="#2093B3"/>
<stop offset="0.8" stop-color="#40C1AC"/>
</linearGradient>
<linearGradient id="paint3_linear_55709_2272" x1="7.11289" y1="8.05391" x2="33.6649" y2="8.05391" gradientUnits="userSpaceOnUse">
<stop offset="0.15" stop-color="#005EB8"/>
<stop offset="0.51" stop-color="#2093B3"/>
<stop offset="0.8" stop-color="#40C1AC"/>
</linearGradient>
</defs>
</svg>
