<svg width="32" height="32" viewBox="0 0 32 32" fill="none" xmlns="http://www.w3.org/2000/svg">
<rect width="32" height="32" rx="5" fill="#40C1AC"/>
<path d="M25 10C24.7348 10 24.4804 10.1054 24.2929 10.2929C24.1054 10.4804 24 10.7348 24 11V21C24 21.7956 23.6839 22.5587 23.1213 23.1213C22.5587 23.6839 21.7956 24 21 24H11C10.7348 24 10.4804 24.1054 10.2929 24.2929C10.1054 24.4804 10 24.7348 10 25C10 25.2652 10.1054 25.5196 10.2929 25.7071C10.4804 25.8946 10.7348 26 11 26H21C22.3261 26 23.5979 25.4732 24.5355 24.5355C25.4732 23.5979 26 22.3261 26 21V11C26 10.7348 25.8946 10.4804 25.7071 10.2929C25.5196 10.1054 25.2652 10 25 10ZM22 19V9C22 8.20435 21.6839 7.44129 21.1213 6.87868C20.5587 6.31607 19.7956 6 19 6H9C8.20435 6 7.44129 6.31607 6.87868 6.87868C6.31607 7.44129 6 8.20435 6 9V19C6 19.7956 6.31607 20.5587 6.87868 21.1213C7.44129 21.6839 8.20435 22 9 22H19C19.7956 22 20.5587 21.6839 21.1213 21.1213C21.6839 20.5587 22 19.7956 22 19ZM14 8H16V12.86L15.64 12.56C15.4603 12.4103 15.2339 12.3284 15 12.3284C14.7661 12.3284 14.5397 12.4103 14.36 12.56L14 12.86V8ZM8 19V9C8 8.73478 8.10536 8.48043 8.29289 8.29289C8.48043 8.10536 8.73478 8 9 8H12V15C12 15.1912 12.0548 15.3783 12.1579 15.5393C12.2609 15.7003 12.408 15.8284 12.5816 15.9083C12.7553 15.9883 12.9482 16.0169 13.1375 15.9906C13.3269 15.9643 13.5047 15.8843 13.65 15.76L15 14.63L16.35 15.76C16.5311 15.9149 16.7617 16 17 16C17.1447 15.999 17.2876 15.9683 17.42 15.91C17.5936 15.8297 17.7405 15.7012 17.8433 15.5399C17.9461 15.3787 18.0005 15.1913 18 15V8H19C19.2652 8 19.5196 8.10536 19.7071 8.29289C19.8946 8.48043 20 8.73478 20 9V19C20 19.2652 19.8946 19.5196 19.7071 19.7071C19.5196 19.8946 19.2652 20 19 20H9C8.73478 20 8.48043 19.8946 8.29289 19.7071C8.10536 19.5196 8 19.2652 8 19Z" fill="white"/>
</svg>
