<svg width="56" height="29" viewBox="0 0 56 29" fill="none" xmlns="http://www.w3.org/2000/svg">
<path d="M23.7198 25.1101H24.3449V28.2171H23.7198V26.8553H22.4763V28.2171H21.8495V25.1101H22.4746V26.3654H23.7181L23.7198 25.1101ZM26.8826 26.7337C26.8995 26.8182 26.9113 26.9026 26.9197 26.9905C26.9282 27.0784 26.9299 27.1594 26.9299 27.2389V27.2574H25.3468C25.3515 27.3418 25.3727 27.4245 25.4093 27.5007C25.4429 27.5706 25.4907 27.6327 25.5495 27.6832C25.6088 27.7333 25.677 27.7717 25.7506 27.7964C25.8313 27.8228 25.9157 27.8359 26.0006 27.8352C26.1352 27.8354 26.2687 27.8131 26.396 27.7694C26.5227 27.7249 26.645 27.6683 26.7609 27.6004V28.087C26.6432 28.156 26.5147 28.2045 26.3808 28.2306C26.2466 28.2562 26.1102 28.2692 25.9736 28.2694C25.8016 28.2718 25.6305 28.2461 25.4668 28.1934C25.3265 28.1462 25.1988 28.0676 25.0934 27.9637C24.9889 27.859 24.9098 27.7319 24.8619 27.592C24.8062 27.4289 24.7794 27.2574 24.7825 27.0851C24.7809 26.9257 24.8025 26.7669 24.8467 26.6137C24.8867 26.4741 24.9539 26.3438 25.0444 26.2302C25.1351 26.1182 25.2508 26.0291 25.3823 25.97C25.5295 25.9028 25.6901 25.8699 25.8519 25.8737C25.9351 25.8742 26.018 25.8804 26.1003 25.8923C26.1823 25.9051 26.2628 25.9267 26.3402 25.9565C26.4164 25.9859 26.488 26.0257 26.5531 26.0748C26.6192 26.1271 26.6763 26.1899 26.7221 26.2606C26.7662 26.3314 26.8024 26.4067 26.8302 26.4853C26.8583 26.567 26.8803 26.6505 26.8961 26.7354L26.8826 26.7337ZM26.374 26.8486C26.3719 26.7765 26.3605 26.7049 26.3402 26.6357C26.3214 26.5742 26.291 26.5169 26.2507 26.4668C26.2113 26.4168 26.1602 26.3774 26.102 26.3519C26.0348 26.3232 25.9622 26.3093 25.8891 26.3113C25.815 26.3101 25.7415 26.3239 25.6729 26.3519C25.609 26.377 25.5514 26.4156 25.5039 26.4651C25.4576 26.5138 25.4214 26.5712 25.3975 26.634C25.3715 26.7028 25.3561 26.7752 25.3519 26.8486H26.374ZM29.2986 26.8148C29.2986 27.0513 29.2986 27.2845 29.2986 27.5176C29.2986 27.7508 29.3121 27.9822 29.329 28.2188H28.8018C28.8018 28.163 28.79 28.1056 28.7849 28.0498C28.7799 27.9941 28.7765 27.9349 28.7765 27.8809C28.7409 27.9432 28.6965 28.0001 28.6447 28.0498C28.594 28.0986 28.5373 28.1407 28.4757 28.1748C28.4133 28.2087 28.3469 28.2348 28.2781 28.2526C28.2098 28.2708 28.1393 28.2799 28.0686 28.2796C27.9688 28.2797 27.8697 28.2643 27.7746 28.234C27.6821 28.2051 27.5952 28.1605 27.5178 28.1022C27.4432 28.0441 27.3816 27.971 27.337 27.8876C27.29 27.7987 27.2662 27.6993 27.2678 27.5987C27.2675 27.5259 27.276 27.4533 27.2931 27.3825C27.3108 27.3104 27.3417 27.2422 27.3843 27.1814C27.439 27.1006 27.5104 27.0326 27.5938 26.9821C27.6773 26.9329 27.7671 26.8954 27.8608 26.8705C27.9587 26.8447 28.0588 26.8283 28.1598 26.8215C28.2646 26.8215 28.3659 26.8114 28.4656 26.8114H28.7596C28.7613 26.7326 28.751 26.654 28.7292 26.5783C28.711 26.5199 28.6785 26.467 28.6346 26.4245C28.586 26.383 28.528 26.354 28.4656 26.34C28.3898 26.322 28.3121 26.3134 28.2342 26.3147C28.1069 26.3136 27.9804 26.3353 27.8608 26.3789C27.7387 26.4219 27.6246 26.4847 27.5229 26.5647L27.5026 26.0579C27.6318 26.0009 27.7666 25.9573 27.9047 25.9278C28.043 25.8985 28.184 25.8838 28.3254 25.8839C28.5856 25.8658 28.8428 25.9487 29.0434 26.1153C29.1311 26.2102 29.1981 26.3223 29.2403 26.4444C29.2825 26.5666 29.2989 26.6961 29.2884 26.8249L29.2986 26.8148ZM28.7461 27.1628H28.3845C28.3199 27.1633 28.2554 27.1695 28.1919 27.1814C28.1277 27.1934 28.066 27.2163 28.0094 27.249C27.9563 27.2788 27.9106 27.3205 27.876 27.3706C27.8405 27.4267 27.8223 27.4919 27.8236 27.5582C27.822 27.6047 27.8344 27.6505 27.8591 27.69C27.8819 27.7252 27.9126 27.7546 27.9486 27.7761C27.9859 27.7993 28.0271 27.8154 28.0703 27.8234C28.1135 27.8335 28.1577 27.8386 28.2021 27.8386C28.2877 27.8412 28.3725 27.822 28.4487 27.7829C28.5161 27.7475 28.574 27.6965 28.6177 27.6342C28.6621 27.5701 28.6947 27.4986 28.714 27.423C28.735 27.3419 28.7458 27.2585 28.7461 27.1747V27.1628ZM29.8882 28.2205H30.4863V24.8837H29.8882V28.2205ZM32.1031 27.7998C32.0568 27.8078 32.0099 27.8118 31.9629 27.8116C31.9166 27.8129 31.8706 27.8025 31.8294 27.7812C31.7946 27.7615 31.765 27.7337 31.7433 27.7001C31.7211 27.6648 31.7051 27.6259 31.6959 27.5852C31.6871 27.5413 31.6826 27.4966 31.6824 27.4517V26.3654H32.2129V25.9278H31.6824V25.279L31.0843 25.4699V27.5311C31.0823 27.6378 31.0983 27.7441 31.1316 27.8454C31.1593 27.9327 31.2067 28.0125 31.2702 28.0785C31.3332 28.1445 31.4107 28.1949 31.4966 28.2255C31.5978 28.2596 31.704 28.2762 31.8108 28.2745C31.8829 28.2745 31.9573 28.2711 32.0338 28.2644C32.1077 28.2566 32.1807 28.2419 32.2518 28.2205L32.2349 27.7491C32.1942 27.7733 32.1496 27.7905 32.1031 27.7998ZM34.5461 26.1339C34.4822 26.0521 34.3992 25.9872 34.3045 25.9447C34.1921 25.896 34.0705 25.8724 33.9481 25.8754C33.8066 25.8741 33.6667 25.9054 33.5392 25.9667C33.4122 26.0281 33.3043 26.1226 33.2266 26.2404H33.2182V24.8888H32.6218V28.2255H33.2182V27.1037C33.2184 27.0174 33.2275 26.9313 33.2452 26.8469C33.2608 26.7612 33.2899 26.6785 33.3314 26.6019C33.3707 26.529 33.4255 26.4656 33.4919 26.4161C33.5655 26.3662 33.653 26.3408 33.7419 26.3434C33.8157 26.3407 33.889 26.357 33.9548 26.3907C34.0155 26.4304 34.0604 26.4902 34.0815 26.5597C34.1064 26.6293 34.1212 26.7021 34.1254 26.7759C34.1254 26.8452 34.1254 26.9195 34.1254 26.9956V28.2188H34.7218V26.7726C34.7225 26.6523 34.7078 26.5325 34.6779 26.4161C34.6521 26.3131 34.6056 26.2165 34.5411 26.1322L34.5461 26.1339ZM35.9873 28.2188H36.6124V25.1101H35.9873V28.2188ZM39.1517 26.1238C39.0872 26.043 39.0044 25.9787 38.9101 25.9363C38.7977 25.8876 38.6761 25.864 38.5536 25.867C38.4079 25.8647 38.2635 25.8953 38.1313 25.9565C38.0016 26.0215 37.8887 26.1158 37.8018 26.2319H37.7917V25.9194H37.224V28.212H37.8221V27.0902C37.8225 27.004 37.831 26.918 37.8474 26.8334C37.8644 26.7478 37.894 26.6652 37.9353 26.5884C37.977 26.5146 38.0348 26.4512 38.1042 26.4026C38.1778 26.3525 38.2653 26.3271 38.3543 26.3299C38.4281 26.3272 38.5014 26.3435 38.5671 26.3772C38.6279 26.4165 38.6723 26.4766 38.6922 26.5462C38.7183 26.6149 38.7336 26.6873 38.7378 26.7607C38.7378 26.8317 38.7378 26.906 38.7378 26.9821V28.2053H39.3325V26.759C39.3337 26.6389 39.3195 26.5191 39.2902 26.4026C39.2652 26.2988 39.2185 26.2015 39.1534 26.117L39.1517 26.1238ZM41.2991 27.0564C41.2502 27.0055 41.1931 26.9633 41.1301 26.9314C41.0686 26.8992 41.0047 26.8716 40.9392 26.8486C40.8733 26.8266 40.8108 26.8063 40.7483 26.7894C40.6909 26.7736 40.6345 26.7544 40.5794 26.732C40.5358 26.7152 40.4957 26.6906 40.4611 26.6594C40.4465 26.6451 40.4351 26.628 40.4276 26.6091C40.42 26.5902 40.4164 26.5699 40.4171 26.5495C40.4154 26.5062 40.4266 26.4632 40.4493 26.4262C40.4708 26.3945 40.4991 26.368 40.532 26.3485C40.5671 26.3285 40.6054 26.3148 40.6452 26.3079C40.6858 26.2999 40.7272 26.2959 40.7686 26.2961C40.8591 26.2953 40.9496 26.3027 41.0389 26.3181C41.129 26.3349 41.2172 26.3604 41.3024 26.3941L41.3413 25.9464C41.2354 25.9172 41.1276 25.8958 41.0186 25.8822C40.9099 25.8679 40.8005 25.8605 40.6908 25.8602C40.577 25.8594 40.4634 25.8731 40.3529 25.9008C40.2504 25.9256 40.1532 25.9685 40.0657 26.0275C39.9819 26.0839 39.9125 26.1591 39.863 26.2471C39.8087 26.3464 39.7818 26.4584 39.7853 26.5715C39.7835 26.6501 39.7956 26.7285 39.8208 26.803C39.8419 26.8645 39.874 26.9217 39.9153 26.9719C39.9546 27.0173 40.0008 27.056 40.0522 27.0868C40.1062 27.1179 40.1627 27.1444 40.2212 27.1662C40.2764 27.188 40.3328 27.2066 40.3901 27.222C40.4459 27.2372 40.5016 27.2524 40.5591 27.2693C40.6059 27.2841 40.6516 27.3021 40.6959 27.3233C40.7327 27.3405 40.7651 27.366 40.7905 27.3977C40.8066 27.4185 40.8176 27.4428 40.8226 27.4686C40.8259 27.4944 40.8259 27.5205 40.8226 27.5463C40.8241 27.5917 40.8117 27.6365 40.7872 27.6747C40.762 27.7103 40.7298 27.7402 40.6925 27.7626C40.6536 27.7851 40.6114 27.8016 40.5675 27.8116C40.5237 27.8216 40.479 27.8267 40.434 27.8268C40.2278 27.8271 40.0248 27.7748 39.8444 27.6747L39.8089 28.1647C39.9202 28.195 40.033 28.2193 40.1468 28.2373C40.2587 28.2541 40.3716 28.2626 40.4847 28.2627C40.6025 28.2628 40.7199 28.2492 40.8345 28.2221C40.9446 28.1989 41.0494 28.1554 41.1436 28.0937C41.234 28.0349 41.3093 27.9556 41.3633 27.8623C41.4219 27.7565 41.4511 27.6369 41.4477 27.5159C41.4502 27.4237 41.4347 27.3319 41.4021 27.2456C41.3759 27.1766 41.3363 27.1134 41.2856 27.0598L41.2991 27.0564ZM43.4177 27.0378C43.4171 27.125 43.4092 27.2121 43.394 27.298C43.379 27.3841 43.3505 27.4674 43.3096 27.5447C43.2695 27.6192 43.2114 27.6825 43.1406 27.7288C43.0651 27.7786 42.9759 27.8034 42.8855 27.7998C42.8126 27.8018 42.7408 27.7817 42.6794 27.7423C42.6196 27.7013 42.5745 27.642 42.551 27.5734C42.5298 27.5195 42.5184 27.4623 42.5172 27.4044L42.5071 27.2355V27.1831C42.5053 27.1657 42.5053 27.1481 42.5071 27.1307V25.9075H41.909V27.3554C41.9082 27.4747 41.9235 27.5934 41.9546 27.7085C41.9825 27.8122 42.0307 27.9092 42.0965 27.9941C42.1604 28.0763 42.2433 28.1418 42.3381 28.185C42.4488 28.2335 42.5687 28.2572 42.6895 28.2542C42.8347 28.2561 42.9782 28.2236 43.1085 28.1596C43.2405 28.0968 43.3562 28.0043 43.4464 27.8893V28.2002H44.0107V25.9075H43.416L43.4177 27.0378ZM45.805 25.8552C45.7228 25.8549 45.6418 25.874 45.5684 25.9109C45.4936 25.9465 45.4269 25.9971 45.3724 26.0596C45.3271 26.1127 45.2859 26.1692 45.2491 26.2285C45.2136 26.2895 45.1895 26.3565 45.1782 26.4262H45.1697V25.9042H44.6578V28.1968H45.2542V27.3521C45.2542 27.2963 45.2542 27.2338 45.2542 27.1645C45.2542 27.0952 45.2542 27.0277 45.2727 26.9584C45.2814 26.8902 45.2961 26.8229 45.3167 26.7573C45.3349 26.6969 45.3629 26.6399 45.3995 26.5884C45.4351 26.5385 45.4813 26.497 45.5346 26.4668C45.5966 26.4346 45.6658 26.4188 45.7357 26.4211C45.7815 26.4213 45.8272 26.4247 45.8725 26.4313C45.9178 26.4365 45.9619 26.4496 46.0026 26.4701V25.8704C45.9725 25.8642 45.942 25.8597 45.9114 25.8568H45.8201L45.805 25.8552ZM48.2615 26.7979C48.2615 27.0344 48.2615 27.2676 48.2615 27.5007C48.2615 27.7339 48.275 27.9653 48.2902 28.2019H47.7648C47.7648 28.1461 47.7513 28.0887 47.7462 28.0329C47.7411 27.9772 47.7462 27.918 47.7462 27.864H47.736C47.701 27.9263 47.6572 27.9832 47.606 28.0329C47.5552 28.0817 47.4984 28.1237 47.437 28.1579C47.3751 28.1918 47.3093 28.2179 47.241 28.2357C47.1721 28.2539 47.1011 28.263 47.0299 28.2627C46.9306 28.2628 46.832 28.2474 46.7376 28.2171C46.6449 28.1887 46.5579 28.144 46.4808 28.0853C46.4051 28.0278 46.3429 27.9546 46.2983 27.8707C46.2518 27.7816 46.2286 27.6823 46.2307 27.5818C46.2304 27.509 46.2389 27.4364 46.256 27.3656C46.2731 27.2936 46.3035 27.2254 46.3456 27.1645C46.4007 27.0835 46.4728 27.0155 46.5568 26.9652C46.6401 26.9157 46.73 26.8782 46.8237 26.8537C46.9216 26.8276 47.0217 26.8112 47.1228 26.8047C47.2258 26.8047 47.3272 26.7945 47.4286 26.7945H47.7208C47.7225 26.7157 47.7123 26.6371 47.6904 26.5614C47.6723 26.503 47.6397 26.4501 47.5958 26.4076C47.5477 26.3654 47.4895 26.3363 47.4269 26.3231C47.3516 26.305 47.2745 26.2965 47.1971 26.2978C47.0693 26.2966 46.9422 26.3183 46.822 26.362C46.7002 26.4055 46.5861 26.4683 46.4841 26.5478L46.4655 26.041C46.5943 25.9843 46.7285 25.9407 46.866 25.9109C47.0049 25.8817 47.1464 25.8669 47.2883 25.867C47.548 25.8493 47.8045 25.9322 48.0047 26.0984C48.0927 26.1932 48.16 26.3052 48.2025 26.4274C48.2449 26.5495 48.2616 26.6791 48.2514 26.808L48.2615 26.7979ZM47.7073 27.1459H47.361C47.2958 27.1465 47.2308 27.1527 47.1667 27.1645C47.1031 27.1768 47.042 27.1996 46.9859 27.2321C46.9324 27.2615 46.8867 27.3032 46.8524 27.3537C46.8159 27.4093 46.7976 27.4748 46.8001 27.5413C46.7987 27.5875 46.8104 27.6332 46.8338 27.6731C46.8571 27.7079 46.8877 27.7373 46.9234 27.7592C46.9609 27.7819 47.0021 27.7979 47.045 27.8065C47.0888 27.8165 47.1336 27.8216 47.1785 27.8217C47.2641 27.8239 47.3488 27.8047 47.4252 27.766C47.4926 27.7307 47.5506 27.6797 47.5941 27.6173C47.6392 27.5536 47.6719 27.4819 47.6904 27.4061C47.7123 27.3252 47.7231 27.2416 47.7225 27.1578L47.7073 27.1459ZM50.7619 26.1153C50.698 26.0346 50.6158 25.9703 50.522 25.9278C50.4096 25.8791 50.288 25.8555 50.1656 25.8585C50.0198 25.856 49.8754 25.8866 49.7432 25.9481C49.6129 26.0121 49.4999 26.1066 49.4137 26.2235H49.4019V25.9109H48.8376V28.2036H49.4357V27.0817C49.4362 26.9955 49.4446 26.9096 49.461 26.8249C49.4767 26.7392 49.5057 26.6566 49.5472 26.5799C49.5885 26.5059 49.6463 26.4423 49.7161 26.3941C49.7896 26.3438 49.8772 26.3184 49.9662 26.3215C50.04 26.3188 50.1133 26.3351 50.1791 26.3688C50.2389 26.4091 50.283 26.4687 50.3041 26.5377C50.3297 26.6066 50.3445 26.6789 50.348 26.7523C50.348 26.8232 50.348 26.8976 50.348 26.9736V28.1968H50.9427V26.7506C50.9443 26.6303 50.9295 26.5104 50.8988 26.3941C50.8737 26.2904 50.8271 26.1931 50.7619 26.1086V26.1153ZM52.7893 27.7575C52.7131 27.7769 52.6348 27.7871 52.5562 27.7879C52.4597 27.7905 52.3641 27.7697 52.2774 27.7271C52.2009 27.686 52.1344 27.6283 52.0831 27.5582C52.0313 27.4865 51.9935 27.4057 51.9716 27.32C51.9478 27.2284 51.9359 27.1341 51.9362 27.0395C51.9359 26.9477 51.9478 26.8562 51.9716 26.7675C51.9939 26.684 52.0317 26.6054 52.0831 26.536C52.1322 26.4658 52.197 26.4079 52.2724 26.3671C52.356 26.3246 52.4489 26.3037 52.5427 26.3063C52.6123 26.3068 52.6817 26.3125 52.7505 26.3231C52.8195 26.334 52.886 26.3575 52.9465 26.3924L53.0005 25.9194C52.9075 25.8903 52.8119 25.8705 52.715 25.8602C52.6179 25.8495 52.5204 25.8439 52.4227 25.8433C52.2609 25.8403 52.1003 25.8713 51.9513 25.9346C51.818 25.9898 51.699 26.0748 51.6033 26.1829C51.5064 26.2925 51.4328 26.4207 51.3871 26.5597C51.3367 26.7123 51.3116 26.8721 51.3127 27.0327C51.3113 27.1973 51.3365 27.361 51.3871 27.5176C51.4327 27.659 51.5069 27.7896 51.605 27.9011C51.7033 28.0101 51.8244 28.0961 51.9598 28.1529C52.1138 28.2148 52.2787 28.2453 52.4447 28.2424C52.541 28.2424 52.6424 28.2424 52.7454 28.2272C52.8451 28.2161 52.9435 28.1957 53.0394 28.1664L53.014 27.6714C52.9416 27.7039 52.8664 27.7299 52.7893 27.7491V27.7575ZM55.3946 26.705C55.4115 26.7898 55.4233 26.8756 55.43 26.9618C55.4368 27.0474 55.4402 27.1302 55.4402 27.2101V27.2287H53.8571C53.8623 27.3132 53.8842 27.3959 53.9213 27.472C53.9543 27.5418 54.0015 27.6039 54.0598 27.6545C54.1194 27.7042 54.1875 27.7426 54.2609 27.7677C54.3417 27.7938 54.4261 27.8069 54.511 27.8065C54.6455 27.8069 54.7791 27.7846 54.9063 27.7406C55.0333 27.6968 55.1556 27.6402 55.2712 27.5717V28.0583C55.1538 28.1277 55.0252 28.1763 54.8911 28.2019C54.7574 28.2274 54.6217 28.2404 54.4856 28.2407C54.3136 28.2431 54.1425 28.2174 53.9787 28.1647C53.838 28.1175 53.7097 28.0389 53.6037 27.9349C53.4992 27.8303 53.4201 27.7031 53.3722 27.5632C53.3173 27.4 53.2904 27.2286 53.2928 27.0564C53.2917 26.8969 53.3139 26.7381 53.3587 26.585C53.3974 26.4452 53.4641 26.3148 53.5547 26.2015C53.6457 26.0899 53.7614 26.0008 53.8926 25.9413C54.0399 25.8743 54.2005 25.8413 54.3623 25.845C54.4454 25.8453 54.5284 25.8515 54.6106 25.8636C54.6927 25.8762 54.7732 25.8977 54.8506 25.9278C54.927 25.9564 54.9988 25.9962 55.0634 26.0461C55.1304 26.0974 55.1876 26.1604 55.2324 26.2319C55.2765 26.3027 55.3127 26.378 55.3405 26.4566C55.3691 26.5382 55.3917 26.6218 55.4081 26.7067L55.3946 26.705ZM54.886 26.8199C54.8834 26.7477 54.8714 26.6761 54.8506 26.607C54.8317 26.5455 54.8013 26.4882 54.761 26.438C54.7219 26.3886 54.6715 26.3492 54.614 26.3231C54.5468 26.2944 54.4742 26.2806 54.4011 26.2826C54.327 26.2812 54.2534 26.295 54.1849 26.3231C54.1212 26.3485 54.0636 26.3871 54.0159 26.4363C53.9702 26.4852 53.9346 26.5426 53.9112 26.6053C53.8846 26.674 53.8686 26.7463 53.8639 26.8199H54.886ZM2.7396 27.6815C2.68134 27.6986 2.62209 27.7121 2.56219 27.7221C2.50137 27.7322 2.44056 27.7406 2.38142 27.7457C2.32229 27.7508 2.26485 27.7542 2.21247 27.7542C2.06072 27.7563 1.91012 27.7276 1.76983 27.6697C1.64172 27.618 1.52641 27.539 1.43193 27.4382C1.3387 27.3367 1.26739 27.2171 1.22243 27.0868C1.17344 26.945 1.14887 26.7959 1.14977 26.6458C1.14858 26.4959 1.17258 26.3469 1.22074 26.2049C1.26467 26.0737 1.33415 25.9526 1.42516 25.8484C1.51557 25.7454 1.62746 25.6635 1.75293 25.6085C1.89064 25.5476 2.03999 25.5177 2.19051 25.5206C2.25809 25.5206 2.31891 25.5206 2.37635 25.5206C2.43315 25.5254 2.48959 25.5339 2.5453 25.546C2.59862 25.5598 2.65109 25.5767 2.70243 25.5967C2.76039 25.6201 2.81682 25.6472 2.87138 25.6778L2.91531 25.1523C2.80506 25.1133 2.69213 25.0822 2.57741 25.0594C2.46007 25.0356 2.34063 25.0238 2.22091 25.0239C2.02647 25.023 1.8326 25.0445 1.64311 25.0881C1.4703 25.1275 1.30565 25.1967 1.15654 25.2926C1.01118 25.3878 0.886487 25.5113 0.789907 25.6558C0.682276 25.8206 0.607695 26.0048 0.570284 26.1981C0.553389 26.2758 0.539875 26.3552 0.529738 26.438C0.52107 26.52 0.516545 26.6023 0.516209 26.6847C0.515141 26.7978 0.523052 26.9108 0.539864 27.0226C0.554704 27.129 0.581917 27.2334 0.620957 27.3335C0.657963 27.4331 0.707954 27.5274 0.769634 27.6139C0.833718 27.7044 0.909884 27.7857 0.996021 27.8555C1.08177 27.9263 1.17463 27.988 1.2731 28.0397C1.36889 28.0887 1.469 28.1289 1.57215 28.1596C1.67602 28.1903 1.78226 28.2124 1.88977 28.2255C2.00197 28.238 2.11478 28.2442 2.22767 28.2441C2.34695 28.2441 2.46608 28.2357 2.58416 28.2188C2.70239 28.2034 2.8193 28.1791 2.93389 28.1461L2.90855 27.6258C2.85849 27.6489 2.80647 27.6676 2.75311 27.6815H2.7396ZM5.26539 26.1812C5.37208 26.2906 5.45442 26.4213 5.507 26.5647C5.56553 26.7231 5.59417 26.891 5.59147 27.0598C5.59408 27.2261 5.56423 27.3914 5.50362 27.5463C5.44895 27.6875 5.36487 27.8153 5.25696 27.9214C5.14808 28.0262 5.01864 28.1074 4.87682 28.1596C4.72113 28.2172 4.55623 28.2458 4.39024 28.2441C4.22463 28.2461 4.06013 28.2169 3.90536 28.1579C3.76425 28.1044 3.6355 28.0228 3.52691 27.918C3.41993 27.8112 3.33596 27.6835 3.28023 27.543C3.22053 27.3889 3.19071 27.225 3.19237 27.0598C3.1905 26.8914 3.21972 26.7242 3.27854 26.5664C3.33116 26.4234 3.41285 26.2928 3.51845 26.1829C3.6254 26.0748 3.75372 25.9902 3.89521 25.9346C4.05294 25.8732 4.22102 25.8428 4.39024 25.845C4.55983 25.8433 4.72825 25.8731 4.88695 25.9329C5.02937 25.9877 5.15841 26.0724 5.26539 26.1812ZM4.94271 27.276C4.9596 27.1812 4.96806 27.0851 4.96804 26.9888C4.96809 26.901 4.95674 26.8135 4.93426 26.7286C4.91227 26.6507 4.87619 26.5774 4.82782 26.5124C4.78046 26.4496 4.71914 26.3987 4.64872 26.3637C4.56889 26.3246 4.48079 26.3055 4.39193 26.3079C4.30462 26.3065 4.21826 26.3262 4.1402 26.3654C4.07395 26.4038 4.01642 26.4556 3.97125 26.5174C3.92209 26.5831 3.88491 26.6568 3.86143 26.7354C3.8376 26.8177 3.82564 26.9031 3.82593 26.9888C3.82593 27.0108 3.82593 27.0327 3.82593 27.0547C3.82593 27.0767 3.82593 27.0986 3.82593 27.1206C3.82593 27.1797 3.84453 27.2389 3.85466 27.2895C3.86425 27.3434 3.87954 27.3961 3.90028 27.4467C3.922 27.4952 3.9492 27.5411 3.98138 27.5835C4.01821 27.6303 4.06349 27.6699 4.11485 27.7001C4.15494 27.7278 4.19953 27.7484 4.24664 27.7609C4.29379 27.7713 4.34195 27.7764 4.39024 27.7761C4.49062 27.7808 4.59024 27.7568 4.67745 27.7068C4.74784 27.6615 4.80588 27.5994 4.8464 27.5261C4.89066 27.447 4.92042 27.3606 4.93426 27.271L4.94271 27.276ZM7.46851 27.0142C7.46821 27.1015 7.45972 27.1886 7.44316 27.2743C7.42866 27.3604 7.40072 27.4436 7.36038 27.521C7.31942 27.5949 7.26152 27.658 7.19143 27.7052C7.11524 27.7548 7.0255 27.7796 6.93462 27.7761C6.86226 27.7779 6.79105 27.7579 6.7302 27.7187C6.67038 27.6772 6.62492 27.6182 6.6001 27.5497C6.57976 27.4956 6.56836 27.4385 6.56632 27.3808C6.56632 27.325 6.56632 27.271 6.56632 27.2118C6.56632 27.1949 6.56632 27.1763 6.56632 27.1594C6.56542 27.142 6.56542 27.1245 6.56632 27.1071V25.8839H5.96992V27.3318C5.96912 27.451 5.98447 27.5698 6.01554 27.6849C6.04355 27.7882 6.09115 27.8851 6.15576 27.9704C6.22066 28.0524 6.30403 28.1178 6.39906 28.1613C6.50917 28.2097 6.62854 28.2333 6.74878 28.2306C6.89448 28.2324 7.03857 28.2 7.16946 28.136C7.30187 28.0738 7.41766 27.9812 7.50736 27.8657H7.51751V28.1765H8.0818V25.8839H7.48709L7.46851 27.0142ZM10.6008 26.0968C10.5367 26.0156 10.4538 25.9512 10.3592 25.9092C10.2468 25.8606 10.1252 25.8369 10.0028 25.84C9.85704 25.8379 9.71271 25.8685 9.58038 25.9295C9.45067 25.9945 9.33789 26.0888 9.25094 26.2049H9.24079V25.8923H8.67143V28.185H9.26783V27.0631C9.26806 26.9768 9.2771 26.8908 9.29485 26.8063C9.31047 26.7207 9.33956 26.638 9.38101 26.5614C9.42279 26.4876 9.48051 26.4241 9.54996 26.3755C9.62363 26.3257 9.71112 26.3003 9.80003 26.3029C9.87386 26.3002 9.94713 26.3165 10.0129 26.3502C10.0736 26.3899 10.1185 26.4497 10.1396 26.5191C10.1644 26.5882 10.1792 26.6604 10.1835 26.7337C10.1835 26.8047 10.1835 26.879 10.1835 26.955V28.1782H10.7799V26.732C10.7806 26.6118 10.7659 26.492 10.736 26.3755C10.7109 26.2718 10.6643 26.1745 10.5992 26.09L10.6008 26.0968ZM12.6266 27.7389C12.5497 27.7582 12.4709 27.7684 12.3917 27.7694C12.2958 27.7718 12.2007 27.7509 12.1146 27.7085C12.0377 27.6679 11.9713 27.6101 11.9203 27.5396C11.8685 27.4679 11.8307 27.3871 11.8088 27.3014C11.785 27.2098 11.7731 27.1155 11.7734 27.0209C11.7731 26.9291 11.785 26.8376 11.8088 26.7489C11.831 26.6654 11.8689 26.5869 11.9203 26.5174C11.9687 26.4472 12.033 26.3893 12.1079 26.3485C12.1921 26.3061 12.2856 26.2852 12.3799 26.2877C12.4489 26.2882 12.5178 26.2938 12.586 26.3046C12.6556 26.3151 12.7227 26.3386 12.7837 26.3738L12.8377 25.9008C12.7448 25.8717 12.6491 25.8519 12.5522 25.8416C12.4551 25.831 12.3576 25.8254 12.2599 25.8247C12.0981 25.8217 11.9375 25.8528 11.7886 25.916C11.6549 25.9716 11.5354 26.0565 11.4388 26.1643C11.3425 26.2744 11.269 26.4024 11.2226 26.5411C11.1728 26.6938 11.1483 26.8536 11.1499 27.0142C11.148 27.1786 11.1725 27.3423 11.2226 27.499C11.2695 27.6402 11.3442 27.7706 11.4422 27.8826C11.5399 27.9923 11.6612 28.0784 11.797 28.1343C11.951 28.1962 12.1159 28.2267 12.2819 28.2238C12.3782 28.2238 12.4779 28.2238 12.5826 28.2086C12.6823 28.1975 12.7807 28.1771 12.8766 28.1478L12.8513 27.6528C12.7788 27.6853 12.7036 27.7113 12.6266 27.7305V27.7389ZM13.2838 28.1698H13.8802V25.8771H13.2838V28.1698ZM14.5188 28.1698H15.1169V24.833H14.5188V28.1698ZM13.5896 24.9411C13.5105 24.9416 13.4349 24.9733 13.3792 25.0293C13.3235 25.0854 13.2922 25.1612 13.2922 25.2402C13.292 25.2794 13.2995 25.3182 13.3144 25.3545C13.3292 25.3908 13.3511 25.4237 13.3787 25.4515C13.4063 25.4793 13.4392 25.5014 13.4754 25.5164C13.5116 25.5315 13.5504 25.5392 13.5896 25.5392C13.6689 25.5392 13.7449 25.5077 13.801 25.4516C13.8571 25.3955 13.8886 25.3195 13.8886 25.2402C13.8886 25.1609 13.8571 25.0848 13.801 25.0287C13.7449 24.9726 13.6689 24.9411 13.5896 24.9411ZM17.5717 25.8923C17.7302 25.8847 17.8885 25.9105 18.0364 25.9681C18.1842 26.0257 18.3183 26.1138 18.4298 26.2266C18.5414 26.3395 18.628 26.4745 18.6839 26.623C18.7398 26.7715 18.7638 26.9301 18.7544 27.0885C18.7618 27.245 18.7361 27.4013 18.6791 27.5472C18.6221 27.6932 18.5349 27.8254 18.4233 27.9354C18.3117 28.0454 18.1782 28.1307 18.0315 28.1856C17.8848 28.2405 17.7281 28.2639 17.5717 28.2542C17.4153 28.2639 17.2587 28.2405 17.1119 28.1856C16.9652 28.1307 16.8317 28.0454 16.7201 27.9354C16.6085 27.8254 16.5214 27.6932 16.4643 27.5472C16.4073 27.4013 16.3817 27.245 16.3891 27.0885C16.3794 26.93 16.4032 26.7713 16.459 26.6227C16.5148 26.4741 16.6014 26.3389 16.713 26.226C16.8246 26.1131 16.9588 26.0251 17.1067 25.9676C17.2547 25.9101 17.4132 25.8844 17.5717 25.8923ZM17.5717 27.7998C18.0228 27.7998 18.1411 27.396 18.1411 27.0192C18.1411 26.6729 17.9569 26.3434 17.5717 26.3434C17.1865 26.3434 17.0057 26.6813 17.0057 27.0192C17.0057 27.3909 17.124 27.7998 17.5717 27.7998ZM19.4471 25.6288V25.9447H19.0129V26.3738H19.4471V28.2019H20.035V26.3738H20.5419V25.9447H20.035V25.6642C20.035 25.4953 20.0958 25.3263 20.2935 25.3263C20.384 25.327 20.4722 25.3546 20.5469 25.4057L20.5959 24.9192C20.4545 24.8875 20.3101 24.8711 20.1651 24.8702C19.7005 24.8702 19.4471 25.1861 19.4471 25.6372" fill="#E8EFF8"/>
<path d="M1.67451 23.9724C1.64052 23.9574 1.6096 23.9362 1.58329 23.9099C1.55758 23.8831 1.53647 23.8523 1.52078 23.8187C1.50639 23.7827 1.49893 23.7443 1.49882 23.7055C1.4989 23.6672 1.50636 23.6294 1.52078 23.594C1.53601 23.5596 1.55717 23.5281 1.58329 23.5011C1.61019 23.4759 1.64099 23.4554 1.67451 23.4402C1.71033 23.4252 1.74887 23.4177 1.78771 23.4183C1.82656 23.4177 1.8651 23.4252 1.90092 23.4402C1.93444 23.4554 1.96524 23.4759 1.99214 23.5011C2.01774 23.5282 2.03833 23.5597 2.05296 23.594C2.06873 23.629 2.0768 23.6671 2.07661 23.7055C2.07678 23.7445 2.06871 23.783 2.05296 23.8187C2.03778 23.8522 2.01724 23.883 1.99214 23.9099C1.96583 23.9362 1.93491 23.9574 1.90092 23.9724C1.8651 23.9875 1.82656 23.9949 1.78771 23.9944C1.74887 23.9949 1.71033 23.9875 1.67451 23.9724ZM2.35031 23.9724C2.38613 23.9875 2.42467 23.9949 2.46351 23.9944C2.50236 23.9949 2.5409 23.9875 2.57672 23.9724C2.61071 23.9574 2.64163 23.9362 2.66794 23.9099C2.69364 23.8831 2.71476 23.8523 2.73045 23.8187C2.74484 23.7827 2.75229 23.7443 2.75241 23.7055C2.75233 23.6672 2.74487 23.6294 2.73045 23.594C2.71522 23.5596 2.69406 23.5281 2.66794 23.5011C2.64104 23.4759 2.61024 23.4554 2.57672 23.4402C2.5409 23.4252 2.50236 23.4177 2.46351 23.4183C2.42467 23.4177 2.38613 23.4252 2.35031 23.4402C2.31679 23.4554 2.28599 23.4759 2.25909 23.5011C2.23349 23.5282 2.2129 23.5597 2.19827 23.594C2.1825 23.629 2.17443 23.6671 2.17462 23.7055C2.17445 23.7445 2.18251 23.783 2.19827 23.8187C2.21344 23.8522 2.23399 23.883 2.25909 23.9099C2.2854 23.9362 2.31632 23.9574 2.35031 23.9724ZM15.6974 18.9276H16.2752V22.1714H11.8402C11.6631 22.1743 11.4862 22.1568 11.3131 22.119C11.1773 22.0924 11.0494 22.0346 10.9397 21.9501C10.8851 22.0217 10.8145 22.0796 10.7336 22.119C10.634 22.1643 10.5253 22.1857 10.416 22.1816H4.83051C4.74568 22.1812 4.66139 22.1681 4.58046 22.1427C4.49974 22.1179 4.42537 22.0758 4.36251 22.0194C4.29589 21.9592 4.24288 21.8854 4.20707 21.8031C4.16598 21.7 4.14643 21.5896 4.14963 21.4787V20.8029C4.07265 20.8025 3.99577 20.8087 3.91986 20.8215C3.85838 20.8333 3.80051 20.8593 3.75091 20.8975C3.7 20.9428 3.66258 21.0013 3.64278 21.0665C3.6164 21.1541 3.60442 21.2454 3.60731 21.3368V22.0126C3.60676 22.1621 3.57209 22.3094 3.50594 22.4434C3.43653 22.5875 3.3375 22.7153 3.21533 22.8185C3.07731 22.9345 2.91929 23.0244 2.74903 23.0837C2.54819 23.1537 2.33655 23.1874 2.12392 23.1834C1.92881 23.1869 1.73407 23.1653 1.54444 23.1192C1.39466 23.0835 1.25074 23.0266 1.11699 22.9503C1.00565 22.8875 0.905224 22.807 0.819634 22.7121C0.745112 22.6297 0.682036 22.5376 0.632101 22.4384C0.588663 22.3527 0.556291 22.2619 0.535788 22.168C0.518389 22.0909 0.50878 22.0122 0.50708 21.9332C0.507136 21.8464 0.515607 21.7598 0.532406 21.6747C0.548753 21.5893 0.571344 21.5051 0.59999 21.423C0.627927 21.3439 0.661809 21.2671 0.701356 21.1932C0.740183 21.125 0.783652 21.0595 0.831451 20.9972L1.29437 21.2473C1.26273 21.2909 1.23503 21.3373 1.21159 21.3858C1.18599 21.4402 1.16508 21.4968 1.14908 21.5548C1.13087 21.6098 1.11731 21.6664 1.10853 21.7237C1.09892 21.7795 1.09384 21.836 1.09333 21.8927C1.09328 21.9493 1.09836 22.0059 1.10853 22.0616C1.12063 22.1201 1.13992 22.1768 1.16597 22.2306C1.19627 22.2919 1.23494 22.3488 1.28086 22.3995C1.33538 22.4577 1.39936 22.5063 1.47009 22.5431C1.55696 22.5882 1.64962 22.6212 1.74548 22.6411C1.86977 22.6681 1.99676 22.6805 2.12392 22.6783C2.25145 22.6802 2.37851 22.6625 2.50068 22.6259C2.60196 22.5954 2.69737 22.548 2.78283 22.4857C2.85316 22.4325 2.91085 22.3644 2.95178 22.2863C2.99135 22.2156 3.01228 22.1359 3.0126 22.0548V21.2929C3.00274 21.1628 3.02002 21.0321 3.06336 20.9091C3.10669 20.7861 3.17514 20.6734 3.26434 20.5782C3.48347 20.4025 3.76153 20.3173 4.0415 20.34H4.73927V21.3182C4.73835 21.3848 4.74174 21.4514 4.74941 21.5176C4.7543 21.5579 4.76692 21.5969 4.78658 21.6325C4.80132 21.6571 4.82487 21.6752 4.85247 21.6832C4.886 21.6926 4.9207 21.6971 4.95553 21.6967H8.71636C8.69474 21.6506 8.67612 21.6032 8.66061 21.5548C8.64185 21.4998 8.62825 21.4433 8.62004 21.3858C8.60822 21.3013 8.59303 21.2169 8.57614 21.1341C8.55973 21.0551 8.53361 20.9785 8.4984 20.906C8.46588 20.8397 8.41848 20.7819 8.35987 20.737C8.29404 20.6916 8.21507 20.669 8.13516 20.6728C8.10306 20.6728 8.0659 20.6728 8.02028 20.6728L7.87668 20.6931C7.82599 20.7032 7.7753 20.7151 7.72293 20.7303C7.67309 20.7446 7.62403 20.7615 7.57594 20.781V20.313C7.68069 20.2809 7.78713 20.2538 7.89188 20.2302C8.00903 20.2052 8.12859 20.1933 8.24836 20.1947C8.36348 20.1941 8.47782 20.2135 8.58626 20.2521C8.68288 20.2876 8.77137 20.3422 8.84645 20.4126C8.91749 20.4831 8.97478 20.5662 9.0154 20.6576C9.06119 20.7562 9.09247 20.8609 9.10831 20.9685C9.12183 21.0614 9.13703 21.151 9.15055 21.2354C9.16232 21.3113 9.17869 21.3863 9.19955 21.4601C9.21238 21.5156 9.23406 21.5687 9.26375 21.6173C9.27224 21.6344 9.28519 21.6489 9.30125 21.6594C9.3173 21.6698 9.33587 21.6756 9.35499 21.6764H10.1997C10.2432 21.6777 10.2865 21.6719 10.3281 21.6595C10.3609 21.6509 10.3904 21.6327 10.4126 21.6071C10.4369 21.5784 10.4537 21.5442 10.4616 21.5074C10.4728 21.4553 10.4779 21.402 10.4768 21.3486V20.7691H11.0631V21.428C11.0656 21.4685 11.0656 21.5092 11.0631 21.5497C11.1446 21.5983 11.2346 21.631 11.3283 21.646C11.4176 21.6621 11.5079 21.6723 11.5986 21.6764C11.6341 21.5818 11.6814 21.4787 11.7372 21.3655C11.797 21.2491 11.8636 21.1363 11.9365 21.0276C12.0147 20.9123 12.1011 20.8027 12.195 20.6999C12.2901 20.5959 12.396 20.5025 12.511 20.4211C12.6251 20.3392 12.7503 20.2738 12.8827 20.2268C13.0202 20.1769 13.1655 20.1517 13.3118 20.1525C13.4685 20.1489 13.6242 20.1795 13.768 20.242C13.8914 20.2994 14.0001 20.3844 14.0856 20.4904C14.1711 20.6008 14.2337 20.7272 14.2697 20.8621C14.3113 21.0128 14.3318 21.1686 14.3306 21.325V21.6747H15.6822L15.6974 18.9276ZM13.7612 21.3706C13.7637 21.2519 13.7489 21.1336 13.7173 21.0192C13.6961 20.9362 13.6569 20.8589 13.6024 20.7928C13.5577 20.7382 13.4994 20.6962 13.4334 20.6711C13.3662 20.6472 13.2953 20.6352 13.2239 20.6357C13.1167 20.6372 13.0115 20.6657 12.9181 20.7184C12.8102 20.7793 12.7118 20.8556 12.6259 20.9448C12.529 21.0446 12.444 21.1551 12.3724 21.2743C12.2959 21.4004 12.2325 21.534 12.1832 21.673H13.7629L13.7612 21.3706ZM16.8699 22.168H17.4578V18.9293H16.8716L16.8699 22.168ZM20.2489 20.1879C20.2752 20.2142 20.3061 20.2354 20.3401 20.2505C20.3759 20.2655 20.4145 20.273 20.4533 20.2724C20.4922 20.273 20.5307 20.2655 20.5665 20.2505C20.6005 20.2354 20.6314 20.2142 20.6577 20.1879C20.6837 20.1617 20.7043 20.1307 20.7186 20.0967C20.7343 20.0611 20.7424 20.0225 20.7422 19.9835C20.7424 19.9451 20.7343 19.9071 20.7186 19.872C20.7043 19.838 20.6837 19.807 20.6577 19.7808C20.6314 19.7545 20.6005 19.7333 20.5665 19.7183C20.5307 19.7032 20.4922 19.6958 20.4533 19.6963C20.4145 19.6958 20.3759 19.7032 20.3401 19.7183C20.3061 19.7333 20.2752 19.7545 20.2489 19.7808C20.2224 19.8069 20.2012 19.8379 20.1864 19.872C20.172 19.9074 20.1645 19.9453 20.1644 19.9835C20.1645 20.0223 20.172 20.0607 20.1864 20.0967C20.2012 20.1308 20.2224 20.1618 20.2489 20.1879ZM21.8455 21.4821C21.8336 21.3976 21.8184 21.3132 21.7981 21.227C21.7779 21.1408 21.7576 21.058 21.734 20.9803C21.7103 20.9026 21.6883 20.8283 21.6647 20.7641L21.0936 20.933C21.1246 21.0026 21.1506 21.0743 21.1713 21.1476C21.195 21.2219 21.2136 21.2963 21.2288 21.3672C21.244 21.4382 21.2575 21.5058 21.266 21.5683C21.2734 21.6203 21.2773 21.6728 21.2778 21.7254C21.294 21.9706 21.2214 22.2135 21.0734 22.4096C20.9924 22.4946 20.8935 22.5603 20.7839 22.6021C20.6743 22.6439 20.5567 22.6607 20.4398 22.6512C20.3242 22.6538 20.2093 22.6331 20.1019 22.5904C20.0064 22.5518 19.9196 22.4944 19.8468 22.4215C19.7738 22.3488 19.7163 22.262 19.6778 22.1664C19.6373 22.066 19.6172 21.9586 19.6187 21.8504C19.6186 21.7939 19.6226 21.7374 19.6305 21.6815C19.6373 21.6246 19.6475 21.5682 19.6609 21.5125C19.6738 21.4584 19.6907 21.4053 19.7116 21.3537C19.7306 21.3061 19.7538 21.2603 19.7809 21.2169L19.3112 20.955C19.2677 21.0253 19.2282 21.0981 19.1929 21.1729C19.1572 21.2523 19.1256 21.3335 19.0983 21.4162C19.0714 21.498 19.05 21.5816 19.0341 21.6663C19.0197 21.7454 19.0123 21.8257 19.0122 21.9062C19.0113 22.0675 19.0393 22.2277 19.0949 22.3792C19.1505 22.5296 19.2388 22.6658 19.3534 22.7779C19.4804 22.8993 19.6311 22.993 19.7961 23.0533C19.9988 23.1251 20.2129 23.1594 20.428 23.1547C20.6333 23.1588 20.8375 23.1232 21.0294 23.05C21.1983 22.9842 21.351 22.8828 21.4772 22.7526C21.6014 22.6233 21.6964 22.4689 21.7559 22.2998C21.8215 22.1161 21.8541 21.9222 21.8522 21.7271C21.8523 21.6479 21.8461 21.5688 21.8336 21.4906L21.8455 21.4821ZM32.3085 19.6828C32.3342 19.7098 32.3653 19.7311 32.3998 19.7453C32.4349 19.7605 32.473 19.768 32.5113 19.7673C32.5502 19.768 32.5887 19.7605 32.6245 19.7453C32.6589 19.7311 32.69 19.7098 32.7157 19.6828C32.742 19.6565 32.7632 19.6255 32.7782 19.5916C32.7932 19.5557 32.8007 19.5172 32.8002 19.4784C32.8009 19.44 32.7934 19.402 32.7782 19.3668C32.7636 19.3321 32.7424 19.3006 32.7157 19.2739C32.6895 19.248 32.6585 19.2273 32.6245 19.2131C32.5888 19.1973 32.5503 19.1893 32.5113 19.1895C32.4729 19.1893 32.4348 19.1973 32.3998 19.2131C32.3657 19.2273 32.3347 19.248 32.3085 19.2739C32.2819 19.3006 32.2606 19.3321 32.246 19.3668C32.2308 19.402 32.2233 19.44 32.224 19.4784C32.2235 19.5172 32.231 19.5557 32.246 19.5916C32.2611 19.6255 32.2823 19.6565 32.3085 19.6828ZM36.3397 22.1714H31.6615C31.4843 22.1742 31.3074 22.1567 31.1343 22.119C30.9985 22.0924 30.8706 22.0346 30.761 21.9501C30.7066 22.0213 30.6367 22.0791 30.5565 22.119C30.4563 22.1642 30.347 22.1856 30.2372 22.1816H26.125C25.9209 22.1566 25.7311 22.0638 25.586 21.918C25.5033 22.0071 25.4033 22.0784 25.292 22.1275C25.1652 22.1825 25.0281 22.2095 24.8899 22.2069C24.7941 22.2075 24.6985 22.1984 24.6044 22.1799C24.5269 22.1633 24.4511 22.1396 24.378 22.1089C24.3186 22.0812 24.262 22.0478 24.2091 22.0092C24.1584 21.9721 24.1145 21.9349 24.0739 21.8994C24.0081 21.9915 23.9203 22.0655 23.8185 22.1148C23.7166 22.1641 23.604 22.1871 23.491 22.1816H23.0703C22.9598 22.1841 22.8497 22.1657 22.746 22.1275C22.6615 22.0954 22.5861 22.0432 22.5263 21.9754C22.4664 21.9072 22.4225 21.8264 22.3979 21.7389C22.37 21.6394 22.3563 21.5364 22.3574 21.4331V18.9445H22.9436V21.3098C22.9422 21.3722 22.9478 21.4345 22.9605 21.4956C22.9692 21.537 22.9865 21.5762 23.0112 21.6105C23.0318 21.6389 23.0608 21.6601 23.094 21.6713C23.1324 21.6827 23.1722 21.6884 23.2123 21.6882H23.4218C23.4911 21.6889 23.5589 21.6683 23.6161 21.6291C23.6758 21.5835 23.7186 21.5193 23.7377 21.4466C23.795 21.2382 23.8797 21.0382 23.9894 20.8519C24.0676 20.7205 24.1669 20.6029 24.2834 20.5039C24.3695 20.4281 24.4701 20.3706 24.5791 20.3349C24.6647 20.3095 24.7533 20.2959 24.8426 20.2944C24.9457 20.2928 25.0483 20.3077 25.1467 20.3383C25.2345 20.3649 25.3177 20.4048 25.3934 20.4566C25.4643 20.5034 25.5281 20.5604 25.5827 20.6255C25.6349 20.6907 25.6797 20.7615 25.7161 20.8367C25.7503 20.9103 25.7764 20.9873 25.7938 21.0665C25.8109 21.1419 25.8199 21.2189 25.8209 21.2963C25.8208 21.3398 25.8174 21.3833 25.8107 21.4263C25.8051 21.4698 25.7961 21.5127 25.7837 21.5548L25.8378 21.5801C25.9985 21.6466 26.1707 21.6811 26.3446 21.6815H30.0378C30.0807 21.6826 30.1235 21.6769 30.1646 21.6646C30.1979 21.6563 30.228 21.638 30.2507 21.6122C30.2744 21.5833 30.2907 21.5491 30.298 21.5125C30.3107 21.4606 30.3164 21.4072 30.3149 21.3537V20.7742H30.9012V21.4331C30.9012 21.4737 30.9012 21.5142 30.9012 21.5548C30.9825 21.6039 31.0725 21.6366 31.1664 21.6511C31.2552 21.6673 31.3449 21.6775 31.4351 21.6815C31.4722 21.5869 31.5179 21.4838 31.5736 21.3706C31.6334 21.2542 31.7 21.1414 31.773 21.0327C31.8511 20.9174 31.9375 20.8078 32.0315 20.7049C32.1265 20.601 32.2324 20.5076 32.3474 20.4262C32.4621 20.3443 32.5879 20.2789 32.7208 20.2319C32.8577 20.1819 33.0025 20.1568 33.1482 20.1575C33.305 20.1536 33.4607 20.1842 33.6044 20.2471C33.7282 20.304 33.8369 20.3891 33.922 20.4954C34.0074 20.6062 34.0705 20.7324 34.1079 20.8671C34.148 21.0181 34.1679 21.1738 34.167 21.33V21.6798H35.7602V18.9276H36.3465L36.3397 22.1714ZM25.2295 21.4787C25.2534 21.4156 25.2648 21.3485 25.2633 21.2811C25.2623 21.2235 25.2521 21.1664 25.2329 21.1121C25.2134 21.0512 25.1837 20.9941 25.1451 20.9432C25.1055 20.8904 25.0562 20.8456 24.9998 20.8114C24.9396 20.7754 24.8705 20.7572 24.8004 20.759C24.7286 20.7592 24.6588 20.7823 24.601 20.8249C24.5348 20.8703 24.4775 20.9276 24.4321 20.9938C24.382 21.0712 24.3406 21.154 24.3088 21.2405C24.2727 21.3336 24.245 21.4297 24.226 21.5277C24.253 21.5519 24.2831 21.5724 24.3155 21.5885C24.3605 21.6105 24.4067 21.6297 24.4541 21.646C24.5062 21.663 24.5592 21.6771 24.6129 21.6882C24.6645 21.6995 24.7172 21.7052 24.77 21.7051C24.8372 21.7056 24.9041 21.6976 24.9693 21.6815C25.0258 21.6678 25.0787 21.6425 25.1248 21.6071C25.1678 21.5719 25.2014 21.5267 25.2228 21.4753L25.2295 21.4787ZM33.5622 21.3672C33.5651 21.2487 33.5509 21.1303 33.5199 21.0158C33.4973 20.9333 33.4582 20.8563 33.405 20.7894C33.3601 20.735 33.3019 20.6931 33.2361 20.6678C33.1688 20.6438 33.0979 20.6318 33.0266 20.6323C32.9198 20.6339 32.8153 20.6624 32.7225 20.7151C32.6137 20.7755 32.5147 20.8518 32.4285 20.9415C32.3327 21.042 32.2477 21.1525 32.1751 21.2709C32.0992 21.3974 32.0358 21.5309 31.9858 21.6696H33.5655L33.5622 21.3672ZM36.9141 22.1647H37.5004V18.9259H36.9141V22.1647ZM51.4438 22.9232C51.4588 22.8874 51.4663 22.8489 51.4658 22.81C51.4663 22.7712 51.4588 22.7327 51.4438 22.6969C51.4288 22.6629 51.4076 22.6319 51.3813 22.6056C51.3555 22.5791 51.3244 22.5584 51.2901 22.5448C51.2544 22.529 51.2159 22.521 51.1769 22.5211C51.1385 22.521 51.1004 22.529 51.0654 22.5448C51.031 22.5584 50.9999 22.5791 50.9741 22.6056C50.9478 22.6319 50.9267 22.6629 50.9116 22.6969C50.8966 22.7327 50.8891 22.7712 50.8896 22.81C50.8891 22.8489 50.8966 22.8874 50.9116 22.9232C50.9267 22.9572 50.9478 22.9882 50.9741 23.0145C51.0003 23.0404 51.0313 23.0611 51.0654 23.0753C51.1004 23.0911 51.1385 23.0991 51.1769 23.099C51.2159 23.0991 51.2544 23.0911 51.2901 23.0753C51.3241 23.0611 51.3551 23.0404 51.3813 23.0145C51.4076 22.9882 51.4288 22.9572 51.4438 22.9232ZM53.7246 21.8808C53.6597 21.9733 53.5723 22.0478 53.4706 22.0971C53.3689 22.1465 53.2563 22.1692 53.1435 22.163H46.5916C46.4613 22.1657 46.3314 22.1486 46.2064 22.1123C46.1072 22.0809 46.0128 22.036 45.9259 21.9788C45.8947 22.013 45.8589 22.0425 45.8195 22.0667C45.7919 22.0839 45.7631 22.0991 45.7333 22.1123C45.6422 22.147 45.5452 22.1636 45.4478 22.1613H44.9967C44.8665 22.164 44.7366 22.147 44.6115 22.1106C44.5123 22.0792 44.418 22.0343 44.331 21.9771C44.2756 22.0351 44.2089 22.0811 44.135 22.1123C44.0433 22.1468 43.9458 22.1635 43.8478 22.1613H43.7482C43.6116 22.1634 43.4756 22.1423 43.346 22.0988C43.2337 22.0591 43.1282 22.0021 43.0335 21.9298C42.9804 22.0016 42.9109 22.0595 42.8307 22.0988C42.7312 22.1442 42.6224 22.1656 42.5131 22.1613H42.4151C42.3168 22.1623 42.2186 22.1515 42.1228 22.1292C42.0365 22.1086 41.9526 22.0785 41.8728 22.0396C41.8444 22.1967 41.7902 22.348 41.7123 22.4874C41.6368 22.6206 41.5377 22.7391 41.42 22.8371C41.2966 22.9362 41.1564 23.0123 41.0061 23.0618C40.836 23.1173 40.6579 23.1441 40.479 23.1412C40.2639 23.1459 40.0498 23.1116 39.8471 23.0398C39.6821 22.9795 39.5314 22.8858 39.4044 22.7644C39.2898 22.6523 39.2015 22.5161 39.146 22.3657C39.0911 22.214 39.063 22.054 39.0631 21.8927C39.0641 21.8162 39.0709 21.74 39.0834 21.6646C39.0993 21.5799 39.1207 21.4964 39.1476 21.4145C39.1769 21.3267 39.212 21.241 39.2524 21.1577C39.2863 21.0822 39.3258 21.0094 39.3706 20.9398L39.8386 21.2016C39.8115 21.2451 39.7884 21.2909 39.7694 21.3385C39.7485 21.3901 39.7315 21.4432 39.7187 21.4973C39.7052 21.553 39.6951 21.6094 39.6883 21.6663C39.6803 21.7222 39.6763 21.7787 39.6764 21.8352C39.6758 21.9433 39.6959 22.0506 39.7356 22.1511C39.774 22.2468 39.8315 22.3335 39.9045 22.4063C39.9773 22.4792 40.0641 22.5366 40.1597 22.5752C40.2671 22.6178 40.382 22.6384 40.4976 22.636C40.6145 22.6455 40.732 22.6287 40.8417 22.5869C40.9513 22.5451 41.0502 22.4794 41.1311 22.3944C41.2794 22.1978 41.352 21.9543 41.3356 21.7085C41.335 21.6565 41.3311 21.6046 41.3237 21.5531C41.3237 21.4905 41.3034 21.423 41.2882 21.352C41.273 21.2811 41.2527 21.2067 41.2308 21.1324C41.2087 21.0593 41.1822 20.9877 41.1514 20.9178L41.7225 20.7489L41.7782 20.9279C41.7968 20.9921 41.8154 21.058 41.8339 21.1273C41.8525 21.1966 41.8661 21.2675 41.8796 21.3385C41.8931 21.4095 41.9032 21.4787 41.9117 21.5463C42.0411 21.6161 42.1853 21.6543 42.3323 21.6578C42.3752 21.6591 42.418 21.6534 42.4591 21.6409C42.4924 21.6326 42.5225 21.6144 42.5452 21.5885C42.5695 21.5598 42.5863 21.5256 42.5942 21.4889C42.6054 21.4367 42.6105 21.3834 42.6094 21.33V20.5478H43.1957V21.4095C43.1957 21.428 43.1957 21.4466 43.1957 21.4652C43.1957 21.4838 43.1957 21.5024 43.1957 21.5193C43.2727 21.5625 43.3543 21.5971 43.439 21.6223C43.514 21.6453 43.5919 21.6572 43.6704 21.6578C43.7138 21.6591 43.7572 21.6534 43.7988 21.6409C43.8322 21.6326 43.8623 21.6144 43.885 21.5885C43.9086 21.5594 43.9253 21.5253 43.934 21.4889C43.9452 21.4367 43.9503 21.3834 43.9492 21.33V20.313H44.5355V21.4179C44.5355 21.4449 44.5355 21.472 44.5355 21.4973C44.5355 21.5226 44.5355 21.5497 44.5355 21.575C44.612 21.6066 44.6919 21.6293 44.7737 21.6426C44.8612 21.6583 44.95 21.6662 45.0389 21.6663H45.2957C45.3386 21.6674 45.3814 21.6617 45.4224 21.6494C45.4558 21.6411 45.4859 21.6228 45.5086 21.597C45.5322 21.5679 45.549 21.5338 45.5576 21.4973C45.5688 21.4451 45.5739 21.3918 45.5728 21.3385V18.9141H46.1557V21.4179C46.1557 21.4449 46.1557 21.472 46.1557 21.4973C46.1557 21.5226 46.1557 21.5497 46.1557 21.575C46.2322 21.6066 46.3122 21.6293 46.3939 21.6426C46.4814 21.6583 46.5702 21.6662 46.6592 21.6663H51.6601C51.6377 21.6205 51.6191 21.5731 51.6043 21.5243C51.5856 21.4694 51.572 21.4128 51.5638 21.3554C51.5503 21.2709 51.5368 21.1864 51.5199 21.1037C51.5035 21.0247 51.4773 20.9481 51.4421 20.8756C51.4096 20.8093 51.3622 20.7515 51.3036 20.7066C51.2377 20.6614 51.1588 20.6389 51.0789 20.6424C51.0468 20.6424 51.0079 20.6424 50.964 20.6424L50.8204 20.6627C50.7697 20.6728 50.719 20.6847 50.6667 20.6999C50.6167 20.7139 50.5676 20.7308 50.5197 20.7505V20.313C50.6244 20.2809 50.7292 20.2538 50.8356 20.2302C50.9522 20.2053 51.0712 20.1934 51.1904 20.1947C51.3089 20.1931 51.4267 20.2126 51.5384 20.2521C51.6345 20.2877 51.7225 20.3423 51.7969 20.4126C51.8679 20.4832 51.9252 20.5662 51.9659 20.6576C52.011 20.7565 52.0423 20.8611 52.0588 20.9685C52.0723 21.0614 52.0858 21.151 52.101 21.2354C52.1162 21.3199 52.1315 21.3959 52.1484 21.4601C52.1624 21.5155 52.1846 21.5684 52.2142 21.6173C52.2224 21.6343 52.2351 21.6488 52.2509 21.6592C52.2666 21.6696 52.2849 21.6755 52.3038 21.6764H52.6062C52.8462 21.6768 53.0858 21.657 53.3225 21.6173C53.3823 21.5717 53.4251 21.5075 53.4442 21.4348C53.5012 21.2267 53.5858 21.0273 53.6959 20.8418C53.7609 20.7088 53.8471 20.5873 53.951 20.4819C54.0371 20.4061 54.1377 20.3486 54.2467 20.313C54.3318 20.2877 54.4199 20.274 54.5086 20.2724C54.6122 20.2707 54.7154 20.2856 54.8144 20.3163C54.902 20.3433 54.9851 20.3832 55.0611 20.4346C55.132 20.4815 55.1957 20.5384 55.2503 20.6036C55.3016 20.669 55.3458 20.7398 55.382 20.8148C55.4172 20.888 55.4439 20.9651 55.4614 21.0445C55.4779 21.12 55.4865 21.197 55.4868 21.2743C55.4871 21.3897 55.4665 21.5042 55.426 21.6122C55.3862 21.7191 55.3259 21.8172 55.2486 21.9011C55.1668 21.987 55.0686 22.0553 54.9597 22.1021C54.8341 22.1549 54.6989 22.1808 54.5627 22.1782C54.4674 22.1787 54.3723 22.1696 54.2788 22.1511C54.2013 22.1346 54.1255 22.1108 54.0524 22.0802C53.993 22.0525 53.9364 22.0191 53.8835 21.9805C53.8359 21.9464 53.7902 21.9097 53.7466 21.8707L53.7246 21.8808ZM54.0017 21.2304C53.9657 21.3235 53.938 21.4196 53.9189 21.5176C53.9459 21.5418 53.9761 21.5622 54.0085 21.5784C54.0531 21.6011 54.0994 21.6203 54.147 21.6358C54.1991 21.6529 54.2522 21.667 54.3059 21.6781C54.3569 21.6893 54.409 21.6949 54.4613 21.695C54.529 21.6955 54.5965 21.6876 54.6623 21.6713C54.7184 21.658 54.7709 21.6327 54.8161 21.597C54.8601 21.5623 54.8944 21.517 54.9157 21.4652C54.9396 21.4021 54.951 21.335 54.9495 21.2675C54.9484 21.21 54.9381 21.1529 54.9191 21.0986C54.8996 21.0377 54.8699 20.9806 54.8313 20.9296C54.7917 20.8768 54.7424 20.8321 54.686 20.7979C54.6258 20.7619 54.5567 20.7437 54.4866 20.7455C54.4148 20.7457 54.345 20.7688 54.2872 20.8114C54.221 20.8568 54.1637 20.9141 54.1183 20.9803C54.0675 21.0573 54.0261 21.1402 53.995 21.227" fill="#E8EFF8"/>
<path d="M8.4015 6.66954V11.1771C8.40182 11.4446 8.34861 11.7095 8.24503 11.9561C8.14144 12.2027 7.98957 12.4262 7.79834 12.6132C7.60847 12.8019 7.38258 12.9504 7.13413 13.0499C6.88567 13.1495 6.61974 13.198 6.35214 13.1927C5.81851 13.1773 5.3121 12.9537 4.94114 12.5698C4.57018 12.1859 4.3641 11.6721 4.36697 11.1383V10.0418C4.36697 9.14562 4.01097 8.28616 3.37728 7.65247C2.74359 7.01879 1.88414 6.66278 0.987973 6.66278H0.492941V11.1096C0.488801 12.6711 1.10097 14.1713 2.19644 15.2842C3.29192 16.397 4.78223 17.0327 6.34368 17.0532H6.37748C7.14804 17.0569 7.9117 16.908 8.62444 16.6151C9.33719 16.3222 9.9849 15.8912 10.5303 15.3468C11.0821 14.8019 11.5199 14.1526 11.8181 13.4367C12.1163 12.7208 12.2689 11.9526 12.2671 11.1771V10.0418C12.2671 9.14562 11.9111 8.28616 11.2774 7.65247C10.6437 7.01879 9.78425 6.66278 8.88808 6.66278L8.4015 6.66954ZM4.87044 3.96634C4.89567 4.33682 5.05413 4.68565 5.31656 4.94839C5.57898 5.21112 5.92761 5.36999 6.29806 5.39566C6.51555 5.40954 6.7335 5.37693 6.9374 5.29999C7.14129 5.22305 7.32645 5.10356 7.48055 4.94946C7.63464 4.79536 7.75415 4.6102 7.83109 4.4063C7.90803 4.20241 7.94063 3.98447 7.92674 3.76698C7.90182 3.39656 7.74342 3.04773 7.4809 2.78521C7.21837 2.52268 6.86955 2.36427 6.49912 2.33935C6.46533 2.33935 6.43155 2.33935 6.39945 2.33935C6.19069 2.34054 5.98438 2.38436 5.79317 2.46814C5.60196 2.55192 5.42988 2.67388 5.2875 2.82655C5.14511 2.97922 5.03541 3.15937 4.96515 3.35595C4.89488 3.55252 4.86554 3.76139 4.8789 3.96972L4.87044 3.96634ZM45.0282 3.96972C45.0534 4.34047 45.2122 4.68952 45.4749 4.95229C45.7377 5.21506 46.0867 5.37376 46.4575 5.39904C46.6749 5.41295 46.8928 5.38034 47.0966 5.30339C47.3004 5.22644 47.4855 5.10691 47.6395 4.95278C47.7934 4.79865 47.9128 4.61346 47.9895 4.40957C48.0662 4.20567 48.0986 3.98776 48.0845 3.77036C48.0603 3.39969 47.9021 3.05047 47.6394 2.7878C47.3768 2.52514 47.0275 2.36695 46.6569 2.34273C46.6231 2.34273 46.5893 2.34273 46.5572 2.34273C46.3478 2.34301 46.1407 2.38615 45.9486 2.4695C45.7565 2.55286 45.5835 2.67466 45.4402 2.82739C45.297 2.98013 45.1866 3.16058 45.1157 3.35762C45.0448 3.55466 45.015 3.76411 45.0282 3.9731V3.96972ZM51.8453 6.66109H41.2792C40.3076 6.66109 39.3758 7.04695 38.6886 7.73381C38.0014 8.42068 37.6151 9.35233 37.6147 10.3239C37.6147 10.3239 37.6147 11.2684 37.6147 11.3376H35.8424C35.8225 10.4699 35.4638 9.6445 34.843 9.03793C34.2223 8.43137 33.3887 8.09187 32.5208 8.0921H31.9869V10.7548C31.971 10.9123 31.8973 11.0585 31.78 11.1649C31.6627 11.2713 31.5101 11.3304 31.3517 11.3309H29.9646C29.8807 9.95377 29.2747 8.66053 28.27 7.71492C27.2654 6.76931 25.9379 6.24256 24.5582 6.2421C23.1785 6.24256 21.851 6.76931 20.8464 7.71492C19.8417 8.66053 19.2357 9.95377 19.1518 11.3309H17.6921C17.4065 11.3309 17.3153 11.2616 17.2933 11.2396C17.2714 11.2177 17.2038 11.145 17.2038 10.7328V4.36338C17.2038 3.46721 16.8478 2.60774 16.2141 1.97406C15.5804 1.34037 14.721 0.984375 13.8248 0.984375H13.3298V11.7093C13.3298 12.723 13.5578 13.485 14.0056 13.9918C14.4533 14.4987 15.2136 14.7842 16.2171 14.7842H18.3645C18.5004 14.7853 18.6364 14.7791 18.7717 14.7656L18.9406 14.7521C19.2384 14.7281 19.5322 14.6685 19.8158 14.5747C19.8681 14.5561 19.9222 14.5375 19.9746 14.5156C20.46 15.2937 21.1362 15.9349 21.939 16.3784C22.7417 16.8219 23.6445 17.053 24.5616 17.0498C25.5635 17.0516 26.5461 16.7749 27.3999 16.2507L27.4692 16.2068L27.5452 16.1595C28.2201 15.737 28.7926 15.1697 29.2212 14.4987C29.2736 14.519 29.326 14.5392 29.38 14.5561C29.5967 14.6282 29.8195 14.6802 30.0457 14.7116C30.1403 14.7268 30.2349 14.7386 30.3312 14.747C30.5542 14.7639 30.7823 14.7741 31.007 14.7775H31.818C32.3519 14.7775 32.705 14.7589 33.0868 14.7234C33.403 14.6971 33.7099 14.6038 33.9873 14.4497C34.2653 14.6037 34.5728 14.697 34.8895 14.7234C35.2713 14.7589 35.7342 14.7775 36.2664 14.7775H51.8419C52.8135 14.7775 53.7453 14.3916 54.4325 13.7047C55.1197 13.0179 55.506 12.0862 55.5065 11.1146V10.2918C55.5002 9.32317 55.1107 8.39638 54.423 7.71411C53.7353 7.03184 52.8055 6.6496 51.8369 6.65096L51.8453 6.66109ZM26.9066 11.8191C26.8679 12.3847 26.6256 12.9171 26.2246 13.3178C25.8236 13.7184 25.291 13.9603 24.7255 13.9986C24.6748 13.9986 24.6241 13.9986 24.5734 13.9986C24.2537 13.9983 23.9374 13.9325 23.6441 13.8052C23.3508 13.6779 23.0868 13.4918 22.8683 13.2584C22.6497 13.025 22.4814 12.7493 22.3737 12.4483C22.2659 12.1472 22.2211 11.8273 22.2419 11.5083C22.2799 10.9427 22.5217 10.4102 22.9225 10.0094C23.3233 9.60862 23.8558 9.3668 24.4213 9.32882C24.7521 9.3088 25.0834 9.35927 25.3931 9.47688C25.7029 9.59449 25.9842 9.77656 26.2184 10.011C26.4525 10.2455 26.6342 10.527 26.7514 10.837C26.8686 11.147 26.9186 11.4783 26.8981 11.809L26.9066 11.8191ZM51.4331 11.733H41.7455C41.4801 11.733 41.2255 11.6277 41.0376 11.4401C40.8498 11.2526 40.7441 10.9982 40.7436 10.7328C40.7436 10.4671 40.8492 10.2122 41.0371 10.0244C41.2249 9.83647 41.4798 9.73092 41.7455 9.73092H51.4331C51.6988 9.73092 51.9536 9.83647 52.1415 10.0244C52.3294 10.2122 52.435 10.4671 52.435 10.7328C52.4318 10.9979 52.3237 11.251 52.1343 11.4366C51.945 11.6222 51.6898 11.7251 51.4246 11.7228L51.4331 11.733Z" fill="url(#paint0_linear_56085_9485)"/>
<defs>
<linearGradient id="paint0_linear_56085_9485" x1="0.499699" y1="9.03484" x2="55.5014" y2="9.03484" gradientUnits="userSpaceOnUse">
<stop offset="0.15" stop-color="#005EB8"/>
<stop offset="0.51" stop-color="#2093B3"/>
<stop offset="0.8" stop-color="#40C1AC"/>
</linearGradient>
</defs>
</svg>
