<svg width="102" height="51" viewBox="0 0 102 51" fill="none" xmlns="http://www.w3.org/2000/svg">
<path d="M43.2159 44.8378H44.3525V50.4868H43.2159V48.011H40.955V50.4868H39.8154V44.8378H40.9519V47.1201H43.2128L43.2159 44.8378ZM48.9663 47.7898C48.9971 47.9434 49.0186 48.097 49.0339 48.2567C49.0493 48.4164 49.0524 48.5639 49.0524 48.7083V48.742H46.174C46.1826 48.8955 46.2212 49.0458 46.2877 49.1844C46.3488 49.3114 46.4357 49.4244 46.5427 49.5161C46.6504 49.6072 46.7745 49.677 46.9082 49.722C47.055 49.77 47.2085 49.7938 47.3629 49.7926C47.6074 49.7928 47.8503 49.7523 48.0816 49.6728C48.3121 49.5919 48.5344 49.4891 48.7452 49.3656V50.2503C48.5312 50.3757 48.2975 50.464 48.054 50.5114C47.81 50.5579 47.5621 50.5816 47.3137 50.5821C47.001 50.5863 46.6898 50.5396 46.3922 50.4438C46.1371 50.3579 45.9049 50.2151 45.7133 50.0261C45.5234 49.8358 45.3794 49.6046 45.2924 49.3503C45.1912 49.0538 45.1424 48.7419 45.1481 48.4287C45.1451 48.1389 45.1844 47.8502 45.2648 47.5717C45.3374 47.3178 45.4596 47.0808 45.6242 46.8744C45.7891 46.6708 45.9996 46.5088 46.2386 46.4013C46.5063 46.2791 46.7983 46.2192 47.0925 46.2262C47.2436 46.227 47.3945 46.2383 47.5441 46.26C47.6932 46.2833 47.8395 46.3225 47.9803 46.3767C48.1187 46.4301 48.249 46.5024 48.3674 46.5918C48.4875 46.6868 48.5913 46.801 48.6745 46.9297C48.7547 47.0583 48.8206 47.1953 48.8711 47.3382C48.9222 47.4866 48.9622 47.6386 48.9909 47.7928L48.9663 47.7898ZM48.0417 47.9987C48.0379 47.8676 48.0172 47.7375 47.9803 47.6116C47.946 47.4998 47.8908 47.3956 47.8175 47.3044C47.7459 47.2136 47.653 47.1419 47.5471 47.0956C47.4249 47.0434 47.2929 47.0182 47.1601 47.0218C47.0254 47.0196 46.8916 47.0447 46.7669 47.0956C46.6509 47.1412 46.5461 47.2114 46.4597 47.3014C46.3755 47.3899 46.3097 47.4943 46.2662 47.6085C46.2189 47.7336 46.1909 47.8652 46.1833 47.9987H48.0417ZM53.3591 47.9372C53.3591 48.3673 53.3591 48.7912 53.3591 49.2151C53.3591 49.639 53.3836 50.0599 53.4143 50.4899H52.4559C52.4559 50.3885 52.4344 50.2841 52.4252 50.1827C52.416 50.0814 52.4098 49.9738 52.4098 49.8755C52.3451 49.9889 52.2644 50.0924 52.1702 50.1827C52.0781 50.2715 51.9749 50.3479 51.863 50.41C51.7494 50.4716 51.6288 50.519 51.5037 50.5513C51.3794 50.5845 51.2513 50.601 51.1228 50.6005C50.9414 50.6007 50.7611 50.5727 50.5883 50.5176C50.42 50.4651 50.2621 50.384 50.1213 50.278C49.9857 50.1723 49.8737 50.0394 49.7926 49.8878C49.7071 49.7261 49.6639 49.5454 49.6667 49.3625C49.6662 49.2301 49.6816 49.0981 49.7128 48.9694C49.7449 48.8383 49.8012 48.7143 49.8787 48.6038C49.978 48.4569 50.1079 48.3333 50.2596 48.2413C50.4114 48.1519 50.5747 48.0837 50.7449 48.0386C50.9229 47.9915 51.105 47.9617 51.2887 47.9495C51.4791 47.9495 51.6634 47.9311 51.8446 47.9311H52.3791C52.3822 47.7878 52.3635 47.6449 52.3238 47.5072C52.2908 47.4011 52.2316 47.3049 52.1518 47.2276C52.0634 47.1522 51.958 47.0994 51.8446 47.074C51.7068 47.0412 51.5654 47.0257 51.4238 47.028C51.1923 47.026 50.9624 47.0655 50.7449 47.1447C50.523 47.223 50.3155 47.3371 50.1306 47.4826L50.0937 46.5611C50.3286 46.4574 50.5737 46.3782 50.8248 46.3245C51.0763 46.2713 51.3326 46.2445 51.5897 46.2447C52.0628 46.2117 52.5304 46.3625 52.8952 46.6655C53.0546 46.8381 53.1765 47.0418 53.2532 47.2639C53.3298 47.4859 53.3596 47.7215 53.3406 47.9557L53.3591 47.9372ZM52.3546 48.57H51.6972C51.5797 48.5709 51.4625 48.5822 51.347 48.6038C51.2302 48.6256 51.118 48.6672 51.0152 48.7267C50.9185 48.781 50.8355 48.8566 50.7725 48.9479C50.708 49.0497 50.675 49.1683 50.6774 49.2888C50.6745 49.3733 50.6969 49.4568 50.7419 49.5284C50.7834 49.5924 50.8391 49.646 50.9047 49.6851C50.9724 49.7273 51.0474 49.7565 51.1258 49.7711C51.2044 49.7894 51.2848 49.7987 51.3655 49.7987C51.5211 49.8034 51.6754 49.7685 51.8139 49.6974C51.9364 49.633 52.0417 49.5403 52.1211 49.4271C52.2019 49.3105 52.2611 49.1805 52.2961 49.0431C52.3344 48.8956 52.3541 48.7439 52.3546 48.5915V48.57ZM54.4311 50.493H55.5186V44.4261H54.4311V50.493ZM58.4582 49.7281C58.374 49.7427 58.2888 49.7499 58.2033 49.7496C58.1191 49.752 58.0355 49.733 57.9606 49.6943C57.8973 49.6585 57.8436 49.6079 57.804 49.5469C57.7636 49.4826 57.7345 49.412 57.718 49.338C57.7019 49.2581 57.6936 49.1768 57.6934 49.0953V47.1201H58.6579V46.3245H57.6934V45.1449L56.6059 45.4921V49.2397C56.6022 49.4336 56.6313 49.6268 56.6919 49.811C56.7422 49.9698 56.8284 50.1149 56.9438 50.2349C57.0583 50.3549 57.1993 50.4464 57.3555 50.5022C57.5395 50.5642 57.7327 50.5943 57.9268 50.5913C58.0579 50.5913 58.1931 50.5851 58.3323 50.5728C58.4666 50.5587 58.5993 50.532 58.7286 50.493L58.6978 49.6359C58.6238 49.68 58.5428 49.7112 58.4582 49.7281ZM62.9001 46.6993C62.7838 46.5506 62.633 46.4325 62.4608 46.3552C62.2565 46.2668 62.0353 46.2238 61.8127 46.2293C61.5555 46.227 61.3011 46.2837 61.0693 46.3952C60.8385 46.5068 60.6421 46.6787 60.501 46.8928H60.4857V44.4354H59.4013V50.5022H60.4857V48.4625C60.4861 48.3056 60.5025 48.1491 60.5348 47.9956C60.5632 47.8398 60.6161 47.6895 60.6915 47.5502C60.763 47.4177 60.8626 47.3023 60.9833 47.2123C61.1172 47.1217 61.2762 47.0755 61.4379 47.0802C61.5721 47.0753 61.7054 47.1049 61.8249 47.1662C61.9354 47.2384 62.017 47.3471 62.0553 47.4734C62.1007 47.5999 62.1276 47.7324 62.1352 47.8666C62.1352 47.9925 62.1352 48.1277 62.1352 48.2659V50.4899H63.2196V47.8604C63.2208 47.6418 63.194 47.424 63.1397 47.2123C63.0928 47.0251 63.0082 46.8495 62.8909 46.6962L62.9001 46.6993ZM65.5203 50.4899H66.6569V44.8378H65.5203V50.4899ZM71.2738 46.6809C71.1565 46.534 71.006 46.4171 70.8346 46.3399C70.6302 46.2514 70.4091 46.2084 70.1865 46.2139C69.9215 46.2098 69.659 46.2655 69.4185 46.3767C69.1827 46.4949 68.9776 46.6663 68.8195 46.8774H68.8011V46.3092H67.7689V50.4776H68.8564V48.4379C68.8572 48.2812 68.8726 48.1249 68.9024 47.971C68.9333 47.8154 68.9871 47.6653 69.0622 47.5256C69.1381 47.3915 69.2431 47.2761 69.3693 47.1877C69.5031 47.0967 69.6623 47.0505 69.824 47.0556C69.9582 47.0508 70.0915 47.0804 70.211 47.1416C70.3215 47.2131 70.4022 47.3223 70.4383 47.4488C70.4858 47.5738 70.5138 47.7054 70.5213 47.8389C70.5213 47.9679 70.5213 48.1031 70.5213 48.2413V50.4653H71.6026V47.8359C71.6048 47.6174 71.579 47.3996 71.5258 47.1877C71.4802 46.9991 71.3954 46.8222 71.2769 46.6686L71.2738 46.6809ZM75.1782 48.3765C75.0893 48.284 74.9854 48.2072 74.871 48.1492C74.7591 48.0908 74.643 48.0405 74.5239 47.9987C74.4041 47.9587 74.2904 47.9219 74.1768 47.8911C74.0725 47.8623 73.9699 47.8274 73.8696 47.7867C73.7905 47.7562 73.7175 47.7114 73.6545 47.6546C73.6281 47.6287 73.6074 47.5975 73.5936 47.5632C73.5799 47.5288 73.5734 47.492 73.5746 47.455C73.5715 47.3761 73.5919 47.298 73.6331 47.2307C73.6722 47.1731 73.7236 47.1249 73.7836 47.0894C73.8474 47.053 73.917 47.0281 73.9894 47.0157C74.0632 47.0011 74.1383 46.9939 74.2136 46.9942C74.3783 46.9927 74.5428 47.0061 74.7051 47.0341C74.8689 47.0647 75.0294 47.111 75.1843 47.1723L75.255 46.3583C75.0625 46.3053 74.8664 46.2663 74.6682 46.2416C74.4706 46.2155 74.2716 46.2022 74.0723 46.2017C73.8652 46.2002 73.6588 46.225 73.4579 46.2754C73.2715 46.3204 73.0947 46.3985 72.9358 46.5058C72.7834 46.6083 72.6572 46.745 72.5672 46.9051C72.4684 47.0856 72.4195 47.2892 72.4258 47.4949C72.4226 47.6378 72.4445 47.7803 72.4904 47.9157C72.5289 48.0276 72.5871 48.1316 72.6623 48.2229C72.7336 48.3053 72.8176 48.3759 72.9112 48.4318C73.0094 48.4883 73.1121 48.5366 73.2183 48.5762C73.3187 48.6158 73.4213 48.6497 73.5255 48.6775C73.6269 48.7052 73.7283 48.7328 73.8327 48.7635C73.9178 48.7905 74.001 48.8233 74.0815 48.8618C74.1485 48.8931 74.2073 48.9394 74.2536 48.997C74.2828 49.0349 74.3028 49.0791 74.3119 49.126C74.3178 49.1729 74.3178 49.2204 74.3119 49.2673C74.3145 49.3499 74.292 49.4313 74.2474 49.5008C74.2018 49.5654 74.1432 49.6198 74.0754 49.6605C74.0045 49.7015 73.9279 49.7315 73.8481 49.7496C73.7684 49.7677 73.687 49.777 73.6054 49.7772C73.2303 49.7779 72.8613 49.6827 72.5333 49.5008L72.4688 50.3916C72.6711 50.4467 72.8762 50.4908 73.0832 50.5237C73.2866 50.5541 73.4919 50.5695 73.6976 50.5698C73.9117 50.5699 74.1251 50.5452 74.3335 50.496C74.5337 50.4538 74.7243 50.3747 74.8955 50.2626C75.0599 50.1557 75.1967 50.0115 75.2949 49.8418C75.4015 49.6494 75.4546 49.4319 75.4485 49.212C75.453 49.0444 75.4248 48.8774 75.3655 48.7205C75.3178 48.5951 75.2458 48.4802 75.1536 48.3826L75.1782 48.3765ZM79.0302 48.3427C79.0292 48.5013 79.0148 48.6596 78.9872 48.8158C78.9598 48.9724 78.908 49.1237 78.8336 49.2643C78.7608 49.3998 78.6552 49.5149 78.5265 49.5991C78.3891 49.6895 78.2269 49.7346 78.0626 49.7281C77.93 49.7317 77.7994 49.6953 77.6879 49.6237C77.5791 49.549 77.4972 49.4413 77.4544 49.3165C77.4159 49.2185 77.3951 49.1145 77.393 49.0093L77.3745 48.7021V48.6069C77.3714 48.5752 77.3714 48.5433 77.3745 48.5117V46.2877H76.2871V48.9202C76.2856 49.137 76.3135 49.3529 76.37 49.5622C76.4208 49.7507 76.5085 49.9271 76.6281 50.0814C76.7443 50.2309 76.895 50.35 77.0673 50.4285C77.2685 50.5168 77.4867 50.5598 77.7063 50.5544C77.9702 50.5577 78.2312 50.4988 78.4681 50.3824C78.7081 50.2682 78.9184 50.1 79.0825 49.8909V50.4561H80.1084V46.2877H79.0271L79.0302 48.3427ZM83.3707 46.1924C83.2214 46.192 83.074 46.2268 82.9406 46.2938C82.8045 46.3585 82.6833 46.4505 82.5843 46.5641C82.5019 46.6607 82.427 46.7634 82.3601 46.8713C82.2955 46.9822 82.2518 47.104 82.2311 47.2307H82.2157V46.2815H81.2849V50.45H82.3693V48.9141C82.3693 48.8127 82.3693 48.699 82.3693 48.5731C82.3693 48.4471 82.3692 48.3243 82.403 48.1983C82.4187 48.0743 82.4454 47.952 82.4829 47.8328C82.5161 47.7229 82.5669 47.6192 82.6334 47.5256C82.6983 47.4349 82.7822 47.3594 82.8792 47.3044C82.9919 47.2459 83.1178 47.2173 83.2447 47.2215C83.328 47.2217 83.4112 47.2279 83.4936 47.2399C83.5759 47.2494 83.656 47.2733 83.7301 47.3106V46.2201C83.6753 46.2089 83.6199 46.2007 83.5642 46.1955H83.3983L83.3707 46.1924ZM87.8371 47.9065C87.8371 48.3366 87.8371 48.7605 87.8371 49.1844C87.8371 49.6083 87.8617 50.0291 87.8893 50.4592H86.934C86.934 50.3578 86.9094 50.2534 86.9002 50.152C86.891 50.0506 86.9002 49.9431 86.9002 49.8448H86.8818C86.8181 49.9581 86.7385 50.0615 86.6452 50.152C86.553 50.2406 86.4498 50.317 86.3381 50.3793C86.2255 50.4408 86.1059 50.4883 85.9818 50.5206C85.8565 50.5537 85.7274 50.5703 85.5978 50.5698C85.4174 50.57 85.2381 50.542 85.0664 50.4868C84.8978 50.4352 84.7397 50.354 84.5994 50.2472C84.462 50.1427 84.3487 50.0096 84.2677 49.8571C84.1832 49.6951 84.141 49.5145 84.1448 49.3318C84.1442 49.1994 84.1597 49.0674 84.1909 48.9386C84.2218 48.8077 84.2771 48.6837 84.3537 48.5731C84.4539 48.4259 84.5849 48.3022 84.7377 48.2106C84.8892 48.1207 85.0526 48.0525 85.223 48.0079C85.4009 47.9606 85.583 47.9307 85.7667 47.9188C85.9541 47.9188 86.1384 47.9004 86.3227 47.9004H86.8541C86.8572 47.7571 86.8386 47.6142 86.7988 47.4765C86.7658 47.3703 86.7066 47.2742 86.6268 47.1969C86.5393 47.1201 86.4335 47.0672 86.3196 47.0433C86.1829 47.0104 86.0425 46.9949 85.9019 46.9972C85.6694 46.995 85.4384 47.0346 85.2199 47.114C84.9985 47.1931 84.791 47.3072 84.6056 47.4519L84.5718 46.5303C84.8058 46.4272 85.0498 46.3479 85.2998 46.2938C85.5523 46.2406 85.8097 46.2139 86.0678 46.2139C86.5398 46.1818 87.0062 46.3325 87.3702 46.6348C87.5302 46.8071 87.6526 47.0107 87.7298 47.2328C87.807 47.4549 87.8373 47.6906 87.8187 47.9249L87.8371 47.9065ZM86.8296 48.5393H86.1998C86.0813 48.5403 85.9632 48.5516 85.8466 48.5731C85.731 48.5954 85.6198 48.6369 85.5179 48.696C85.4206 48.7494 85.3374 48.8252 85.2752 48.9171C85.2088 49.0181 85.1754 49.1373 85.18 49.2581C85.1776 49.3422 85.1989 49.4252 85.2414 49.4977C85.2837 49.5611 85.3393 49.6145 85.4042 49.6544C85.4724 49.6956 85.5472 49.7247 85.6254 49.7404C85.705 49.7585 85.7864 49.7678 85.8681 49.768C86.0236 49.7719 86.1777 49.7371 86.3165 49.6667C86.4392 49.6026 86.5446 49.5098 86.6237 49.3963C86.7057 49.2805 86.7652 49.1502 86.7988 49.0124C86.8386 48.8652 86.8582 48.7133 86.8572 48.5608L86.8296 48.5393ZM92.3834 46.6655C92.2672 46.5188 92.1177 46.4019 91.9472 46.3245C91.7428 46.236 91.5217 46.1931 91.2991 46.1986C91.0341 46.194 90.7715 46.2497 90.5311 46.3614C90.2942 46.4779 90.0887 46.6496 89.9321 46.8621H89.9106V46.2938H88.8846V50.4623H89.972V48.4226C89.9729 48.2658 89.9883 48.1095 90.0181 47.9557C90.0465 47.7999 90.0994 47.6495 90.1748 47.5102C90.2499 47.3756 90.355 47.26 90.4819 47.1723C90.6155 47.081 90.7748 47.0347 90.9366 47.0403C91.0708 47.0354 91.2041 47.065 91.3236 47.1263C91.4324 47.1995 91.5127 47.308 91.5509 47.4334C91.5974 47.5586 91.6244 47.6902 91.6308 47.8236C91.6308 47.9526 91.6308 48.0877 91.6308 48.226V50.45H92.7121V47.8205C92.7149 47.6018 92.688 47.3838 92.6322 47.1723C92.5866 46.9838 92.5018 46.8069 92.3834 46.6532V46.6655ZM96.0696 49.6513C95.9309 49.6864 95.7887 49.705 95.6457 49.7066C95.4703 49.7113 95.2964 49.6733 95.1389 49.596C94.9996 49.5213 94.8789 49.4163 94.7856 49.2888C94.6913 49.1585 94.6226 49.0115 94.5828 48.8557C94.5395 48.6892 94.5178 48.5178 94.5183 48.3458C94.5178 48.1788 94.5395 48.0125 94.5828 47.8512C94.6233 47.6994 94.692 47.5566 94.7856 47.4304C94.8748 47.3026 94.9926 47.1974 95.1296 47.1232C95.2817 47.0461 95.4506 47.0081 95.6211 47.0126C95.7476 47.0137 95.8739 47.0239 95.9989 47.0433C96.1244 47.063 96.2453 47.1057 96.3553 47.1693L96.4535 46.3092C96.2845 46.2563 96.1106 46.2203 95.9344 46.2017C95.7579 46.1822 95.5806 46.172 95.403 46.1709C95.1088 46.1653 94.8168 46.2219 94.546 46.3368C94.3034 46.4373 94.0871 46.5917 93.9132 46.7884C93.737 46.9877 93.6032 47.2207 93.52 47.4734C93.4285 47.7508 93.3828 48.0413 93.3848 48.3335C93.3823 48.6327 93.428 48.9304 93.52 49.2151C93.603 49.4722 93.7379 49.7095 93.9163 49.9124C94.095 50.1106 94.3152 50.2669 94.5613 50.3701C94.8414 50.4828 95.1412 50.5381 95.443 50.5329C95.6181 50.5329 95.8024 50.5329 95.9898 50.5053C96.171 50.485 96.3499 50.448 96.5243 50.3947L96.4781 49.4946C96.3464 49.5538 96.2097 49.601 96.0696 49.6359V49.6513ZM100.806 47.7376C100.837 47.8918 100.859 48.0477 100.871 48.2045C100.883 48.3601 100.889 48.5106 100.889 48.656V48.6898H98.011C98.0205 48.8435 98.0602 48.9938 98.1277 49.1322C98.1878 49.259 98.2735 49.372 98.3796 49.4639C98.4878 49.5543 98.6118 49.6241 98.7452 49.6697C98.892 49.7173 99.0455 49.7411 99.1998 49.7404C99.4444 49.7411 99.6874 49.7006 99.9186 49.6206C100.15 49.5409 100.372 49.438 100.582 49.3134V50.1981C100.369 50.3243 100.135 50.4127 99.891 50.4592C99.6479 50.5055 99.4011 50.5292 99.1537 50.5298C98.841 50.5341 98.5298 50.4874 98.2321 50.3916C97.9761 50.3057 97.743 50.1629 97.5502 49.9738C97.3603 49.7835 97.2164 49.5524 97.1294 49.298C97.0294 49.0013 96.9806 48.6896 96.985 48.3765C96.983 48.0865 97.0234 47.7978 97.1048 47.5195C97.1751 47.2653 97.2963 47.0281 97.4611 46.8222C97.6267 46.6192 97.8369 46.4573 98.0755 46.3491C98.3433 46.2272 98.6352 46.1673 98.9294 46.174C99.0806 46.1746 99.2315 46.1859 99.381 46.2078C99.5302 46.2307 99.6765 46.2698 99.8172 46.3245C99.9563 46.3765 100.087 46.449 100.204 46.5395C100.326 46.6329 100.43 46.7474 100.511 46.8774C100.592 47.0061 100.658 47.1431 100.708 47.286C100.76 47.4343 100.801 47.5863 100.831 47.7406L100.806 47.7376ZM99.8817 47.9464C99.8769 47.8152 99.8552 47.6851 99.8172 47.5594C99.783 47.4476 99.7277 47.3433 99.6544 47.2522C99.5833 47.1623 99.4916 47.0906 99.3871 47.0433C99.2649 46.9911 99.1329 46.966 99.0001 46.9696C98.8654 46.9671 98.7315 46.9921 98.6069 47.0433C98.4911 47.0894 98.3863 47.1595 98.2997 47.2491C98.2166 47.338 98.1519 47.4424 98.1093 47.5563C98.0609 47.6812 98.0319 47.8128 98.0233 47.9464H99.8817ZM5.07004 49.5131C4.96411 49.5441 4.85639 49.5687 4.74749 49.5868C4.6369 49.6052 4.52633 49.6206 4.41882 49.6298C4.3113 49.639 4.20686 49.6452 4.11164 49.6452C3.83572 49.6491 3.56189 49.5968 3.30682 49.4916C3.0739 49.3976 2.86425 49.254 2.69246 49.0707C2.52296 48.8862 2.3933 48.6687 2.31155 48.4318C2.22249 48.1739 2.17781 47.9028 2.17945 47.63C2.17729 47.3575 2.22092 47.0864 2.30848 46.8283C2.38837 46.5898 2.51468 46.3695 2.68016 46.1801C2.84454 45.993 3.04798 45.8441 3.27611 45.7439C3.52649 45.6333 3.79802 45.5788 4.0717 45.5842C4.19457 45.5842 4.30515 45.5842 4.40959 45.5842C4.51287 45.5929 4.61548 45.6083 4.71677 45.6303C4.81371 45.6554 4.90912 45.6862 5.00247 45.7224C5.10785 45.7651 5.21044 45.8144 5.30965 45.8699L5.38952 44.9146C5.18906 44.8436 4.98374 44.7871 4.77516 44.7456C4.56182 44.7024 4.34464 44.6808 4.12697 44.6811C3.77346 44.6794 3.42095 44.7186 3.07643 44.7978C2.76222 44.8695 2.46287 44.9953 2.19175 45.1695C1.92747 45.3427 1.70075 45.5673 1.52515 45.83C1.32946 46.1297 1.19386 46.4646 1.12584 46.816C1.09512 46.9573 1.07055 47.1017 1.05212 47.2522C1.03636 47.4012 1.02813 47.5509 1.02752 47.7007C1.02558 47.9063 1.03996 48.1117 1.07053 48.3151C1.09751 48.5086 1.14699 48.6983 1.21797 48.8803C1.28525 49.0614 1.37615 49.2329 1.48829 49.3902C1.60481 49.5547 1.74329 49.7025 1.8999 49.8295C2.05582 49.9582 2.22465 50.0704 2.40369 50.1643C2.57785 50.2535 2.75986 50.3265 2.9474 50.3824C3.13627 50.4382 3.32943 50.4783 3.52491 50.5022C3.72891 50.5249 3.93401 50.5361 4.13927 50.536C4.35614 50.536 4.57274 50.5206 4.78742 50.4899C5.00239 50.4619 5.21496 50.4177 5.42331 50.3578L5.37722 49.4117C5.28622 49.4538 5.19163 49.4877 5.0946 49.5131H5.07004ZM9.6624 46.7853C9.85637 46.9841 10.0061 47.2218 10.1017 47.4826C10.2081 47.7705 10.2602 48.0757 10.2553 48.3826C10.26 48.6851 10.2057 48.9856 10.0955 49.2673C9.99613 49.5239 9.84326 49.7564 9.64706 49.9493C9.44909 50.1399 9.21375 50.2874 8.9559 50.3824C8.67283 50.4871 8.37301 50.5391 8.07121 50.536C7.77011 50.5396 7.47102 50.4865 7.1896 50.3793C6.93305 50.2821 6.69895 50.1336 6.50152 49.9431C6.307 49.7488 6.15434 49.5167 6.05301 49.2612C5.94447 48.9811 5.89025 48.683 5.89327 48.3826C5.88987 48.0766 5.94298 47.7725 6.04993 47.4857C6.14561 47.2256 6.29414 46.9882 6.48615 46.7884C6.68059 46.5918 6.9139 46.438 7.17115 46.3368C7.45793 46.2253 7.76353 46.17 8.07121 46.174C8.37955 46.1708 8.68577 46.225 8.97431 46.3337C9.23327 46.4334 9.46788 46.5874 9.6624 46.7853ZM9.07571 48.7758C9.10641 48.6035 9.1218 48.4287 9.12175 48.2536C9.12185 48.0939 9.10122 47.9349 9.06033 47.7806C9.02035 47.6388 8.95476 47.5055 8.86681 47.3874C8.78071 47.2732 8.66921 47.1807 8.54117 47.1171C8.39603 47.046 8.23584 47.0112 8.07429 47.0157C7.91554 47.0131 7.75852 47.049 7.61659 47.1201C7.49614 47.19 7.39153 47.2841 7.30941 47.3966C7.22004 47.5159 7.15243 47.65 7.10973 47.7928C7.06641 47.9426 7.04466 48.0977 7.0452 48.2536C7.0452 48.2936 7.0452 48.3335 7.0452 48.3734C7.0452 48.4134 7.0452 48.4533 7.0452 48.4932C7.0452 48.6007 7.079 48.7083 7.09743 48.8004C7.11486 48.8983 7.14267 48.9941 7.18038 49.0861C7.21986 49.1744 7.26933 49.2579 7.32782 49.3349C7.3948 49.4201 7.47711 49.4919 7.57051 49.5469C7.64339 49.5973 7.72447 49.6347 7.81012 49.6574C7.89584 49.6764 7.98342 49.6857 8.07121 49.6851C8.25371 49.6936 8.43484 49.6499 8.59341 49.5591C8.72138 49.4766 8.82692 49.3637 8.90059 49.2305C8.98107 49.0866 9.03517 48.9295 9.06033 48.7666L9.07571 48.7758ZM13.6681 48.2997C13.6675 48.4585 13.6521 48.6169 13.622 48.7728C13.5956 48.9292 13.5448 49.0806 13.4715 49.2212C13.397 49.3556 13.2917 49.4703 13.1643 49.5561C13.0257 49.6464 12.8626 49.6915 12.6974 49.6851C12.5658 49.6883 12.4363 49.6519 12.3257 49.5806C12.2169 49.5052 12.1343 49.3979 12.0891 49.2735C12.0522 49.1751 12.0314 49.0713 12.0277 48.9663C12.0277 48.8649 12.0277 48.7666 12.0277 48.6591C12.0277 48.6284 12.0277 48.5946 12.0277 48.5639C12.0261 48.5322 12.0261 48.5004 12.0277 48.4687V46.2447H10.9434V48.8772C10.9419 49.094 10.9698 49.3099 11.0263 49.5192C11.0772 49.707 11.1638 49.8832 11.2812 50.0383C11.3992 50.1873 11.5508 50.3063 11.7236 50.3855C11.9238 50.4734 12.1408 50.5164 12.3595 50.5114C12.6244 50.5147 12.8864 50.4558 13.1243 50.3394C13.3651 50.2264 13.5756 50.058 13.7387 49.8479H13.7572V50.4131H14.7831V46.2447H13.7018L13.6681 48.2997ZM19.3632 46.6317C19.2466 46.4841 19.0958 46.3671 18.9239 46.2907C18.7196 46.2023 18.4984 46.1593 18.2758 46.1648C18.0109 46.161 17.7484 46.2166 17.5078 46.3276C17.272 46.4457 17.0669 46.6172 16.9088 46.8283H16.8904V46.26H15.8552V50.4285H16.9396V48.3888C16.94 48.2319 16.9564 48.0754 16.9887 47.9219C17.0171 47.7661 17.07 47.6157 17.1453 47.4765C17.2213 47.3424 17.3263 47.2269 17.4525 47.1386C17.5865 47.0479 17.7455 47.0017 17.9072 47.0065C18.0414 47.0016 18.1746 47.0312 18.2942 47.0925C18.4047 47.1647 18.4862 47.2734 18.5246 47.3997C18.5697 47.5252 18.5965 47.6566 18.6045 47.7898C18.6045 47.9188 18.6045 48.054 18.6045 48.1922V50.4162H19.6888V47.7867C19.6901 47.5681 19.6632 47.3503 19.6089 47.1386C19.5634 46.95 19.4786 46.7731 19.3601 46.6194L19.3632 46.6317ZM23.0463 49.6175C22.9067 49.6526 22.7633 49.6711 22.6193 49.6728C22.4449 49.6772 22.2721 49.6393 22.1156 49.5622C21.9758 49.4883 21.8549 49.3832 21.7623 49.255C21.6681 49.1247 21.5993 48.9778 21.5595 48.8219C21.5162 48.6554 21.4945 48.484 21.495 48.312C21.4945 48.145 21.5162 47.9787 21.5595 47.8174C21.5999 47.6656 21.6687 47.5228 21.7623 47.3966C21.8503 47.2689 21.9671 47.1637 22.1033 47.0894C22.2565 47.0124 22.4264 46.9744 22.5978 46.9788C22.7233 46.9798 22.8486 46.99 22.9726 47.0095C23.0992 47.0287 23.2211 47.0714 23.332 47.1355L23.4303 46.2754C23.2612 46.2225 23.0873 46.1865 22.9112 46.1679C22.7347 46.1485 22.5573 46.1383 22.3797 46.1371C22.0856 46.1315 21.7935 46.1881 21.5227 46.303C21.2797 46.4042 21.0624 46.5585 20.8868 46.7546C20.7117 46.9546 20.5781 47.1875 20.4936 47.4396C20.4031 47.7172 20.3585 48.0077 20.3616 48.2997C20.3581 48.5988 20.4027 48.8964 20.4936 49.1813C20.579 49.438 20.7147 49.6751 20.893 49.8786C21.0705 50.0781 21.2911 50.2347 21.5381 50.3363C21.8181 50.449 22.1179 50.5043 22.4197 50.4991C22.5948 50.4991 22.776 50.4991 22.9665 50.4715C23.1477 50.4513 23.3266 50.4142 23.501 50.3609L23.4549 49.4608C23.3231 49.52 23.1864 49.5672 23.0463 49.6021V49.6175ZM24.2413 50.4008H25.3256V46.2324H24.2413V50.4008ZM26.4868 50.4008H27.5742V44.334H26.4868V50.4008ZM24.7973 44.5306C24.6536 44.5314 24.5161 44.589 24.4148 44.6909C24.3135 44.7928 24.2566 44.9306 24.2566 45.0743C24.2562 45.1455 24.2699 45.2162 24.2969 45.2821C24.3239 45.3481 24.3636 45.408 24.4139 45.4586C24.4641 45.5091 24.5239 45.5492 24.5897 45.5766C24.6555 45.6039 24.726 45.618 24.7973 45.618C24.9415 45.618 25.0798 45.5607 25.1817 45.4588C25.2837 45.3568 25.341 45.2185 25.341 45.0743C25.341 44.9301 25.2837 44.7918 25.1817 44.6898C25.0798 44.5879 24.9415 44.5306 24.7973 44.5306ZM32.0376 46.26C32.3257 46.2461 32.6136 46.2931 32.8824 46.3978C33.1512 46.5025 33.3949 46.6627 33.5978 46.8678C33.8006 47.073 33.958 47.3185 34.0596 47.5885C34.1613 47.8585 34.205 48.1469 34.1878 48.4349C34.2013 48.7194 34.1547 49.0036 34.051 49.2689C33.9473 49.5343 33.7888 49.7748 33.5859 49.9747C33.383 50.1747 33.1403 50.3297 32.8735 50.4296C32.6067 50.5295 32.3219 50.572 32.0376 50.5544C31.7532 50.572 31.4684 50.5295 31.2016 50.4296C30.9348 50.3297 30.692 50.1747 30.4892 49.9747C30.2863 49.7748 30.1278 49.5343 30.0241 49.2689C29.9204 49.0036 29.8738 48.7194 29.8873 48.4349C29.8696 48.1468 29.9129 47.8582 30.0144 47.588C30.1159 47.3178 30.2733 47.072 30.4762 46.8667C30.6792 46.6615 30.9231 46.5014 31.1921 46.3968C31.4612 46.2923 31.7493 46.2456 32.0376 46.26ZM32.0376 49.7281C32.8577 49.7281 33.0728 48.9939 33.0728 48.3089C33.0728 47.6792 32.7379 47.0802 32.0376 47.0802C31.3372 47.0802 31.0085 47.6946 31.0085 48.3089C31.0085 48.9847 31.2235 49.7281 32.0376 49.7281ZM35.4473 45.7808V46.3552H34.6578V47.1355H35.4473V50.4592H36.5163V47.1355H37.4378V46.3552H36.5163V45.8453C36.5163 45.5381 36.6268 45.231 36.9862 45.231C37.1508 45.2321 37.3112 45.2824 37.447 45.3753L37.5361 44.4906C37.2789 44.433 37.0163 44.4032 36.7528 44.4016C35.908 44.4016 35.4473 44.976 35.4473 45.7962" fill="white"/>
<path d="M3.13822 42.7693C3.07642 42.7419 3.02021 42.7034 2.97237 42.6556C2.92563 42.607 2.88723 42.5509 2.85872 42.4898C2.83255 42.4243 2.81899 42.3544 2.81878 42.2839C2.81893 42.2144 2.83249 42.1456 2.85872 42.0812C2.88641 42.0187 2.92488 41.9615 2.97237 41.9122C3.02128 41.8666 3.07728 41.8292 3.13822 41.8017C3.20335 41.7743 3.27343 41.7607 3.34405 41.7617C3.41467 41.7607 3.48475 41.7743 3.54988 41.8017C3.61082 41.8292 3.66682 41.8666 3.71573 41.9122C3.76228 41.9616 3.79971 42.0188 3.82631 42.0812C3.85498 42.1449 3.86965 42.2141 3.86932 42.2839C3.86962 42.3548 3.85496 42.4249 3.82631 42.4898C3.79872 42.5507 3.76138 42.6067 3.71573 42.6556C3.66789 42.7034 3.61168 42.7419 3.54988 42.7693C3.48475 42.7966 3.41467 42.8102 3.34405 42.8092C3.27343 42.8102 3.20335 42.7966 3.13822 42.7693ZM4.36695 42.7693C4.43208 42.7966 4.50216 42.8102 4.57278 42.8092C4.6434 42.8102 4.71348 42.7966 4.7786 42.7693C4.84041 42.7419 4.89662 42.7034 4.94446 42.6556C4.99119 42.607 5.02959 42.5509 5.05811 42.4898C5.08428 42.4243 5.09783 42.3544 5.09805 42.2839C5.09789 42.2144 5.08433 42.1456 5.05811 42.0812C5.03042 42.0187 4.99195 41.9615 4.94446 41.9122C4.89555 41.8666 4.83955 41.8292 4.7786 41.8017C4.71348 41.7743 4.6434 41.7607 4.57278 41.7617C4.50216 41.7607 4.43208 41.7743 4.36695 41.8017C4.30601 41.8292 4.25 41.8666 4.2011 41.9122C4.15455 41.9616 4.11712 42.0188 4.09052 42.0812C4.06185 42.1449 4.04718 42.2141 4.04751 42.2839C4.04721 42.3548 4.06187 42.4249 4.09052 42.4898C4.1181 42.5507 4.15545 42.6067 4.2011 42.6556C4.24894 42.7034 4.30514 42.7419 4.36695 42.7693ZM28.6343 33.5968H29.6849V39.4947H21.6214C21.2993 39.5 20.9777 39.4681 20.663 39.3995C20.4159 39.3511 20.1835 39.2459 19.9841 39.0923C19.8848 39.2225 19.7565 39.3277 19.6093 39.3995C19.4282 39.4817 19.2305 39.5206 19.0318 39.5132H8.8764C8.72217 39.5126 8.56891 39.4888 8.42178 39.4425C8.275 39.3974 8.13978 39.3208 8.0255 39.2183C7.90436 39.1088 7.80799 38.9748 7.74288 38.8251C7.66816 38.6377 7.63263 38.4369 7.63845 38.2353V37.0066C7.49848 37.0057 7.3587 37.017 7.22068 37.0403C7.10889 37.0618 7.00368 37.1091 6.9135 37.1786C6.82093 37.2609 6.7529 37.3672 6.7169 37.4858C6.66893 37.645 6.64715 37.811 6.6524 37.9773V39.206C6.6514 39.4777 6.58837 39.7456 6.4681 39.9893C6.3419 40.2512 6.16184 40.4836 5.93972 40.6712C5.68877 40.8822 5.40147 41.0456 5.0919 41.1535C4.72674 41.2807 4.34193 41.342 3.95534 41.3348C3.60058 41.341 3.24651 41.3018 2.90173 41.218C2.62941 41.153 2.36773 41.0496 2.12455 40.9108C1.92211 40.7966 1.73952 40.6504 1.5839 40.4777C1.44841 40.3279 1.33373 40.1605 1.24294 39.9801C1.16396 39.8243 1.1051 39.6592 1.06782 39.4886C1.03619 39.3484 1.01872 39.2053 1.01562 39.0616C1.01573 38.9038 1.03113 38.7464 1.06167 38.5916C1.09139 38.4363 1.13247 38.2833 1.18455 38.1339C1.23535 37.9902 1.29695 37.8505 1.36885 37.7161C1.43945 37.5921 1.51848 37.473 1.60539 37.3598L2.44707 37.8144C2.38954 37.8938 2.33917 37.9781 2.29655 38.0663C2.25001 38.1653 2.21199 38.2681 2.18289 38.3735C2.14979 38.4737 2.12513 38.5764 2.10917 38.6807C2.09169 38.7822 2.08246 38.8849 2.08154 38.9879C2.08144 39.0909 2.09068 39.1937 2.10917 39.2951C2.13117 39.4014 2.16624 39.5046 2.2136 39.6022C2.26869 39.7138 2.33901 39.8172 2.4225 39.9094C2.52162 40.0153 2.63795 40.1035 2.76655 40.1705C2.92449 40.2526 3.09297 40.3125 3.26725 40.3487C3.49324 40.3977 3.72414 40.4204 3.95534 40.4163C4.1872 40.4198 4.41822 40.3876 4.64035 40.321C4.8245 40.2656 4.99796 40.1794 5.15336 40.0661C5.28122 39.9694 5.38611 39.8456 5.46054 39.7036C5.53248 39.575 5.57053 39.4302 5.57112 39.2828V37.8974C5.55319 37.6609 5.58461 37.4233 5.6634 37.1996C5.74219 36.9759 5.86664 36.771 6.02882 36.598C6.42724 36.2785 6.93281 36.1235 7.44185 36.1649H8.71051V37.9435C8.70884 38.0646 8.71501 38.1856 8.72896 38.3059C8.73784 38.3793 8.76078 38.4502 8.79653 38.5148C8.82333 38.5596 8.86616 38.5926 8.91633 38.607C8.97729 38.6241 9.04039 38.6324 9.10371 38.6315H15.9416C15.9023 38.5478 15.8684 38.4616 15.8402 38.3735C15.8061 38.2737 15.7814 38.1708 15.7665 38.0663C15.745 37.9127 15.7174 37.7592 15.6866 37.6086C15.6568 37.4651 15.6093 37.3258 15.5453 37.1939C15.4862 37.0735 15.4 36.9683 15.2934 36.8868C15.1737 36.8041 15.0302 36.7631 14.8849 36.77C14.8265 36.77 14.7589 36.77 14.676 36.77L14.4149 36.8069C14.3227 36.8253 14.2306 36.8468 14.1354 36.8745C14.0447 36.9005 13.9555 36.9313 13.8681 36.9666V36.1157C14.0586 36.0574 14.2521 36.0082 14.4425 35.9652C14.6555 35.9198 14.8729 35.8982 15.0907 35.9007C15.3 35.8996 15.5079 35.9349 15.705 36.0051C15.8807 36.0697 16.0416 36.1689 16.1781 36.297C16.3073 36.4251 16.4114 36.5761 16.4853 36.7424C16.5685 36.9217 16.6254 37.112 16.6542 37.3076C16.6788 37.4765 16.7064 37.6394 16.731 37.7929C16.7524 37.9308 16.7822 38.0672 16.8201 38.2015C16.8434 38.3024 16.8829 38.3988 16.9368 38.4872C16.9523 38.5183 16.9758 38.5448 17.005 38.5637C17.0342 38.5826 17.068 38.5933 17.1027 38.5947H18.6386C18.7176 38.597 18.7964 38.5866 18.8721 38.564C18.9317 38.5483 18.9852 38.5152 19.0257 38.4687C19.0698 38.4165 19.1003 38.3543 19.1148 38.2875C19.1351 38.1926 19.1444 38.0957 19.1424 37.9988V36.9451H20.2083V38.1431C20.2129 38.2168 20.2129 38.2907 20.2083 38.3643C20.3565 38.4527 20.5202 38.5121 20.6906 38.5394C20.853 38.5688 21.0172 38.5872 21.1821 38.5947C21.2466 38.4227 21.3326 38.2353 21.434 38.0295C21.5428 37.8178 21.6638 37.6127 21.7964 37.4151C21.9386 37.2054 22.0956 37.0062 22.2664 36.8192C22.4393 36.6302 22.6319 36.4603 22.8409 36.3123C23.0485 36.1635 23.276 36.0446 23.5167 35.9591C23.7668 35.8683 24.0309 35.8225 24.2969 35.8239C24.5819 35.8175 24.8649 35.873 25.1263 35.9867C25.3508 36.0911 25.5484 36.2456 25.7038 36.4383C25.8592 36.6391 25.973 36.8688 26.0386 37.1141C26.1143 37.3882 26.1515 37.6714 26.1492 37.9558V38.5916H28.6067L28.6343 33.5968ZM25.114 38.0387C25.1186 37.823 25.0917 37.6077 25.0342 37.3997C24.9957 37.2488 24.9244 37.1083 24.8253 36.9881C24.744 36.8888 24.6381 36.8126 24.5181 36.767C24.3959 36.7235 24.2669 36.7016 24.1372 36.7024C23.9422 36.7053 23.751 36.757 23.5812 36.853C23.385 36.9636 23.206 37.1023 23.0498 37.2646C22.8737 37.4459 22.7191 37.6469 22.589 37.8636C22.4498 38.0928 22.3345 38.3358 22.245 38.5885H25.1171L25.114 38.0387ZM30.7662 39.4886H31.8352V33.5999H30.7693L30.7662 39.4886ZM36.9098 35.8884C36.9577 35.9362 37.0139 35.9747 37.0757 36.0021C37.1408 36.0294 37.2109 36.043 37.2815 36.042C37.3521 36.043 37.4222 36.0294 37.4873 36.0021C37.5491 35.9747 37.6053 35.9362 37.6532 35.8884C37.7003 35.8407 37.7379 35.7844 37.7638 35.7225C37.7924 35.6577 37.8071 35.5876 37.8068 35.5167C37.8071 35.4468 37.7925 35.3777 37.7638 35.314C37.7379 35.2521 37.7003 35.1958 37.6532 35.1481C37.6053 35.1003 37.5491 35.0618 37.4873 35.0344C37.4222 35.0071 37.3521 34.9935 37.2815 34.9945C37.2109 34.9935 37.1408 35.0071 37.0757 35.0344C37.0139 35.0618 36.9577 35.1003 36.9098 35.1481C36.8617 35.1957 36.8231 35.252 36.7962 35.314C36.7699 35.3784 36.7564 35.4472 36.7562 35.5167C36.7564 35.5872 36.77 35.6571 36.7962 35.7225C36.8231 35.7846 36.8617 35.8409 36.9098 35.8884ZM39.8127 38.2414C39.7912 38.0878 39.7635 37.9342 39.7267 37.7776C39.6898 37.6209 39.653 37.4704 39.61 37.3291C39.567 37.1878 39.527 37.0526 39.484 36.9359L38.4457 37.2431C38.502 37.3696 38.5492 37.5 38.587 37.6332C38.63 37.7684 38.6638 37.9035 38.6915 38.0325C38.7191 38.1616 38.7437 38.2844 38.7591 38.3981C38.7726 38.4927 38.7797 38.5882 38.7805 38.6838C38.81 39.1296 38.6781 39.5712 38.4089 39.9279C38.2617 40.0823 38.0819 40.2019 37.8826 40.2779C37.6833 40.3539 37.4695 40.3844 37.2569 40.3671C37.0468 40.3718 36.8379 40.3342 36.6426 40.2565C36.4689 40.1864 36.3111 40.0819 36.1787 39.9494C36.046 39.8172 35.9414 39.6593 35.8715 39.4855C35.7979 39.3031 35.7614 39.1078 35.764 38.9111C35.7639 38.8083 35.771 38.7057 35.7855 38.6039C35.7978 38.5005 35.8163 38.3979 35.8408 38.2967C35.8641 38.1983 35.8949 38.1017 35.933 38.008C35.9675 37.9215 36.0096 37.8382 36.0589 37.7592L35.2049 37.283C35.1258 37.4109 35.054 37.5432 34.9899 37.6793C34.9249 37.8236 34.8675 37.9713 34.8179 38.1216C34.7689 38.2704 34.7299 38.4223 34.7012 38.5763C34.6749 38.7202 34.6615 38.8662 34.6612 39.0125C34.6597 39.3058 34.7106 39.5971 34.8117 39.8726C34.9128 40.146 35.0733 40.3936 35.2817 40.5975C35.5126 40.8181 35.7866 40.9886 36.0866 41.0982C36.4552 41.2287 36.8445 41.2911 37.2354 41.2825C37.6088 41.2899 37.9801 41.2252 38.329 41.0921C38.6361 40.9725 38.9137 40.7881 39.143 40.5514C39.3689 40.3164 39.5417 40.0357 39.6499 39.7282C39.7691 39.3941 39.8284 39.0416 39.825 38.6868C39.8251 38.5428 39.8138 38.399 39.7912 38.2568L39.8127 38.2414ZM58.8364 34.9699C58.8832 35.019 58.9397 35.0577 59.0023 35.0836C59.0663 35.1112 59.1354 35.1248 59.2051 35.1235C59.2758 35.1249 59.3459 35.1113 59.4109 35.0836C59.4735 35.0577 59.53 35.019 59.5768 34.9699C59.6245 34.9221 59.663 34.8659 59.6904 34.8041C59.7177 34.7389 59.7314 34.6689 59.7304 34.5983C59.7317 34.5286 59.718 34.4595 59.6904 34.3955C59.6638 34.3324 59.6253 34.275 59.5768 34.2266C59.5291 34.1794 59.4728 34.1418 59.4109 34.116C59.3461 34.0873 59.276 34.0727 59.2051 34.073C59.1352 34.0726 59.066 34.0873 59.0023 34.116C58.9404 34.1418 58.8841 34.1794 58.8364 34.2266C58.7879 34.275 58.7494 34.3324 58.7228 34.3955C58.6952 34.4595 58.6815 34.5286 58.6828 34.5983C58.6818 34.6689 58.6955 34.7389 58.7228 34.8041C58.7502 34.8659 58.7887 34.9221 58.8364 34.9699ZM66.1658 39.4947H57.66C57.3379 39.4999 57.0163 39.4679 56.7015 39.3995C56.4545 39.3511 56.2221 39.2459 56.0227 39.0923C55.9239 39.2218 55.7967 39.3268 55.651 39.3995C55.4688 39.4816 55.2701 39.5205 55.0704 39.5132H47.5936C47.2225 39.4678 46.8774 39.299 46.6137 39.034C46.4633 39.196 46.2814 39.3256 46.0792 39.4149C45.8486 39.5148 45.5993 39.564 45.3481 39.5592C45.1738 39.5603 44.9999 39.5439 44.829 39.5101C44.6881 39.48 44.5502 39.4368 44.4173 39.3811C44.3093 39.3307 44.2064 39.27 44.1101 39.1998C44.018 39.1323 43.9381 39.0647 43.8644 39.0002C43.7448 39.1676 43.5851 39.3022 43.4 39.3919C43.2148 39.4815 43.0101 39.5232 42.8046 39.5132H42.0397C41.8387 39.5177 41.6387 39.4844 41.45 39.4149C41.2964 39.3564 41.1594 39.2616 41.0506 39.1384C40.9416 39.0143 40.8618 38.8674 40.8172 38.7083C40.7663 38.5275 40.7415 38.3402 40.7434 38.1523V33.6276H41.8094V37.9281C41.8067 38.0415 41.817 38.1549 41.8401 38.266C41.8558 38.3413 41.8872 38.4125 41.9322 38.4749C41.9697 38.5265 42.0223 38.5651 42.0828 38.5855C42.1525 38.6062 42.225 38.6166 42.2978 38.6162H42.6787C42.8047 38.6174 42.928 38.5799 43.0319 38.5087C43.1405 38.4258 43.2183 38.309 43.2531 38.1769C43.3574 37.7979 43.5113 37.4343 43.7108 37.0956C43.8529 36.8567 44.0335 36.6429 44.2453 36.4628C44.4018 36.325 44.5847 36.2205 44.7829 36.1557C44.9385 36.1094 45.0997 36.0846 45.2621 36.0819C45.4495 36.0791 45.6361 36.1061 45.815 36.1618C45.9746 36.2102 46.1258 36.2827 46.2635 36.3768C46.3924 36.462 46.5084 36.5655 46.6076 36.684C46.7027 36.8025 46.784 36.9313 46.8502 37.068C46.9123 37.2017 46.9598 37.3418 46.9915 37.4858C47.0225 37.6229 47.039 37.7629 47.0407 37.9035C47.0405 37.9827 47.0343 38.0618 47.0222 38.1401C47.0121 38.2191 46.9956 38.2971 46.9731 38.3735L47.0714 38.4196C47.3636 38.5406 47.6767 38.6032 47.993 38.6039H54.7079C54.7859 38.606 54.8636 38.5956 54.9383 38.5732C54.999 38.5581 55.0537 38.5249 55.095 38.478C55.138 38.4255 55.1676 38.3633 55.181 38.2967C55.204 38.2023 55.2144 38.1052 55.2117 38.008V36.9543H56.2776V38.1523C56.2776 38.2261 56.2776 38.2998 56.2776 38.3735C56.4254 38.4629 56.5892 38.5224 56.7599 38.5486C56.9212 38.5781 57.0844 38.5966 57.2483 38.6039C57.3159 38.4319 57.3989 38.2445 57.5002 38.0387C57.609 37.827 57.73 37.6219 57.8627 37.4243C58.0048 37.2146 58.1619 37.0155 58.3327 36.8284C58.5056 36.6395 58.6981 36.4695 58.9071 36.3215C59.1157 36.1726 59.3443 36.0537 59.586 35.9683C59.835 35.8775 60.0982 35.8317 60.3632 35.8331C60.6482 35.826 60.9313 35.8816 61.1926 35.9959C61.4176 36.0994 61.6153 36.2541 61.77 36.4475C61.9252 36.6488 62.04 36.8783 62.108 37.1233C62.1809 37.3978 62.217 37.6809 62.2154 37.965V38.6008H65.1122V33.5968H66.1781L66.1658 39.4947ZM45.9655 38.2353C46.0089 38.1205 46.0297 37.9985 46.027 37.8759C46.0252 37.7712 46.0065 37.6675 45.9717 37.5687C45.9362 37.458 45.8822 37.3541 45.8119 37.2615C45.74 37.1655 45.6503 37.0842 45.5478 37.0219C45.4384 36.9565 45.3127 36.9235 45.1853 36.9267C45.0548 36.9271 44.9279 36.9691 44.8228 37.0465C44.7024 37.1291 44.5982 37.2332 44.5156 37.3537C44.4245 37.4944 44.3493 37.6448 44.2914 37.8022C44.2259 37.9714 44.1755 38.1462 44.1409 38.3244C44.19 38.3684 44.2447 38.4056 44.3037 38.435C44.3854 38.4749 44.4696 38.5097 44.5556 38.5394C44.6503 38.5704 44.7467 38.5961 44.8443 38.6162C44.9381 38.6367 45.034 38.647 45.13 38.6469C45.2522 38.6477 45.3739 38.6333 45.4925 38.6039C45.5951 38.5791 45.6914 38.533 45.7751 38.4687C45.8533 38.4047 45.9145 38.3224 45.9532 38.2291L45.9655 38.2353ZM61.1158 38.0325C61.1212 37.817 61.0953 37.6018 61.039 37.3936C60.9979 37.2437 60.9268 37.1036 60.83 36.982C60.7484 36.883 60.6426 36.8068 60.5229 36.7608C60.4006 36.7173 60.2717 36.6955 60.1419 36.6963C59.9479 36.6992 59.7578 36.751 59.5891 36.8468C59.3914 36.9566 59.2112 37.0953 59.0546 37.2584C58.8803 37.4413 58.7259 37.6421 58.5938 37.8575C58.4558 38.0873 58.3406 38.3301 58.2497 38.5824H61.1219L61.1158 38.0325ZM67.2102 39.4824H68.2761V33.5938H67.2102V39.4824ZM93.6278 40.8617C93.6552 40.7966 93.6688 40.7265 93.6678 40.6559C93.6688 40.5853 93.6552 40.5152 93.6278 40.4501C93.6005 40.3883 93.562 40.332 93.5142 40.2842C93.4674 40.236 93.4108 40.1983 93.3483 40.1736C93.2835 40.145 93.2134 40.1303 93.1425 40.1306C93.0727 40.1303 93.0035 40.1449 92.9398 40.1736C92.8773 40.1983 92.8207 40.236 92.7739 40.2842C92.7261 40.332 92.6876 40.3883 92.6603 40.4501C92.6329 40.5152 92.6193 40.5853 92.6203 40.6559C92.6193 40.7265 92.6329 40.7966 92.6603 40.8617C92.6876 40.9235 92.7261 40.9797 92.7739 41.0276C92.8215 41.0747 92.8779 41.1123 92.9398 41.1382C93.0035 41.1668 93.0727 41.1815 93.1425 41.1812C93.2134 41.1815 93.2835 41.1668 93.3483 41.1382C93.4102 41.1123 93.4665 41.0747 93.5142 41.0276C93.562 40.9797 93.6005 40.9235 93.6278 40.8617ZM97.7748 38.9664C97.6567 39.1346 97.4978 39.2699 97.3129 39.3597C97.128 39.4494 96.9233 39.4906 96.7181 39.4794H84.8056C84.5688 39.4844 84.3326 39.4533 84.1052 39.3872C83.9249 39.3301 83.7533 39.2484 83.5953 39.1445C83.5386 39.2066 83.4735 39.2604 83.4018 39.3043C83.3516 39.3356 83.2993 39.3633 83.2452 39.3872C83.0795 39.4503 82.9031 39.4805 82.726 39.4763H81.9058C81.669 39.4813 81.4329 39.4503 81.2054 39.3841C81.0251 39.327 80.8536 39.2454 80.6955 39.1415C80.5948 39.2468 80.4734 39.3305 80.3392 39.3872C80.1724 39.45 79.9951 39.4802 79.817 39.4763H79.6358C79.3874 39.4802 79.1401 39.4418 78.9046 39.3626C78.7004 39.2905 78.5086 39.1868 78.3363 39.0555C78.2398 39.1859 78.1134 39.2912 77.9677 39.3626C77.7868 39.4452 77.589 39.4841 77.3903 39.4763H77.2121C77.0332 39.4782 76.8548 39.4586 76.6806 39.4179C76.5236 39.3805 76.3711 39.3259 76.226 39.2551C76.1744 39.5407 76.0759 39.8158 75.9342 40.0692C75.7969 40.3114 75.6168 40.5268 75.4028 40.705C75.1785 40.8852 74.9235 41.0236 74.6501 41.1136C74.3409 41.2145 74.017 41.2633 73.6918 41.258C73.3008 41.2665 72.9116 41.2041 72.5429 41.0736C72.243 40.964 71.9689 40.7935 71.7381 40.5729C71.5297 40.3691 71.3692 40.1215 71.2681 39.848C71.1683 39.5722 71.1173 39.2812 71.1175 38.9879C71.1193 38.8489 71.1317 38.7103 71.1544 38.5732C71.1832 38.4192 71.2222 38.2673 71.2711 38.1186C71.3245 37.959 71.3881 37.803 71.4616 37.6516C71.5233 37.5144 71.5952 37.3819 71.6766 37.2554L72.5275 37.7315C72.4783 37.8105 72.4361 37.8938 72.4016 37.9803C72.3636 38.0741 72.3328 38.1706 72.3095 38.2691C72.2849 38.3703 72.2665 38.4729 72.2542 38.5763C72.2397 38.678 72.2325 38.7807 72.2327 38.8834C72.2314 39.08 72.2679 39.275 72.3402 39.4579C72.4101 39.6317 72.5146 39.7895 72.6474 39.9217C72.7797 40.0543 72.9375 40.1588 73.1112 40.2289C73.3066 40.3063 73.5155 40.3439 73.7256 40.3395C73.9382 40.3567 74.1519 40.3262 74.3512 40.2502C74.5505 40.1742 74.7304 40.0546 74.8775 39.9002C75.1472 39.5426 75.2791 39.0999 75.2492 38.653C75.2483 38.5585 75.2411 38.4641 75.2277 38.3704C75.2277 38.2568 75.1908 38.1339 75.1632 38.0049C75.1355 37.8759 75.0986 37.7407 75.0587 37.6056C75.0185 37.4727 74.9703 37.3424 74.9144 37.2154L75.9527 36.9083L76.054 37.2339C76.0878 37.3506 76.1216 37.4704 76.1554 37.5963C76.1892 37.7223 76.2137 37.8513 76.2383 37.9803C76.2629 38.1093 76.2813 38.2353 76.2967 38.3582C76.5321 38.4851 76.7942 38.5546 77.0615 38.5609C77.1395 38.5632 77.2173 38.5528 77.2919 38.5302C77.3526 38.5151 77.4073 38.4819 77.4486 38.435C77.4927 38.3827 77.5233 38.3205 77.5377 38.2537C77.558 38.1589 77.5673 38.062 77.5654 37.965V36.5427H78.6313V38.1093C78.6313 38.1431 78.6313 38.1769 78.6313 38.2107C78.6313 38.2445 78.6313 38.2783 78.6313 38.309C78.7713 38.3877 78.9197 38.4505 79.0736 38.4964C79.21 38.5381 79.3517 38.5598 79.4944 38.5609C79.5734 38.5632 79.6522 38.5528 79.7279 38.5302C79.7886 38.5151 79.8432 38.4819 79.8845 38.435C79.9274 38.382 79.9579 38.32 79.9736 38.2537C79.9939 38.1589 80.0032 38.062 80.0013 37.965V36.1157H81.0672V38.1247C81.0672 38.1738 81.0672 38.223 81.0672 38.2691C81.0672 38.3152 81.0672 38.3643 81.0672 38.4104C81.2064 38.4678 81.3517 38.5091 81.5003 38.5332C81.6595 38.5618 81.8209 38.5762 81.9826 38.5763H82.4495C82.5275 38.5783 82.6052 38.5679 82.6799 38.5455C82.7406 38.5305 82.7953 38.4973 82.8366 38.4503C82.8795 38.3973 82.9099 38.3354 82.9257 38.2691C82.946 38.1742 82.9552 38.0773 82.9533 37.9803V33.5723H84.0131V38.1247C84.0131 38.1738 84.0131 38.223 84.0131 38.2691C84.0131 38.3152 84.0131 38.3643 84.0131 38.4104C84.1523 38.4678 84.2976 38.5091 84.4462 38.5332C84.6054 38.5618 84.7668 38.5762 84.9285 38.5763H94.021C93.9804 38.4931 93.9466 38.4068 93.9197 38.3182C93.8856 38.2184 93.8609 38.1155 93.846 38.011C93.8214 37.8575 93.7969 37.7039 93.7661 37.5533C93.7363 37.4098 93.6888 37.2705 93.6248 37.1386C93.5656 37.0182 93.4795 36.913 93.3729 36.8315C93.253 36.7492 93.1096 36.7083 92.9644 36.7147C92.906 36.7147 92.8354 36.7147 92.7555 36.7147L92.4944 36.7516C92.4022 36.77 92.3101 36.7915 92.2149 36.8192C92.1241 36.8447 92.0348 36.8755 91.9476 36.9113V36.1157C92.138 36.0574 92.3285 36.0082 92.522 35.9652C92.734 35.92 92.9503 35.8984 93.1671 35.9007C93.3825 35.8978 93.5968 35.9332 93.7999 36.0051C93.9746 36.0698 94.1345 36.169 94.2699 36.297C94.3989 36.4252 94.5031 36.5762 94.5771 36.7424C94.6591 36.9221 94.716 37.1123 94.746 37.3076C94.7706 37.4765 94.7952 37.6394 94.8228 37.7929C94.8505 37.9465 94.8781 38.0848 94.9088 38.2015C94.9344 38.3021 94.9748 38.3984 95.0286 38.4872C95.0435 38.5181 95.0666 38.5444 95.0952 38.5634C95.1239 38.5823 95.1571 38.5931 95.1914 38.5947H95.7413C96.1777 38.5954 96.6134 38.5594 97.0437 38.4872C97.1523 38.4043 97.2301 38.2875 97.2649 38.1554C97.3685 37.7771 97.5225 37.4145 97.7226 37.0772C97.8408 36.8355 97.9975 36.6145 98.1864 36.4229C98.3429 36.2851 98.5258 36.1806 98.724 36.1157C98.8787 36.0697 99.0388 36.0449 99.2002 36.042C99.3886 36.039 99.5763 36.0659 99.7562 36.1219C99.9155 36.1709 100.067 36.2434 100.205 36.3369C100.334 36.4221 100.449 36.5256 100.549 36.6441C100.642 36.7631 100.722 36.8918 100.788 37.0281C100.852 37.1613 100.901 37.3015 100.933 37.4458C100.963 37.5831 100.978 37.7231 100.979 37.8636C100.979 38.0734 100.942 38.2815 100.868 38.478C100.796 38.6723 100.686 38.8507 100.546 39.0032C100.397 39.1593 100.218 39.2837 100.02 39.3688C99.7919 39.4646 99.5461 39.5117 99.2985 39.507C99.1253 39.508 98.9523 39.4915 98.7824 39.4579C98.6414 39.4278 98.5037 39.3846 98.3708 39.3289C98.2628 39.2785 98.1599 39.2178 98.0636 39.1476C97.9771 39.0856 97.894 39.019 97.8148 38.9479L97.7748 38.9664ZM98.2786 37.7837C98.2131 37.953 98.1628 38.1278 98.1281 38.3059C98.1772 38.3499 98.2319 38.3871 98.2909 38.4165C98.3721 38.4577 98.4562 38.4926 98.5428 38.521C98.6375 38.552 98.7339 38.5776 98.8316 38.5978C98.9244 38.6181 99.0191 38.6284 99.1141 38.6285C99.2373 38.6295 99.3601 38.615 99.4797 38.5855C99.5816 38.5613 99.677 38.5152 99.7593 38.4503C99.8392 38.3873 99.9016 38.3048 99.9404 38.2107C99.9838 38.096 100.005 37.9739 100.002 37.8513C99.9998 37.7466 99.9812 37.6429 99.9466 37.5441C99.9111 37.4334 99.8571 37.3295 99.7869 37.2369C99.7149 37.1409 99.6253 37.0596 99.5227 36.9973C99.4134 36.9319 99.2876 36.8989 99.1602 36.9021C99.0297 36.9025 98.9028 36.9445 98.7977 37.0219C98.6773 37.1045 98.5732 37.2087 98.4906 37.3291C98.3982 37.4691 98.323 37.6197 98.2663 37.7776" fill="white"/>
<path d="M15.3636 11.3093V19.5049C15.3642 19.9913 15.2675 20.4729 15.0791 20.9213C14.8908 21.3697 14.6146 21.7759 14.267 22.116C13.9217 22.459 13.511 22.729 13.0593 22.9101C12.6076 23.0911 12.1241 23.1793 11.6375 23.1696C10.6673 23.1416 9.74652 22.7351 9.07205 22.0371C8.39758 21.3391 8.02289 20.4049 8.02811 19.4343V17.4407C8.02811 15.8113 7.38082 14.2486 6.22867 13.0965C5.07651 11.9443 3.51387 11.297 1.88447 11.297H0.984413V19.3821C0.976887 22.2213 2.08992 24.9489 4.08169 26.9723C6.07347 28.9957 8.78312 30.1515 11.6221 30.1887H11.6836C13.0846 30.1954 14.4731 29.9247 15.769 29.3922C17.0649 28.8597 18.2425 28.076 19.2341 27.0862C20.2374 26.0955 21.0334 24.9148 21.5756 23.6132C22.1177 22.3116 22.3953 20.915 22.3919 19.5049V17.4407C22.3919 15.8113 21.7446 14.2486 20.5925 13.0965C19.4403 11.9443 17.8777 11.297 16.2483 11.297L15.3636 11.3093ZM8.94351 6.39442C8.98938 7.06802 9.27749 7.70225 9.75462 8.17995C10.2318 8.65764 10.8656 8.94651 11.5392 8.99317C11.9346 9.01841 12.3309 8.95912 12.7016 8.81923C13.0723 8.67934 13.409 8.46208 13.6892 8.1819C13.9693 7.90172 14.1866 7.56506 14.3265 7.19435C14.4664 6.82363 14.5257 6.42737 14.5004 6.03194C14.4551 5.35844 14.1671 4.72421 13.6898 4.2469C13.2125 3.76958 12.5782 3.48156 11.9047 3.43625C11.8433 3.43625 11.7819 3.43625 11.7235 3.43625C11.344 3.4384 10.9689 3.51808 10.6212 3.67041C10.2735 3.82273 9.96067 4.04449 9.70179 4.32206C9.44291 4.59964 9.24345 4.92719 9.1157 5.2846C8.98795 5.64202 8.9346 6.02177 8.95888 6.40056L8.94351 6.39442ZM81.9576 6.40056C82.0035 7.07465 82.2921 7.70928 82.7698 8.18704C83.2476 8.66481 83.8822 8.95336 84.5563 8.99931C84.9516 9.0246 85.3478 8.96532 85.7184 8.82541C86.0889 8.68549 86.4254 8.46817 86.7054 8.18793C86.9853 7.9077 87.2023 7.571 87.3418 7.20028C87.4813 6.82956 87.5402 6.43335 87.5145 6.03808C87.4705 5.36413 87.1829 4.72919 86.7053 4.25161C86.2277 3.77404 85.5928 3.48643 84.9188 3.44239C84.8574 3.44239 84.7959 3.44239 84.7376 3.44239C84.3568 3.4429 83.9803 3.52134 83.631 3.67289C83.2817 3.82444 82.9672 4.0459 82.7068 4.3236C82.4463 4.6013 82.2455 4.92939 82.1167 5.28764C81.9878 5.64589 81.9337 6.02673 81.9576 6.4067V6.40056ZM94.3524 11.294H75.1412C73.3747 11.294 71.6805 11.9955 70.431 13.2444C69.1816 14.4932 68.4793 16.1871 68.4784 17.9537C68.4784 17.9537 68.4784 19.6708 68.4784 19.7968H65.2561C65.22 18.2191 64.5678 16.7183 63.4391 15.6155C62.3104 14.5126 60.7949 13.8954 59.2169 13.8958H58.2462V18.737C58.2173 19.0235 58.0833 19.2892 57.8699 19.4826C57.6566 19.6761 57.3792 19.7836 57.0912 19.7845H54.5692C54.4167 17.2806 53.3148 14.9293 51.4882 13.21C49.6616 11.4907 47.2479 10.533 44.7394 10.5322C42.2309 10.533 39.8172 11.4907 37.9906 13.21C36.164 14.9293 35.0621 17.2806 34.9096 19.7845H32.2555C31.7364 19.7845 31.5705 19.6585 31.5306 19.6186C31.4907 19.5787 31.3678 19.4466 31.3678 18.697V7.11629C31.3678 5.4869 30.7205 3.92424 29.5683 2.77208C28.4162 1.61993 26.8535 0.972656 25.2241 0.972656H24.3241V20.4726C24.3241 22.3157 24.7388 23.701 25.5528 24.6226C26.3668 25.5441 27.7492 26.0633 29.5739 26.0633H33.4781C33.7253 26.0652 33.9725 26.0539 34.2184 26.0295L34.5256 26.0049C35.067 25.9613 35.6012 25.853 36.1168 25.6824C36.212 25.6486 36.3103 25.6148 36.4056 25.5749C37.2882 26.9896 38.5176 28.1554 39.9772 28.9618C41.4367 29.7682 43.0781 30.1884 44.7456 30.1826C46.5672 30.1858 48.3539 29.6828 49.9062 28.7296L50.0322 28.6497L50.1704 28.5637C51.3975 27.7957 52.4384 26.7642 53.2176 25.5441C53.3128 25.581 53.4081 25.6179 53.5064 25.6486C53.9004 25.7796 54.3055 25.8742 54.7167 25.9312C54.8887 25.9588 55.0607 25.9803 55.2358 25.9957C55.6413 26.0264 56.056 26.0448 56.4645 26.051H57.939C58.9097 26.051 59.5517 26.0172 60.246 25.9527C60.8208 25.9048 61.379 25.7352 61.8833 25.455C62.3887 25.7351 62.9477 25.9048 63.5236 25.9527C64.2178 26.0172 65.0595 26.051 66.0271 26.051H94.3462C96.1128 26.051 97.807 25.3494 99.0564 24.1006C100.306 22.8517 101.008 21.1578 101.009 19.3913V17.8953C100.998 16.1341 100.289 14.449 99.0391 13.2085C97.7888 11.968 96.0982 11.2731 94.337 11.2755L94.3524 11.294ZM49.0092 20.6722C48.9388 21.7005 48.4983 22.6685 47.7692 23.397C47.0402 24.1255 46.0719 24.5653 45.0435 24.6349C44.9514 24.6349 44.8592 24.6349 44.7671 24.6349C44.1857 24.6344 43.6107 24.5148 43.0775 24.2833C42.5442 24.0518 42.0641 23.7134 41.6668 23.2891C41.2695 22.8647 40.9635 22.3634 40.7676 21.8161C40.5717 21.2688 40.4901 20.6871 40.5279 20.107C40.597 19.0788 41.0367 18.1105 41.7654 17.3818C42.4941 16.6531 43.4624 16.2134 44.4906 16.1444C45.092 16.108 45.6943 16.1997 46.2575 16.4136C46.8208 16.6274 47.3322 16.9584 47.7579 17.3848C48.1837 17.8111 48.514 18.323 48.7271 18.8865C48.9402 19.4501 49.0311 20.0525 48.9938 20.6538L49.0092 20.6722ZM93.6029 20.5156H75.989C75.5064 20.5156 75.0436 20.3241 74.702 19.9831C74.3605 19.6422 74.1683 19.1796 74.1675 18.697C74.1675 18.2139 74.3594 17.7506 74.701 17.409C75.0426 17.0674 75.5059 16.8755 75.989 16.8755H93.6029C94.086 16.8755 94.5493 17.0674 94.8909 17.409C95.2325 17.7506 95.4244 18.2139 95.4244 18.697C95.4188 19.1791 95.2222 19.6392 94.8779 19.9767C94.5335 20.3141 94.0696 20.5012 93.5875 20.4971L93.6029 20.5156Z" fill="url(#paint0_linear_55467_309526)"/>
<defs>
<linearGradient id="paint0_linear_55467_309526" x1="0.9967" y1="15.6099" x2="101" y2="15.6099" gradientUnits="userSpaceOnUse">
<stop offset="0.15" stop-color="#005EB8"/>
<stop offset="0.51" stop-color="#2093B3"/>
<stop offset="0.8" stop-color="#40C1AC"/>
</linearGradient>
</defs>
</svg>
