<svg width="15" height="14" viewBox="0 0 15 14" fill="none" xmlns="http://www.w3.org/2000/svg">
<path d="M0.587552 6.55604C0.643102 6.41294 0.726397 6.28222 0.832655 6.17135L6.66841 0.342824C6.77724 0.234136 6.90643 0.147919 7.04861 0.0890975C7.1908 0.0302756 7.34319 0 7.49709 0C7.8079 0 8.10599 0.123318 8.32577 0.342824C8.43459 0.451513 8.52092 0.580545 8.57981 0.722554C8.6387 0.864563 8.66902 1.01677 8.66902 1.17048C8.66902 1.48091 8.54555 1.77862 8.32577 1.99813L4.47417 5.8333H13.3328C13.6424 5.8333 13.9393 5.95611 14.1581 6.17473C14.377 6.39334 14.5 6.68984 14.5 6.99901C14.5 7.30817 14.377 7.60467 14.1581 7.82328C13.9393 8.0419 13.6424 8.16471 13.3328 8.16471H4.47417L8.32577 11.9999C8.43516 12.1083 8.52199 12.2372 8.58125 12.3792C8.6405 12.5213 8.67101 12.6736 8.67101 12.8275C8.67101 12.9814 8.6405 13.1338 8.58125 13.2758C8.52199 13.4179 8.43516 13.5468 8.32577 13.6552C8.21727 13.7644 8.08818 13.8512 7.94595 13.9103C7.80372 13.9695 7.65117 14 7.49709 14C7.34301 14 7.19046 13.9695 7.04823 13.9103C6.906 13.8512 6.77691 13.7644 6.66841 13.6552L0.832655 7.82666C0.726397 7.71579 0.643102 7.58507 0.587552 7.44197C0.470816 7.15817 0.470816 6.83984 0.587552 6.55604Z" fill="#40C1AC"/>
</svg>
