<svg width="48" height="62" viewBox="0 0 48 62" fill="none" xmlns="http://www.w3.org/2000/svg">
<path d="M12.991 30.3945C10.5848 30.3945 8.61495 28.4934 8.61495 26.1441C8.61495 23.807 10.5723 21.8938 12.991 21.8938C13.5645 21.8938 14.0383 22.3418 14.0383 22.9109C14.0383 23.4801 13.577 23.9281 12.991 23.9281C11.7318 23.9281 10.7095 24.9211 10.7095 26.1441C10.7095 27.3672 11.7318 28.3602 12.991 28.3602C13.5645 28.3602 14.0383 28.8082 14.0383 29.3773C14.0383 29.9465 13.5645 30.3945 12.991 30.3945Z" fill="url(#paint0_linear_55447_351385)"/>
<path d="M35.0583 30.3945C34.4848 30.3945 34.011 29.9465 34.011 29.3773C34.011 28.8082 34.4723 28.3602 35.0583 28.3602C36.3175 28.3602 37.3398 27.3672 37.3398 26.1441C37.3398 24.9211 36.3175 23.9281 35.0583 23.9281C34.4848 23.9281 34.011 23.4801 34.011 22.9109C34.011 22.3418 34.4723 21.8938 35.0583 21.8938C37.4645 21.8938 39.4343 23.7949 39.4343 26.1441C39.4343 28.4934 37.4769 30.3945 35.0583 30.3945Z" fill="url(#paint1_linear_55447_351385)"/>
<path d="M24.2989 39.5855H23.7628C17.2548 39.5855 11.9562 34.4391 11.9562 28.118V17.1469C11.9562 16.5898 12.4175 16.1297 13.0035 16.1297C13.577 16.1297 14.0507 16.5777 14.0507 17.1469V28.118C14.0507 33.325 18.4143 37.5633 23.7753 37.5633H24.3114C29.6723 37.5633 34.0359 33.325 34.0359 28.118V17.1469C34.0359 16.5898 34.4972 16.1297 35.0832 16.1297C35.6567 16.1297 36.1304 16.5777 36.1304 17.1469V28.118C36.1055 34.4391 30.8069 39.5855 24.2989 39.5855Z" fill="url(#paint2_linear_55447_351385)"/>
<path d="M22.1421 46.2336C22.0797 46.2336 22.0298 46.2336 21.9675 46.2215C18.2148 45.6281 15.6964 43.5453 15.6964 41.0508V36.8488C15.6964 36.2918 16.1577 35.8316 16.7437 35.8316C17.3172 35.8316 17.7909 36.2797 17.7909 36.8488V41.0508C17.7909 42.4676 19.686 43.8117 22.3041 44.2234C22.8776 44.3082 23.2641 44.841 23.1644 45.3859C23.0771 45.8824 22.6407 46.2336 22.1421 46.2336Z" fill="url(#paint3_linear_55447_351385)"/>
<path d="M25.8947 46.2336C25.396 46.2336 24.9472 45.8824 24.8599 45.3859C24.7727 44.8289 25.1592 44.3082 25.7202 44.2234C28.3508 43.8117 30.2583 42.4797 30.2583 41.0508V36.8488C30.2583 36.2918 30.7196 35.8316 31.3056 35.8316C31.8791 35.8316 32.3528 36.2797 32.3528 36.8488V41.0508C32.3528 43.5574 29.822 45.6402 26.0693 46.2336C26.0069 46.2336 25.9446 46.2336 25.8947 46.2336Z" fill="url(#paint4_linear_55447_351385)"/>
<path d="M8.54015 62C7.96665 62 7.49289 61.552 7.49289 60.9828V53.027C7.49289 52.4699 7.95418 52.0098 8.54015 52.0098C9.11365 52.0098 9.58741 52.4578 9.58741 53.027V60.9828C9.58741 61.552 9.12612 62 8.54015 62Z" fill="url(#paint5_linear_55447_351385)"/>
<path d="M39.5091 62C38.9356 62 38.4618 61.552 38.4618 60.9828V53.027C38.4618 52.4699 38.9231 52.0098 39.5091 52.0098C40.0826 52.0098 40.5564 52.4578 40.5564 53.027V60.9828C40.5439 61.552 40.0826 62 39.5091 62Z" fill="url(#paint6_linear_55447_351385)"/>
<path d="M44.2841 62H3.76515C1.69556 62 0 60.3652 0 58.343V53.8141C0 48.0742 1.7579 44.1266 5.21136 42.0922C8.09132 40.3969 11.5573 40.3969 13.8513 40.3969H13.8762C15.4471 40.3969 15.659 39.4766 15.684 39.198V39.2102L17.766 39.3312C17.7535 39.4645 17.6912 40.1789 17.18 40.9055C16.6938 41.5957 15.7338 42.4191 13.8637 42.4191H13.8388C11.657 42.4191 8.66482 42.4191 6.28356 43.8238C3.45346 45.4828 2.06958 48.7523 2.06958 53.802V58.3309C2.06958 59.227 2.81763 59.9535 3.74021 59.9535H44.2467C45.1693 59.9535 45.9173 59.227 45.9173 58.3309V53.802C45.9173 48.0621 44.122 44.5867 40.4068 43.2062C39.8707 43.0004 39.5964 42.4191 39.8083 41.8984C40.0203 41.3777 40.6187 41.1113 41.1548 41.3172C45.6929 43.0125 47.9994 47.2145 47.9994 53.802V58.3309C48.0368 60.3652 46.3537 62 44.2841 62Z" fill="url(#paint7_linear_55447_351385)"/>
<path d="M37.265 42.5402C37.2276 42.5402 37.2026 42.5402 37.1652 42.5402C36.1055 42.4434 35.0957 42.4434 34.198 42.4434H34.1731C31.2432 42.4434 30.3456 40.4211 30.2833 39.3434L32.3653 39.2223V39.2102C32.3902 39.4887 32.6022 40.409 34.1731 40.409H34.198C35.1455 40.409 36.2053 40.409 37.3647 40.518C37.9382 40.5664 38.3621 41.0629 38.3122 41.6199C38.2499 42.1406 37.8011 42.5402 37.265 42.5402Z" fill="url(#paint8_linear_55447_351385)"/>
<path d="M13.3152 5.35234C12.991 5.35234 12.6669 5.20703 12.4674 4.92852C12.1308 4.46836 12.243 3.83867 12.7167 3.51172C16.033 1.21094 19.9478 0 24.0371 0C27.6526 0 31.1809 0.96875 34.2479 2.79727C34.7341 3.08789 34.8962 3.71758 34.5845 4.18984C34.2853 4.66211 33.637 4.81953 33.1507 4.5168C30.4204 2.88203 27.2661 2.02227 24.0371 2.02227C20.3842 2.02227 16.8933 3.1 13.9261 5.15859C13.739 5.2918 13.5271 5.35234 13.3152 5.35234Z" fill="url(#paint9_linear_55447_351385)"/>
<path d="M37.265 17.3285H10.7843C8.11626 17.3285 5.93447 15.2215 5.93447 12.618C5.93447 10.0145 8.10379 7.90742 10.7843 7.90742H37.2774C39.9455 7.90742 42.1273 10.0145 42.1273 12.618C42.1273 15.2215 39.9455 17.3285 37.265 17.3285ZM10.7843 9.9418C9.26326 9.9418 8.02899 11.1406 8.02899 12.618C8.02899 14.0953 9.26326 15.2941 10.7843 15.2941H37.2774C38.7985 15.2941 40.0327 14.0953 40.0327 12.618C40.0327 11.1406 38.7985 9.9418 37.2774 9.9418H10.7843Z" fill="url(#paint10_linear_55447_351385)"/>
<path d="M10.7469 24.5457C10.6596 24.5457 10.5848 24.5336 10.4975 24.5215C7.6799 23.8555 5.71006 21.4215 5.71006 18.6C5.71006 17.2195 6.19628 15.8633 7.09394 14.7855C7.45549 14.3496 8.11626 14.277 8.56509 14.6281C9.01391 14.9793 9.08871 15.6211 8.72716 16.057C8.12873 16.7836 7.80458 17.6676 7.80458 18.6C7.80458 20.4891 9.11365 22.1117 10.9962 22.5598C11.5573 22.693 11.8939 23.2379 11.7692 23.7828C11.6445 24.2309 11.2206 24.5457 10.7469 24.5457Z" fill="url(#paint11_linear_55447_351385)"/>
<path d="M7.85445 10.9711C7.55523 10.9711 7.25601 10.85 7.05653 10.6078C6.02174 9.39687 5.67266 7.78633 6.13395 6.28477C6.4955 5.07383 7.31835 4.08086 8.45288 3.47539C9.58741 2.86992 10.8965 2.73672 12.1432 3.08789C12.7541 3.25742 22.1919 5.93359 29.3981 7.96797C29.9466 8.12539 30.2708 8.68242 30.1087 9.22734C29.9466 9.77227 29.3731 10.075 28.8121 9.91758C21.606 7.85898 12.1682 5.19492 11.5573 5.01328C10.8466 4.80742 10.0986 4.89219 9.46274 5.23125C8.81443 5.57031 8.35314 6.13945 8.1412 6.82969C7.87938 7.68945 8.07886 8.60977 8.66482 9.3C9.03885 9.73594 8.97651 10.3656 8.52768 10.7289C8.3282 10.8863 8.09133 10.9711 7.85445 10.9711Z" fill="url(#paint12_linear_55447_351385)"/>
<path d="M40.2821 11.3707C39.7086 11.3707 39.2348 10.9227 39.2348 10.3535C39.2348 9.84492 39.16 9.32422 39.0104 8.82773C38.5865 7.42305 37.639 6.27266 36.3175 5.57031C34.9959 4.86797 33.4874 4.71055 32.0411 5.11016L22.2792 7.8832C21.7306 8.04062 21.1447 7.72578 20.9826 7.19297C20.8205 6.66016 21.1447 6.09102 21.6932 5.93359L31.4427 3.17266C33.425 2.61563 35.5071 2.83359 37.3024 3.80234C39.1101 4.75898 40.4192 6.35742 40.9927 8.2707C41.1922 8.94883 41.3044 9.65117 41.3044 10.3535C41.3169 10.9227 40.8556 11.3707 40.2821 11.3707Z" fill="url(#paint13_linear_55447_351385)"/>
<path d="M24.062 22.2691C19.8356 22.2691 16.0081 20.9129 13.2902 18.4547C12.7167 17.9461 11.7817 17.3285 10.5225 17.3285C9.94896 17.3285 9.4752 16.8805 9.4752 16.3113C9.4752 15.7543 9.9365 15.2941 10.5225 15.2941C12.031 15.2941 13.5146 15.8875 14.7115 16.9652C17.0055 19.048 20.4216 20.2348 24.062 20.2348C27.6651 20.2348 31.0438 19.048 33.3378 16.9895C34.572 15.8754 36.0182 15.2941 37.5268 15.2941C38.1003 15.2941 38.5741 15.7422 38.5741 16.3113C38.5741 16.8684 38.1128 17.3285 37.5268 17.3285C36.305 17.3285 35.345 17.9582 34.759 18.491C32.0785 20.8887 28.1763 22.2691 24.062 22.2691Z" fill="url(#paint14_linear_55447_351385)"/>
<path d="M22.5784 53.4387C22.0298 53.4387 21.5686 53.027 21.5436 52.482L21.0574 44.5262C21.0449 44.2477 21.1447 43.9691 21.3441 43.7754C21.5436 43.5695 21.8179 43.4605 22.1047 43.4605H25.9695C26.2563 43.4605 26.5306 43.5695 26.7176 43.7754C26.9171 43.9813 27.0168 44.2477 27.0043 44.5262L26.6428 52.482C26.6178 53.0391 26.1191 53.475 25.5581 53.4508C24.9846 53.4266 24.5358 52.9543 24.5607 52.3973L24.8724 45.4949H23.2018L23.6257 52.373C23.6631 52.9301 23.2267 53.4145 22.6407 53.4387C22.6158 53.4387 22.5909 53.4387 22.5784 53.4387Z" fill="url(#paint15_linear_55447_351385)"/>
<path d="M25.5955 55.9211H22.5784C22.0049 55.9211 21.5312 55.473 21.5312 54.9039V52.4215C21.5312 51.8645 21.9924 51.4043 22.5784 51.4043H25.5955C26.169 51.4043 26.6428 51.8523 26.6428 52.4215V54.9039C26.6428 55.473 26.169 55.9211 25.5955 55.9211ZM23.6132 53.8988H24.5483V53.4387H23.6132V53.8988Z" fill="url(#paint16_linear_55447_351385)"/>
<path d="M21.1197 57.8465C20.9078 57.8465 20.6834 57.7859 20.5088 57.6527C20.0475 57.3258 19.9478 56.684 20.2844 56.2359L21.7306 54.3227C22.0673 53.8746 22.728 53.7777 23.1893 54.1047C23.6506 54.4316 23.7503 55.0734 23.4137 55.5215L21.9675 57.4348C21.768 57.7012 21.4439 57.8465 21.1197 57.8465Z" fill="url(#paint17_linear_55447_351385)"/>
<path d="M22.5784 59.1301C22.5036 59.1301 22.4288 59.118 22.354 59.1059C21.793 58.9848 21.4314 58.452 21.5561 57.8949L22.2792 54.6859C22.4039 54.141 22.9524 53.7898 23.5259 53.9109C24.087 54.032 24.4485 54.5648 24.3238 55.1219L23.6007 58.3309C23.4885 58.8152 23.0522 59.1301 22.5784 59.1301Z" fill="url(#paint18_linear_55447_351385)"/>
<path d="M24.087 59.7598C23.5135 59.7598 23.0397 59.3117 23.0397 58.7426V54.9039C23.0397 54.3469 23.501 53.8867 24.087 53.8867C24.6605 53.8867 25.1342 54.3348 25.1342 54.9039V58.7426C25.1342 59.3117 24.6605 59.7598 24.087 59.7598Z" fill="url(#paint19_linear_55447_351385)"/>
<path d="M27.0417 57.8465C26.7176 57.8465 26.4059 57.7012 26.194 57.4348L24.7477 55.5215C24.4111 55.0734 24.5109 54.4316 24.9722 54.1047C25.4334 53.7777 26.0942 53.8746 26.4308 54.3227L27.877 56.2359C28.2137 56.684 28.1139 57.3258 27.6526 57.6527C27.4781 57.7738 27.2537 57.8465 27.0417 57.8465Z" fill="url(#paint20_linear_55447_351385)"/>
<path d="M25.5955 59.1301C25.1218 59.1301 24.6854 58.8031 24.5732 58.3309L23.8501 55.1219C23.7254 54.577 24.087 54.032 24.648 53.9109C25.209 53.7898 25.7701 54.141 25.8947 54.6859L26.6178 57.8949C26.7425 58.4398 26.381 58.9848 25.8199 59.1059C25.7451 59.1301 25.6703 59.1301 25.5955 59.1301Z" fill="url(#paint21_linear_55447_351385)"/>
<path d="M39.559 44.7563C38.8483 44.7563 38.1876 44.4414 37.7387 43.8602L31.4926 35.6863C31.1435 35.2383 31.2432 34.5965 31.7045 34.2695C32.1658 33.9305 32.8266 34.0273 33.1632 34.4754L39.4094 42.6492C39.4343 42.6855 39.4966 42.7582 39.6338 42.7219C39.7709 42.6734 39.7709 42.5766 39.7709 42.5402V13.9379C39.7709 13.3809 40.2322 12.9207 40.8182 12.9207C41.3917 12.9207 41.8654 13.3687 41.8654 13.9379V42.5281C41.8654 43.4969 41.2545 44.3324 40.2945 44.6352C40.0452 44.7199 39.8083 44.7563 39.559 44.7563Z" fill="url(#paint22_linear_55447_351385)"/>
<defs>
<linearGradient id="paint0_linear_55447_351385" x1="25.4118" y1="72.513" x2="97.6239" y2="40.356" gradientUnits="userSpaceOnUse">
<stop stop-color="#005EB8"/>
<stop offset="1" stop-color="#002554"/>
</linearGradient>
<linearGradient id="paint1_linear_55447_351385" x1="25.4118" y1="72.513" x2="97.6239" y2="40.356" gradientUnits="userSpaceOnUse">
<stop stop-color="#005EB8"/>
<stop offset="1" stop-color="#002554"/>
</linearGradient>
<linearGradient id="paint2_linear_55447_351385" x1="25.4118" y1="72.513" x2="97.6239" y2="40.356" gradientUnits="userSpaceOnUse">
<stop stop-color="#005EB8"/>
<stop offset="1" stop-color="#002554"/>
</linearGradient>
<linearGradient id="paint3_linear_55447_351385" x1="25.4118" y1="72.513" x2="97.6239" y2="40.356" gradientUnits="userSpaceOnUse">
<stop stop-color="#005EB8"/>
<stop offset="1" stop-color="#002554"/>
</linearGradient>
<linearGradient id="paint4_linear_55447_351385" x1="25.4118" y1="72.513" x2="97.6239" y2="40.356" gradientUnits="userSpaceOnUse">
<stop stop-color="#005EB8"/>
<stop offset="1" stop-color="#002554"/>
</linearGradient>
<linearGradient id="paint5_linear_55447_351385" x1="25.4118" y1="72.513" x2="97.6239" y2="40.356" gradientUnits="userSpaceOnUse">
<stop stop-color="#005EB8"/>
<stop offset="1" stop-color="#002554"/>
</linearGradient>
<linearGradient id="paint6_linear_55447_351385" x1="25.4118" y1="72.513" x2="97.6239" y2="40.356" gradientUnits="userSpaceOnUse">
<stop stop-color="#005EB8"/>
<stop offset="1" stop-color="#002554"/>
</linearGradient>
<linearGradient id="paint7_linear_55447_351385" x1="25.4118" y1="72.513" x2="97.6239" y2="40.356" gradientUnits="userSpaceOnUse">
<stop stop-color="#005EB8"/>
<stop offset="1" stop-color="#002554"/>
</linearGradient>
<linearGradient id="paint8_linear_55447_351385" x1="25.4118" y1="72.513" x2="97.6239" y2="40.356" gradientUnits="userSpaceOnUse">
<stop stop-color="#005EB8"/>
<stop offset="1" stop-color="#002554"/>
</linearGradient>
<linearGradient id="paint9_linear_55447_351385" x1="25.4118" y1="72.513" x2="97.6239" y2="40.356" gradientUnits="userSpaceOnUse">
<stop stop-color="#005EB8"/>
<stop offset="1" stop-color="#002554"/>
</linearGradient>
<linearGradient id="paint10_linear_55447_351385" x1="25.4118" y1="72.513" x2="97.6239" y2="40.356" gradientUnits="userSpaceOnUse">
<stop stop-color="#005EB8"/>
<stop offset="1" stop-color="#002554"/>
</linearGradient>
<linearGradient id="paint11_linear_55447_351385" x1="25.4118" y1="72.513" x2="97.6239" y2="40.356" gradientUnits="userSpaceOnUse">
<stop stop-color="#005EB8"/>
<stop offset="1" stop-color="#002554"/>
</linearGradient>
<linearGradient id="paint12_linear_55447_351385" x1="25.4118" y1="72.513" x2="97.6239" y2="40.356" gradientUnits="userSpaceOnUse">
<stop stop-color="#005EB8"/>
<stop offset="1" stop-color="#002554"/>
</linearGradient>
<linearGradient id="paint13_linear_55447_351385" x1="25.4118" y1="72.513" x2="97.6239" y2="40.356" gradientUnits="userSpaceOnUse">
<stop stop-color="#005EB8"/>
<stop offset="1" stop-color="#002554"/>
</linearGradient>
<linearGradient id="paint14_linear_55447_351385" x1="25.4118" y1="72.513" x2="97.6239" y2="40.356" gradientUnits="userSpaceOnUse">
<stop stop-color="#005EB8"/>
<stop offset="1" stop-color="#002554"/>
</linearGradient>
<linearGradient id="paint15_linear_55447_351385" x1="25.4118" y1="72.513" x2="97.6239" y2="40.356" gradientUnits="userSpaceOnUse">
<stop stop-color="#005EB8"/>
<stop offset="1" stop-color="#002554"/>
</linearGradient>
<linearGradient id="paint16_linear_55447_351385" x1="25.4118" y1="72.513" x2="97.6239" y2="40.356" gradientUnits="userSpaceOnUse">
<stop stop-color="#005EB8"/>
<stop offset="1" stop-color="#002554"/>
</linearGradient>
<linearGradient id="paint17_linear_55447_351385" x1="25.4118" y1="72.513" x2="97.6239" y2="40.356" gradientUnits="userSpaceOnUse">
<stop stop-color="#005EB8"/>
<stop offset="1" stop-color="#002554"/>
</linearGradient>
<linearGradient id="paint18_linear_55447_351385" x1="25.4118" y1="72.513" x2="97.6239" y2="40.356" gradientUnits="userSpaceOnUse">
<stop stop-color="#005EB8"/>
<stop offset="1" stop-color="#002554"/>
</linearGradient>
<linearGradient id="paint19_linear_55447_351385" x1="25.4118" y1="72.513" x2="97.6239" y2="40.356" gradientUnits="userSpaceOnUse">
<stop stop-color="#005EB8"/>
<stop offset="1" stop-color="#002554"/>
</linearGradient>
<linearGradient id="paint20_linear_55447_351385" x1="25.4118" y1="72.513" x2="97.6239" y2="40.356" gradientUnits="userSpaceOnUse">
<stop stop-color="#005EB8"/>
<stop offset="1" stop-color="#002554"/>
</linearGradient>
<linearGradient id="paint21_linear_55447_351385" x1="25.4118" y1="72.513" x2="97.6239" y2="40.356" gradientUnits="userSpaceOnUse">
<stop stop-color="#005EB8"/>
<stop offset="1" stop-color="#002554"/>
</linearGradient>
<linearGradient id="paint22_linear_55447_351385" x1="25.4118" y1="72.513" x2="97.6239" y2="40.356" gradientUnits="userSpaceOnUse">
<stop stop-color="#005EB8"/>
<stop offset="1" stop-color="#002554"/>
</linearGradient>
</defs>
</svg>
