<svg width="71" height="71" viewBox="0 0 71 71" fill="none" xmlns="http://www.w3.org/2000/svg">
<path d="M23.991 34.3945C21.5848 34.3945 19.615 32.4934 19.615 30.1441C19.615 27.807 21.5723 25.8938 23.991 25.8938C24.5645 25.8938 25.0383 26.3418 25.0383 26.9109C25.0383 27.4801 24.577 27.9281 23.991 27.9281C22.7318 27.9281 21.7095 28.9211 21.7095 30.1441C21.7095 31.3672 22.7318 32.3602 23.991 32.3602C24.5645 32.3602 25.0383 32.8082 25.0383 33.3773C25.0383 33.9465 24.5645 34.3945 23.991 34.3945Z" fill="url(#paint0_linear_55447_351383)"/>
<path d="M46.0583 34.3945C45.4848 34.3945 45.011 33.9465 45.011 33.3773C45.011 32.8082 45.4723 32.3602 46.0583 32.3602C47.3175 32.3602 48.3398 31.3672 48.3398 30.1441C48.3398 28.9211 47.3175 27.9281 46.0583 27.9281C45.4848 27.9281 45.011 27.4801 45.011 26.9109C45.011 26.3418 45.4723 25.8938 46.0583 25.8938C48.4645 25.8938 50.4343 27.7949 50.4343 30.1441C50.4343 32.4934 48.4769 34.3945 46.0583 34.3945Z" fill="url(#paint1_linear_55447_351383)"/>
<path d="M35.2989 43.5855H34.7628C28.2548 43.5855 22.9562 38.4391 22.9562 32.118V21.1469C22.9562 20.5898 23.4175 20.1297 24.0035 20.1297C24.577 20.1297 25.0507 20.5777 25.0507 21.1469V32.118C25.0507 37.325 29.4143 41.5633 34.7753 41.5633H35.3114C40.6723 41.5633 45.0359 37.325 45.0359 32.118V21.1469C45.0359 20.5898 45.4972 20.1297 46.0832 20.1297C46.6567 20.1297 47.1304 20.5777 47.1304 21.1469V32.118C47.1055 38.4391 41.8069 43.5855 35.2989 43.5855Z" fill="url(#paint2_linear_55447_351383)"/>
<path d="M33.1421 50.2336C33.0797 50.2336 33.0298 50.2336 32.9675 50.2215C29.2148 49.6281 26.6964 47.5453 26.6964 45.0508V40.8488C26.6964 40.2918 27.1577 39.8316 27.7437 39.8316C28.3172 39.8316 28.7909 40.2797 28.7909 40.8488V45.0508C28.7909 46.4676 30.686 47.8117 33.3041 48.2234C33.8776 48.3082 34.2641 48.841 34.1644 49.3859C34.0771 49.8824 33.6407 50.2336 33.1421 50.2336Z" fill="url(#paint3_linear_55447_351383)"/>
<path d="M36.8947 50.2336C36.396 50.2336 35.9472 49.8824 35.8599 49.3859C35.7727 48.8289 36.1592 48.3082 36.7202 48.2234C39.3508 47.8117 41.2583 46.4797 41.2583 45.0508V40.8488C41.2583 40.2918 41.7196 39.8316 42.3056 39.8316C42.8791 39.8316 43.3528 40.2797 43.3528 40.8488V45.0508C43.3528 47.5574 40.822 49.6402 37.0693 50.2336C37.0069 50.2336 36.9446 50.2336 36.8947 50.2336Z" fill="url(#paint4_linear_55447_351383)"/>
<path d="M19.5402 66C18.9667 66 18.4929 65.552 18.4929 64.9828V57.027C18.4929 56.4699 18.9542 56.0098 19.5402 56.0098C20.1136 56.0098 20.5874 56.4578 20.5874 57.027V64.9828C20.5874 65.552 20.1261 66 19.5402 66Z" fill="url(#paint5_linear_55447_351383)"/>
<path d="M50.5091 66C49.9356 66 49.4618 65.552 49.4618 64.9828V57.027C49.4618 56.4699 49.9231 56.0098 50.5091 56.0098C51.0826 56.0098 51.5564 56.4578 51.5564 57.027V64.9828C51.5439 65.552 51.0826 66 50.5091 66Z" fill="url(#paint6_linear_55447_351383)"/>
<path d="M55.2841 66H14.7651C12.6956 66 11 64.3652 11 62.343V57.8141C11 52.0742 12.7579 48.1266 16.2114 46.0922C19.0913 44.3969 22.5573 44.3969 24.8513 44.3969H24.8762C26.4471 44.3969 26.659 43.4766 26.684 43.198V43.2102L28.766 43.3312C28.7535 43.4645 28.6912 44.1789 28.18 44.9055C27.6938 45.5957 26.7338 46.4191 24.8637 46.4191H24.8388C22.657 46.4191 19.6648 46.4191 17.2836 47.8238C14.4535 49.4828 13.0696 52.7523 13.0696 57.802V62.3309C13.0696 63.227 13.8176 63.9535 14.7402 63.9535H55.2467C56.1693 63.9535 56.9173 63.227 56.9173 62.3309V57.802C56.9173 52.0621 55.122 48.5867 51.4068 47.2062C50.8707 47.0004 50.5964 46.4191 50.8083 45.8984C51.0203 45.3777 51.6187 45.1113 52.1548 45.3172C56.6929 47.0125 58.9994 51.2145 58.9994 57.802V62.3309C59.0368 64.3652 57.3537 66 55.2841 66Z" fill="url(#paint7_linear_55447_351383)"/>
<path d="M48.265 46.5402C48.2276 46.5402 48.2026 46.5402 48.1652 46.5402C47.1055 46.4434 46.0957 46.4434 45.198 46.4434H45.1731C42.2432 46.4434 41.3456 44.4211 41.2833 43.3434L43.3653 43.2223V43.2102C43.3902 43.4887 43.6022 44.409 45.1731 44.409H45.198C46.1455 44.409 47.2053 44.409 48.3647 44.518C48.9382 44.5664 49.3621 45.0629 49.3122 45.6199C49.2499 46.1406 48.8011 46.5402 48.265 46.5402Z" fill="url(#paint8_linear_55447_351383)"/>
<path d="M24.3152 9.35234C23.991 9.35234 23.6669 9.20703 23.4674 8.92852C23.1308 8.46836 23.243 7.83867 23.7167 7.51172C27.033 5.21094 30.9478 4 35.0371 4C38.6526 4 42.1809 4.96875 45.2479 6.79727C45.7341 7.08789 45.8962 7.71758 45.5845 8.18984C45.2853 8.66211 44.637 8.81953 44.1507 8.5168C41.4204 6.88203 38.2661 6.02227 35.0371 6.02227C31.3842 6.02227 27.8933 7.1 24.9261 9.15859C24.739 9.2918 24.5271 9.35234 24.3152 9.35234Z" fill="url(#paint9_linear_55447_351383)"/>
<path d="M48.265 21.3285H21.7843C19.1163 21.3285 16.9345 19.2215 16.9345 16.618C16.9345 14.0145 19.1038 11.9074 21.7843 11.9074H48.2774C50.9455 11.9074 53.1273 14.0145 53.1273 16.618C53.1273 19.2215 50.9455 21.3285 48.265 21.3285ZM21.7843 13.9418C20.2633 13.9418 19.029 15.1406 19.029 16.618C19.029 18.0953 20.2633 19.2941 21.7843 19.2941H48.2774C49.7985 19.2941 51.0327 18.0953 51.0327 16.618C51.0327 15.1406 49.7985 13.9418 48.2774 13.9418H21.7843Z" fill="url(#paint10_linear_55447_351383)"/>
<path d="M21.7469 28.5457C21.6596 28.5457 21.5848 28.5336 21.4975 28.5215C18.6799 27.8555 16.7101 25.4215 16.7101 22.6C16.7101 21.2195 17.1963 19.8633 18.0939 18.7855C18.4555 18.3496 19.1163 18.277 19.5651 18.6281C20.0139 18.9793 20.0887 19.6211 19.7272 20.057C19.1287 20.7836 18.8046 21.6676 18.8046 22.6C18.8046 24.4891 20.1136 26.1117 21.9962 26.5598C22.5573 26.693 22.8939 27.2379 22.7692 27.7828C22.6445 28.2309 22.2206 28.5457 21.7469 28.5457Z" fill="url(#paint11_linear_55447_351383)"/>
<path d="M18.8544 14.9711C18.5552 14.9711 18.256 14.85 18.0565 14.6078C17.0217 13.3969 16.6727 11.7863 17.1339 10.2848C17.4955 9.07383 18.3183 8.08086 19.4529 7.47539C20.5874 6.86992 21.8965 6.73672 23.1432 7.08789C23.7541 7.25742 33.1919 9.93359 40.3981 11.968C40.9466 12.1254 41.2708 12.6824 41.1087 13.2273C40.9466 13.7723 40.3731 14.075 39.8121 13.9176C32.606 11.859 23.1682 9.19492 22.5573 9.01328C21.8466 8.80742 21.0986 8.89219 20.4627 9.23125C19.8144 9.57031 19.3531 10.1395 19.1412 10.8297C18.8794 11.6895 19.0789 12.6098 19.6648 13.3C20.0388 13.7359 19.9765 14.3656 19.5277 14.7289C19.3282 14.8863 19.0913 14.9711 18.8544 14.9711Z" fill="url(#paint12_linear_55447_351383)"/>
<path d="M51.2821 15.3707C50.7086 15.3707 50.2348 14.9227 50.2348 14.3535C50.2348 13.8449 50.16 13.3242 50.0104 12.8277C49.5865 11.423 48.639 10.2727 47.3175 9.57031C45.9959 8.86797 44.4874 8.71055 43.0411 9.11016L33.2792 11.8832C32.7306 12.0406 32.1447 11.7258 31.9826 11.193C31.8205 10.6602 32.1447 10.091 32.6932 9.93359L42.4427 7.17266C44.425 6.61563 46.5071 6.83359 48.3024 7.80234C50.1101 8.75898 51.4192 10.3574 51.9927 12.2707C52.1922 12.9488 52.3044 13.6512 52.3044 14.3535C52.3169 14.9227 51.8556 15.3707 51.2821 15.3707Z" fill="url(#paint13_linear_55447_351383)"/>
<path d="M35.062 26.2691C30.8356 26.2691 27.0081 24.9129 24.2902 22.4547C23.7167 21.9461 22.7817 21.3285 21.5225 21.3285C20.949 21.3285 20.4752 20.8805 20.4752 20.3113C20.4752 19.7543 20.9365 19.2941 21.5225 19.2941C23.031 19.2941 24.5146 19.8875 25.7115 20.9652C28.0055 23.048 31.4216 24.2348 35.062 24.2348C38.6651 24.2348 42.0438 23.048 44.3378 20.9895C45.572 19.8754 47.0182 19.2941 48.5268 19.2941C49.1003 19.2941 49.5741 19.7422 49.5741 20.3113C49.5741 20.8684 49.1128 21.3285 48.5268 21.3285C47.305 21.3285 46.345 21.9582 45.759 22.491C43.0785 24.8887 39.1763 26.2691 35.062 26.2691Z" fill="url(#paint14_linear_55447_351383)"/>
<path d="M33.5784 57.4387C33.0298 57.4387 32.5686 57.027 32.5436 56.482L32.0574 48.5262C32.0449 48.2477 32.1447 47.9691 32.3441 47.7754C32.5436 47.5695 32.8179 47.4605 33.1047 47.4605H36.9695C37.2563 47.4605 37.5306 47.5695 37.7176 47.7754C37.9171 47.9813 38.0168 48.2477 38.0043 48.5262L37.6428 56.482C37.6178 57.0391 37.1191 57.475 36.5581 57.4508C35.9846 57.4266 35.5358 56.9543 35.5607 56.3973L35.8724 49.4949H34.2018L34.6257 56.373C34.6631 56.9301 34.2267 57.4145 33.6407 57.4387C33.6158 57.4387 33.5909 57.4387 33.5784 57.4387Z" fill="url(#paint15_linear_55447_351383)"/>
<path d="M36.5955 59.9211H33.5784C33.0049 59.9211 32.5312 59.473 32.5312 58.9039V56.4215C32.5312 55.8645 32.9924 55.4043 33.5784 55.4043H36.5955C37.169 55.4043 37.6428 55.8523 37.6428 56.4215V58.9039C37.6428 59.473 37.169 59.9211 36.5955 59.9211ZM34.6132 57.8988H35.5483V57.4387H34.6132V57.8988Z" fill="url(#paint16_linear_55447_351383)"/>
<path d="M32.1197 61.8465C31.9078 61.8465 31.6834 61.7859 31.5088 61.6527C31.0475 61.3258 30.9478 60.684 31.2844 60.2359L32.7306 58.3227C33.0673 57.8746 33.728 57.7777 34.1893 58.1047C34.6506 58.4316 34.7503 59.0734 34.4137 59.5215L32.9675 61.4348C32.768 61.7012 32.4439 61.8465 32.1197 61.8465Z" fill="url(#paint17_linear_55447_351383)"/>
<path d="M33.5784 63.1301C33.5036 63.1301 33.4288 63.118 33.354 63.1059C32.793 62.9848 32.4314 62.452 32.5561 61.8949L33.2792 58.6859C33.4039 58.141 33.9524 57.7898 34.5259 57.9109C35.087 58.032 35.4485 58.5648 35.3238 59.1219L34.6007 62.3309C34.4885 62.8152 34.0522 63.1301 33.5784 63.1301Z" fill="url(#paint18_linear_55447_351383)"/>
<path d="M35.087 63.7598C34.5135 63.7598 34.0397 63.3117 34.0397 62.7426V58.9039C34.0397 58.3469 34.501 57.8867 35.087 57.8867C35.6605 57.8867 36.1342 58.3348 36.1342 58.9039V62.7426C36.1342 63.3117 35.6605 63.7598 35.087 63.7598Z" fill="url(#paint19_linear_55447_351383)"/>
<path d="M38.0417 61.8465C37.7176 61.8465 37.4059 61.7012 37.194 61.4348L35.7477 59.5215C35.4111 59.0734 35.5109 58.4316 35.9722 58.1047C36.4334 57.7777 37.0942 57.8746 37.4308 58.3227L38.877 60.2359C39.2137 60.684 39.1139 61.3258 38.6526 61.6527C38.4781 61.7738 38.2537 61.8465 38.0417 61.8465Z" fill="url(#paint20_linear_55447_351383)"/>
<path d="M36.5955 63.1301C36.1218 63.1301 35.6854 62.8031 35.5732 62.3309L34.8501 59.1219C34.7254 58.577 35.087 58.032 35.648 57.9109C36.209 57.7898 36.7701 58.141 36.8947 58.6859L37.6178 61.8949C37.7425 62.4398 37.381 62.9848 36.8199 63.1059C36.7451 63.1301 36.6703 63.1301 36.5955 63.1301Z" fill="url(#paint21_linear_55447_351383)"/>
<path d="M50.559 48.7563C49.8483 48.7563 49.1876 48.4414 48.7387 47.8602L42.4926 39.6863C42.1435 39.2383 42.2432 38.5965 42.7045 38.2695C43.1658 37.9305 43.8266 38.0273 44.1632 38.4754L50.4094 46.6492C50.4343 46.6855 50.4966 46.7582 50.6338 46.7219C50.7709 46.6734 50.7709 46.5766 50.7709 46.5402V17.9379C50.7709 17.3809 51.2322 16.9207 51.8182 16.9207C52.3917 16.9207 52.8654 17.3687 52.8654 17.9379V46.5281C52.8654 47.4969 52.2545 48.3324 51.2945 48.6352C51.0452 48.7199 50.8083 48.7563 50.559 48.7563Z" fill="url(#paint22_linear_55447_351383)"/>
<defs>
<linearGradient id="paint0_linear_55447_351383" x1="36.4118" y1="76.513" x2="108.624" y2="44.356" gradientUnits="userSpaceOnUse">
<stop stop-color="#005EB8"/>
<stop offset="1" stop-color="#002554"/>
</linearGradient>
<linearGradient id="paint1_linear_55447_351383" x1="36.4118" y1="76.513" x2="108.624" y2="44.356" gradientUnits="userSpaceOnUse">
<stop stop-color="#005EB8"/>
<stop offset="1" stop-color="#002554"/>
</linearGradient>
<linearGradient id="paint2_linear_55447_351383" x1="36.4118" y1="76.513" x2="108.624" y2="44.356" gradientUnits="userSpaceOnUse">
<stop stop-color="#005EB8"/>
<stop offset="1" stop-color="#002554"/>
</linearGradient>
<linearGradient id="paint3_linear_55447_351383" x1="36.4118" y1="76.513" x2="108.624" y2="44.356" gradientUnits="userSpaceOnUse">
<stop stop-color="#005EB8"/>
<stop offset="1" stop-color="#002554"/>
</linearGradient>
<linearGradient id="paint4_linear_55447_351383" x1="36.4118" y1="76.513" x2="108.624" y2="44.356" gradientUnits="userSpaceOnUse">
<stop stop-color="#005EB8"/>
<stop offset="1" stop-color="#002554"/>
</linearGradient>
<linearGradient id="paint5_linear_55447_351383" x1="36.4118" y1="76.513" x2="108.624" y2="44.356" gradientUnits="userSpaceOnUse">
<stop stop-color="#005EB8"/>
<stop offset="1" stop-color="#002554"/>
</linearGradient>
<linearGradient id="paint6_linear_55447_351383" x1="36.4118" y1="76.513" x2="108.624" y2="44.356" gradientUnits="userSpaceOnUse">
<stop stop-color="#005EB8"/>
<stop offset="1" stop-color="#002554"/>
</linearGradient>
<linearGradient id="paint7_linear_55447_351383" x1="36.4118" y1="76.513" x2="108.624" y2="44.356" gradientUnits="userSpaceOnUse">
<stop stop-color="#005EB8"/>
<stop offset="1" stop-color="#002554"/>
</linearGradient>
<linearGradient id="paint8_linear_55447_351383" x1="36.4118" y1="76.513" x2="108.624" y2="44.356" gradientUnits="userSpaceOnUse">
<stop stop-color="#005EB8"/>
<stop offset="1" stop-color="#002554"/>
</linearGradient>
<linearGradient id="paint9_linear_55447_351383" x1="36.4118" y1="76.513" x2="108.624" y2="44.356" gradientUnits="userSpaceOnUse">
<stop stop-color="#005EB8"/>
<stop offset="1" stop-color="#002554"/>
</linearGradient>
<linearGradient id="paint10_linear_55447_351383" x1="36.4118" y1="76.513" x2="108.624" y2="44.356" gradientUnits="userSpaceOnUse">
<stop stop-color="#005EB8"/>
<stop offset="1" stop-color="#002554"/>
</linearGradient>
<linearGradient id="paint11_linear_55447_351383" x1="36.4118" y1="76.513" x2="108.624" y2="44.356" gradientUnits="userSpaceOnUse">
<stop stop-color="#005EB8"/>
<stop offset="1" stop-color="#002554"/>
</linearGradient>
<linearGradient id="paint12_linear_55447_351383" x1="36.4118" y1="76.513" x2="108.624" y2="44.356" gradientUnits="userSpaceOnUse">
<stop stop-color="#005EB8"/>
<stop offset="1" stop-color="#002554"/>
</linearGradient>
<linearGradient id="paint13_linear_55447_351383" x1="36.4118" y1="76.513" x2="108.624" y2="44.356" gradientUnits="userSpaceOnUse">
<stop stop-color="#005EB8"/>
<stop offset="1" stop-color="#002554"/>
</linearGradient>
<linearGradient id="paint14_linear_55447_351383" x1="36.4118" y1="76.513" x2="108.624" y2="44.356" gradientUnits="userSpaceOnUse">
<stop stop-color="#005EB8"/>
<stop offset="1" stop-color="#002554"/>
</linearGradient>
<linearGradient id="paint15_linear_55447_351383" x1="36.4118" y1="76.513" x2="108.624" y2="44.356" gradientUnits="userSpaceOnUse">
<stop stop-color="#005EB8"/>
<stop offset="1" stop-color="#002554"/>
</linearGradient>
<linearGradient id="paint16_linear_55447_351383" x1="36.4118" y1="76.513" x2="108.624" y2="44.356" gradientUnits="userSpaceOnUse">
<stop stop-color="#005EB8"/>
<stop offset="1" stop-color="#002554"/>
</linearGradient>
<linearGradient id="paint17_linear_55447_351383" x1="36.4118" y1="76.513" x2="108.624" y2="44.356" gradientUnits="userSpaceOnUse">
<stop stop-color="#005EB8"/>
<stop offset="1" stop-color="#002554"/>
</linearGradient>
<linearGradient id="paint18_linear_55447_351383" x1="36.4118" y1="76.513" x2="108.624" y2="44.356" gradientUnits="userSpaceOnUse">
<stop stop-color="#005EB8"/>
<stop offset="1" stop-color="#002554"/>
</linearGradient>
<linearGradient id="paint19_linear_55447_351383" x1="36.4118" y1="76.513" x2="108.624" y2="44.356" gradientUnits="userSpaceOnUse">
<stop stop-color="#005EB8"/>
<stop offset="1" stop-color="#002554"/>
</linearGradient>
<linearGradient id="paint20_linear_55447_351383" x1="36.4118" y1="76.513" x2="108.624" y2="44.356" gradientUnits="userSpaceOnUse">
<stop stop-color="#005EB8"/>
<stop offset="1" stop-color="#002554"/>
</linearGradient>
<linearGradient id="paint21_linear_55447_351383" x1="36.4118" y1="76.513" x2="108.624" y2="44.356" gradientUnits="userSpaceOnUse">
<stop stop-color="#005EB8"/>
<stop offset="1" stop-color="#002554"/>
</linearGradient>
<linearGradient id="paint22_linear_55447_351383" x1="36.4118" y1="76.513" x2="108.624" y2="44.356" gradientUnits="userSpaceOnUse">
<stop stop-color="#005EB8"/>
<stop offset="1" stop-color="#002554"/>
</linearGradient>
</defs>
</svg>
