<svg width="18" height="20" viewBox="0 0 18 20" fill="none" xmlns="http://www.w3.org/2000/svg">
<path d="M10.6797 17.6477C10.5332 17.9003 10.3229 18.1099 10.0699 18.2556C9.81686 18.4014 9.53 18.4781 9.23802 18.4781C8.94604 18.4781 8.65918 18.4014 8.40617 18.2556C8.15315 18.1099 7.94286 17.9003 7.79636 17.6477M14.238 6.81445C14.238 5.48837 13.7113 4.2166 12.7736 3.27892C11.8359 2.34124 10.5641 1.81445 9.23804 1.81445C7.91195 1.81445 6.64019 2.34124 5.7025 3.27892C4.76482 4.2166 4.23804 5.48837 4.23804 6.81445C4.23804 12.6478 1.73804 14.3145 1.73804 14.3145H16.738C16.738 14.3145 14.238 12.6478 14.238 6.81445Z" stroke="#002554" stroke-width="2" stroke-linecap="round" stroke-linejoin="round"/>
</svg>
