<svg width="32" height="32" viewBox="0 0 32 32" fill="none" xmlns="http://www.w3.org/2000/svg">
<rect width="32" height="32" rx="5" fill="#40C1AC"/>
<path d="M21.8327 9.33331H10.166C9.50297 9.33331 8.86709 9.59671 8.39825 10.0655C7.92941 10.5344 7.66602 11.1703 7.66602 11.8333V20.1666C7.66602 20.8297 7.92941 21.4656 8.39825 21.9344C8.86709 22.4033 9.50297 22.6666 10.166 22.6666H21.8327C22.4957 22.6666 23.1316 22.4033 23.6005 21.9344C24.0693 21.4656 24.3327 20.8297 24.3327 20.1666V11.8333C24.3327 11.1703 24.0693 10.5344 23.6005 10.0655C23.1316 9.59671 22.4957 9.33331 21.8327 9.33331ZM10.166 21C9.945 21 9.73304 20.9122 9.57676 20.7559C9.42048 20.5996 9.33268 20.3877 9.33268 20.1666V18.15L12.0827 15.4083C12.2385 15.2556 12.4479 15.1701 12.666 15.1701C12.8841 15.1701 13.0936 15.2556 13.2493 15.4083L18.841 21H10.166ZM22.666 20.1666C22.666 20.3877 22.5782 20.5996 22.4219 20.7559C22.2657 20.9122 22.0537 21 21.8327 21H21.191L18.016 17.8083L18.7493 17.075C18.9051 16.9223 19.1146 16.8368 19.3327 16.8368C19.5508 16.8368 19.7602 16.9223 19.916 17.075L22.666 19.8166V20.1666ZM22.666 17.4666L21.0993 15.9083C20.6244 15.452 19.9913 15.1972 19.3327 15.1972C18.6741 15.1972 18.041 15.452 17.566 15.9083L16.8327 16.6416L14.4327 14.2416C13.9577 13.7853 13.3246 13.5305 12.666 13.5305C12.0074 13.5305 11.3743 13.7853 10.8993 14.2416L9.33268 15.8V11.8333C9.33268 11.6123 9.42048 11.4003 9.57676 11.2441C9.73304 11.0878 9.945 11 10.166 11H21.8327C22.0537 11 22.2657 11.0878 22.4219 11.2441C22.5782 11.4003 22.666 11.6123 22.666 11.8333V17.4666Z" fill="white"/>
</svg>
