<svg width="32" height="32" viewBox="0 0 32 32" fill="none" xmlns="http://www.w3.org/2000/svg">
<path d="M23 8H9C8.20435 8 7.44129 8.31607 6.87868 8.87868C6.31607 9.44129 6 10.2044 6 11V21C6 21.7956 6.31607 22.5587 6.87868 23.1213C7.44129 23.6839 8.20435 24 9 24H23C23.7956 24 24.5587 23.6839 25.1213 23.1213C25.6839 22.5587 26 21.7956 26 21V11C26 10.2044 25.6839 9.44129 25.1213 8.87868C24.5587 8.31607 23.7956 8 23 8ZM9 22C8.73478 22 8.48043 21.8946 8.29289 21.7071C8.10536 21.5196 8 21.2652 8 21V18.58L11.3 15.29C11.4869 15.1068 11.7382 15.0041 12 15.0041C12.2618 15.0041 12.5131 15.1068 12.7 15.29L19.41 22H9ZM24 21C24 21.2652 23.8946 21.5196 23.7071 21.7071C23.5196 21.8946 23.2652 22 23 22H22.23L18.42 18.17L19.3 17.29C19.4869 17.1068 19.7382 17.0041 20 17.0041C20.2618 17.0041 20.5131 17.1068 20.7 17.29L24 20.58V21ZM24 17.76L22.12 15.89C21.5501 15.3424 20.7904 15.0366 20 15.0366C19.2096 15.0366 18.4499 15.3424 17.88 15.89L17 16.77L14.12 13.89C13.5501 13.3424 12.7904 13.0366 12 13.0366C11.2096 13.0366 10.4499 13.3424 9.88 13.89L8 15.76V11C8 10.7348 8.10536 10.4804 8.29289 10.2929C8.48043 10.1054 8.73478 10 9 10H23C23.2652 10 23.5196 10.1054 23.7071 10.2929C23.8946 10.4804 24 10.7348 24 11V17.76Z" fill="white"/>
</svg>
