<svg width="6" height="9" viewBox="0 0 6 9" fill="none" xmlns="http://www.w3.org/2000/svg">
<path d="M0.640826 4.02637L4.41416 0.259699C4.47613 0.197213 4.54987 0.147617 4.63111 0.113771C4.71235 0.0799257 4.79948 0.0625 4.88749 0.0625C4.9755 0.0625 5.06264 0.0799257 5.14388 0.113771C5.22512 0.147617 5.29885 0.197213 5.36083 0.259699C5.48499 0.384607 5.55469 0.553575 5.55469 0.729699C5.55469 0.905823 5.48499 1.07479 5.36083 1.1997L2.06083 4.53303L5.36083 7.83303C5.48499 7.95794 5.55469 8.12691 5.55469 8.30303C5.55469 8.47916 5.48499 8.64812 5.36083 8.77303C5.29908 8.83602 5.22545 8.88614 5.1442 8.92047C5.06295 8.9548 4.9757 8.97266 4.88749 8.97303C4.79929 8.97266 4.71203 8.9548 4.63078 8.92047C4.54953 8.88614 4.4759 8.83602 4.41416 8.77303L0.640826 5.00637C0.573156 4.94394 0.51915 4.86817 0.482212 4.78384C0.445274 4.6995 0.426204 4.60843 0.426204 4.51637C0.426204 4.4243 0.445274 4.33323 0.482212 4.24889C0.51915 4.16456 0.573156 4.08879 0.640826 4.02637Z" fill="#40C1AC"/>
</svg>
