<svg width="48" height="62" viewBox="0 0 48 62" fill="none" xmlns="http://www.w3.org/2000/svg">
<path d="M12.9842 29.7891C10.5756 29.7891 8.61945 27.8516 8.61945 25.466C8.61945 23.0805 10.5756 21.143 12.9842 21.143C13.5588 21.143 14.0234 21.6031 14.0234 22.1723C14.0234 22.7414 13.5588 23.2016 12.9842 23.2016C11.7249 23.2016 10.6979 24.2188 10.6979 25.466C10.6979 26.7133 11.7249 27.7305 12.9842 27.7305C13.5588 27.7305 14.0234 28.1906 14.0234 28.7598C14.0234 29.3289 13.5588 29.7891 12.9842 29.7891Z" fill="url(#paint0_linear_55593_10846)"/>
<path d="M35.0402 29.7891C34.4656 29.7891 34.001 29.3289 34.001 28.7598C34.001 28.1906 34.4656 27.7305 35.0402 27.7305C36.2995 27.7305 37.3265 26.7133 37.3265 25.466C37.3265 24.2188 36.2995 23.2016 35.0402 23.2016C34.4656 23.2016 34.001 22.7414 34.001 22.1723C34.001 21.6031 34.4656 21.143 35.0402 21.143C37.4488 21.143 39.4049 23.0805 39.4049 25.466C39.4172 27.8516 37.4488 29.7891 35.0402 29.7891Z" fill="url(#paint1_linear_55593_10846)"/>
<path d="M24.2812 39.1496H23.7432C17.2389 39.1496 11.9327 33.9062 11.9327 27.452V19.9441C11.9327 19.375 12.3973 18.9148 12.972 18.9148C13.5466 18.9148 14.0112 19.375 14.0112 19.9441V27.452C14.0112 32.7559 18.3759 37.0789 23.731 37.0789H24.2689C29.624 37.0789 33.9887 32.7559 33.9887 27.452V19.9441C33.9887 19.375 34.4533 18.9148 35.028 18.9148C35.6026 18.9148 36.0672 19.375 36.0672 19.9441V27.452C36.0916 33.9062 30.7977 39.1496 24.2812 39.1496Z" fill="url(#paint2_linear_55593_10846)"/>
<path d="M24.0122 42.9883C19.3418 42.9883 15.6862 40.6027 15.6862 37.5512V36.3523C15.6862 35.7832 16.1508 35.323 16.7254 35.323C17.3 35.323 17.7646 35.7832 17.7646 36.3523V37.5512C17.7646 39.3434 20.6744 40.9176 24 40.9176C27.3255 40.9176 30.2353 39.3434 30.2353 37.5512V36.3523C30.2353 35.7832 30.6999 35.323 31.2745 35.323C31.8492 35.323 32.3138 35.7832 32.3138 36.3523V37.5512C32.3382 40.6027 28.6826 42.9883 24.0122 42.9883Z" fill="url(#paint3_linear_55593_10846)"/>
<path d="M24.0122 48.3527C19.3418 48.3527 15.6862 45.9672 15.6862 42.9156V36.3523C15.6862 35.7832 16.1508 35.323 16.7254 35.323C17.3 35.323 17.7646 35.7832 17.7646 36.3523V42.9156C17.7646 44.7078 20.6744 46.282 24 46.282C27.3255 46.282 30.2353 44.7078 30.2353 42.9156V36.3523C30.2353 35.7832 30.6999 35.323 31.2745 35.323C31.8492 35.323 32.3138 35.7832 32.3138 36.3523V42.9156C32.3382 45.9672 28.6826 48.3527 24.0122 48.3527Z" fill="url(#paint4_linear_55593_10846)"/>
<path d="M24.0122 48.3527C23.4376 48.3527 22.973 47.8926 22.973 47.3234V41.959C22.973 41.3898 23.4376 40.9297 24.0122 40.9297C24.5868 40.9297 25.0514 41.3898 25.0514 41.959V47.3234C25.0514 47.8926 24.5868 48.3527 24.0122 48.3527Z" fill="url(#paint5_linear_55593_10846)"/>
<path d="M8.53386 62C7.95923 62 7.49464 61.5398 7.49464 60.9707V52.8574C7.49464 52.2883 7.95923 51.8281 8.53386 51.8281C9.10849 51.8281 9.57309 52.2883 9.57309 52.8574V60.9707C9.58531 61.5398 9.10849 62 8.53386 62Z" fill="url(#paint6_linear_55593_10846)"/>
<path d="M39.4905 62C38.9159 62 38.4513 61.5398 38.4513 60.9707V52.8574C38.4513 52.2883 38.9159 51.8281 39.4905 51.8281C40.0652 51.8281 40.5297 52.2883 40.5297 52.8574V60.9707C40.5297 61.5398 40.0652 62 39.4905 62Z" fill="url(#paint7_linear_55593_10846)"/>
<path d="M24.0122 58.0766C23.9388 58.0766 23.8777 58.0645 23.8043 58.0523C23.7432 58.0402 23.6699 58.016 23.6087 57.9918C23.5476 57.9676 23.4865 57.9313 23.4253 57.8949C23.3642 57.8586 23.3153 57.8102 23.2664 57.7617C23.2175 57.7133 23.1686 57.6648 23.1319 57.6043C23.0952 57.5438 23.0586 57.4832 23.0341 57.4227C23.0096 57.3621 22.9852 57.2895 22.973 57.2289C22.9607 57.1563 22.9485 57.0957 22.9485 57.023C22.9485 56.9504 22.9607 56.8898 22.973 56.8172C22.9852 56.7566 23.0096 56.684 23.0341 56.6234C23.0586 56.5629 23.0952 56.5023 23.1319 56.4418C23.1686 56.3813 23.2175 56.3328 23.2664 56.2844C23.3153 56.2359 23.3642 56.1875 23.4253 56.1512C23.4865 56.1148 23.5476 56.0785 23.6087 56.0543C23.6699 56.0301 23.7432 56.0059 23.8043 55.9937C23.9388 55.9695 24.0733 55.9695 24.2078 55.9937C24.2689 56.0059 24.3423 56.0301 24.4034 56.0543C24.4646 56.0785 24.5257 56.1148 24.5868 56.1512C24.648 56.1875 24.6969 56.2359 24.7458 56.2844C24.7947 56.3328 24.8436 56.3813 24.8803 56.4418C24.9169 56.5023 24.9536 56.5629 24.9781 56.6234C25.0025 56.684 25.027 56.7566 25.0392 56.8172C25.0514 56.8898 25.0636 56.9504 25.0636 57.023C25.0636 57.0957 25.0514 57.1563 25.0392 57.2289C25.027 57.2895 25.0025 57.3621 24.9781 57.4227C24.9536 57.4832 24.9169 57.5438 24.8803 57.6043C24.8436 57.6648 24.7947 57.7133 24.7458 57.7617C24.6969 57.8102 24.648 57.8586 24.5868 57.8949C24.5257 57.9313 24.4646 57.9676 24.4034 57.9918C24.3423 58.016 24.2689 58.0402 24.2078 58.0523C24.1467 58.0766 24.0856 58.0766 24.0122 58.0766Z" fill="url(#paint8_linear_55593_10846)"/>
<path d="M24.0122 52.9301C23.9388 52.9301 23.8777 52.918 23.8043 52.9059C23.7432 52.8937 23.6699 52.8695 23.6087 52.8453C23.5476 52.8211 23.4865 52.7848 23.4253 52.7484C23.3642 52.7121 23.3153 52.6637 23.2664 52.6152C23.2175 52.5668 23.1686 52.5184 23.1319 52.4578C23.0952 52.3973 23.0586 52.3367 23.0341 52.2762C23.0096 52.2156 22.9852 52.143 22.973 52.0824C22.9607 52.0098 22.9485 51.9492 22.9485 51.8766C22.9485 51.8039 22.9607 51.7434 22.973 51.6707C22.9852 51.6102 23.0096 51.5375 23.0341 51.477C23.0586 51.4164 23.0952 51.3559 23.1319 51.2953C23.1686 51.2348 23.2175 51.1863 23.2664 51.1379C23.3153 51.0895 23.3642 51.041 23.4253 51.0047C23.4865 50.9684 23.5476 50.932 23.6087 50.9078C23.6699 50.8836 23.7432 50.8594 23.8043 50.8473C24.1467 50.7746 24.5012 50.8836 24.7458 51.1258C24.7947 51.1742 24.8436 51.2227 24.8803 51.2832C24.9169 51.3438 24.9536 51.4043 24.9781 51.4648C25.0025 51.5254 25.027 51.598 25.0392 51.6586C25.0514 51.7313 25.0636 51.7918 25.0636 51.8645C25.0636 51.9371 25.0514 51.9977 25.0392 52.0703C25.027 52.1309 25.0025 52.2035 24.9781 52.2641C24.9536 52.3246 24.9169 52.3852 24.8803 52.4457C24.8436 52.5063 24.7947 52.5547 24.7458 52.6031C24.5501 52.8211 24.2812 52.9301 24.0122 52.9301Z" fill="url(#paint9_linear_55593_10846)"/>
<path d="M44.2587 62H3.76566C1.68721 62 0 60.3289 0 58.2703V53.6566C0 47.8078 1.74834 43.7875 5.20835 41.7168C8.09372 39.9973 11.5415 39.9852 13.84 39.9852H13.8645C15.5517 39.9852 15.6617 38.8953 15.6739 38.7742C15.7106 38.2051 16.1997 37.7691 16.7743 37.8055C17.3489 37.8418 17.7891 38.3262 17.7524 38.8953C17.7402 39.0285 17.679 39.7672 17.1655 40.5059C16.6887 41.2082 15.7229 42.0559 13.8522 42.0559C11.6638 42.0559 8.68058 42.0559 6.29648 43.4848C3.47223 45.1801 2.09067 48.5102 2.09067 53.6566V58.2703C2.09067 59.1785 2.83647 59.9293 3.76566 59.9293H44.2587C45.1757 59.9293 45.9337 59.1906 45.9337 58.2703V53.6566C45.9337 48.5102 44.5522 45.1801 41.7279 43.4848C39.3438 42.0559 36.3606 42.0559 34.1721 42.0559H34.1477C32.2771 42.0559 31.3112 41.2203 30.8344 40.5059C30.3331 39.7672 30.2598 39.0285 30.2475 38.8953L32.326 38.7742V38.7621C32.3504 39.0527 32.5705 39.9852 34.1355 39.9852H34.1599C36.4584 39.9852 39.9062 39.9852 42.7916 41.7168C46.2516 43.7875 47.9999 47.8078 47.9999 53.6566V58.2703C48.0122 60.3289 46.3372 62 44.2587 62Z" fill="url(#paint10_linear_55593_10846)"/>
<path d="M40.921 42.9883C40.8965 42.9883 40.8599 42.9883 40.8232 42.9883C40.2485 42.9398 39.8206 42.4312 39.8695 41.8742C40.9454 29.7648 41.4345 21.7121 41.4345 19.3387C41.4345 16.6504 40.8232 14.0711 39.6372 11.6855C39.3805 11.177 39.5883 10.5594 40.1141 10.3051C40.6276 10.0508 41.2511 10.2566 41.5078 10.7773C42.8527 13.4535 43.5252 16.3355 43.5252 19.3508C43.5252 22.3055 42.8772 31.6418 41.9602 42.068C41.9113 42.5887 41.4589 42.9883 40.921 42.9883Z" fill="url(#paint11_linear_55593_10846)"/>
<path d="M10.5267 7.85898C10.27 7.85898 10.0132 7.76211 9.81761 7.58047C9.40192 7.19297 9.37747 6.53906 9.76871 6.11523C13.4366 2.22813 18.6327 0 24.0122 0C29.3917 0 34.5878 2.22812 38.2679 6.12734C38.6591 6.53906 38.6347 7.19297 38.219 7.59258C37.8033 7.98008 37.1431 7.95586 36.7396 7.54414C33.4019 4.0082 28.8904 2.0707 24.0122 2.0707C19.134 2.0707 14.6225 4.0082 11.2848 7.54414C11.0769 7.75 10.7957 7.85898 10.5267 7.85898Z" fill="url(#paint12_linear_55593_10846)"/>
<path d="M7.1034 42.9883C6.56545 42.9883 6.11308 42.5887 6.06418 42.0438C5.13499 31.6176 4.49923 22.2813 4.49923 19.3266C4.49923 16.3234 5.17167 13.4535 6.50432 10.7773C6.76107 10.2688 7.3846 10.0508 7.8981 10.3051C8.4116 10.5594 8.63168 11.177 8.37493 11.6855C7.18899 14.0711 6.5899 16.6383 6.5899 19.3145C6.5899 21.6879 7.07895 29.7527 8.15485 41.85C8.20376 42.4191 7.77584 42.9156 7.20121 42.9641C7.16453 42.9883 7.14008 42.9883 7.1034 42.9883Z" fill="url(#paint13_linear_55593_10846)"/>
<path d="M40.2608 12.2668H7.76362C5.96637 12.2668 4.49923 10.8137 4.49923 9.03359C4.49923 7.25352 5.96637 5.80039 7.76362 5.80039H40.2485C42.0458 5.80039 43.5129 7.25352 43.5129 9.03359C43.5252 10.8258 42.058 12.2668 40.2608 12.2668ZM7.76362 7.85898C7.11563 7.85898 6.57768 8.37969 6.57768 9.03359C6.57768 9.6875 7.1034 10.2082 7.76362 10.2082H40.2485C40.8965 10.2082 41.4345 9.6875 41.4345 9.03359C41.4345 8.37969 40.9088 7.85898 40.2485 7.85898H7.76362Z" fill="url(#paint14_linear_55593_10846)"/>
<path d="M38.3657 32.1988C37.7911 32.1988 37.3265 31.7387 37.3265 31.1695V17.9945C37.3265 17.2559 37.0331 16.5656 36.5073 16.0449C35.9816 15.5242 35.2847 15.2336 34.5389 15.2336C33.6586 15.2336 32.9617 15.7059 32.5338 16.0934C30.4065 18.043 27.3133 19.157 24.0366 19.157C20.6867 19.157 17.6424 18.0551 15.4783 16.0691C15.0626 15.6937 14.378 15.2336 13.4732 15.2336C12.7274 15.2336 12.0305 15.5242 11.5048 16.0449C10.9791 16.5656 10.6857 17.2559 10.6857 17.9945V31.1574C10.6857 31.7266 10.2211 32.1867 9.64645 32.1867C9.07182 32.1867 8.60722 31.7266 8.60722 31.1574V17.9945C8.60722 16.6988 9.10849 15.4879 10.0377 14.5797C10.9546 13.6715 12.1773 13.1629 13.4855 13.1629C14.7203 13.1629 15.9307 13.6594 16.9088 14.5555C18.6571 16.166 21.2613 17.0984 24.0489 17.0984C26.7998 17.0984 29.3795 16.1781 31.1278 14.5797C32.1426 13.6594 33.3163 13.1629 34.5511 13.1629C35.8593 13.1629 37.082 13.6594 37.9989 14.5797C38.9159 15.5 39.4294 16.6988 39.4294 17.9945V31.1574C39.4172 31.7266 38.9526 32.1988 38.3657 32.1988Z" fill="url(#paint15_linear_55593_10846)"/>
<path d="M38.3657 20.9855H35.5781C32.8884 20.9855 30.6999 18.818 30.6999 16.1539C30.6999 15.8027 30.7366 15.4637 30.8099 15.1246C30.9322 14.5676 31.4824 14.2164 32.057 14.3375C32.6194 14.4586 32.974 15.0035 32.8517 15.5727C32.815 15.7664 32.7906 15.9602 32.7906 16.166C32.7906 17.6918 34.0376 18.927 35.5781 18.927H38.3657C38.9403 18.927 39.4049 19.3871 39.4049 19.9563C39.4049 20.5254 38.9526 20.9855 38.3657 20.9855Z" fill="url(#paint16_linear_55593_10846)"/>
<path d="M12.4462 20.9855H9.65867C9.08404 20.9855 8.61945 20.5254 8.61945 19.9563C8.61945 19.3871 9.08404 18.927 9.65867 18.927H12.4462C13.9867 18.927 15.2338 17.6918 15.2338 16.166C15.2338 15.9602 15.2094 15.7543 15.1604 15.5605C15.0382 15.0035 15.3927 14.4465 15.9429 14.3254C16.5053 14.2043 17.0677 14.5555 17.19 15.1004C17.2633 15.4516 17.3123 15.8027 17.3123 16.166C17.3245 18.818 15.136 20.9855 12.4462 20.9855Z" fill="url(#paint17_linear_55593_10846)"/>
<defs>
<linearGradient id="paint0_linear_55593_10846" x1="25.4118" y1="72.513" x2="97.6239" y2="40.356" gradientUnits="userSpaceOnUse">
<stop stop-color="#005EB8"/>
<stop offset="1" stop-color="#002554"/>
</linearGradient>
<linearGradient id="paint1_linear_55593_10846" x1="25.4118" y1="72.513" x2="97.6239" y2="40.356" gradientUnits="userSpaceOnUse">
<stop stop-color="#005EB8"/>
<stop offset="1" stop-color="#002554"/>
</linearGradient>
<linearGradient id="paint2_linear_55593_10846" x1="25.4118" y1="72.513" x2="97.6239" y2="40.356" gradientUnits="userSpaceOnUse">
<stop stop-color="#005EB8"/>
<stop offset="1" stop-color="#002554"/>
</linearGradient>
<linearGradient id="paint3_linear_55593_10846" x1="25.4118" y1="72.513" x2="97.6239" y2="40.356" gradientUnits="userSpaceOnUse">
<stop stop-color="#005EB8"/>
<stop offset="1" stop-color="#002554"/>
</linearGradient>
<linearGradient id="paint4_linear_55593_10846" x1="25.4118" y1="72.513" x2="97.6239" y2="40.356" gradientUnits="userSpaceOnUse">
<stop stop-color="#005EB8"/>
<stop offset="1" stop-color="#002554"/>
</linearGradient>
<linearGradient id="paint5_linear_55593_10846" x1="25.4118" y1="72.513" x2="97.6239" y2="40.356" gradientUnits="userSpaceOnUse">
<stop stop-color="#005EB8"/>
<stop offset="1" stop-color="#002554"/>
</linearGradient>
<linearGradient id="paint6_linear_55593_10846" x1="25.4118" y1="72.513" x2="97.6239" y2="40.356" gradientUnits="userSpaceOnUse">
<stop stop-color="#005EB8"/>
<stop offset="1" stop-color="#002554"/>
</linearGradient>
<linearGradient id="paint7_linear_55593_10846" x1="25.4118" y1="72.513" x2="97.6239" y2="40.356" gradientUnits="userSpaceOnUse">
<stop stop-color="#005EB8"/>
<stop offset="1" stop-color="#002554"/>
</linearGradient>
<linearGradient id="paint8_linear_55593_10846" x1="25.4118" y1="72.513" x2="97.6239" y2="40.356" gradientUnits="userSpaceOnUse">
<stop stop-color="#005EB8"/>
<stop offset="1" stop-color="#002554"/>
</linearGradient>
<linearGradient id="paint9_linear_55593_10846" x1="25.4118" y1="72.513" x2="97.6239" y2="40.356" gradientUnits="userSpaceOnUse">
<stop stop-color="#005EB8"/>
<stop offset="1" stop-color="#002554"/>
</linearGradient>
<linearGradient id="paint10_linear_55593_10846" x1="25.4118" y1="72.513" x2="97.6239" y2="40.356" gradientUnits="userSpaceOnUse">
<stop stop-color="#005EB8"/>
<stop offset="1" stop-color="#002554"/>
</linearGradient>
<linearGradient id="paint11_linear_55593_10846" x1="25.4118" y1="72.513" x2="97.6239" y2="40.356" gradientUnits="userSpaceOnUse">
<stop stop-color="#005EB8"/>
<stop offset="1" stop-color="#002554"/>
</linearGradient>
<linearGradient id="paint12_linear_55593_10846" x1="25.4118" y1="72.513" x2="97.6239" y2="40.356" gradientUnits="userSpaceOnUse">
<stop stop-color="#005EB8"/>
<stop offset="1" stop-color="#002554"/>
</linearGradient>
<linearGradient id="paint13_linear_55593_10846" x1="25.4118" y1="72.513" x2="97.6239" y2="40.356" gradientUnits="userSpaceOnUse">
<stop stop-color="#005EB8"/>
<stop offset="1" stop-color="#002554"/>
</linearGradient>
<linearGradient id="paint14_linear_55593_10846" x1="25.4118" y1="72.513" x2="97.6239" y2="40.356" gradientUnits="userSpaceOnUse">
<stop stop-color="#005EB8"/>
<stop offset="1" stop-color="#002554"/>
</linearGradient>
<linearGradient id="paint15_linear_55593_10846" x1="25.4118" y1="72.513" x2="97.6239" y2="40.356" gradientUnits="userSpaceOnUse">
<stop stop-color="#005EB8"/>
<stop offset="1" stop-color="#002554"/>
</linearGradient>
<linearGradient id="paint16_linear_55593_10846" x1="25.4118" y1="72.513" x2="97.6239" y2="40.356" gradientUnits="userSpaceOnUse">
<stop stop-color="#005EB8"/>
<stop offset="1" stop-color="#002554"/>
</linearGradient>
<linearGradient id="paint17_linear_55593_10846" x1="25.4118" y1="72.513" x2="97.6239" y2="40.356" gradientUnits="userSpaceOnUse">
<stop stop-color="#005EB8"/>
<stop offset="1" stop-color="#002554"/>
</linearGradient>
</defs>
</svg>
