<svg width="21" height="21" viewBox="0 0 21 21" fill="none" xmlns="http://www.w3.org/2000/svg">
<path d="M0.290096 19.2904L4.0001 15.6104C2.56 13.8148 1.86259 11.5357 2.05128 9.24169C2.23998 6.94769 3.30042 4.81318 5.01458 3.27704C6.72873 1.7409 8.96629 0.919903 11.2672 0.982863C13.5681 1.04582 15.7574 1.98795 17.385 3.61553C19.0125 5.24311 19.9547 7.43243 20.0176 9.73332C20.0806 12.0342 19.2596 14.2718 17.7235 15.9859C16.1873 17.7001 14.0528 18.7605 11.7588 18.9492C9.4648 19.1379 7.18569 18.4405 5.39009 17.0004L1.71009 20.6804C1.61713 20.7741 1.50653 20.8485 1.38467 20.8993C1.26281 20.9501 1.13211 20.9762 1.0001 20.9762C0.868084 20.9762 0.737377 20.9501 0.615519 20.8993C0.49366 20.8485 0.383059 20.7741 0.290096 20.6804C0.109856 20.4939 0.00910568 20.2447 0.00910568 19.9854C0.00910568 19.7261 0.109856 19.4769 0.290096 19.2904ZM11.0001 17.0004C12.3846 17.0004 13.7379 16.5899 14.8891 15.8207C16.0402 15.0515 16.9374 13.9583 17.4673 12.6792C17.9971 11.4001 18.1357 9.99263 17.8656 8.63476C17.5955 7.27689 16.9288 6.02961 15.9498 5.05065C14.9709 4.07168 13.7236 3.40499 12.3657 3.1349C11.0079 2.8648 9.60039 3.00342 8.32131 3.53324C7.04223 4.06305 5.94898 4.96026 5.17981 6.1114C4.41064 7.26255 4.0001 8.61592 4.0001 10.0004C4.0001 11.8569 4.73759 13.6374 6.05035 14.9501C7.3631 16.2629 9.14358 17.0004 11.0001 17.0004Z" fill="#8FA0B4"/>
</svg>
