<svg width="40" height="40" viewBox="0 0 40 40" fill="none" xmlns="http://www.w3.org/2000/svg">
<path d="M6.94007 5.27559C6.54109 5.27559 6.21748 5.59916 6.21748 5.99826C6.21748 6.39736 6.54102 6.72093 6.94007 6.72093L6.94729 6.72093C7.34627 6.72093 7.66626 6.39736 7.66626 5.99826C7.66626 5.59916 7.33912 5.27559 6.94007 5.27559Z" fill="white"/>
<path d="M10.4048 5.27559C10.0059 5.27559 9.68226 5.59916 9.68226 5.99826C9.68226 6.39736 10.0058 6.72093 10.4048 6.72093L10.412 6.72093C10.811 6.72093 11.131 6.39736 11.131 5.99826C11.131 5.59916 10.8039 5.27559 10.4048 5.27559Z" fill="white"/>
<path d="M13.8696 5.27559C13.4706 5.27559 13.147 5.59916 13.147 5.99826C13.147 6.39736 13.4706 6.72093 13.8696 6.72093L13.8768 6.72093C14.2758 6.72093 14.5957 6.39736 14.5957 5.99826C14.5957 5.59916 14.2687 5.27559 13.8696 5.27559Z" fill="white"/>
<path d="M31.5928 5.27559L22.8241 5.27559C22.4251 5.27559 22.1015 5.59916 22.1015 5.99826C22.1015 6.39736 22.425 6.72093 22.8241 6.72093L31.5928 6.72093C31.9918 6.72093 32.3154 6.39736 32.3154 5.99826C32.3154 5.59916 31.9918 5.27559 31.5928 5.27559Z" fill="white"/>
<path d="M19.9038 30.6842C19.7693 30.5498 19.5829 30.4725 19.393 30.4725C19.203 30.4725 19.0165 30.5498 18.8822 30.6842C18.7478 30.8187 18.6704 31.0051 18.6704 31.1952C18.6704 31.3852 18.7477 31.5716 18.8822 31.706C19.0165 31.8404 19.2029 31.9178 19.393 31.9178C19.583 31.9178 19.7694 31.8405 19.9038 31.706C20.0382 31.5716 20.1155 31.3852 20.1155 31.1952C20.1155 31.0051 20.0382 30.8187 19.9038 30.6842Z" fill="white"/>
<path d="M36.0981 11.2687L36.0981 5.61326C36.0981 3.62088 34.4774 2 32.4852 2L6.61285 2C4.6207 2 3 3.62096 3 5.61333L3 28.447C3 30.3609 4.55682 31.9179 6.47041 31.9179L9.18225 31.9179L9.18225 32.0352C9.18225 32.2824 9.00629 32.4969 8.76391 32.5452L6.04079 33.0878C4.52748 33.3895 3.39833 34.6228 3.23111 36.157L3.00846 38.199C2.9862 38.4031 3.05189 38.607 3.1889 38.7598C3.32592 38.9127 3.52154 39 3.72678 39L19.3927 39C19.598 39 19.7937 38.9126 19.9307 38.7598C20.0677 38.6069 20.1333 38.4029 20.111 38.1988L19.8878 36.1562C19.7202 34.6224 18.5911 33.3894 17.0782 33.0879L14.3546 32.5452C14.1121 32.4969 13.9362 32.2824 13.9362 32.0352L13.9362 31.3566C13.9362 31.3529 13.9357 31.3494 13.9357 31.3457L15.1604 30.6455C15.1739 30.6378 15.187 30.6297 15.2 30.6212C15.8566 30.1874 16.2878 29.4151 16.3535 28.5551C16.355 28.5368 16.3556 28.5184 16.3556 28.5001L16.3556 25.5364C16.7874 25.2551 17.1026 24.7437 17.1026 23.8485L17.1038 22.2247C17.1038 22.1978 17.1023 22.1713 17.0995 22.1451C17.0255 20.715 15.8612 19.6042 14.4211 19.6042L8.28067 19.6042C8.01112 19.6042 7.76093 19.4614 7.59848 19.3416C7.29417 19.1173 6.8962 19.0836 6.55952 19.2537C6.22413 19.4232 6.01579 19.7621 6.01579 20.1383L6.01579 22.4896C6.01579 23.2883 6.29654 24.0224 6.76396 24.5995L6.76396 28.5001C6.76396 28.5184 6.76468 28.5368 6.76605 28.5551C6.82466 29.3223 7.17934 30.021 7.72762 30.4725L6.47041 30.4725C5.35369 30.4726 4.4451 29.564 4.4451 28.447L4.4451 13.2785L12.5146 13.2785C12.9135 13.2785 13.2371 12.9549 13.2371 12.5558C13.2371 12.1567 12.9136 11.8331 12.5146 11.8331L4.44517 11.8331L4.44517 9.80969L34.653 9.80969L34.653 11.2487L22.9233 11.2487C20.546 11.2487 18.6119 13.183 18.6119 15.5605L18.6119 21.6092C18.6119 23.9867 20.546 25.921 22.9233 25.921L23.8265 25.921L23.8265 28.0339C23.8265 28.3262 24.0026 28.5897 24.2725 28.7016C24.3619 28.7386 24.4559 28.7566 24.549 28.7566C24.7371 28.7566 24.9218 28.6831 25.06 28.5449L27.6836 25.9209L34.6531 25.9209L34.6531 28.4469C34.6531 29.5639 33.7445 30.4726 32.6277 30.4726L22.3331 30.4726C21.9342 30.4726 21.6106 30.7961 21.6106 31.1952C21.6106 31.5943 21.9341 31.9179 22.3331 31.9179L32.6276 31.9179C34.5413 31.9179 36.0981 30.3608 36.0981 28.447L36.0981 25.9011C38.284 25.694 40 23.8487 40 21.6093L40 15.5606C40 13.3212 38.284 11.4757 36.0981 11.2687ZM14.4037 34.0287L16.7959 34.5054C17.6875 34.6829 18.3526 35.4094 18.4514 36.3131L18.587 37.5546L4.53254 37.5546L4.66789 36.3136C4.76639 35.4096 5.43167 34.6829 6.32328 34.5053L8.71578 34.0286C9.50037 34.7276 10.5005 35.1103 11.5598 35.1103C12.6191 35.1103 13.6191 34.7275 14.4037 34.0287ZM10.1646 33.2985C10.428 32.9852 10.5933 32.5908 10.6216 32.1649C10.9205 32.3113 11.24 32.3858 11.5598 32.3858C11.8792 32.3859 12.1983 32.3116 12.497 32.1654C12.5254 32.5913 12.691 32.9857 12.9544 33.2989C12.5336 33.5373 12.0566 33.6649 11.5598 33.6649C11.0628 33.6649 10.5857 33.5371 10.1646 33.2985ZM14.9106 28.47C14.8742 28.8638 14.6882 29.218 14.4201 29.4041L11.9925 30.792C11.979 30.7997 11.9659 30.8078 11.9529 30.8164C11.703 30.9814 11.4165 30.9813 11.1667 30.8164C11.1541 30.8081 11.1412 30.8 11.128 30.7925L8.70725 29.4043C8.43437 29.2154 8.24547 28.8611 8.20905 28.4699L8.20905 25.6393C8.5719 25.774 8.96415 25.8478 9.37325 25.8478L14.9106 25.8478L14.9106 28.47ZM7.46096 22.4898L7.46096 20.8984C7.73101 20.9982 8.00707 21.0496 8.28081 21.0496L14.4212 21.0496C15.0954 21.0496 15.6385 21.5774 15.6576 22.2513C15.6578 22.2593 15.6583 22.2674 15.6588 22.2754L15.6576 23.8481C15.6576 23.8482 15.6576 23.8484 15.6576 23.8486C15.6576 24.2144 15.5829 24.3069 15.5744 24.3163C15.5452 24.3482 15.4186 24.4024 15.1297 24.4024L9.37332 24.4024C8.31875 24.4024 7.46096 23.5445 7.46096 22.4898ZM4.44517 8.36443L4.44517 5.61333C4.44517 4.41792 5.41757 3.4454 6.61285 3.4454L32.4852 3.4454C33.6805 3.4454 34.6529 4.41792 34.6529 5.61333L34.6529 8.3645L4.44517 8.36443ZM38.5548 21.6093C38.5548 23.1898 37.269 24.4757 35.6886 24.4757L27.3842 24.4757C27.1925 24.4757 27.0088 24.5519 26.8732 24.6874L25.2716 26.2893L25.2716 25.1984C25.2716 24.7994 24.9481 24.4757 24.549 24.4757L22.9233 24.4757C21.3429 24.4757 20.0571 23.1898 20.0571 21.6093L20.0571 15.5606C20.0571 13.98 21.3429 12.6941 22.9233 12.6941L35.6886 12.6941C37.269 12.6941 38.5548 13.98 38.5548 15.5606L38.5548 21.6093Z" fill="white"/>
<path d="M23.5254 16.3894C22.3301 16.3894 21.3576 17.3619 21.3576 18.5574C21.3576 19.7528 22.33 20.7253 23.5254 20.7253C24.7207 20.7253 25.6931 19.7528 25.6931 18.5574C25.6931 17.3619 24.7207 16.3894 23.5254 16.3894ZM23.5254 19.28C23.127 19.28 22.8028 18.9559 22.8028 18.5574C22.8028 18.1589 23.1269 17.8347 23.5254 17.8347C23.9239 17.8347 24.248 18.1588 24.248 18.5574C24.248 18.9559 23.9237 19.28 23.5254 19.28Z" fill="white"/>
<path d="M29.3059 16.3894C28.1106 16.3894 27.1382 17.3619 27.1382 18.5574C27.1382 19.7528 28.1106 20.7253 29.3059 20.7253C30.5012 20.7253 31.4736 19.7528 31.4736 18.5574C31.4736 17.3619 30.5012 16.3894 29.3059 16.3894ZM29.3059 19.28C28.9075 19.28 28.5833 18.9559 28.5833 18.5574C28.5833 18.1589 28.9074 17.8347 29.3059 17.8347C29.7044 17.8347 30.0285 18.1588 30.0285 18.5574C30.0285 18.9559 29.7043 19.28 29.3059 19.28Z" fill="white"/>
<path d="M35.0865 16.3894C33.8912 16.3894 32.9188 17.3619 32.9188 18.5574C32.9188 19.7528 33.8912 20.7253 35.0865 20.7253C36.2818 20.7253 37.2543 19.7528 37.2543 18.5574C37.2543 17.3619 36.2818 16.3894 35.0865 16.3894ZM35.0865 19.28C34.6881 19.28 34.3639 18.9559 34.3639 18.5574C34.3639 18.1589 34.688 17.8347 35.0865 17.8347C35.4849 17.8347 35.8091 18.1588 35.8091 18.5574C35.8091 18.9559 35.4848 19.28 35.0865 19.28Z" fill="white"/>
<path d="M15.7352 12.0449C15.6008 11.9105 15.4144 11.8331 15.2244 11.8331C15.0343 11.8331 14.848 11.9104 14.7135 12.0449C14.5791 12.1793 14.5018 12.365 14.5018 12.5557C14.5018 12.7459 14.579 12.9323 14.7135 13.0666C14.8479 13.2011 15.0343 13.2784 15.2244 13.2784C15.4152 13.2784 15.6008 13.2011 15.7352 13.0666C15.8703 12.9323 15.947 12.7459 15.947 12.5557C15.947 12.3657 15.8703 12.1793 15.7352 12.0449Z" fill="white"/>
</svg>
