<svg width="37" height="37" viewBox="0 0 37 37" fill="none" xmlns="http://www.w3.org/2000/svg">
<path d="M3.94007 3.27559C3.54109 3.27559 3.21748 3.59916 3.21748 3.99826C3.21748 4.39736 3.54102 4.72093 3.94007 4.72093L3.94729 4.72093C4.34627 4.72093 4.66626 4.39736 4.66626 3.99826C4.66626 3.59916 4.33912 3.27559 3.94007 3.27559Z" fill="url(#paint0_linear_55447_351859)"/>
<path d="M7.40484 3.27559C7.00586 3.27559 6.68226 3.59916 6.68226 3.99826C6.68226 4.39736 7.00579 4.72093 7.40484 4.72093L7.412 4.72093C7.81097 4.72093 8.13104 4.39736 8.13104 3.99826C8.13104 3.59916 7.80389 3.27559 7.40484 3.27559Z" fill="url(#paint1_linear_55447_351859)"/>
<path d="M10.8696 3.27559C10.4706 3.27559 10.147 3.59916 10.147 3.99826C10.147 4.39736 10.4706 4.72093 10.8696 4.72093L10.8768 4.72093C11.2758 4.72093 11.5957 4.39736 11.5957 3.99826C11.5957 3.59916 11.2687 3.27559 10.8696 3.27559Z" fill="url(#paint2_linear_55447_351859)"/>
<path d="M28.5928 3.27559L19.8241 3.27559C19.4251 3.27559 19.1015 3.59916 19.1015 3.99826C19.1015 4.39736 19.425 4.72093 19.8241 4.72093L28.5928 4.72093C28.9918 4.72093 29.3154 4.39736 29.3154 3.99826C29.3154 3.59916 28.9918 3.27559 28.5928 3.27559Z" fill="url(#paint3_linear_55447_351859)"/>
<path d="M16.9038 28.6842C16.7693 28.5498 16.5829 28.4725 16.393 28.4725C16.203 28.4725 16.0165 28.5498 15.8822 28.6842C15.7478 28.8187 15.6704 29.0051 15.6704 29.1952C15.6704 29.3852 15.7477 29.5716 15.8822 29.706C16.0165 29.8404 16.2029 29.9178 16.393 29.9178C16.583 29.9178 16.7694 29.8405 16.9038 29.706C17.0382 29.5716 17.1155 29.3852 17.1155 29.1952C17.1155 29.0051 17.0382 28.8187 16.9038 28.6842Z" fill="url(#paint4_linear_55447_351859)"/>
<path d="M33.0981 9.26868L33.0981 3.61326C33.0981 1.62088 31.4774 -4.65713e-10 29.4852 -4.36239e-10L3.61285 0C1.6207 0 0 1.62096 0 3.61333L-3.95278e-10 26.447C-4.23883e-10 28.3609 1.55682 29.9179 3.47041 29.9179L6.18225 29.9179L6.18225 30.0352C6.18225 30.2824 6.00629 30.4969 5.76391 30.5452L3.04079 31.0878C1.52748 31.3895 0.398328 32.6228 0.231105 34.157L0.00845508 36.199C-0.0138027 36.4031 0.0518867 36.607 0.188902 36.7598C0.325918 36.9127 0.521541 37 0.726775 37L16.3927 37C16.598 37 16.7937 36.9126 16.9307 36.7598C17.0677 36.6069 17.1333 36.4029 17.111 36.1988L16.8878 34.1562C16.7202 32.6224 15.5911 31.3894 14.0782 31.0879L11.3546 30.5452C11.1121 30.4969 10.9362 30.2824 10.9362 30.0352L10.9362 29.3566C10.9362 29.3529 10.9357 29.3494 10.9357 29.3457L12.1604 28.6455C12.1739 28.6378 12.187 28.6297 12.2 28.6212C12.8566 28.1874 13.2878 27.4151 13.3535 26.5551C13.355 26.5368 13.3556 26.5184 13.3556 26.5001L13.3556 23.5364C13.7874 23.2551 14.1026 22.7437 14.1026 21.8485L14.1038 20.2247C14.1038 20.1978 14.1023 20.1713 14.0995 20.1451C14.0255 18.715 12.8612 17.6042 11.4211 17.6042L5.28067 17.6042C5.01112 17.6042 4.76093 17.4614 4.59848 17.3416C4.29417 17.1173 3.8962 17.0836 3.55952 17.2537C3.22413 17.4232 3.01579 17.7621 3.01579 18.1383L3.01579 20.4896C3.01579 21.2883 3.29654 22.0224 3.76396 22.5995L3.76396 26.5001C3.76396 26.5184 3.76468 26.5368 3.76605 26.5551C3.82466 27.3223 4.17934 28.021 4.72762 28.4725L3.47041 28.4725C2.35369 28.4726 1.4451 27.564 1.4451 26.447L1.4451 11.2785L9.51456 11.2785C9.91354 11.2785 10.2371 10.9549 10.2371 10.5558C10.2371 10.1567 9.91361 9.83314 9.51456 9.83314L1.44517 9.83314L1.44517 7.80969L31.653 7.80969L31.653 9.24874L19.9233 9.24874C17.546 9.24874 15.6119 11.183 15.6119 13.5605L15.6119 19.6092C15.6119 21.9867 17.546 23.921 19.9233 23.921L20.8265 23.921L20.8265 26.0339C20.8265 26.3262 21.0026 26.5897 21.2725 26.7016C21.3619 26.7386 21.4559 26.7566 21.549 26.7566C21.7371 26.7566 21.9218 26.6831 22.06 26.5449L24.6836 23.9209L31.6531 23.9209L31.6531 26.4469C31.6531 27.5639 30.7445 28.4726 29.6277 28.4726L19.3331 28.4726C18.9342 28.4726 18.6106 28.7961 18.6106 29.1952C18.6106 29.5943 18.9341 29.9179 19.3331 29.9179L29.6276 29.9179C31.5413 29.9179 33.0981 28.3608 33.0981 26.447L33.0981 23.9011C35.284 23.694 37 21.8487 37 19.6093L37 13.5606C37 11.3212 35.284 9.47575 33.0981 9.26868ZM11.4037 32.0287L13.7959 32.5054C14.6875 32.6829 15.3526 33.4094 15.4514 34.3131L15.587 35.5546L1.53254 35.5546L1.66789 34.3136C1.76639 33.4096 2.43167 32.6829 3.32328 32.5053L5.71578 32.0286C6.50037 32.7276 7.50052 33.1103 8.55979 33.1103C9.61906 33.1103 10.6191 32.7275 11.4037 32.0287ZM7.16456 31.2985C7.42797 30.9852 7.59331 30.5908 7.62164 30.1649C7.92046 30.3113 8.24002 30.3858 8.55979 30.3858C8.8792 30.3859 9.19833 30.3116 9.497 30.1654C9.5254 30.5913 9.69096 30.9857 9.95437 31.2989C9.53357 31.5373 9.05662 31.6649 8.55979 31.6649C8.06282 31.6649 7.58565 31.5371 7.16456 31.2985ZM11.9106 26.47C11.8742 26.8638 11.6882 27.218 11.4201 27.4041L8.99252 28.792C8.979 28.7997 8.96585 28.8078 8.95292 28.8164C8.70302 28.9814 8.41649 28.9813 8.16674 28.8164C8.15409 28.8081 8.14116 28.8 8.128 28.7925L5.70725 27.4043C5.43437 27.2154 5.24547 26.8611 5.20905 26.4699L5.20905 23.6393C5.5719 23.774 5.96415 23.8478 6.37325 23.8478L11.9106 23.8478L11.9106 26.47ZM4.46096 20.4898L4.46096 18.8984C4.73101 18.9982 5.00707 19.0496 5.28081 19.0496L11.4212 19.0496C12.0954 19.0496 12.6385 19.5774 12.6576 20.2513C12.6578 20.2593 12.6583 20.2674 12.6588 20.2754L12.6576 21.8481C12.6576 21.8482 12.6576 21.8484 12.6576 21.8486C12.6576 22.2144 12.5829 22.3069 12.5744 22.3163C12.5452 22.3482 12.4186 22.4024 12.1297 22.4024L6.37332 22.4024C5.31875 22.4024 4.46096 21.5445 4.46096 20.4898ZM1.44517 6.36443L1.44517 3.61333C1.44517 2.41792 2.41757 1.4454 3.61285 1.4454L29.4852 1.4454C30.6805 1.4454 31.6529 2.41792 31.6529 3.61333L31.6529 6.3645L1.44517 6.36443ZM35.5548 19.6093C35.5548 21.1898 34.269 22.4757 32.6886 22.4757L24.3842 22.4757C24.1925 22.4757 24.0088 22.5519 23.8732 22.6874L22.2716 24.2893L22.2716 23.1984C22.2716 22.7994 21.9481 22.4757 21.549 22.4757L19.9233 22.4757C18.3429 22.4757 17.0571 21.1898 17.0571 19.6093L17.0571 13.5606C17.0571 11.98 18.3429 10.6941 19.9233 10.6941L32.6886 10.6941C34.269 10.6941 35.5548 11.98 35.5548 13.5606L35.5548 19.6093Z" fill="url(#paint5_linear_55447_351859)"/>
<path d="M20.5254 14.3894C19.3301 14.3894 18.3576 15.3619 18.3576 16.5574C18.3576 17.7528 19.33 18.7253 20.5254 18.7253C21.7207 18.7253 22.6931 17.7528 22.6931 16.5574C22.6931 15.3619 21.7207 14.3894 20.5254 14.3894ZM20.5254 17.28C20.127 17.28 19.8028 16.9559 19.8028 16.5574C19.8028 16.1589 20.1269 15.8347 20.5254 15.8347C20.9239 15.8347 21.248 16.1588 21.248 16.5574C21.248 16.9559 20.9237 17.28 20.5254 17.28Z" fill="url(#paint6_linear_55447_351859)"/>
<path d="M26.3059 14.3894C25.1106 14.3894 24.1382 15.3619 24.1382 16.5574C24.1382 17.7528 25.1106 18.7253 26.3059 18.7253C27.5012 18.7253 28.4736 17.7528 28.4736 16.5574C28.4736 15.3619 27.5012 14.3894 26.3059 14.3894ZM26.3059 17.28C25.9075 17.28 25.5833 16.9559 25.5833 16.5574C25.5833 16.1589 25.9074 15.8347 26.3059 15.8347C26.7044 15.8347 27.0285 16.1588 27.0285 16.5574C27.0285 16.9559 26.7043 17.28 26.3059 17.28Z" fill="url(#paint7_linear_55447_351859)"/>
<path d="M32.0865 14.3894C30.8912 14.3894 29.9188 15.3619 29.9188 16.5574C29.9188 17.7528 30.8912 18.7253 32.0865 18.7253C33.2818 18.7253 34.2543 17.7528 34.2543 16.5574C34.2543 15.3619 33.2818 14.3894 32.0865 14.3894ZM32.0865 17.28C31.6881 17.28 31.3639 16.9559 31.3639 16.5574C31.3639 16.1589 31.688 15.8347 32.0865 15.8347C32.4849 15.8347 32.8091 16.1588 32.8091 16.5574C32.8091 16.9559 32.4848 17.28 32.0865 17.28Z" fill="url(#paint8_linear_55447_351859)"/>
<path d="M12.7352 10.0449C12.6008 9.91047 12.4144 9.83307 12.2244 9.83307C12.0343 9.83307 11.848 9.9104 11.7135 10.0449C11.5791 10.1793 11.5018 10.365 11.5018 10.5557C11.5018 10.7459 11.579 10.9323 11.7135 11.0666C11.8479 11.2011 12.0343 11.2784 12.2244 11.2784C12.4152 11.2784 12.6008 11.2011 12.7352 11.0666C12.8703 10.9323 12.947 10.7459 12.947 10.5557C12.947 10.3657 12.8703 10.1793 12.7352 10.0449Z" fill="url(#paint9_linear_55447_351859)"/>
<defs>
<linearGradient id="paint0_linear_55447_351859" x1="0.0045592" y1="18.5369" x2="36.9966" y2="18.5369" gradientUnits="userSpaceOnUse">
<stop offset="0.15" stop-color="#005EB8"/>
<stop offset="0.51" stop-color="#2093B3"/>
<stop offset="0.8" stop-color="#40C1AC"/>
</linearGradient>
<linearGradient id="paint1_linear_55447_351859" x1="0.0045592" y1="18.5369" x2="36.9966" y2="18.5369" gradientUnits="userSpaceOnUse">
<stop offset="0.15" stop-color="#005EB8"/>
<stop offset="0.51" stop-color="#2093B3"/>
<stop offset="0.8" stop-color="#40C1AC"/>
</linearGradient>
<linearGradient id="paint2_linear_55447_351859" x1="0.0045592" y1="18.5369" x2="36.9966" y2="18.5369" gradientUnits="userSpaceOnUse">
<stop offset="0.15" stop-color="#005EB8"/>
<stop offset="0.51" stop-color="#2093B3"/>
<stop offset="0.8" stop-color="#40C1AC"/>
</linearGradient>
<linearGradient id="paint3_linear_55447_351859" x1="0.0045592" y1="18.5369" x2="36.9966" y2="18.5369" gradientUnits="userSpaceOnUse">
<stop offset="0.15" stop-color="#005EB8"/>
<stop offset="0.51" stop-color="#2093B3"/>
<stop offset="0.8" stop-color="#40C1AC"/>
</linearGradient>
<linearGradient id="paint4_linear_55447_351859" x1="0.0045592" y1="18.5369" x2="36.9966" y2="18.5369" gradientUnits="userSpaceOnUse">
<stop offset="0.15" stop-color="#005EB8"/>
<stop offset="0.51" stop-color="#2093B3"/>
<stop offset="0.8" stop-color="#40C1AC"/>
</linearGradient>
<linearGradient id="paint5_linear_55447_351859" x1="0.0045592" y1="18.5369" x2="36.9966" y2="18.5369" gradientUnits="userSpaceOnUse">
<stop offset="0.15" stop-color="#005EB8"/>
<stop offset="0.51" stop-color="#2093B3"/>
<stop offset="0.8" stop-color="#40C1AC"/>
</linearGradient>
<linearGradient id="paint6_linear_55447_351859" x1="0.0045592" y1="18.5369" x2="36.9966" y2="18.5369" gradientUnits="userSpaceOnUse">
<stop offset="0.15" stop-color="#005EB8"/>
<stop offset="0.51" stop-color="#2093B3"/>
<stop offset="0.8" stop-color="#40C1AC"/>
</linearGradient>
<linearGradient id="paint7_linear_55447_351859" x1="0.0045592" y1="18.5369" x2="36.9966" y2="18.5369" gradientUnits="userSpaceOnUse">
<stop offset="0.15" stop-color="#005EB8"/>
<stop offset="0.51" stop-color="#2093B3"/>
<stop offset="0.8" stop-color="#40C1AC"/>
</linearGradient>
<linearGradient id="paint8_linear_55447_351859" x1="0.0045592" y1="18.5369" x2="36.9966" y2="18.5369" gradientUnits="userSpaceOnUse">
<stop offset="0.15" stop-color="#005EB8"/>
<stop offset="0.51" stop-color="#2093B3"/>
<stop offset="0.8" stop-color="#40C1AC"/>
</linearGradient>
<linearGradient id="paint9_linear_55447_351859" x1="0.0045592" y1="18.5369" x2="36.9966" y2="18.5369" gradientUnits="userSpaceOnUse">
<stop offset="0.15" stop-color="#005EB8"/>
<stop offset="0.51" stop-color="#2093B3"/>
<stop offset="0.8" stop-color="#40C1AC"/>
</linearGradient>
</defs>
</svg>
