<svg width="12" height="13" viewBox="0 0 12 13" fill="none" xmlns="http://www.w3.org/2000/svg">
<path d="M5.91683 0.666016C4.76311 0.666016 3.63529 1.00813 2.67601 1.64911C1.71672 2.29008 0.969046 3.20113 0.527535 4.26703C0.0860236 5.33293 -0.0294959 6.50582 0.195585 7.63738C0.420665 8.76893 0.976236 9.80833 1.79204 10.6241C2.60785 11.4399 3.64725 11.9955 4.77881 12.2206C5.91036 12.4457 7.08325 12.3302 8.14915 11.8886C9.21505 11.4471 10.1261 10.6995 10.7671 9.74018C11.408 8.78089 11.7502 7.65307 11.7502 6.49935C11.7502 5.7333 11.5993 4.97476 11.3061 4.26703C11.013 3.5593 10.5833 2.91623 10.0416 2.37456C9.49995 1.83288 8.85688 1.4032 8.14915 1.11005C7.44142 0.816899 6.68288 0.666016 5.91683 0.666016ZM5.91683 11.166C4.99385 11.166 4.0916 10.8923 3.32417 10.3795C2.55674 9.86676 1.9586 9.13793 1.60539 8.2852C1.25219 7.43248 1.15977 6.49417 1.33983 5.58893C1.5199 4.68368 1.96436 3.85216 2.617 3.19952C3.26965 2.54687 4.10117 2.10242 5.00641 1.92235C5.91166 1.74229 6.84997 1.8347 7.70269 2.18791C8.55541 2.54112 9.28424 3.13926 9.79702 3.90669C10.3098 4.67412 10.5835 5.57637 10.5835 6.49935C10.5835 7.73703 10.0918 8.92401 9.21666 9.79918C8.34149 10.6743 7.15451 11.166 5.91683 11.166ZM5.91683 2.99935C5.76212 2.99935 5.61375 3.06081 5.50435 3.1702C5.39496 3.2796 5.3335 3.42797 5.3335 3.58268V5.91602H4.16683C4.01212 5.91602 3.86375 5.97747 3.75435 6.08687C3.64496 6.19627 3.5835 6.34464 3.5835 6.49935C3.5835 6.65406 3.64496 6.80243 3.75435 6.91183C3.86375 7.02122 4.01212 7.08268 4.16683 7.08268H5.91683C6.07154 7.08268 6.21991 7.02122 6.32931 6.91183C6.43871 6.80243 6.50017 6.65406 6.50017 6.49935V3.58268C6.50017 3.42797 6.43871 3.2796 6.32931 3.1702C6.21991 3.06081 6.07154 2.99935 5.91683 2.99935Z" fill="#40C1AC"/>
</svg>
