<svg width="32" height="28" viewBox="0 0 32 28" fill="none" xmlns="http://www.w3.org/2000/svg">
<path fill-rule="evenodd" clip-rule="evenodd" d="M32 3.82385C30.8242 4.35931 29.5583 4.72141 28.2303 4.8832C29.5864 4.05113 30.627 2.73176 31.1172 1.16008C29.8475 1.93051 28.4445 2.49099 26.9456 2.79146C25.751 1.48365 24.0437 0.666992 22.1541 0.666992C18.531 0.666992 15.5915 3.68131 15.5915 7.39866C15.5915 7.92641 15.6478 8.43876 15.7605 8.93183C10.3042 8.65062 5.46763 5.97336 2.22762 1.89583C1.66226 2.89355 1.33919 4.05113 1.33919 5.28382C1.33919 7.61824 2.4981 9.67915 4.25991 10.8868C3.18554 10.8541 2.17127 10.5478 1.28473 10.047L1.28473 10.1299C1.28473 13.3926 3.54804 16.1142 6.55326 16.7305C6.00293 16.8885 5.42255 16.9675 4.82338 16.9675C4.40077 16.9675 3.98755 16.927 3.58748 16.848C4.42331 19.5215 6.84627 21.4687 9.72001 21.5207C7.47361 23.3274 4.64119 24.4041 1.56647 24.4041C1.0368 24.4041 0.512766 24.3733 -1.95196e-07 24.3116C2.90568 26.2185 6.35792 27.3337 10.0637 27.3337C22.141 27.3337 28.7431 17.0772 28.7431 8.18065C28.7431 7.88789 28.7374 7.59512 28.7262 7.30814C30.009 6.35858 31.1229 5.17404 32 3.82385Z" fill="#005EB8"/>
</svg>
