<svg width="32" height="32" viewBox="0 0 32 32" fill="none" xmlns="http://www.w3.org/2000/svg">
<rect width="32" height="32" rx="5" fill="#40C1AC"/>
<path d="M16.3 16.22C16.8336 15.7581 17.2616 15.1869 17.5549 14.545C17.8482 13.9032 18 13.2057 18 12.5C18 11.1739 17.4732 9.90215 16.5355 8.96447C15.5979 8.02678 14.3261 7.5 13 7.5C11.6739 7.5 10.4021 8.02678 9.46447 8.96447C8.52678 9.90215 8 11.1739 8 12.5C7.99999 13.2057 8.1518 13.9032 8.44513 14.545C8.73845 15.1869 9.16642 15.7581 9.7 16.22C8.30014 16.8539 7.11247 17.8775 6.27898 19.1685C5.4455 20.4596 5.00147 21.9633 5 23.5C5 23.7652 5.10536 24.0196 5.29289 24.2071C5.48043 24.3946 5.73478 24.5 6 24.5C6.26522 24.5 6.51957 24.3946 6.70711 24.2071C6.89464 24.0196 7 23.7652 7 23.5C7 21.9087 7.63214 20.3826 8.75736 19.2574C9.88258 18.1321 11.4087 17.5 13 17.5C14.5913 17.5 16.1174 18.1321 17.2426 19.2574C18.3679 20.3826 19 21.9087 19 23.5C19 23.7652 19.1054 24.0196 19.2929 24.2071C19.4804 24.3946 19.7348 24.5 20 24.5C20.2652 24.5 20.5196 24.3946 20.7071 24.2071C20.8946 24.0196 21 23.7652 21 23.5C20.9985 21.9633 20.5545 20.4596 19.721 19.1685C18.8875 17.8775 17.6999 16.8539 16.3 16.22ZM13 15.5C12.4067 15.5 11.8266 15.3241 11.3333 14.9944C10.8399 14.6648 10.4554 14.1962 10.2284 13.6481C10.0013 13.0999 9.94189 12.4967 10.0576 11.9147C10.1734 11.3328 10.4591 10.7982 10.8787 10.3787C11.2982 9.95912 11.8328 9.6734 12.4147 9.55764C12.9967 9.44189 13.5999 9.5013 14.1481 9.72836C14.6962 9.95542 15.1648 10.3399 15.4944 10.8333C15.8241 11.3266 16 11.9067 16 12.5C16 13.2956 15.6839 14.0587 15.1213 14.6213C14.5587 15.1839 13.7956 15.5 13 15.5ZM22.74 15.82C23.38 15.0993 23.798 14.2091 23.9438 13.2563C24.0896 12.3036 23.9569 11.3291 23.5618 10.45C23.1666 9.57093 22.5258 8.8248 21.7165 8.30142C20.9071 7.77805 19.9638 7.49974 19 7.5C18.7348 7.5 18.4804 7.60536 18.2929 7.79289C18.1054 7.98043 18 8.23478 18 8.5C18 8.76522 18.1054 9.01957 18.2929 9.20711C18.4804 9.39464 18.7348 9.5 19 9.5C19.7956 9.5 20.5587 9.81607 21.1213 10.3787C21.6839 10.9413 22 11.7044 22 12.5C21.9986 13.0252 21.8593 13.5409 21.5961 13.9954C21.3328 14.4499 20.9549 14.8274 20.5 15.09C20.3517 15.1755 20.2279 15.2977 20.1404 15.4447C20.0528 15.5918 20.0045 15.7589 20 15.93C19.9958 16.0998 20.0349 16.2678 20.1137 16.4183C20.1924 16.5687 20.3081 16.6967 20.45 16.79L20.84 17.05L20.97 17.12C22.1754 17.6917 23.1923 18.596 23.901 19.7263C24.6096 20.8566 24.9805 22.1659 24.97 23.5C24.97 23.7652 25.0754 24.0196 25.2629 24.2071C25.4504 24.3946 25.7048 24.5 25.97 24.5C26.2352 24.5 26.4896 24.3946 26.6771 24.2071C26.8646 24.0196 26.97 23.7652 26.97 23.5C26.9782 21.9654 26.5938 20.4543 25.8535 19.1101C25.1131 17.7659 24.0413 16.6333 22.74 15.82Z" fill="white"/>
</svg>
