<svg width="41" height="40" viewBox="0 0 41 40" fill="none" xmlns="http://www.w3.org/2000/svg">
<g clip-path="url(#clip0_55772_1692)">
<path d="M33.0828 7.18203C33.0828 5.44383 31.6687 4.02969 29.9305 4.02969L23.497 4.02969L23.497 0.78125C23.497 0.349766 23.1472 -4.21322e-09 22.7157 -4.10064e-09L17.3668 -2.70497e-09C16.9353 -2.59238e-09 16.5855 0.349766 16.5855 0.78125L16.5855 4.02969L10.1516 4.02969C8.41375 4.02969 7 5.44383 7 7.18203L7 36.8477C7 38.5859 8.41383 40 10.1516 40L29.9305 40C31.6687 40 33.0828 38.5859 33.0828 36.8477L33.0828 25.5212C33.0828 25.0898 32.733 24.74 32.3016 24.74C31.8701 24.74 31.5203 25.0898 31.5203 25.5212L31.5203 36.8477C31.5203 37.7243 30.8071 38.4375 29.9305 38.4375L10.1516 38.4375C9.27531 38.4375 8.5625 37.7243 8.5625 36.8477L8.5625 7.18203C8.5625 6.30539 9.27539 5.59219 10.1516 5.59219L16.5855 5.59219L16.5855 8.05938L15.7952 8.05938C15.3638 8.05938 15.014 8.40914 15.014 8.84063C15.014 9.27211 15.3638 9.62188 15.7952 9.62188L24.2873 9.62188C24.7188 9.62188 25.0686 9.27211 25.0686 8.84063C25.0686 8.40914 24.7188 8.05938 24.2873 8.05938L23.497 8.05938L23.497 5.59219L29.9305 5.59219C30.8072 5.59219 31.5204 6.30539 31.5204 7.18203L31.5204 18.6473C31.5204 19.0788 31.8702 19.4286 32.3016 19.4286C32.7331 19.4286 33.0829 19.0788 33.0829 18.6473L33.0829 7.18203L33.0828 7.18203ZM21.9345 1.5625L21.9345 4.80867C21.9345 4.80945 21.9344 4.81016 21.9344 4.81094L21.9344 8.05938L18.1484 8.05938L18.1484 4.81094C18.1484 4.80836 18.148 4.80594 18.148 4.80336L18.148 1.5625L21.9345 1.5625Z" fill="white"/>
<path d="M27.5059 26.1421C27.814 25.7707 27.9862 25.2971 27.9862 24.8142L27.9862 13.7138C27.9862 12.5667 27.053 11.6335 25.906 11.6335L14.1764 11.6335C13.0293 11.6335 12.0962 12.5667 12.0962 13.7138L12.0962 24.8142C12.0962 25.9466 13.0449 26.8945 14.1764 26.8945L25.9059 26.8945C26.5199 26.8945 27.1136 26.6153 27.5059 26.1421ZM26.4236 13.7138L26.4236 22.5771C25.9874 22.1333 25.4528 21.7828 24.8492 21.5628L22.8768 20.8446C22.7872 20.8121 22.7237 20.7324 22.711 20.6363L22.6204 19.9539C23.4717 19.2249 24.0128 18.1434 24.0128 16.9374L24.0128 15.6053C24.0128 14.7 23.7077 13.8649 23.1957 13.1961L25.9058 13.1961C26.1913 13.196 26.4236 13.4282 26.4236 13.7138ZM26.0695 25.3051C26.0186 25.322 25.9596 25.332 25.9061 25.332L14.1764 25.332C14.1192 25.332 14.0606 25.3216 14.0066 25.3028L14.0371 25.1185C14.1948 24.1628 14.8584 23.3628 15.7688 23.0308L17.738 22.3132C18.3785 22.081 18.8319 21.5169 18.9211 20.8418L18.9329 20.7525C19.651 20.9606 20.4322 20.9605 21.1502 20.7522L21.162 20.8413C21.2512 21.5167 21.7038 22.0807 22.3426 22.3129L24.3142 23.0307C25.2248 23.3628 25.8884 24.1627 26.0461 25.1189L26.0765 25.3024C26.0742 25.3033 26.0719 25.3043 26.0695 25.3051ZM22.4504 15.6053L22.4504 16.9373C22.4504 18.2395 21.3658 19.3321 20.0668 19.3459C18.7486 19.3591 17.6319 18.26 17.6319 16.9373L17.6319 15.6053C17.6319 14.2768 18.7127 13.196 20.0412 13.196C21.3697 13.196 22.4504 14.2768 22.4504 15.6053ZM14.1764 13.196L16.8865 13.196C16.3746 13.8648 16.0694 14.7 16.0694 15.6053L16.0694 16.9373C16.0694 18.1439 16.6109 19.2257 17.4628 19.9546L17.3722 20.6367C17.3596 20.7321 17.2957 20.8116 17.2042 20.8448L15.2338 21.5628C14.6299 21.7829 14.0949 22.1338 13.6586 22.5781L13.6586 13.7138C13.6586 13.4282 13.8909 13.196 14.1764 13.196Z" fill="white"/>
<path d="M23.6109 31.2531C24.0424 31.2531 24.3921 30.9033 24.3921 30.4718C24.3921 30.0403 24.0424 29.6906 23.6109 29.6906L16.3149 29.6906C15.8835 29.6906 15.5337 30.0403 15.5337 30.4718C15.5337 30.9033 15.8835 31.2531 16.3149 31.2531L23.6109 31.2531Z" fill="white"/>
<path d="M13.1899 34.5242C13.1899 34.9557 13.5397 35.3054 13.9712 35.3054L26.1109 35.3054C26.5424 35.3054 26.8921 34.9557 26.8921 34.5242C26.8921 34.0927 26.5424 33.7429 26.1109 33.7429L13.9712 33.7429C13.5397 33.7429 13.1899 34.0927 13.1899 34.5242Z" fill="white"/>
<path d="M32.9509 21.5934C32.5501 20.9811 31.5787 21.2516 31.5229 21.9697C31.4688 22.6669 32.3343 23.0744 32.8402 22.5926C33.112 22.3336 33.1591 21.9058 32.9509 21.5934Z" fill="white"/>
</g>
<defs>
<clipPath id="clip0_55772_1692">
<rect width="40" height="40" fill="white" transform="translate(0.388672)"/>
</clipPath>
</defs>
</svg>
