<svg width="27" height="40" viewBox="0 0 27 40" fill="none" xmlns="http://www.w3.org/2000/svg">
<path d="M26.6922 7.18203C26.6922 5.44383 25.278 4.02969 23.5398 4.02969L17.1063 4.02969L17.1063 0.78125C17.1063 0.349766 16.7566 -2.389e-10 16.3251 -2.32516e-10L10.9762 -1.53378e-10C10.5447 -1.46995e-10 10.1949 0.349766 10.1949 0.78125L10.1949 4.02969L3.76094 4.02969C2.02313 4.02969 0.609375 5.44383 0.609375 7.18203L0.609375 36.8477C0.609375 38.5859 2.0232 40 3.76094 40L23.5398 40C25.278 40 26.6922 38.5859 26.6922 36.8477L26.6922 25.5212C26.6922 25.0898 26.3424 24.74 25.9109 24.74C25.4795 24.74 25.1297 25.0898 25.1297 25.5212L25.1297 36.8477C25.1297 37.7243 24.4165 38.4375 23.5398 38.4375L3.76094 38.4375C2.88469 38.4375 2.17188 37.7243 2.17188 36.8477L2.17188 7.18203C2.17188 6.30539 2.88477 5.59219 3.76094 5.59219L10.1949 5.59219L10.1949 8.05938L9.40461 8.05938C8.97313 8.05938 8.62336 8.40914 8.62336 8.84063C8.62336 9.27211 8.97313 9.62188 9.40461 9.62188L17.8967 9.62188C18.3282 9.62188 18.678 9.27211 18.678 8.84063C18.678 8.40914 18.3282 8.05938 17.8967 8.05938L17.1064 8.05938L17.1064 5.59219L23.5399 5.59219C24.4166 5.59219 25.1298 6.30539 25.1298 7.18203L25.1298 18.6473C25.1298 19.0788 25.4795 19.4286 25.911 19.4286C26.3425 19.4286 26.6923 19.0788 26.6923 18.6473L26.6923 7.18203L26.6922 7.18203ZM15.5438 1.5625L15.5438 4.80867C15.5438 4.80945 15.5438 4.81016 15.5438 4.81094L15.5438 8.05938L11.7578 8.05938L11.7578 4.81094C11.7578 4.80836 11.7574 4.80594 11.7574 4.80336L11.7574 1.5625L15.5438 1.5625Z" fill="url(#paint0_linear_55447_351207)"/>
<path d="M21.1167 26.1424C21.4248 25.771 21.597 25.2973 21.597 24.8145L21.597 13.714C21.597 12.567 20.6638 11.6338 19.5168 11.6338L7.78727 11.6338C6.64016 11.6338 5.70703 12.567 5.70703 13.714L5.70703 24.8145C5.70703 25.9468 6.65578 26.8947 7.78727 26.8947L19.5167 26.8947C20.1307 26.8947 20.7245 26.6156 21.1167 26.1424ZM20.0345 13.714L20.0345 22.5774C19.5983 22.1336 19.0637 21.7831 18.46 21.563L16.4877 20.8449C16.398 20.8123 16.3345 20.7326 16.3218 20.6365L16.2313 19.9541C17.0826 19.2251 17.6237 18.1436 17.6237 16.9376L17.6237 15.6056C17.6237 14.7002 17.3185 13.8651 16.8066 13.1964L19.5166 13.1964C19.8022 13.1963 20.0345 13.4285 20.0345 13.714ZM19.6803 25.3054C19.6295 25.3222 19.5705 25.3322 19.517 25.3322L7.78727 25.3322C7.73 25.3322 7.67141 25.3218 7.61742 25.3031L7.64789 25.1188C7.80563 24.163 8.46922 23.363 9.37969 23.0311L11.3488 22.3135C11.9894 22.0812 12.4427 21.5171 12.532 20.8421L12.5438 20.7528C13.2618 20.9608 14.043 20.9607 14.761 20.7525L14.7728 20.8415C14.862 21.517 15.3146 22.081 15.9534 22.3132L17.925 23.031C18.8356 23.363 19.4992 24.1629 19.657 25.1192L19.6873 25.3026C19.6851 25.3036 19.6827 25.3046 19.6803 25.3054ZM16.0613 15.6055L16.0613 16.9375C16.0613 18.2397 14.9766 19.3324 13.6777 19.3461C12.3595 19.3593 11.2427 18.2602 11.2427 16.9375L11.2427 15.6055C11.2427 14.2771 12.3235 13.1963 13.652 13.1963C14.9805 13.1963 16.0613 14.2771 16.0613 15.6055ZM7.78727 13.1963L10.4973 13.1963C9.98539 13.865 9.68024 14.7002 9.68024 15.6055L9.68024 16.9375C9.68024 18.1441 10.2217 19.2259 11.0736 19.9549L10.983 20.6369C10.9705 20.7323 10.9066 20.8118 10.8151 20.845L8.84469 21.563C8.2407 21.7832 7.70578 22.134 7.26945 22.5783L7.26945 13.714C7.26945 13.4285 7.50172 13.1963 7.78727 13.1963Z" fill="url(#paint1_linear_55447_351207)"/>
<path d="M17.2217 31.2529C17.6532 31.2529 18.003 30.9032 18.003 30.4717C18.003 30.0402 17.6532 29.6904 17.2217 29.6904L9.92578 29.6904C9.4943 29.6904 9.14453 30.0402 9.14453 30.4717C9.14453 30.9032 9.4943 31.2529 9.92578 31.2529L17.2217 31.2529Z" fill="url(#paint2_linear_55447_351207)"/>
<path d="M6.80078 34.5244C6.80078 34.9559 7.15055 35.3057 7.58203 35.3057L19.7217 35.3057C20.1532 35.3057 20.503 34.9559 20.503 34.5244C20.503 34.0929 20.1532 33.7432 19.7217 33.7432L7.58203 33.7432C7.15055 33.7432 6.80078 34.0929 6.80078 34.5244Z" fill="url(#paint3_linear_55447_351207)"/>
<path d="M26.5593 21.5934C26.1585 20.9811 25.1871 21.2516 25.1313 21.9697C25.0772 22.6669 25.9427 23.0744 26.4486 22.5926C26.7204 22.3336 26.7675 21.9058 26.5593 21.5934Z" fill="url(#paint4_linear_55447_351207)"/>
<defs>
<linearGradient id="paint0_linear_55447_351207" x1="0.612589" y1="20.0399" x2="26.6899" y2="20.0399" gradientUnits="userSpaceOnUse">
<stop offset="0.15" stop-color="#005EB8"/>
<stop offset="0.51" stop-color="#2093B3"/>
<stop offset="0.8" stop-color="#40C1AC"/>
</linearGradient>
<linearGradient id="paint1_linear_55447_351207" x1="5.70899" y1="19.2795" x2="21.5956" y2="19.2795" gradientUnits="userSpaceOnUse">
<stop offset="0.15" stop-color="#005EB8"/>
<stop offset="0.51" stop-color="#2093B3"/>
<stop offset="0.8" stop-color="#40C1AC"/>
</linearGradient>
<linearGradient id="paint2_linear_55447_351207" x1="9.14562" y1="30.4732" x2="18.0022" y2="30.4732" gradientUnits="userSpaceOnUse">
<stop offset="0.15" stop-color="#005EB8"/>
<stop offset="0.51" stop-color="#2093B3"/>
<stop offset="0.8" stop-color="#40C1AC"/>
</linearGradient>
<linearGradient id="paint3_linear_55447_351207" x1="6.80247" y1="34.526" x2="20.5017" y2="34.526" gradientUnits="userSpaceOnUse">
<stop offset="0.15" stop-color="#005EB8"/>
<stop offset="0.51" stop-color="#2093B3"/>
<stop offset="0.8" stop-color="#40C1AC"/>
</linearGradient>
<linearGradient id="paint4_linear_55447_351207" x1="25.1291" y1="22.0297" x2="26.6886" y2="22.0297" gradientUnits="userSpaceOnUse">
<stop offset="0.15" stop-color="#005EB8"/>
<stop offset="0.51" stop-color="#2093B3"/>
<stop offset="0.8" stop-color="#40C1AC"/>
</linearGradient>
</defs>
</svg>
