<svg width="41" height="40" viewBox="0 0 41 40" fill="none" xmlns="http://www.w3.org/2000/svg">
<g clip-path="url(#clip0_55709_2258)">
<path d="M33.0828 7.18203C33.0828 5.44383 31.6687 4.02969 29.9305 4.02969L23.497 4.02969L23.497 0.78125C23.497 0.349766 23.1472 -2.389e-10 22.7157 -2.32516e-10L17.3668 -1.53378e-10C16.9353 -1.46995e-10 16.5855 0.349766 16.5855 0.78125L16.5855 4.02969L10.1516 4.02969C8.41375 4.02969 7 5.44383 7 7.18203L7 36.8477C7 38.5859 8.41383 40 10.1516 40L29.9305 40C31.6687 40 33.0828 38.5859 33.0828 36.8477L33.0828 25.5212C33.0828 25.0898 32.733 24.74 32.3016 24.74C31.8701 24.74 31.5203 25.0898 31.5203 25.5212L31.5203 36.8477C31.5203 37.7243 30.8071 38.4375 29.9305 38.4375L10.1516 38.4375C9.27531 38.4375 8.5625 37.7243 8.5625 36.8477L8.5625 7.18203C8.5625 6.30539 9.27539 5.59219 10.1516 5.59219L16.5855 5.59219L16.5855 8.05938L15.7952 8.05938C15.3638 8.05938 15.014 8.40914 15.014 8.84063C15.014 9.27211 15.3638 9.62188 15.7952 9.62188L24.2873 9.62188C24.7188 9.62188 25.0686 9.27211 25.0686 8.84063C25.0686 8.40914 24.7188 8.05938 24.2873 8.05938L23.497 8.05938L23.497 5.59219L29.9305 5.59219C30.8072 5.59219 31.5204 6.30539 31.5204 7.18203L31.5204 18.6473C31.5204 19.0788 31.8702 19.4286 32.3016 19.4286C32.7331 19.4286 33.0829 19.0788 33.0829 18.6473L33.0829 7.18203L33.0828 7.18203ZM21.9345 1.5625L21.9345 4.80867C21.9345 4.80945 21.9344 4.81016 21.9344 4.81094L21.9344 8.05938L18.1484 8.05938L18.1484 4.81094C18.1484 4.80836 18.148 4.80594 18.148 4.80336L18.148 1.5625L21.9345 1.5625Z" fill="url(#paint0_linear_55709_2258)"/>
<path d="M27.5061 26.1421C27.8142 25.7707 27.9864 25.2971 27.9864 24.8142L27.9864 13.7138C27.9864 12.5667 27.0532 11.6335 25.9062 11.6335L14.1767 11.6335C13.0296 11.6335 12.0964 12.5667 12.0964 13.7138L12.0964 24.8142C12.0964 25.9466 13.0452 26.8945 14.1767 26.8945L25.9061 26.8945C26.5201 26.8945 27.1139 26.6153 27.5061 26.1421ZM26.4239 13.7138L26.4239 22.5771C25.9877 22.1333 25.4531 21.7828 24.8494 21.5628L22.8771 20.8446C22.7875 20.8121 22.7239 20.7324 22.7112 20.6363L22.6207 19.9539C23.472 19.2249 24.0131 18.1434 24.0131 16.9374L24.0131 15.6053C24.0131 14.7 23.7079 13.8649 23.196 13.1961L25.906 13.1961C26.1916 13.196 26.4239 13.4282 26.4239 13.7138ZM26.0697 25.3051C26.0189 25.322 25.9599 25.332 25.9064 25.332L14.1767 25.332C14.1194 25.332 14.0608 25.3216 14.0068 25.3028L14.0373 25.1185C14.195 24.1628 14.8586 23.3628 15.7691 23.0308L17.7382 22.3132C18.3788 22.081 18.8321 21.5169 18.9214 20.8418L18.9332 20.7525C19.6512 20.9606 20.4325 20.9605 21.1504 20.7522L21.1622 20.8413C21.2514 21.5167 21.704 22.0807 22.3428 22.3129L24.3144 23.0307C25.225 23.3628 25.8886 24.1627 26.0464 25.1189L26.0767 25.3024C26.0745 25.3033 26.0721 25.3043 26.0697 25.3051ZM22.4507 15.6053L22.4507 16.9373C22.4507 18.2395 21.366 19.3321 20.0671 19.3459C18.7489 19.3591 17.6321 18.26 17.6321 16.9373L17.6321 15.6053C17.6321 14.2768 18.7129 13.196 20.0414 13.196C21.37 13.196 22.4507 14.2768 22.4507 15.6053ZM14.1767 13.196L16.8867 13.196C16.3748 13.8648 16.0696 14.7 16.0696 15.6053L16.0696 16.9373C16.0696 18.1439 16.6111 19.2257 17.463 19.9546L17.3725 20.6367C17.3599 20.7321 17.296 20.8116 17.2045 20.8448L15.2341 21.5628C14.6301 21.7829 14.0952 22.1338 13.6589 22.5781L13.6589 13.7138C13.6589 13.4282 13.8911 13.196 14.1767 13.196Z" fill="url(#paint1_linear_55709_2258)"/>
<path d="M23.6111 31.2529C24.0426 31.2529 24.3924 30.9032 24.3924 30.4717C24.3924 30.0402 24.0426 29.6904 23.6111 29.6904L16.3152 29.6904C15.8837 29.6904 15.5339 30.0402 15.5339 30.4717C15.5339 30.9032 15.8837 31.2529 16.3152 31.2529L23.6111 31.2529Z" fill="url(#paint2_linear_55709_2258)"/>
<path d="M13.1902 34.5242C13.1902 34.9557 13.54 35.3054 13.9714 35.3054L26.1111 35.3054C26.5426 35.3054 26.8924 34.9557 26.8924 34.5242C26.8924 34.0927 26.5426 33.7429 26.1111 33.7429L13.9714 33.7429C13.54 33.7429 13.1902 34.0927 13.1902 34.5242Z" fill="url(#paint3_linear_55709_2258)"/>
<path d="M32.9507 21.5934C32.5499 20.9811 31.5785 21.2516 31.5227 21.9697C31.4685 22.6669 32.3341 23.0744 32.84 22.5926C33.1117 22.3336 33.1589 21.9058 32.9507 21.5934Z" fill="url(#paint4_linear_55709_2258)"/>
</g>
<defs>
<linearGradient id="paint0_linear_55709_2258" x1="7.00321" y1="20.0399" x2="33.0805" y2="20.0399" gradientUnits="userSpaceOnUse">
<stop offset="0.15" stop-color="#005EB8"/>
<stop offset="0.51" stop-color="#2093B3"/>
<stop offset="0.8" stop-color="#40C1AC"/>
</linearGradient>
<linearGradient id="paint1_linear_55709_2258" x1="12.0984" y1="19.2792" x2="27.985" y2="19.2792" gradientUnits="userSpaceOnUse">
<stop offset="0.15" stop-color="#005EB8"/>
<stop offset="0.51" stop-color="#2093B3"/>
<stop offset="0.8" stop-color="#40C1AC"/>
</linearGradient>
<linearGradient id="paint2_linear_55709_2258" x1="15.535" y1="30.4732" x2="24.3916" y2="30.4732" gradientUnits="userSpaceOnUse">
<stop offset="0.15" stop-color="#005EB8"/>
<stop offset="0.51" stop-color="#2093B3"/>
<stop offset="0.8" stop-color="#40C1AC"/>
</linearGradient>
<linearGradient id="paint3_linear_55709_2258" x1="13.1919" y1="34.5257" x2="26.8911" y2="34.5257" gradientUnits="userSpaceOnUse">
<stop offset="0.15" stop-color="#005EB8"/>
<stop offset="0.51" stop-color="#2093B3"/>
<stop offset="0.8" stop-color="#40C1AC"/>
</linearGradient>
<linearGradient id="paint4_linear_55709_2258" x1="31.5205" y1="22.0297" x2="33.08" y2="22.0297" gradientUnits="userSpaceOnUse">
<stop offset="0.15" stop-color="#005EB8"/>
<stop offset="0.51" stop-color="#2093B3"/>
<stop offset="0.8" stop-color="#40C1AC"/>
</linearGradient>
<clipPath id="clip0_55709_2258">
<rect width="40" height="40" fill="white" transform="translate(0.388916)"/>
</clipPath>
</defs>
</svg>
