<svg width="20" height="20" viewBox="0 0 20 20" fill="none" xmlns="http://www.w3.org/2000/svg">
<path fill-rule="evenodd" clip-rule="evenodd" d="M8.13499 12.4585L8.13439 7.13212L13.2203 9.80448L8.13499 12.4585ZM19.302 6.20915C19.302 6.20915 19.1179 4.90289 18.5538 4.32767C17.8379 3.57235 17.0356 3.56878 16.6679 3.52495C14.0338 3.33301 10.0826 3.33301 10.0826 3.33301H10.0744C10.0744 3.33301 6.12322 3.33301 3.4891 3.52495C3.12087 3.56878 2.3191 3.57235 1.60263 4.32767C1.03851 4.90289 0.854982 6.20915 0.854982 6.20915C0.854982 6.20915 0.666748 7.74349 0.666748 9.27723V10.7156C0.666748 12.2499 0.854982 13.7837 0.854982 13.7837C0.854982 13.7837 1.03851 15.0899 1.60263 15.6652C2.3191 16.4205 3.25969 16.3968 3.67851 16.4756C5.18439 16.6213 10.0785 16.6663 10.0785 16.6663C10.0785 16.6663 14.0338 16.6604 16.6679 16.4685C17.0356 16.424 17.8379 16.4205 18.5538 15.6652C19.1179 15.0899 19.302 13.7837 19.302 13.7837C19.302 13.7837 19.4903 12.2499 19.4903 10.7156V9.27723C19.4903 7.74349 19.302 6.20915 19.302 6.20915Z" fill="#005EB8"/>
</svg>
