<svg width="60" height="60" viewBox="0 0 60 60" fill="none" xmlns="http://www.w3.org/2000/svg">
<g filter="url(#filter0_d_55447_351688)">
<rect x="10" y="3" width="40" height="40" rx="20" fill="white"/>
<path fill-rule="evenodd" clip-rule="evenodd" d="M28.1362 25.4585L28.1356 20.1321L33.2215 22.8045L28.1362 25.4585ZM39.3033 19.2092C39.3033 19.2092 39.1191 17.9029 38.555 17.3277C37.8391 16.5723 37.0368 16.5688 36.6691 16.5249C34.035 16.333 30.0838 16.333 30.0838 16.333H30.0756C30.0756 16.333 26.1244 16.333 23.4903 16.5249C23.1221 16.5688 22.3203 16.5723 21.6039 17.3277C21.0397 17.9029 20.8562 19.2092 20.8562 19.2092C20.8562 19.2092 20.668 20.7435 20.668 22.2772V23.7156C20.668 25.2499 20.8562 26.7837 20.8562 26.7837C20.8562 26.7837 21.0397 28.0899 21.6039 28.6652C22.3203 29.4205 23.2609 29.3968 23.6797 29.4756C25.1856 29.6213 30.0797 29.6663 30.0797 29.6663C30.0797 29.6663 34.035 29.6604 36.6691 29.4685C37.0368 29.424 37.8391 29.4205 38.555 28.6652C39.1191 28.0899 39.3033 26.7837 39.3033 26.7837C39.3033 26.7837 39.4915 25.2499 39.4915 23.7156V22.2772C39.4915 20.7435 39.3033 19.2092 39.3033 19.2092Z" fill="#005EB8"/>
</g>
<defs>
<filter id="filter0_d_55447_351688" x="0" y="0" width="60" height="60" filterUnits="userSpaceOnUse" color-interpolation-filters="sRGB">
<feFlood flood-opacity="0" result="BackgroundImageFix"/>
<feColorMatrix in="SourceAlpha" type="matrix" values="0 0 0 0 0 0 0 0 0 0 0 0 0 0 0 0 0 0 127 0" result="hardAlpha"/>
<feOffset dy="7"/>
<feGaussianBlur stdDeviation="5"/>
<feColorMatrix type="matrix" values="0 0 0 0 0.160784 0 0 0 0 0.14902 0 0 0 0 0.196078 0 0 0 0.03 0"/>
<feBlend mode="normal" in2="BackgroundImageFix" result="effect1_dropShadow_55447_351688"/>
<feBlend mode="normal" in="SourceGraphic" in2="effect1_dropShadow_55447_351688" result="shape"/>
</filter>
</defs>
</svg>
