<svg width="60" height="60" viewBox="0 0 60 60" fill="none" xmlns="http://www.w3.org/2000/svg">
<rect width="60" height="60" fill="#E5E5E5"/>
<g clip-path="url(#clip0_4735_217418)">
<rect x="-157" y="-1974" width="1570" height="2049" rx="10" fill="#F4F6F9"/>
<rect width="1570" height="104" transform="translate(-157 -29)" fill="#F4F6F9"/>
<g filter="url(#filter0_d_4735_217418)">
<rect x="-35" y="3" width="40" height="40" rx="20" fill="white"/>
</g>
<g filter="url(#filter1_d_4735_217418)">
<rect x="10" y="3" width="40" height="40" rx="20" fill="white"/>
<path fill-rule="evenodd" clip-rule="evenodd" d="M28.135 25.4585L28.1344 20.1321L33.2203 22.8045L28.135 25.4585ZM39.302 19.2092C39.302 19.2092 39.1179 17.9029 38.5538 17.3277C37.8379 16.5723 37.0356 16.5688 36.6679 16.5249C34.0338 16.333 30.0826 16.333 30.0826 16.333H30.0744C30.0744 16.333 26.1232 16.333 23.4891 16.5249C23.1209 16.5688 22.3191 16.5723 21.6026 17.3277C21.0385 17.9029 20.855 19.2092 20.855 19.2092C20.855 19.2092 20.6667 20.7435 20.6667 22.2772V23.7156C20.6667 25.2499 20.855 26.7837 20.855 26.7837C20.855 26.7837 21.0385 28.0899 21.6026 28.6652C22.3191 29.4205 23.2597 29.3968 23.6785 29.4756C25.1844 29.6213 30.0785 29.6663 30.0785 29.6663C30.0785 29.6663 34.0338 29.6604 36.6679 29.4685C37.0356 29.424 37.8379 29.4205 38.5538 28.6652C39.1179 28.0899 39.302 26.7837 39.302 26.7837C39.302 26.7837 39.4903 25.2499 39.4903 23.7156V22.2772C39.4903 20.7435 39.302 19.2092 39.302 19.2092Z" fill="#005EB8"/>
</g>
</g>
<defs>
<filter id="filter0_d_4735_217418" x="-45" y="0" width="60" height="60" filterUnits="userSpaceOnUse" color-interpolation-filters="sRGB">
<feFlood flood-opacity="0" result="BackgroundImageFix"/>
<feColorMatrix in="SourceAlpha" type="matrix" values="0 0 0 0 0 0 0 0 0 0 0 0 0 0 0 0 0 0 127 0" result="hardAlpha"/>
<feOffset dy="7"/>
<feGaussianBlur stdDeviation="5"/>
<feColorMatrix type="matrix" values="0 0 0 0 0.160784 0 0 0 0 0.14902 0 0 0 0 0.196078 0 0 0 0.03 0"/>
<feBlend mode="normal" in2="BackgroundImageFix" result="effect1_dropShadow_4735_217418"/>
<feBlend mode="normal" in="SourceGraphic" in2="effect1_dropShadow_4735_217418" result="shape"/>
</filter>
<filter id="filter1_d_4735_217418" x="0" y="0" width="60" height="60" filterUnits="userSpaceOnUse" color-interpolation-filters="sRGB">
<feFlood flood-opacity="0" result="BackgroundImageFix"/>
<feColorMatrix in="SourceAlpha" type="matrix" values="0 0 0 0 0 0 0 0 0 0 0 0 0 0 0 0 0 0 127 0" result="hardAlpha"/>
<feOffset dy="7"/>
<feGaussianBlur stdDeviation="5"/>
<feColorMatrix type="matrix" values="0 0 0 0 0.160784 0 0 0 0 0.14902 0 0 0 0 0.196078 0 0 0 0.03 0"/>
<feBlend mode="normal" in2="BackgroundImageFix" result="effect1_dropShadow_4735_217418"/>
<feBlend mode="normal" in="SourceGraphic" in2="effect1_dropShadow_4735_217418" result="shape"/>
</filter>
<clipPath id="clip0_4735_217418">
<rect x="-157" y="-1974" width="1570" height="2049" rx="10" fill="white"/>
</clipPath>
</defs>
</svg>
